<svg width="550" height="537" viewBox="0 0 550 537" fill="none" xmlns="http://www.w3.org/2000/svg">
<g clip-path="url(#clip0_156_11191)">
<g opacity="0.5">
<path d="M519.183 350.852C503.388 336.953 472.618 335.828 459.151 320.725C432.072 290.374 462.961 276.065 469.258 240.829C476.732 198.921 452.603 144.121 400.033 131.07C351.854 119.157 320.661 146.702 287.246 170.078C282.073 173.546 271.808 176.485 264.426 167.894C216.182 117.436 131.029 133.691 113.435 202.852C104.903 236.328 117.735 274 99.4262 306.125C91.1847 320.566 81.5279 326.549 70.1116 334.889C46.3001 351.924 17.938 362.58 0 382.091V463.814C13.4535 475.727 33.0715 484.463 52.9805 494.947C69.9793 503.868 88.6316 518.111 88.6316 536.086C88.6316 536.378 88.6316 536.682 88.6316 536.973H444.957C444.957 535.226 445.076 533.492 445.222 531.745C448.397 494.073 484.18 483.629 512.066 457.619C545.018 427.082 556.792 383.931 519.183 350.852ZM445.46 295.456C445.46 294.027 445.658 292.809 446.029 292.809C445.932 293.709 445.741 294.596 445.46 295.456Z" fill="url(#paint0_linear_156_11191)"/>
<path d="M43.7603 537H499.036C499.512 535.756 499.962 534.498 500.359 533.241C513.323 492.326 494.842 461.948 464.046 433.423C453.847 423.972 441.227 418.214 436.359 405.44C432.588 395.526 434.639 389.225 435.578 384.381C440.87 356.981 472.023 340.699 473.478 309.501C475.013 276.647 452.418 244.879 419.717 229.921C364.157 204.639 339.023 250.478 291.876 246.745C266.305 244.72 262.971 230.861 248.79 212.33C199.408 148.251 90.9731 152.976 55.1765 229.696C28.3357 287.236 72.9955 338.462 71.4345 395.01C70.1116 442.278 17.0649 483.471 40.5722 531.202C41.5365 533.187 42.6005 535.122 43.7603 537Z" fill="url(#paint1_linear_156_11191)"/>
</g>
<g style="mix-blend-mode:multiply">
<path d="M422.548 468.5C422.548 463.205 420.259 458.93 417.257 458.281C417.151 456.719 417.032 455.171 416.899 453.675C417.113 453.531 417.317 453.372 417.508 453.198C418.526 452.259 418.262 440.544 417.257 426.659C417.668 426.356 418.014 425.974 418.275 425.535C418.537 425.097 418.708 424.61 418.778 424.104C419.36 413.899 428.355 335.008 387.982 332.771C385.005 324.114 387.426 309.236 390.323 296.171C395.031 291.756 398.774 286.413 401.315 280.478C403.856 274.543 405.14 268.146 405.086 261.69C405.086 236.699 386.381 216.447 363.31 216.447C342.145 216.447 324.617 233.549 321.905 255.694C322.179 255.564 322.475 255.487 322.778 255.468C322.487 256.792 322.222 258.116 321.997 259.44C319.656 261.425 318.254 269.036 318.783 277.971C319.312 286.906 321.574 294.331 324.074 295.96C324.516 297.27 325.037 298.552 325.635 299.798C325.069 299.799 324.517 299.618 324.061 299.282C328.122 324.71 335.768 330.229 335.768 330.229C342.916 330.475 350.071 330.174 357.172 329.329C357.819 333.268 358.151 337.251 358.164 341.242C343.415 350.349 340.266 364.632 340.041 382.276C329.63 392.746 304.218 435.382 304.046 444.039L301.281 442.291C297.591 425.653 288.939 400.252 283.317 391.396C282.963 391.214 282.596 391.059 282.219 390.933L280.777 387.677C283.754 384.831 280.341 367.226 280.301 365.677C280.301 364.658 280.301 364.182 279.732 363.943L279.481 362.275C280.23 361.372 280.608 360.218 280.539 359.046C280.539 357.047 279.692 355.432 278.647 355.432C278.328 355.453 278.027 355.59 277.801 355.816L277.47 355.009C277.516 354.927 277.548 354.837 277.563 354.744C277.655 353.698 273.501 346.087 271.186 344.154L270.009 341.362C270.026 340.551 269.896 339.743 269.625 338.979C269.533 338.701 269.427 338.41 269.321 338.118C269.412 337.429 269.412 336.73 269.321 336.04C268.858 332.665 266.834 328.098 265.141 328.35C264.36 328.469 263.818 329.673 263.448 331.156C263.355 328.879 262.799 328.244 261.066 328.151C258.566 328.006 256.899 339.508 256.899 339.508C254.254 344.485 247.639 355.194 247.097 356.345C246.555 357.497 246.422 363.798 246.171 374.996C246.171 375.34 246.171 375.658 246.171 375.989C244.848 392.588 243.869 394.282 238.419 405.414C234.738 413.498 231.926 421.951 230.032 430.63C225.865 420.808 216.222 408.352 210.957 401.946C212.716 399.934 213.801 398.412 213.801 397.75C213.801 397.75 200.916 373.924 185.875 359.496C184.402 354.734 182.392 350.155 179.883 345.849C178.242 339.124 175.451 325.001 177.435 313.419C180.544 314.901 183.878 316.384 186.986 317.562C188.177 318.025 189.354 318.436 190.413 318.753C191.672 319.255 193.049 319.389 194.381 319.137C197.463 317.813 202.834 298.792 202.966 295.152C202.966 295.152 208.734 295.735 209.806 294.133C210.877 292.531 205.652 281.637 208.059 268.851C209.052 263.622 209.938 258.261 210.374 253.642C216.891 253.911 223.353 252.347 229.027 249.128C250.193 237.533 228.114 221.887 216.169 234.104C216.169 234.104 208.972 201.555 179.433 204.375C149.893 207.194 152.129 225.209 152.129 225.209C152.129 225.209 136.81 222.231 133.754 243.119C130.699 264.006 148.306 290.691 145.237 295.827C142.168 300.963 144.919 309.752 151.044 307.264C151.613 307.039 152.208 306.787 152.843 306.509C151.52 310.97 147.869 322.605 145.065 329.012C133.609 333.684 121.968 354.823 121.703 374.85C118.026 391.132 118.462 407.452 119.745 408.855C120.38 409.323 121.105 409.652 121.875 409.822C121.677 421.086 121.32 434.151 120.857 447.639C120.021 456.645 119.677 465.691 119.825 474.735C118.7 500.771 117.311 524.902 115.988 536.947H197.238C195.744 518.495 191.709 466.62 191.458 445.442C191.458 442.662 191.458 439.128 191.63 435.051C203.231 451.517 220.971 474.854 228.312 474.854C232.096 474.854 244.875 473.53 249.796 454.138C254.624 435.157 254.492 406.486 255.682 387.955C258.018 384.688 259.913 381.128 261.318 377.365C262.746 372.918 260.775 366.869 259.995 363.189C259.36 359.959 261.662 356.716 262.733 353.036C262.735 353.871 262.86 354.7 263.104 355.498C263.474 356.65 264.03 357.193 264.718 357.378L265.366 358.913V359.019C265.101 359.747 265.816 361.918 266.755 364.142C266.315 364.928 265.968 365.763 265.723 366.63C263.712 373.686 265.154 380.119 268.21 386.035C268.658 386.945 269.278 387.759 270.035 388.431L270.869 394.454C270.697 394.705 270.512 394.97 270.34 395.248C270.34 395.248 265.247 448.526 286.016 464.542C286.33 464.851 286.753 465.024 287.193 465.024C287.633 465.024 288.056 464.851 288.37 464.542C289.892 465.61 291.513 466.527 293.212 467.282C294.191 470.181 297.974 472.339 302.472 472.339C306.97 472.339 310.608 470.274 311.732 467.481C316.235 465.963 320.287 463.342 323.519 459.857C324.052 460.117 324.617 460.308 325.199 460.426C326.813 460.69 338.229 449.055 349.42 436.335C346.431 447.348 347.621 479.685 352.212 487.746C353.101 489.069 354.356 490.104 355.823 490.725L355.942 493.014C352.622 493.888 351.18 521.354 352.833 536.894H414.32C415.643 519.951 417.931 488.051 416.833 484.741C417.205 482.698 417.453 480.634 417.574 478.56C420.392 477.845 422.548 473.596 422.548 468.5ZM269.096 355.498C269.137 355.415 269.163 355.325 269.176 355.234C269.544 355.909 269.964 356.555 270.432 357.166L270.512 357.404C270.29 357.164 270.025 356.966 269.731 356.822L269.096 355.498ZM263.355 350.204C263.355 347.702 262.032 346.961 260.524 347.106C261.726 343.943 262.582 340.659 263.077 337.311C263.174 338.614 263.418 339.902 263.805 341.15C263.975 341.722 264.21 342.273 264.506 342.791L265.921 346.127C265.866 347.378 266.12 348.624 266.662 349.754C266.386 349.447 266.034 349.218 265.642 349.09C265.249 348.963 264.83 348.94 264.427 349.026C264.176 349.134 263.949 349.292 263.761 349.49C263.572 349.688 263.425 349.921 263.329 350.177L263.355 350.204ZM352.688 433.026L352.542 432.946L352.82 432.615V433.118L352.688 433.026Z" fill="#E6E6E6"/>
</g>
<path d="M261.728 302.141C262.085 295.523 262.019 294.014 258.857 293.842C255.696 293.67 253.566 307.078 253.566 307.078L261.728 302.141Z" fill="#E19E83"/>
<path d="M247.52 338.092C248.936 325.755 254.135 316.993 256.886 316.185C259.638 315.378 262.548 316.106 261.609 321.136C260.669 326.166 256.78 330.401 257.706 334.743C258.632 339.085 261.119 346.06 259.307 351.236C257.495 356.411 251.965 364.645 250.047 365.704C248.129 366.763 239.729 361.402 240.046 348.364C240.364 335.325 240.377 328.244 241.223 326.655C242.07 325.067 253.658 307.846 254.783 304.656C255.907 301.466 257.984 296.86 260.736 297.495C263.487 298.13 260.193 312.717 257.349 317.548C254.505 322.38 247.52 338.092 247.52 338.092Z" fill="#FF9580"/>
<path d="M247.481 338.092C248.155 331.738 250.576 319.044 256.873 316.146C255.254 317.336 253.973 318.929 253.156 320.765C250.286 326.133 248.357 331.953 247.454 337.973L247.481 338.092Z" fill="#DE886F"/>
<path d="M259.611 322.658H259.717C258.293 321.777 256.746 321.113 255.127 320.686C255.656 322.036 258.632 322.976 259.611 322.658Z" fill="#FCD3C2"/>
<path d="M261.146 319.309C261.152 319.216 261.152 319.124 261.146 319.031C261.14 319.005 261.14 318.978 261.146 318.952C261.138 318.89 261.138 318.828 261.146 318.766V318.66C261.152 318.621 261.152 318.581 261.146 318.541V318.382C261.146 318.382 261.146 318.29 261.146 318.277C259.848 317.519 258.449 316.949 256.992 316.582C256.992 316.582 254.743 318.819 254.955 320.381C254.969 320.477 254.996 320.57 255.034 320.659C256.653 321.086 258.2 321.751 259.624 322.631C260.392 322.261 260.921 320.487 261.146 319.309Z" fill="#FCC6B0"/>
<path d="M252.203 363.546C250.722 385.109 250.88 418.505 244.808 440.61C238.604 463.192 222.492 464.727 217.729 464.727C203.443 464.727 157.883 399.868 157.883 399.868C157.883 399.868 169.789 374.215 191.193 374.718C191.193 374.718 212.359 396.929 219.74 413.104C219.74 413.104 223.444 396.704 230.323 383.745C237.202 370.787 238.34 368.814 240.099 349.502C240.086 349.515 252.666 356.239 252.203 363.546Z" fill="#FF9580"/>
<path d="M199.302 374.85C199.302 378.821 162.553 409.61 157.883 409.623C153.214 409.636 97.5609 352.917 125.01 323.942C152.46 294.967 199.302 374.85 199.302 374.85Z" fill="#176937"/>
<path d="M76.2231 537H178.586C176.721 515.517 171.641 455.144 171.31 430.471C170.913 400.212 183.653 293.842 118.396 293.842C101.675 293.842 81.713 324.961 83.5386 352.441C85.1921 377.432 80.3902 501.592 76.2231 537Z" fill="#588645"/>
<path d="M87.7321 537H118.608C123.754 495.701 122.576 438.889 122.576 438.889C128.741 422.251 129.495 391.568 129.495 391.568C114.718 376.055 88.1819 385.77 88.1819 385.77C88.1819 385.77 74.5829 470.869 84.6631 480.982C85.7214 490.618 85.8404 514.908 87.7321 537Z" fill="#FF9580"/>
<path d="M134.813 392.548C131.968 395.394 84.2662 391.131 80.959 387.822C77.6519 384.513 78.7763 309.885 118.661 308.812C158.545 307.74 134.813 392.548 134.813 392.548Z" fill="#176937"/>
<path d="M123.264 266.587C123.264 266.587 115.433 291.115 111.12 298.21C106.808 305.305 129.376 298.21 156.216 317.721C156.334 317.81 156.477 317.86 156.624 317.864C156.772 317.868 156.917 317.825 157.038 317.741C157.16 317.657 157.252 317.537 157.302 317.398C157.351 317.259 157.356 317.108 157.314 316.966C155.529 310.745 150.7 291.618 153.584 276.396C153.584 276.396 170.993 284.854 174.882 283.332C178.771 281.809 185.531 259.651 185.703 255.415C185.703 255.415 192.966 256.091 194.315 254.237C195.664 252.384 189.023 239.677 192.119 224.799C195.214 209.921 197.529 194.527 192.291 190.635C187.052 186.743 130.249 176.419 119.6 195.533C108.951 214.646 111.266 255.243 123.264 266.587Z" fill="#FF9580"/>
<path d="M149.258 237.546V213.998C149.258 213.998 166.799 213.032 169.498 198.762C169.498 198.762 191.868 215.348 218.444 201.847C245.02 188.345 217.293 170.078 202.252 184.348C202.252 184.348 193.177 146.464 155.952 149.747C118.727 153.03 121.703 174.063 121.703 174.063C121.703 174.063 102.416 170.581 98.5663 194.897C94.7168 219.213 116.888 250.28 113.025 256.263C109.162 262.246 112.628 272.464 120.341 269.565C128.053 266.667 142.022 260.922 138.503 244.813C138.503 244.813 131.281 249.737 130.064 242.166C128.847 234.594 121.518 217.572 134.032 216.076C141.705 215.149 143.782 224.111 143.16 230.742C143.067 231.599 143.156 232.466 143.42 233.287C143.684 234.107 144.118 234.863 144.693 235.505C145.268 236.147 145.972 236.66 146.758 237.012C147.545 237.363 148.397 237.545 149.258 237.546Z" fill="#111D45"/>
<path d="M137.789 269.221C148.372 273.841 159.074 278.964 169.842 282.882C158.532 280.076 147.882 274.94 137.789 269.221Z" fill="#DE886F"/>
<path d="M130.751 220.563C133.715 219.517 138.159 218.67 140.197 221.887C141.162 224.203 140.646 226.784 140.474 229.127C140.301 231.008 139.973 232.872 139.496 234.7L139.35 235.19L138.927 235.335C136.03 236.116 135.897 239.306 137.829 241.186L137.749 241.358C137.008 241.03 136.377 240.495 135.933 239.816C135.489 239.137 135.252 238.344 135.249 237.533C135.287 236.642 135.596 235.784 136.135 235.074C136.674 234.364 137.418 233.836 138.265 233.562L137.696 234.197C138.437 230.702 139.654 227.049 139.509 223.475C139.588 221.754 137.948 220.643 136.228 220.338C134.412 220.088 132.564 220.223 130.804 220.735V220.563H130.751Z" fill="#DE886F"/>
<path d="M182.687 252.821C183.61 252.217 184.728 251.985 185.815 252.172C186.902 252.358 187.878 252.95 188.547 253.827C186.664 253.164 184.683 252.824 182.687 252.821Z" fill="#DE886F"/>
<path d="M166.68 262.391C168.479 261.862 171.284 262.762 171.363 264.92C170.04 263.437 168.413 263.238 166.68 262.391Z" fill="#DE886F"/>
<path d="M162.963 254.939C168.03 257.785 172.66 261.385 178.202 263.238C172.342 262.629 167.236 258.778 162.963 254.939Z" fill="#DE886F"/>
<g style="mix-blend-mode:overlay" opacity="0.3">
<path d="M121.994 316.516C117.767 317.441 113.67 318.886 109.797 320.818C106 322.734 102.58 325.321 99.7039 328.456C98.9458 329.211 98.2594 330.035 97.6535 330.918C96.9631 331.747 96.3435 332.632 95.8015 333.565L94.1082 336.345C93.6584 337.351 93.2087 338.357 92.7854 339.349L92.071 340.858L91.5419 342.447L90.4174 345.637C89.756 347.808 89.3195 350.045 88.5919 352.255C88.5129 349.916 88.5658 347.573 88.7506 345.24L89.3459 341.732C89.4517 341.15 89.5576 340.567 89.6899 339.985L90.2455 338.277C91.625 333.658 94.0412 329.416 97.3095 325.874C100.492 322.415 104.457 319.769 108.871 318.157C113.052 316.571 117.552 316.009 121.994 316.516Z" fill="white"/>
</g>
<path d="M348.825 268.123C356.876 268.123 363.403 251.037 363.403 229.961C363.403 208.885 356.876 191.8 348.825 191.8C340.774 191.8 334.247 208.885 334.247 229.961C334.247 251.037 340.774 268.123 348.825 268.123Z" fill="#111D45"/>
<path d="M423.725 249.168C419.003 267.448 413.526 291.83 420.445 302.472C427.363 313.114 380.574 322.605 380.574 322.605C380.574 322.605 384.383 292.452 373.814 280.592C363.244 268.732 423.725 249.168 423.725 249.168Z" fill="#111D45"/>
<path d="M387.796 163.897C375.047 163.903 362.732 168.538 353.14 176.941C343.547 185.344 337.327 196.945 335.636 209.59C336.076 209.316 336.575 209.148 337.091 209.1C341.787 208.809 346.351 220.153 347.211 234.435C348.071 248.718 345.028 260.538 340.332 260.843C339.601 260.867 338.882 260.653 338.282 260.234C343.401 289.831 353.018 296.251 353.018 296.251C353.018 296.251 392.175 297.773 397.718 288.653C403.261 279.533 389.132 275.231 407.335 265.475H407.401C418.743 260.915 428.145 252.546 433.993 241.806C439.842 231.066 441.773 218.624 439.454 206.615C437.135 194.606 430.712 183.779 421.286 175.992C411.86 168.204 400.02 163.942 387.796 163.937V163.897Z" fill="white"/>
<path d="M269.255 303.028C269.837 306.999 268.223 308.018 266.107 308.323C263.99 308.627 262.138 308.098 261.556 304.153C260.974 300.208 261.873 294.371 264.003 294.053C266.133 293.736 268.673 299.15 269.255 303.028Z" fill="#E6E6E6"/>
<path d="M268.236 324.06L262.946 326.489L265.374 331.782L270.664 329.353L268.236 324.06Z" fill="#111D45"/>
<path d="M269.461 307.705L263.089 310.631L265.516 315.925L271.889 312.999L269.461 307.705Z" fill="#111D45"/>
<path d="M281.386 329.011L282.735 337.311L273.091 333.962L270.207 326.377L278.952 323.717L281.386 329.011Z" fill="#111D45"/>
<path d="M282.259 359.999L286.942 369.754L271.808 374.281L270.062 362.659L278.806 359.999H282.259Z" fill="#111D45"/>
<path d="M269.691 306.443C271.014 310.215 269.612 311.539 267.575 312.241C265.538 312.942 263.606 312.757 262.283 308.984C260.961 305.212 260.789 299.322 262.826 298.62C264.863 297.919 268.395 302.684 269.691 306.443Z" fill="#F2F2F2"/>
<path d="M270.948 312.029C273.594 313.022 279.824 323.426 279.692 324.749C279.56 326.073 273.21 329.422 271.319 328.244C269.427 327.066 264.241 316.754 264.995 314.822C265.749 312.889 270.948 312.029 270.948 312.029Z" fill="#F2F2F2"/>
<path d="M283.436 329.753C283.436 332.082 282.378 333.962 281.055 333.962C279.732 333.962 278.674 332.082 278.674 329.753C278.674 327.423 279.745 325.543 281.055 325.543C282.364 325.543 283.436 327.436 283.436 329.753Z" fill="#F2F2F2"/>
<path d="M276.385 328.932C278.105 329.859 278.158 335.153 280.618 335.22C283.079 335.286 283.105 335.617 283.145 337.47C283.185 339.323 287.722 360.859 283.436 363.321C279.15 365.783 271.808 368.219 267.972 361.322C264.135 354.426 262.323 346.947 264.85 338.741C267.376 330.534 276.385 328.932 276.385 328.932Z" fill="white"/>
<path d="M273.541 344.776C276.383 344.776 278.687 342.471 278.687 339.627C278.687 336.784 276.383 334.478 273.541 334.478C270.699 334.478 268.395 336.784 268.395 339.627C268.395 342.471 270.699 344.776 273.541 344.776Z" fill="#111D45"/>
<path d="M268.964 323.24C269.863 325.888 268.408 326.947 266.318 327.648C264.228 328.35 262.455 328.389 261.556 325.782C260.656 323.174 261.027 318.899 263.051 318.197C265.075 317.496 268.064 320.633 268.964 323.24Z" fill="white"/>
<path d="M269.863 327.264C272.284 328.191 277.946 337.999 277.801 339.257C277.655 340.514 274.11 345.73 270.168 342.54C268.58 341.216 263.725 331.712 264.413 329.885C265.101 328.059 269.863 327.264 269.863 327.264Z" fill="white"/>
<path d="M367.98 349.595C367.98 349.595 354.103 362.553 353.045 368.947C351.987 375.34 384.092 400.569 393.564 389.702C403.036 378.835 404.795 373.275 404.795 373.275L367.98 349.595Z" fill="#111D45"/>
<path d="M304.999 424.011C304.999 424.011 297.71 431.358 297.326 434.521C296.942 437.685 279.229 438.704 279.229 438.704C279.229 438.704 292.154 459.261 312.023 458.136C331.892 457.011 340.107 444.409 340.107 444.409L304.999 424.011Z" fill="#111D45"/>
<path d="M412.798 373.699C404.279 382.964 382.306 379.576 374.727 377.471C373.839 377.228 373.022 376.777 372.344 376.156C371.665 375.534 371.144 374.76 370.824 373.897C368.099 366.511 362.887 344.896 371.366 335.617C381.87 324.167 398.525 324.67 409.954 335.18C421.384 345.69 423.315 362.249 412.798 373.699Z" fill="white"/>
<path d="M361.551 357.537C361.587 357.231 361.53 356.922 361.386 356.649C361.243 356.377 361.021 356.154 360.749 356.011C360.476 355.868 360.167 355.81 359.862 355.846C359.556 355.882 359.269 356.01 359.037 356.213C346.219 367.464 312.737 419.339 313.042 429.015C313.425 439.803 318.042 451.385 324.498 446.726C330.953 442.066 335.821 447.441 339.763 448.049C343.467 448.605 388.484 402.899 397.493 387.756C397.632 387.524 397.706 387.259 397.708 386.988C397.711 386.718 397.641 386.451 397.506 386.217C397.371 385.982 397.177 385.788 396.942 385.653C396.707 385.519 396.441 385.45 396.17 385.453C390.376 385.718 376.512 385.599 369.647 379.033C366.708 376.336 364.444 372.985 363.037 369.251C361.631 365.517 361.122 361.504 361.551 357.537Z" fill="white"/>
<path d="M311.177 461.855C317.81 461.855 323.188 458.46 323.188 454.271C323.188 450.082 317.81 446.686 311.177 446.686C304.543 446.686 299.165 450.082 299.165 454.271C299.165 458.46 304.543 461.855 311.177 461.855Z" fill="white"/>
<path d="M311.176 443.853C315.37 437.314 297.167 382.303 286.942 367.411C286.942 367.411 277.113 362.514 270.67 372.044C270.67 372.044 264.255 434.071 290.407 452.722C293.966 455.263 294.826 448.989 301.837 445.839C304.763 444.486 307.954 443.808 311.176 443.853Z" fill="white"/>
<path d="M450.447 513.094L378.92 493.306L373.787 403.164H450.447V513.094Z" fill="#111D45"/>
<path d="M374.369 415.924C366.075 411.092 366.538 467.957 373.84 479.778C381.142 491.598 445.5 488.501 452.802 481.962C460.104 475.423 454.72 419.63 450.884 418.889C447.047 418.148 398.564 430.087 374.369 415.924Z" fill="#F2F2F2"/>
<path d="M442.404 537C442.986 518.296 440.486 489.996 438.541 489.467C435.803 488.739 396.712 500.361 379.436 486.197C374.594 482.226 372.345 517.608 374.568 537H442.404Z" fill="#F2F2F2"/>
<path d="M405.033 300.566C353.018 311.777 357.675 343.903 359.236 385.135C360.797 426.367 456.889 418.452 457.683 405.586C458.477 392.72 471.705 286.191 405.033 300.566Z" fill="#F2F2F2"/>
<path d="M400.152 353.751C400.152 353.751 400.879 372.719 405.033 377.71C409.187 382.7 449.23 374.89 447.206 360.608C445.182 346.325 442.153 341.375 442.153 341.375L400.152 353.751Z" fill="#111D45"/>
<path d="M415.219 450.048C415.219 450.048 416.013 460.373 418.156 462.729C420.299 465.085 455.196 476.243 455.196 476.243L455.567 454.39L453.609 436.811L415.219 450.048Z" fill="#111D45"/>
<path d="M447.695 335.59C449.137 348.112 432.192 362.514 425.643 366.882C424.873 367.397 423.992 367.722 423.071 367.827C422.151 367.933 421.219 367.818 420.352 367.491C412.997 364.724 393.207 354.558 391.765 342.037C389.992 326.603 401.25 314.332 416.688 312.545C432.125 310.758 445.91 320.143 447.695 335.59Z" fill="white"/>
<path d="M401.964 363.811C401.757 363.584 401.486 363.424 401.187 363.354C400.887 363.284 400.574 363.306 400.287 363.418C400.001 363.53 399.755 363.726 399.582 363.98C399.409 364.235 399.317 364.536 399.318 364.843C399.438 381.906 406.607 444.581 414.095 450.617C422.495 457.381 444.415 458.083 445.116 450.154C445.817 442.225 453.053 442.053 456.082 439.459C459.112 436.864 453.82 373.05 448.264 356.319C448.179 356.057 448.023 355.822 447.815 355.641C447.606 355.461 447.352 355.34 447.081 355.292C446.809 355.245 446.529 355.272 446.272 355.371C446.014 355.47 445.788 355.638 445.619 355.856C442.034 360.422 432.866 370.826 423.421 371.74C419.474 372.184 415.479 371.698 411.753 370.322C408.027 368.945 404.675 366.715 401.964 363.811Z" fill="white"/>
<path d="M454.786 469.281C458.972 469.281 462.366 463.9 462.366 457.262C462.366 450.624 458.972 445.243 454.786 445.243C450.6 445.243 447.206 450.624 447.206 457.262C447.206 463.9 450.6 469.281 454.786 469.281Z" fill="white"/>
<path d="M451.995 537C453.662 517.277 456.559 480.148 455.17 476.283C453.278 470.988 444.732 471.385 442.867 462.98C441.002 454.575 418.156 460.412 418.156 460.412C412.375 465.138 410.669 510.897 413.751 537H451.995Z" fill="white"/>
<path d="M401.938 244.191C412.159 244.191 420.445 235.9 420.445 225.673C420.445 215.445 412.159 207.155 401.938 207.155C391.717 207.155 383.431 215.445 383.431 225.673C383.431 235.9 391.717 244.191 401.938 244.191Z" fill="#111D45"/>
<path d="M401.938 240.776C410.274 240.776 417.032 234.014 417.032 225.673C417.032 217.331 410.274 210.57 401.938 210.57C393.602 210.57 386.844 217.331 386.844 225.673C386.844 234.014 393.602 240.776 401.938 240.776Z" fill="white"/>
<path d="M345.266 234.568C346.02 246.587 343.573 256.527 339.803 256.766C336.033 257.004 332.342 247.5 331.588 235.428C330.834 223.356 333.281 213.468 337.065 213.23C340.848 212.992 344.473 222.536 345.266 234.568Z" fill="#588645"/>
<path d="M412.111 392.376C413.196 396.956 414.069 401.562 414.862 406.168C415.656 410.775 416.344 415.434 417.006 420.04C417.667 424.647 418.196 429.306 418.659 433.965C419.122 438.625 419.519 443.231 419.704 447.983C418.619 443.416 417.746 438.81 416.953 434.204C416.159 429.597 415.471 424.938 414.823 420.332C414.175 415.725 413.619 411.066 413.169 406.393C412.719 401.721 412.296 397.101 412.111 392.376Z" fill="#F2F2F2"/>
<path d="M419.704 417.552C420.626 420.308 421.407 423.109 422.045 425.944C422.733 428.75 423.275 431.596 423.805 434.442C424.334 437.288 424.731 440.134 425.061 443.019C425.428 445.901 425.649 448.799 425.723 451.703C424.797 448.947 424.011 446.146 423.368 443.311C422.693 440.504 422.151 437.659 421.622 434.813C421.093 431.967 420.696 429.121 420.299 426.235C419.954 423.353 419.755 420.455 419.704 417.552Z" fill="#F2F2F2"/>
<path d="M419.876 467.256C420.127 470.168 420.167 473.067 420.14 475.966C420.114 478.864 419.955 481.75 419.783 484.622C419.611 487.495 419.32 490.394 418.936 493.253C418.602 496.14 418.116 499.007 417.481 501.843C417.23 498.931 417.19 496.032 417.217 493.134C417.243 490.235 417.402 487.362 417.574 484.477C417.746 481.591 418.05 478.719 418.421 475.846C418.762 472.96 419.247 470.093 419.876 467.256Z" fill="#F2F2F2"/>
<path d="M348.891 378.848C346.682 382.991 344.287 387.015 341.827 390.999C339.366 394.983 336.84 398.941 334.26 402.806C331.68 406.671 328.969 410.563 326.323 414.362C323.677 418.161 320.807 421.92 317.83 425.56C320.039 421.404 322.434 417.38 324.881 413.396C327.328 409.411 329.881 405.454 332.461 401.589C335.041 397.723 337.686 393.845 340.398 390.046C343.11 386.247 345.914 382.541 348.891 378.848Z" fill="#F2F2F2"/>
<path d="M285.275 379.06C287.232 383.322 288.979 387.677 290.659 392.045C292.339 396.413 293.913 400.807 295.447 405.281C296.982 409.755 298.437 414.15 299.786 418.624C301.136 423.098 302.432 427.599 303.543 432.165C301.586 427.903 299.839 423.548 298.159 419.18C296.479 414.812 294.905 410.417 293.371 405.943C291.836 401.469 290.394 397.075 289.032 392.601C287.669 388.127 286.373 383.626 285.275 379.06Z" fill="#F2F2F2"/>
<path d="M337.924 402.74C336.802 405.417 335.539 408.033 334.141 410.576C332.818 413.144 331.323 415.633 329.842 418.108C328.36 420.583 326.773 423.005 325.119 425.375C323.465 427.744 321.759 430.1 319.828 432.324C320.952 429.644 322.215 427.024 323.611 424.475C324.934 421.92 326.429 419.431 327.91 416.956C329.392 414.481 330.979 412.059 332.646 409.689C334.286 407.284 336.047 404.965 337.924 402.74Z" fill="#F2F2F2"/>
<path d="M373.298 427.201C373.813 430.057 374.18 432.938 374.396 435.832C374.66 438.717 374.793 441.603 374.885 444.489C374.978 447.374 374.991 450.273 374.885 453.172C374.78 456.071 374.634 458.956 374.264 461.855C373.721 458.983 373.404 456.097 373.152 453.212C372.901 450.326 372.769 447.44 372.676 444.555C372.584 441.669 372.584 438.784 372.676 435.885C372.738 432.982 372.946 430.084 373.298 427.201Z" fill="white"/>
<path d="M415.219 319.574C412.681 320.493 410.261 321.71 408.01 323.201C405.84 324.645 403.948 326.47 402.427 328.588C402.028 329.094 401.674 329.634 401.369 330.203C401.022 330.746 400.722 331.317 400.469 331.91L399.676 333.697C399.491 334.319 399.305 335.021 399.094 335.577L398.803 336.53L398.617 337.509L398.221 339.482C398.022 340.805 397.956 342.129 397.718 343.559C397.45 342.193 397.256 340.815 397.136 339.429V337.311C397.136 336.954 397.136 336.609 397.136 336.252L397.321 335.206C397.749 332.337 398.861 329.613 400.562 327.264C402.255 324.922 404.475 323.013 407.044 321.692C409.574 320.375 412.369 319.651 415.219 319.574Z" fill="#F2F2F2"/>
<path d="M403.128 212.78C401.266 213.449 399.49 214.338 397.837 215.427C396.222 216.487 394.815 217.833 393.683 219.398C393.127 220.18 392.64 221.008 392.228 221.874L391.633 223.197C391.5 223.661 391.368 224.124 391.209 224.6L390.985 225.302L390.852 226.03L390.561 227.499C390.402 228.479 390.363 229.485 390.178 230.517C389.976 229.503 389.834 228.477 389.754 227.446V225.884C389.754 225.62 389.754 225.355 389.754 225.09L389.9 224.309C390.24 222.21 391.072 220.221 392.328 218.505C393.583 216.789 395.226 215.394 397.123 214.435C398.973 213.433 401.027 212.867 403.128 212.78Z" fill="#F2F2F2"/>
<path d="M398.181 310.123C393.96 311.047 389.871 312.497 386.011 314.438C382.21 316.349 378.79 318.938 375.917 322.076C375.149 322.819 374.453 323.635 373.84 324.511C373.151 325.341 372.532 326.227 371.988 327.159L370.295 329.938C369.845 330.931 369.409 331.937 368.972 332.93L368.271 334.439L367.742 336.027L366.617 339.217C365.956 341.388 365.506 343.638 364.792 345.836C364.715 343.492 364.764 341.145 364.937 338.807L365.546 335.312C365.639 334.717 365.758 334.134 365.89 333.552L366.445 331.858C367.814 327.234 370.231 322.989 373.51 319.455C376.693 315.993 380.657 313.343 385.071 311.725C389.251 310.153 393.746 309.604 398.181 310.123Z" fill="white"/>
<path d="M378.92 174.83C374.695 175.748 370.601 177.193 366.736 179.132C362.939 181.048 359.52 183.636 356.643 186.77C355.881 187.52 355.186 188.335 354.566 189.205C353.88 190.035 353.265 190.92 352.727 191.853L351.021 194.632C350.584 195.638 350.135 196.644 349.698 197.637L348.997 199.146L348.468 200.735L347.343 203.925C346.682 206.095 346.232 208.332 345.518 210.543C345.441 208.204 345.49 205.862 345.663 203.528L346.272 200.02C346.364 199.437 346.483 198.855 346.616 198.273L347.171 196.565C348.543 191.943 350.96 187.699 354.235 184.162C357.416 180.7 361.381 178.053 365.797 176.445C369.98 174.868 374.48 174.314 378.92 174.83Z" fill="#F2F2F2"/>
<path d="M338.401 214.792C337.199 216.58 336.264 218.533 335.623 220.59C334.84 223.168 334.395 225.838 334.3 228.532C334.237 229.293 334.215 230.058 334.234 230.822C334.234 231.616 334.234 232.384 334.3 233.231L334.432 235.719C334.538 236.58 334.644 237.453 334.723 238.367L334.869 239.69L335.094 241.014L335.517 243.661C335.821 245.475 336.231 247.288 336.549 249.181C335.98 247.407 335.398 245.581 334.895 243.727L334.247 240.895C334.128 240.418 334.022 239.955 333.93 239.478L333.691 238.049C333.016 234.424 332.749 230.734 332.898 227.049C332.963 224.193 333.56 221.374 334.657 218.737C334.971 217.854 335.467 217.047 336.112 216.368C336.756 215.688 337.536 215.152 338.401 214.792Z" fill="white"/>
</g>
<defs>
<linearGradient id="paint0_linear_156_11191" x1="444.111" y1="155.584" x2="107.237" y2="590.925" gradientUnits="userSpaceOnUse">
<stop stop-color="#FFD683"/>
<stop offset="1" stop-color="#ED9E00"/>
</linearGradient>
<linearGradient id="paint1_linear_156_11191" x1="64.3043" y1="211.469" x2="444.568" y2="591.501" gradientUnits="userSpaceOnUse">
<stop stop-color="#176937"/>
<stop offset="1" stop-color="#7FB74A"/>
</linearGradient>
<clipPath id="clip0_156_11191">
<rect width="550" height="537" fill="white"/>
</clipPath>
</defs>
</svg>
