<svg width="588" height="455" viewBox="0 0 588 455" fill="none" xmlns="http://www.w3.org/2000/svg">
<path d="M294 454.713C456.372 454.713 588 447.028 588 437.548C588 428.068 456.372 420.383 294 420.383C131.628 420.383 0 428.068 0 437.548C0 447.028 131.628 454.713 294 454.713Z" fill="#F5F5F5"/>
<path d="M504.254 265.55C504.254 265.55 466.725 257.969 430.5 261.638C394.275 265.308 447.543 312.647 447.543 312.647H455.018C455.018 312.647 426.8 282.624 428.362 275.164C429.923 267.704 501.039 277.484 501.039 277.484L504.254 265.55Z" fill="#263238"/>
<path opacity="0.2" d="M504.254 265.55C504.254 265.55 466.725 257.969 430.5 261.638C394.275 265.308 447.543 312.647 447.543 312.647H455.018C455.018 312.647 426.8 282.624 428.362 275.164C429.923 267.704 501.039 277.484 501.039 277.484L504.254 265.55Z" fill="white"/>
<path d="M490.713 311.01C502.556 264.634 509.419 217.127 511.183 169.294C511.359 164.745 513.292 160.44 516.574 157.285C519.857 154.13 524.234 152.369 528.788 152.372H560.373C565.03 152.372 569.498 154.216 572.799 157.501C576.101 160.785 577.968 165.244 577.992 169.901C578.114 198.711 576.097 263.216 559.872 311.01H490.713Z" fill="#263238"/>
<path opacity="0.4" d="M490.713 311.01C502.556 264.634 509.419 217.127 511.183 169.294C511.359 164.745 513.292 160.44 516.574 157.285C519.857 154.13 524.234 152.369 528.788 152.372H560.373C565.03 152.372 569.498 154.216 572.799 157.501C576.101 160.785 577.968 165.244 577.992 169.901C578.114 198.711 576.097 263.216 559.872 311.01H490.713Z" fill="white"/>
<path d="M481.493 302.989C486.618 283.58 498.173 233.389 500.614 167.065C500.802 162.133 502.895 157.466 506.452 154.045C510.009 150.624 514.754 148.714 519.689 148.718H553.928C558.979 148.718 563.825 150.718 567.406 154.281C570.986 157.845 573.009 162.681 573.034 167.732C573.155 198.908 570.986 262.669 553.321 314.482L488.119 312.087C487.044 312.027 485.994 311.73 485.048 311.215C484.101 310.7 483.281 309.981 482.647 309.11C482.012 308.239 481.58 307.238 481.38 306.179C481.181 305.121 481.219 304.031 481.493 302.989Z" fill="#03989E"/>
<path opacity="0.2" d="M481.493 302.989C486.618 283.58 498.173 233.389 500.614 167.065C500.802 162.133 502.895 157.466 506.452 154.045C510.009 150.624 514.754 148.714 519.689 148.718H553.928C558.979 148.718 563.825 150.718 567.406 154.281C570.986 157.845 573.009 162.681 573.034 167.732C573.155 198.908 570.986 262.669 553.321 314.482L488.119 312.087C487.044 312.027 485.994 311.73 485.048 311.215C484.101 310.7 483.281 309.981 482.647 309.11C482.012 308.239 481.58 307.238 481.38 306.179C481.181 305.121 481.219 304.031 481.493 302.989Z" fill="#545454"/>
<path d="M549.273 312.526H433.472V294.436C433.472 292.426 434.271 290.497 435.692 289.075C437.114 287.654 439.043 286.855 441.053 286.855H541.692C543.703 286.855 545.631 287.654 547.053 289.075C548.475 290.497 549.273 292.426 549.273 294.436V312.526Z" fill="#03989E"/>
<path d="M545.498 402.778L508.393 399.124V346.977H493.685V399.108L456.414 402.778C454.628 402.951 452.971 403.784 451.765 405.112C450.56 406.441 449.893 408.171 449.894 409.965V415.47H551.942V409.905C551.93 408.133 551.267 406.427 550.078 405.113C548.89 403.799 547.259 402.968 545.498 402.778Z" fill="#263238"/>
<path opacity="0.4" d="M545.498 402.778L508.393 399.124V346.977H493.685V399.108L456.414 402.778C454.628 402.951 452.971 403.784 451.765 405.112C450.56 406.441 449.893 408.171 449.894 409.965V415.47H551.942V409.905C551.93 408.133 551.267 406.427 550.078 405.113C548.89 403.799 547.259 402.968 545.498 402.778Z" fill="white"/>
<path d="M463.45 422.445C463.45 424.346 462.886 426.205 461.829 427.786C460.773 429.367 459.272 430.599 457.515 431.327C455.758 432.054 453.826 432.245 451.961 431.874C450.096 431.503 448.383 430.587 447.038 429.243C445.694 427.898 444.778 426.185 444.407 424.321C444.036 422.456 444.227 420.523 444.954 418.766C445.682 417.009 446.914 415.508 448.495 414.452C450.076 413.395 451.935 412.832 453.836 412.832C456.386 412.832 458.831 413.844 460.634 415.647C462.437 417.45 463.45 419.895 463.45 422.445Z" fill="#263238"/>
<path opacity="0.4" d="M453.836 427.509C452.834 427.509 451.855 427.212 451.022 426.656C450.189 426.099 449.54 425.308 449.157 424.383C448.774 423.458 448.673 422.439 448.869 421.457C449.064 420.474 449.547 419.572 450.255 418.864C450.963 418.155 451.866 417.673 452.848 417.478C453.83 417.282 454.849 417.383 455.774 417.766C456.7 418.149 457.491 418.798 458.047 419.631C458.604 420.464 458.901 421.443 458.901 422.445C458.897 423.787 458.362 425.073 457.413 426.022C456.464 426.971 455.178 427.505 453.836 427.509Z" fill="white"/>
<path d="M538.462 422.445C538.459 424.351 539.021 426.214 540.078 427.8C541.135 429.386 542.639 430.622 544.399 431.353C546.159 432.084 548.096 432.276 549.965 431.905C551.835 431.534 553.552 430.616 554.899 429.269C556.247 427.921 557.164 426.204 557.535 424.335C557.906 422.466 557.714 420.528 556.983 418.768C556.253 417.008 555.016 415.505 553.431 414.448C551.845 413.391 549.981 412.829 548.075 412.832C545.526 412.832 543.081 413.844 541.278 415.647C539.475 417.45 538.462 419.895 538.462 422.445Z" fill="#263238"/>
<path opacity="0.4" d="M548.076 427.509C547.075 427.506 546.097 427.207 545.266 426.649C544.435 426.09 543.789 425.298 543.408 424.373C543.027 423.447 542.928 422.429 543.126 421.448C543.323 420.466 543.806 419.565 544.515 418.858C545.224 418.152 546.126 417.671 547.108 417.477C548.09 417.282 549.108 417.384 550.032 417.767C550.957 418.151 551.747 418.8 552.303 419.633C552.859 420.465 553.155 421.444 553.155 422.445C553.151 423.789 552.614 425.078 551.662 426.027C550.71 426.976 549.42 427.509 548.076 427.509Z" fill="white"/>
<path d="M491.152 311.737H510.865V351.92C510.865 353.581 510.205 355.174 509.03 356.348C507.856 357.523 506.263 358.182 504.602 358.182H497.354C495.693 358.182 494.1 357.523 492.926 356.348C491.752 355.174 491.092 353.581 491.092 351.92V311.737H491.152Z" fill="#263238"/>
<path opacity="0.2" d="M491.152 311.737H510.865V351.92C510.865 353.581 510.205 355.174 509.03 356.348C507.856 357.523 506.263 358.182 504.602 358.182H497.354C495.693 358.182 494.1 357.523 492.926 356.348C491.752 355.174 491.092 353.581 491.092 351.92V311.737H491.152Z" fill="white"/>
<path d="M432.38 317.075H558.068C559.751 317.075 561.116 315.71 561.116 314.027V312.602C561.116 310.918 559.751 309.554 558.068 309.554H432.38C430.697 309.554 429.332 310.918 429.332 312.602V314.027C429.332 315.71 430.697 317.075 432.38 317.075Z" fill="#263238"/>
<g opacity="0.4">
<path d="M432.38 317.074H558.068C559.752 317.074 561.116 315.71 561.116 314.027V312.601C561.116 310.918 559.752 309.553 558.068 309.553H432.38C430.697 309.553 429.333 310.918 429.333 312.601V314.027C429.333 315.71 430.697 317.074 432.38 317.074Z" fill="white"/>
</g>
<path d="M570.972 265.55C570.972 265.55 533.443 257.969 497.218 261.638C460.993 265.308 514.262 312.647 514.262 312.647H521.737C521.737 312.647 493.518 282.624 495.08 275.164C496.642 267.704 567.758 277.484 567.758 277.484L570.972 265.55Z" fill="#263238"/>
<path opacity="0.4" d="M570.972 265.55C570.972 265.55 533.443 257.969 497.218 261.638C460.993 265.308 514.262 312.647 514.262 312.647H521.737C521.737 312.647 493.518 282.624 495.08 275.164C496.642 267.704 567.758 277.484 567.758 277.484L570.972 265.55Z" fill="white"/>
<path d="M107.933 273.679V275.196H84.8237V274.028C84.8237 271.223 87.7351 268.918 91.4652 268.766H92.6935L100.518 268.448C104.627 268.251 107.933 270.647 107.933 273.679Z" fill="#263238"/>
<path opacity="0.2" d="M97.2879 273.679V275.195H84.8237V274.028C84.8237 271.223 87.7351 268.918 91.4652 268.766H92.6935C95.3622 269.464 97.2879 271.42 97.2879 273.679Z" fill="white"/>
<path d="M296.365 431.983H298.716C298.854 431.983 298.986 431.929 299.086 431.833C299.185 431.737 299.242 431.606 299.246 431.467L302.931 289.1H292.18L295.865 431.467C295.868 431.6 295.922 431.727 296.015 431.823C296.107 431.918 296.232 431.975 296.365 431.983Z" fill="#263238"/>
<path d="M379.278 431.983H384.646L369.483 289.1H358.732L379.278 431.983Z" fill="#263238"/>
<path d="M33.1619 431.983L53.7536 289.1H43.0028L27.8396 431.983H33.1619Z" fill="#263238"/>
<path d="M111.875 431.983H118.046H118.061L120.336 289.1H109.6L111.875 431.983Z" fill="#263238"/>
<g opacity="0.4">
<path d="M379.278 431.983H384.646L369.483 289.1H358.732L379.278 431.983Z" fill="white"/>
</g>
<path opacity="0.4" d="M111.875 431.983H118.046H118.061L120.336 289.1H109.6L111.875 431.983Z" fill="white"/>
<g opacity="0.2">
<path d="M296.365 431.983H298.716C298.854 431.983 298.986 431.929 299.086 431.833C299.185 431.737 299.242 431.606 299.246 431.467L302.931 289.1H292.18L295.865 431.467C295.868 431.6 295.922 431.727 296.015 431.823C296.107 431.918 296.232 431.975 296.365 431.983Z" fill="white"/>
</g>
<path opacity="0.2" d="M33.1619 431.983L53.7536 289.1H43.0028L27.8396 431.983H33.1619Z" fill="white"/>
<path d="M130.586 275.969H161.17L166.037 233.269C165.991 232.497 165.651 231.772 165.087 231.242C164.523 230.712 163.778 230.417 163.005 230.419H142.534C141.761 230.417 141.016 230.712 140.452 231.242C139.888 231.772 139.548 232.497 139.502 233.269L130.586 275.969Z" fill="#263238"/>
<path d="M83.9145 167.658H91.4961L100.078 248.296H92.4969C91.8684 248.283 91.2654 248.044 90.7979 247.624C90.3303 247.204 90.0293 246.63 89.9494 246.006L81.8826 169.947C81.8432 169.659 81.8666 169.366 81.9511 169.088C82.0356 168.809 82.1793 168.553 82.3723 168.335C82.5653 168.118 82.8031 167.945 83.0692 167.828C83.3354 167.711 83.6238 167.653 83.9145 167.658Z" fill="#263238"/>
<path d="M95.7252 248.296H210.147C210.438 248.301 210.726 248.243 210.992 248.126C211.258 248.009 211.496 247.836 211.689 247.618C211.882 247.401 212.026 247.144 212.11 246.866C212.195 246.588 212.218 246.294 212.179 246.006L204.097 169.947C204.02 169.325 203.722 168.751 203.257 168.331C202.792 167.91 202.191 167.671 201.565 167.658H87.1428C86.8508 167.651 86.5608 167.707 86.2928 167.823C86.0247 167.939 85.7851 168.112 85.5904 168.33C85.3957 168.548 85.2507 168.805 85.1653 169.084C85.0799 169.364 85.0562 169.658 85.0958 169.947L93.1778 246.006C93.2576 246.63 93.5587 247.204 94.0262 247.624C94.4938 248.044 95.0967 248.283 95.7252 248.296Z" fill="#263238"/>
<path d="M129.236 275.999H167.25C168.054 275.999 168.706 275.347 168.706 274.543V274.134C168.706 273.33 168.054 272.678 167.25 272.678H129.236C128.432 272.678 127.78 273.33 127.78 274.134V274.543C127.78 275.347 128.432 275.999 129.236 275.999Z" fill="#263238"/>
<path opacity="0.2" d="M95.7252 248.296H210.147C210.438 248.301 210.726 248.243 210.992 248.126C211.258 248.009 211.496 247.836 211.689 247.618C211.882 247.401 212.026 247.144 212.11 246.866C212.195 246.588 212.218 246.294 212.179 246.006L204.097 169.947C204.02 169.325 203.722 168.751 203.257 168.331C202.792 167.91 202.191 167.671 201.565 167.658H87.1428C86.8508 167.651 86.5608 167.707 86.2928 167.823C86.0247 167.939 85.7851 168.112 85.5904 168.33C85.3957 168.548 85.2507 168.805 85.1653 169.084C85.0799 169.364 85.0562 169.658 85.0958 169.947L93.1778 246.006C93.2576 246.63 93.5587 247.204 94.0262 247.624C94.4938 248.044 95.0967 248.283 95.7252 248.296Z" fill="white"/>
<path d="M97.8487 240.851H205.75C206.006 240.858 206.26 240.809 206.494 240.708C206.729 240.606 206.939 240.455 207.109 240.265C207.279 240.074 207.406 239.849 207.48 239.605C207.555 239.36 207.575 239.102 207.54 238.849L200.473 172.48C200.408 171.939 200.149 171.441 199.745 171.076C199.341 170.711 198.819 170.504 198.275 170.494H90.3732C90.1192 170.487 89.8669 170.536 89.6335 170.636C89.4001 170.736 89.1912 170.886 89.0211 171.075C88.8511 171.263 88.724 171.487 88.6485 171.729C88.573 171.972 88.551 172.228 88.5839 172.48L95.65 238.849C95.7123 239.393 95.9694 239.895 96.3737 240.263C96.778 240.631 97.302 240.84 97.8487 240.851Z" fill="#03989E"/>
<path opacity="0.2" d="M129.236 275.999H167.25C168.054 275.999 168.706 275.347 168.706 274.543V274.134C168.706 273.33 168.054 272.678 167.25 272.678H129.236C128.432 272.678 127.78 273.33 127.78 274.134V274.543C127.78 275.347 128.432 275.999 129.236 275.999Z" fill="white"/>
<path opacity="0.2" d="M97.8487 240.851H205.75C206.006 240.858 206.26 240.809 206.494 240.708C206.729 240.606 206.939 240.455 207.109 240.265C207.279 240.074 207.406 239.849 207.48 239.605C207.555 239.36 207.575 239.102 207.54 238.849L200.473 172.48C200.408 171.939 200.149 171.441 199.745 171.076C199.341 170.711 198.819 170.504 198.275 170.494H90.3732C90.1192 170.487 89.8669 170.536 89.6335 170.636C89.4001 170.736 89.1912 170.886 89.0211 171.075C88.8511 171.263 88.724 171.487 88.6485 171.729C88.573 171.972 88.551 172.228 88.5839 172.48L95.65 238.849C95.7123 239.393 95.9694 239.895 96.3737 240.263C96.778 240.631 97.302 240.84 97.8487 240.851Z" fill="#545454"/>
<path d="M129.949 275.044H103.383H36.8015V289.1H103.383H129.949H375.7V275.044H129.949Z" fill="#03989E"/>
<path d="M198.866 272.511H201.671C201.816 272.511 201.955 272.454 202.057 272.351C202.16 272.249 202.217 272.11 202.217 271.965V268.933C202.217 268.788 202.16 268.649 202.057 268.547C201.955 268.444 201.816 268.387 201.671 268.387H199.624C199.505 268.387 199.389 268.428 199.295 268.502C199.202 268.576 199.136 268.68 199.109 268.796L198.29 271.829C198.268 271.913 198.266 272.002 198.285 272.088C198.305 272.173 198.344 272.253 198.401 272.32C198.457 272.386 198.529 272.439 198.61 272.472C198.691 272.505 198.779 272.519 198.866 272.511Z" fill="#03989E"/>
<path d="M194.924 272.511H197.774C197.919 272.511 198.058 272.454 198.16 272.351C198.263 272.249 198.32 272.11 198.32 271.965V268.933C198.32 268.788 198.263 268.649 198.16 268.547C198.058 268.444 197.919 268.387 197.774 268.387H195.727C195.607 268.389 195.49 268.43 195.394 268.503C195.299 268.577 195.229 268.68 195.197 268.796L194.393 271.829C194.372 271.91 194.37 271.994 194.387 272.076C194.404 272.158 194.439 272.234 194.491 272.3C194.542 272.366 194.608 272.42 194.683 272.456C194.758 272.493 194.84 272.511 194.924 272.511Z" fill="#03989E"/>
<path d="M191.057 272.511H193.907C194.052 272.511 194.191 272.454 194.293 272.351C194.396 272.249 194.453 272.11 194.453 271.965V268.933C194.453 268.788 194.396 268.649 194.293 268.547C194.191 268.444 194.052 268.387 193.907 268.387H191.86C191.74 268.389 191.623 268.43 191.527 268.503C191.431 268.577 191.362 268.68 191.33 268.796L190.526 271.829C190.505 271.91 190.503 271.994 190.52 272.076C190.537 272.158 190.572 272.234 190.624 272.3C190.675 272.366 190.74 272.42 190.816 272.456C190.891 272.493 190.973 272.511 191.057 272.511Z" fill="#03989E"/>
<path d="M187.038 272.511H189.889C190.034 272.511 190.172 272.454 190.275 272.351C190.377 272.249 190.435 272.11 190.435 271.965V268.933C190.435 268.788 190.377 268.649 190.275 268.547C190.172 268.444 190.034 268.387 189.889 268.387H187.842C187.721 268.389 187.604 268.43 187.508 268.503C187.413 268.577 187.344 268.68 187.311 268.796L186.507 271.829C186.486 271.91 186.484 271.994 186.501 272.076C186.518 272.158 186.554 272.234 186.605 272.3C186.656 272.366 186.722 272.42 186.797 272.456C186.872 272.493 186.955 272.511 187.038 272.511Z" fill="#03989E"/>
<path d="M183.097 272.511H185.947C186.092 272.511 186.231 272.454 186.333 272.351C186.436 272.249 186.493 272.11 186.493 271.965V268.933C186.493 268.788 186.436 268.649 186.333 268.547C186.231 268.444 186.092 268.387 185.947 268.387H183.9C183.779 268.386 183.661 268.426 183.565 268.5C183.469 268.575 183.4 268.679 183.37 268.796L182.566 271.829C182.545 271.91 182.543 271.994 182.56 272.076C182.577 272.158 182.612 272.234 182.664 272.3C182.715 272.366 182.781 272.42 182.856 272.456C182.931 272.493 183.013 272.511 183.097 272.511Z" fill="#03989E"/>
<path d="M179.154 272.511H181.96C182.104 272.511 182.243 272.454 182.346 272.351C182.448 272.249 182.505 272.11 182.505 271.965V268.933C182.505 268.788 182.448 268.649 182.346 268.547C182.243 268.444 182.104 268.387 181.96 268.387H179.913C179.791 268.386 179.673 268.426 179.577 268.5C179.481 268.575 179.412 268.679 179.382 268.796L178.578 271.829C178.556 271.913 178.554 272.002 178.574 272.088C178.593 272.173 178.633 272.253 178.689 272.32C178.746 272.386 178.817 272.439 178.898 272.472C178.979 272.506 179.067 272.519 179.154 272.511Z" fill="#03989E"/>
<path d="M175.211 272.511H178.062C178.206 272.511 178.345 272.454 178.448 272.351C178.55 272.249 178.607 272.11 178.607 271.965V268.933C178.607 268.788 178.55 268.649 178.448 268.547C178.345 268.444 178.206 268.387 178.062 268.387H176.015C175.893 268.386 175.775 268.426 175.679 268.5C175.583 268.575 175.514 268.679 175.484 268.796L174.68 271.829C174.659 271.91 174.657 271.994 174.674 272.076C174.691 272.158 174.727 272.234 174.778 272.3C174.829 272.366 174.895 272.42 174.97 272.456C175.045 272.493 175.127 272.511 175.211 272.511Z" fill="#03989E"/>
<path d="M171.345 272.511H174.196C174.341 272.511 174.48 272.454 174.582 272.351C174.684 272.249 174.742 272.11 174.742 271.965V268.933C174.742 268.788 174.684 268.649 174.582 268.547C174.48 268.444 174.341 268.387 174.196 268.387H172.149C172.028 268.386 171.91 268.426 171.813 268.5C171.717 268.575 171.649 268.679 171.618 268.796L170.815 271.829C170.794 271.91 170.792 271.994 170.809 272.076C170.826 272.158 170.861 272.234 170.912 272.3C170.964 272.366 171.029 272.42 171.104 272.456C171.179 272.493 171.262 272.511 171.345 272.511Z" fill="#03989E"/>
<path d="M167.326 272.511H170.177C170.322 272.511 170.46 272.454 170.563 272.351C170.665 272.249 170.723 272.11 170.723 271.965V268.933C170.723 268.788 170.665 268.649 170.563 268.547C170.46 268.444 170.322 268.387 170.177 268.387H168.13C168.008 268.384 167.888 268.423 167.792 268.497C167.695 268.572 167.627 268.677 167.599 268.796L166.795 271.829C166.775 271.91 166.772 271.994 166.789 272.076C166.806 272.158 166.842 272.235 166.893 272.301C166.944 272.366 167.01 272.42 167.085 272.456C167.16 272.493 167.243 272.512 167.326 272.511Z" fill="#03989E"/>
<path d="M163.384 272.511H166.234C166.379 272.511 166.518 272.454 166.62 272.351C166.723 272.249 166.78 272.11 166.78 271.965V268.933C166.78 268.788 166.723 268.649 166.62 268.547C166.518 268.444 166.379 268.387 166.234 268.387H164.187C164.065 268.384 163.946 268.423 163.849 268.497C163.753 268.572 163.685 268.677 163.657 268.796L162.853 271.829C162.832 271.91 162.83 271.994 162.847 272.076C162.864 272.158 162.899 272.235 162.951 272.301C163.002 272.366 163.068 272.42 163.143 272.456C163.218 272.493 163.3 272.512 163.384 272.511Z" fill="#03989E"/>
<path d="M159.442 272.511H162.248C162.392 272.511 162.531 272.454 162.634 272.351C162.736 272.249 162.794 272.11 162.794 271.965V268.933C162.794 268.788 162.736 268.649 162.634 268.547C162.531 268.444 162.392 268.387 162.248 268.387H160.201C160.079 268.384 159.959 268.423 159.862 268.497C159.766 268.572 159.698 268.677 159.67 268.796L158.866 271.829C158.844 271.914 158.843 272.002 158.862 272.088C158.881 272.173 158.921 272.253 158.977 272.32C159.034 272.387 159.105 272.439 159.186 272.472C159.267 272.506 159.355 272.519 159.442 272.511Z" fill="#03989E"/>
<path d="M155.485 272.511H158.35C158.495 272.511 158.634 272.454 158.736 272.351C158.839 272.249 158.896 272.11 158.896 271.965V268.933C158.896 268.788 158.839 268.649 158.736 268.547C158.634 268.444 158.495 268.387 158.35 268.387H156.303C156.181 268.384 156.062 268.423 155.965 268.497C155.869 268.572 155.801 268.677 155.773 268.796L154.969 271.829C154.948 271.909 154.946 271.992 154.962 272.072C154.978 272.153 155.012 272.229 155.062 272.295C155.112 272.36 155.175 272.414 155.248 272.451C155.322 272.489 155.402 272.509 155.485 272.511Z" fill="#03989E"/>
<path d="M151.541 272.511H154.407C154.552 272.511 154.691 272.454 154.793 272.351C154.896 272.249 154.953 272.11 154.953 271.965V268.933C154.953 268.788 154.896 268.649 154.793 268.547C154.691 268.444 154.552 268.387 154.407 268.387H152.36C152.238 268.384 152.119 268.423 152.022 268.497C151.925 268.572 151.857 268.677 151.83 268.796L151.026 271.829C151.005 271.909 151.003 271.992 151.019 272.072C151.035 272.153 151.069 272.229 151.119 272.295C151.168 272.36 151.232 272.414 151.305 272.451C151.379 272.489 151.459 272.509 151.541 272.511Z" fill="#03989E"/>
<path d="M147.599 272.511H150.465C150.607 272.507 150.742 272.448 150.841 272.346C150.94 272.244 150.996 272.107 150.996 271.965V268.933C150.996 268.79 150.94 268.654 150.841 268.552C150.742 268.45 150.607 268.391 150.465 268.387H148.403C148.283 268.387 148.167 268.428 148.074 268.502C147.98 268.576 147.914 268.68 147.887 268.796L147.084 271.829C147.063 271.908 147.061 271.992 147.077 272.072C147.093 272.153 147.127 272.229 147.177 272.294C147.226 272.36 147.29 272.414 147.363 272.451C147.436 272.489 147.517 272.509 147.599 272.511Z" fill="#03989E"/>
<path d="M143.657 272.511H146.507C146.652 272.511 146.791 272.454 146.893 272.351C146.996 272.249 147.053 272.11 147.053 271.965V268.933C147.053 268.788 146.996 268.649 146.893 268.547C146.791 268.444 146.652 268.387 146.507 268.387H144.46C144.341 268.387 144.225 268.428 144.131 268.502C144.038 268.576 143.972 268.68 143.945 268.796L143.141 271.829C143.121 271.908 143.118 271.992 143.134 272.072C143.15 272.153 143.185 272.229 143.234 272.294C143.284 272.36 143.347 272.414 143.421 272.451C143.494 272.489 143.574 272.509 143.657 272.511Z" fill="#03989E"/>
<path d="M140.791 275.21H204.597V270.464H140.791V275.21Z" fill="#263238"/>
<path opacity="0.2" d="M140.791 275.21H204.597V270.464H140.791V275.21Z" fill="white"/>
<path opacity="0.2" d="M140.79 275.21H161.458V270.464H140.79V275.21Z" fill="white"/>
<path opacity="0.2" d="M103.368 289.085L375.685 289.085V275.029L103.368 275.029V289.085Z" fill="white"/>
<path d="M48.7202 409.147C48.916 408.748 49.0123 408.308 49.0008 407.865C48.9892 407.421 48.8703 406.987 48.6541 406.599C48.4379 406.212 48.131 405.882 47.7596 405.639C47.3881 405.396 46.9633 405.247 46.5216 405.204C46.8955 404.072 46.9174 402.853 46.5844 401.708C46.2515 400.563 45.5793 399.545 44.6565 398.79C44.4283 398.589 44.1411 398.466 43.8377 398.441C43.5166 398.473 43.2138 398.605 42.9734 398.82L37.8179 402.52C37.4027 402.773 37.0543 403.121 36.8019 403.536C35.7405 405.568 39.5465 408.191 37.9847 409.874C37.5298 410.36 36.8171 410.451 36.256 410.799C35.0278 411.573 34.8762 413.256 34.3 414.59C33.7238 415.925 31.7374 416.941 30.9792 415.712C31.5403 414.439 29.842 413.347 28.4621 413.18C27.0823 413.013 25.6266 412.937 24.8685 411.664C22.8972 413.377 18.4999 408.631 18.606 406.66C17.8387 406.807 17.1355 407.187 16.5927 407.749C16.0498 408.311 15.6938 409.027 15.5734 409.799C15.3508 411.396 15.2949 413.012 15.4066 414.621C15.4066 417.744 14.3452 420.792 14.4058 423.931C14.4058 426.357 15.3763 429.056 17.6053 429.996C18.7125 430.391 19.8909 430.546 21.0625 430.451L46.4154 430.284C47.0261 430.327 47.6384 430.229 48.2047 429.996C49.3419 429.405 49.5845 427.888 49.721 426.615L51.0857 410.087L48.7202 409.147Z" fill="#03989E"/>
<path opacity="0.3" d="M48.7202 409.147C48.916 408.748 49.0123 408.308 49.0008 407.865C48.9892 407.421 48.8703 406.987 48.6541 406.599C48.4379 406.212 48.131 405.882 47.7596 405.639C47.3881 405.396 46.9633 405.247 46.5216 405.204C46.8955 404.072 46.9174 402.853 46.5844 401.708C46.2515 400.563 45.5793 399.545 44.6565 398.79C44.4283 398.589 44.1411 398.466 43.8377 398.441C43.5166 398.473 43.2138 398.605 42.9734 398.82L37.8179 402.52C37.4027 402.773 37.0543 403.121 36.8019 403.536C35.7405 405.568 39.5465 408.191 37.9847 409.874C37.5298 410.36 36.8171 410.451 36.256 410.799C35.0278 411.573 34.8762 413.256 34.3 414.59C33.7238 415.925 31.7374 416.941 30.9792 415.712C31.5403 414.439 29.842 413.347 28.4621 413.18C27.0823 413.013 25.6266 412.937 24.8685 411.664C22.8972 413.377 18.4999 408.631 18.606 406.66C17.8387 406.807 17.1355 407.187 16.5927 407.749C16.0498 408.311 15.6938 409.027 15.5734 409.799C15.3508 411.396 15.2949 413.012 15.4066 414.621C15.4066 417.744 14.3452 420.792 14.4058 423.931C14.4058 426.357 15.3763 429.056 17.6053 429.996C18.7125 430.391 19.8909 430.546 21.0625 430.451L46.4154 430.284C47.0261 430.327 47.6384 430.229 48.2047 429.996C49.3419 429.405 49.5845 427.888 49.721 426.615L51.0857 410.087L48.7202 409.147Z" fill="white"/>
<path d="M50.2065 382.353H10.873L11.1915 386.326L11.4189 389.162L12.0255 396.546L12.3742 400.792L12.8139 406.372L13.0111 408.798V409.526L13.3143 412.437L13.6176 416.349L13.8147 418.76L14.027 421.232L14.2544 424.067L14.4212 426.221L14.6184 428.647L14.7093 429.693H50.813L50.8888 428.647L51.0859 426.236L51.2527 424.067L51.4954 421.217L51.6925 418.76L51.8896 416.349L52.208 412.437L52.4355 409.602V408.874L52.6174 406.448L53.0875 400.807L53.4211 396.576L54.0125 389.177L54.2551 386.341L54.5735 382.368L50.2065 382.353ZM52.5719 384.961L51.8138 384.203H52.6326L52.5719 384.961ZM52.3748 387.372V388.328L48.857 391.861L44.8235 387.812L48.4324 384.203H49.2815L52.3748 387.372ZM51.3589 399.958L48.7811 402.536L44.7477 398.502L48.7811 394.469L51.556 397.274L51.3589 399.958ZM13.936 397.274L16.6806 394.469L20.714 398.502L16.6806 402.536L14.1028 399.958L13.936 397.274ZM47.4771 393.18L43.4437 397.274L39.4254 393.165L43.474 389.116L47.4771 393.18ZM41.1237 384.218H45.7485L43.4437 386.523L41.1237 384.218ZM42.1245 398.517L38.0911 402.551L34.0576 398.517L38.0911 394.484L42.1245 398.517ZM28.7202 403.855L32.7536 399.821L36.787 403.855L32.7536 407.888L28.7202 403.855ZM31.4496 409.207L27.401 413.241L23.3827 409.207L27.4161 405.174L31.4496 409.207ZM38.0911 405.174L42.1245 409.207L38.0911 413.241L34.0576 409.207L38.0911 405.174ZM32.7536 397.274L28.7202 393.24L32.7536 389.192L36.787 393.24L32.7536 397.274ZM31.4496 398.578L27.4161 402.611L23.3827 398.578L27.4161 394.545L31.4496 398.578ZM22.0635 397.274L18.0301 393.24L22.0635 389.192L26.0969 393.24L22.0635 397.274ZM22.0635 399.882L26.0969 403.915L22.0635 407.888L18.0301 403.84L22.0635 399.882ZM26.0969 414.605L22.0635 418.502L18.0301 414.469L22.0635 410.436L26.0969 414.605ZM27.401 415.91L31.4496 419.958L27.4161 423.992L23.3827 419.958L27.401 415.91ZM28.7202 414.605L32.7536 410.572L36.787 414.605L32.7536 418.502L28.7202 414.605ZM38.0911 415.91L42.1245 419.958L38.0911 423.992L34.0576 419.958L38.0911 415.91ZM43.4437 421.262L47.4771 425.296L44.869 427.919H42.0183L39.4254 425.22L43.4437 421.262ZM39.4254 414.53L43.474 410.496L47.5074 414.53L43.4437 418.502L39.4254 414.53ZM39.4254 403.84L43.474 399.806L47.5074 403.84L43.4437 407.888L39.4254 403.84ZM42.1548 387.812L38.1214 391.861L34.088 387.812L37.6968 384.203H38.5611L42.1548 387.812ZM32.7839 386.508L30.4791 384.203H35.0281L32.7839 386.508ZM31.4799 387.812L27.4465 391.861L23.413 387.812L27.0219 384.203H27.871L31.4799 387.812ZM24.3987 384.203L22.0938 386.508L19.7132 384.203H24.3987ZM17.181 384.203L20.7898 387.812L16.6806 391.861L13.2082 388.328L13.1324 387.372L16.3015 384.203H17.181ZM13.7237 384.203L12.9656 384.946V384.203H13.7237ZM13.4356 391.209L15.422 393.195L13.7389 394.848L13.4356 391.209ZM14.5426 404.749L14.3758 402.839L15.422 403.87L14.5426 404.749ZM14.7397 407.175L16.6806 405.159L20.714 409.192L16.6806 413.226L15.1642 411.603L14.7397 407.175ZM15.331 414.651V414.469L15.422 414.56L15.331 414.651ZM16.0437 423.249L15.5282 416.986L16.7261 415.788L20.7595 419.837L16.6806 423.916L15.9982 423.218L16.0437 423.249ZM16.4076 427.873L16.3318 426.948L16.7261 426.554L18.0301 427.873H16.4076ZM18.0301 425.25L22.0635 421.217L26.0969 425.25L23.4889 427.873H20.6382L18.0301 425.25ZM26.0969 427.873L27.4161 426.554L28.7202 427.873H26.0969ZM31.3283 427.873L28.7202 425.25L32.7536 421.217L36.787 425.25L34.1789 427.873H31.3283ZM36.787 427.873L38.0911 426.554L39.4103 427.873H36.787ZM49.0996 427.873H47.4771L48.7811 426.554L49.1754 426.948L49.0996 427.873ZM49.4786 423.249L48.7811 423.946L44.7477 419.913L48.7811 415.864L50.0397 416.986L49.4786 423.249ZM50.1913 414.469V414.651L50.1003 414.56L50.2065 414.469H50.1913ZM50.4188 411.633L48.7811 413.256L44.7477 409.223L48.7811 405.189L50.7827 407.175L50.4188 411.633ZM50.9798 404.765L50.0852 403.87L51.1314 402.839L50.9798 404.765ZM52.0716 391.209L51.7835 394.878L50.0397 393.165L52.0716 391.209Z" fill="#03989E"/>
<g opacity="0.6">
<path d="M50.2055 382.354H10.8721L11.1905 386.326L11.4179 389.162L12.0245 396.546L12.3732 400.792L12.813 406.372L13.0101 408.798V409.526L13.3134 412.437L13.6166 416.349L13.8137 418.76L14.026 421.232L14.2535 424.068L14.4203 426.221L14.6174 428.647L14.7084 429.693H50.812L50.8879 428.647L51.085 426.236L51.2518 424.068L51.4944 421.217L51.6915 418.76L51.8886 416.349L52.2071 412.437L52.4345 409.602V408.874L52.6165 406.448L53.0865 400.807L53.4201 396.577L54.0115 389.177L54.2541 386.341L54.5725 382.369L50.2055 382.354ZM52.571 384.962L51.8128 384.203H52.6316L52.571 384.962ZM52.3739 387.373V388.328L48.856 391.861L44.8226 387.812L48.4314 384.203H49.2805L52.3739 387.373ZM51.3579 399.958L48.7802 402.536L44.7467 398.502L48.7802 394.469L51.555 397.274L51.3579 399.958ZM13.935 397.274L16.6796 394.469L20.713 398.502L16.6796 402.536L14.1018 399.958L13.935 397.274ZM47.4761 393.18L43.4427 397.274L39.4244 393.165L43.473 389.116L47.4761 393.18ZM41.1227 384.219H45.7475L43.4427 386.523L41.1227 384.219ZM42.1235 398.518L38.0901 402.551L34.0567 398.518L38.0901 394.484L42.1235 398.518ZM28.7192 403.855L32.7526 399.822L36.786 403.855L32.7526 407.888L28.7192 403.855ZM31.4486 409.208L27.4 413.241L23.3817 409.208L27.4152 405.174L31.4486 409.208ZM38.0901 405.174L42.1235 409.208L38.0901 413.241L34.0567 409.208L38.0901 405.174ZM32.7526 397.274L28.7192 393.241L32.7526 389.192L36.786 393.241L32.7526 397.274ZM31.4486 398.578L27.4152 402.612L23.3817 398.578L27.4152 394.545L31.4486 398.578ZM22.0625 397.274L18.0291 393.241L22.0625 389.192L26.096 393.241L22.0625 397.274ZM22.0625 399.882L26.096 403.916L22.0625 407.888L18.0291 403.84L22.0625 399.882ZM26.096 414.606L22.0625 418.503L18.0291 414.469L22.0625 410.436L26.096 414.606ZM27.4 415.91L31.4486 419.958L27.4152 423.992L23.3817 419.958L27.4 415.91ZM28.7192 414.606L32.7526 410.572L36.786 414.606L32.7526 418.503L28.7192 414.606ZM38.0901 415.91L42.1235 419.958L38.0901 423.992L34.0567 419.958L38.0901 415.91ZM43.4427 421.262L47.4761 425.296L44.868 427.919H42.0174L39.4244 425.22L43.4427 421.262ZM39.4244 414.53L43.473 410.496L47.5065 414.53L43.4427 418.503L39.4244 414.53ZM39.4244 403.84L43.473 399.806L47.5065 403.84L43.4427 407.888L39.4244 403.84ZM42.1538 387.812L38.1204 391.861L34.087 387.812L37.6958 384.203H38.5601L42.1538 387.812ZM32.7829 386.508L30.4781 384.203H35.0271L32.7829 386.508ZM31.4789 387.812L27.4455 391.861L23.4121 387.812L27.0209 384.203H27.8701L31.4789 387.812ZM24.3977 384.203L22.0929 386.508L19.7122 384.203H24.3977ZM17.18 384.203L20.7888 387.812L16.6796 391.861L13.2072 388.328L13.1314 387.373L16.3005 384.203H17.18ZM13.7228 384.203L12.9646 384.946V384.203H13.7228ZM13.4347 391.209L15.421 393.195L13.7379 394.848L13.4347 391.209ZM14.5416 404.75L14.3748 402.839L15.421 403.87L14.5416 404.75ZM14.7387 407.176L16.6796 405.159L20.713 409.192L16.6796 413.226L15.1633 411.603L14.7387 407.176ZM15.3301 414.651V414.469L15.421 414.56L15.3301 414.651ZM16.0427 423.249L15.5272 416.986L16.7251 415.788L20.7585 419.837L16.6796 423.916L15.9972 423.218L16.0427 423.249ZM16.4067 427.874L16.3308 426.949L16.7251 426.554L18.0291 427.874H16.4067ZM18.0291 425.25L22.0625 421.217L26.096 425.25L23.4879 427.874H20.6372L18.0291 425.25ZM26.096 427.874L27.4152 426.554L28.7192 427.874H26.096ZM31.3273 427.874L28.7192 425.25L32.7526 421.217L36.786 425.25L34.178 427.874H31.3273ZM36.786 427.874L38.0901 426.554L39.4093 427.874H36.786ZM49.0986 427.874H47.4761L48.7802 426.554L49.1744 426.949L49.0986 427.874ZM49.4777 423.249L48.7802 423.946L44.7467 419.913L48.7802 415.864L50.0387 416.986L49.4777 423.249ZM50.1903 414.469V414.651L50.0994 414.56L50.2055 414.469H50.1903ZM50.4178 411.634L48.7802 413.256L44.7467 409.223L48.7802 405.189L50.7817 407.176L50.4178 411.634ZM50.9788 404.765L50.0842 403.87L51.1305 402.839L50.9788 404.765ZM52.0706 391.209L51.7825 394.878L50.0387 393.165L52.0706 391.209Z" fill="white"/>
</g>
<path d="M10.8421 385.856H54.6639C56.0373 385.856 57.1506 384.743 57.1506 383.369V383.203C57.1506 381.829 56.0373 380.716 54.6639 380.716H10.8421C9.4687 380.716 8.35534 381.829 8.35534 383.203V383.369C8.35534 384.743 9.4687 385.856 10.8421 385.856Z" fill="#03989E"/>
<path d="M51.1449 426.918H14.3588C12.9854 426.918 11.8721 428.032 11.8721 429.405V429.572C11.8721 430.945 12.9854 432.059 14.3588 432.059H51.1449C52.5183 432.059 53.6316 430.945 53.6316 429.572V429.405C53.6316 428.032 52.5183 426.918 51.1449 426.918Z" fill="#03989E"/>
<path d="M337.275 63.6831C330.664 63.4253 304.917 105.367 304.917 105.367L287.403 102.061L283.658 111.008C283.658 111.008 299.443 118.71 305.781 119.393C312.119 120.075 336.395 86.2156 336.395 86.2156L337.275 63.6831Z" fill="#03989E"/>
<path opacity="0.2" d="M337.275 63.6834L336.395 86.2312C336.395 86.2312 335.804 87.05 334.788 88.4147C332.938 90.9469 329.617 95.3898 325.842 100.136C318.457 109.385 309.314 119.848 305.781 119.393C299.427 118.711 283.658 111.038 283.658 111.038L287.403 102.092L304.901 105.397C304.901 105.397 330.664 63.4711 337.275 63.6834Z" fill="white"/>
<path opacity="0.2" d="M334.788 88.4448C332.938 90.9771 329.617 95.4199 325.842 100.166C325.978 91.2197 333.802 80.0898 333.802 80.0898C333.802 80.0898 334.348 83.729 334.788 88.4448Z" fill="#545454"/>
<path d="M387.495 430.785H402.279C402.522 430.788 402.756 430.872 402.945 431.023C403.135 431.174 403.269 431.384 403.326 431.619L405.722 442.461C405.77 442.691 405.774 442.928 405.731 443.159C405.688 443.391 405.6 443.611 405.472 443.808C405.343 444.005 405.178 444.175 404.984 444.308C404.79 444.442 404.572 444.535 404.342 444.584C404.206 444.599 404.068 444.599 403.932 444.584C399.156 444.508 395.668 444.22 389.664 444.22C385.949 444.22 374.789 444.599 369.679 444.599C364.568 444.599 363.901 439.55 365.994 439.079C375.38 437.048 382.446 434.212 385.448 431.498C386.013 431.004 386.746 430.749 387.495 430.785Z" fill="#263238"/>
<path d="M324.75 430.391H339.549C339.79 430.392 340.024 430.475 340.211 430.627C340.399 430.779 340.529 430.989 340.58 431.225L342.991 442.067C343.086 442.535 342.993 443.021 342.732 443.421C342.471 443.821 342.063 444.103 341.596 444.205C341.465 444.22 341.333 444.22 341.202 444.205C336.426 444.114 332.938 443.825 326.918 443.825C323.218 443.825 312.058 444.22 306.948 444.22C301.838 444.22 301.156 439.155 303.249 438.7C312.635 436.653 319.701 433.818 322.703 431.119C323.272 430.632 324.001 430.372 324.75 430.391Z" fill="#263238"/>
<path d="M395.335 156.573H330.709C324.553 190.129 305.326 326.401 319.124 432.195H341.005C341.005 432.195 338.973 271.465 358.291 219.576C360.52 247.37 383.098 432.15 383.098 432.15H405.373C405.373 432.15 402.052 362.672 398.716 297.03C396.624 255.634 395.426 165.049 395.335 156.573Z" fill="#263238"/>
<path opacity="0.2" d="M358.291 219.577C355.113 228.68 352.699 238.033 351.074 247.538C349.269 222.806 356.487 196.589 356.487 196.589L358.291 219.577Z" fill="#545454"/>
<path d="M330.163 157.347H395.213V165.095L329.329 164.291L330.163 157.347Z" fill="#545454"/>
<path d="M374.303 153.859H371.983V167.612H374.303V153.859Z" fill="#263238"/>
<path d="M341.384 153.859H339.064V167.612H341.384V153.859Z" fill="#263238"/>
<path d="M359.824 155.981H347.784V164.655H359.824V155.981Z" fill="white"/>
<path d="M395.411 158.59C397.139 121.577 408.027 69.1272 408.027 69.1272C377.821 61.8337 337.275 63.6684 337.275 63.6684C329.36 91.9327 329.511 137.544 330.194 158.53L395.411 158.59Z" fill="#03989E"/>
<path opacity="0.2" d="M408.027 69.1719C408.027 69.1719 406.814 75.0401 405.13 84.2138C404.327 88.596 403.402 93.7363 402.477 99.3771C401.931 102.667 401.37 106.11 400.839 109.658C400.309 113.206 399.763 116.678 399.323 120.272C397.534 133.13 396.032 146.671 395.471 158.605H330.27C329.587 137.619 329.451 92.0077 337.351 63.7283C337.275 63.6828 377.821 61.8935 408.027 69.1719Z" fill="white"/>
<path opacity="0.2" d="M405.13 84.2137C404.326 88.5959 403.402 93.7362 402.477 99.377C401.931 102.667 401.37 106.109 400.839 109.658C396.047 97.0873 404.205 80.1045 404.205 80.1045L405.13 84.2137Z" fill="#545454"/>
<path d="M358.745 68.6418L360.367 76.648C360.367 76.648 351.042 115.572 349.025 135.785L352.437 139.181L357.85 135.769C357.85 135.769 358.32 94.6468 363.036 77.3759L371.497 70.4614L364.78 68.2324L358.745 68.6418Z" fill="#263238"/>
<path d="M384.068 65.0934C378.473 70.1731 364.78 68.2322 364.78 68.2322C364.78 68.2322 356.243 65.8971 358.033 63.2284C363.067 62.3944 365.508 60.0441 366.509 57.0417C367.059 55.1791 367.235 53.2258 367.024 51.2949C366.949 50.2183 366.782 49.1417 366.6 48.0803L383.522 35.5403C381.308 43.8801 378.594 59.1343 384.068 65.0934Z" fill="#FF9580"/>
<path opacity="0.2" d="M379.626 43.5767C378.943 53.7209 370.528 56.5261 366.51 57.1023C367.06 55.2396 367.235 53.2863 367.025 51.3554L379.626 43.5767Z" fill="#545454"/>
<path d="M381.566 58.6487L365.432 65.9422L364.492 60.1044L358.488 62.1666C357.451 62.5272 356.567 63.229 355.98 64.1571C355.393 65.0853 355.139 66.185 355.258 67.2766L355.925 73.7058L364.128 69.1568L368.223 74.9492L387.662 65.5934L381.566 58.6487Z" fill="#03989E"/>
<path opacity="0.3" d="M381.566 58.6487L365.432 65.9422L364.492 60.1044L358.488 62.1666C357.451 62.5272 356.567 63.229 355.98 64.1571C355.393 65.0853 355.139 66.185 355.258 67.2766L355.925 73.7058L364.128 69.1568L368.223 74.9492L387.662 65.5934L381.566 58.6487Z" fill="white"/>
<path d="M348.753 12.1284C348.753 12.1284 346.236 28.4289 354.818 34.7368C363.4 41.0447 363.658 10.6121 363.658 10.6121L348.753 12.1284Z" fill="#263238"/>
<path d="M380.02 47.7158C378.201 50.3994 375.55 52.4101 372.475 53.4377C369.401 54.4654 366.073 54.4528 363.006 53.402C359.012 52.1301 355.654 49.38 353.62 45.7143C353.334 45.2239 353.076 44.7177 352.847 44.1979C348.617 34.175 347.313 16.6767 357.851 10.2323C360.173 8.78178 362.828 7.94977 365.563 7.81546C368.298 7.68115 371.021 8.249 373.474 9.46497C375.928 10.6809 378.029 12.5045 379.578 14.7622C381.127 17.0199 382.073 19.6364 382.324 22.3629C383.628 34.0537 384.887 40.8469 380.02 47.7158Z" fill="#FF9580"/>
<path d="M371.499 9.39868V14.5997C372.408 14.9094 373.169 15.5477 373.631 16.3893C374.094 17.2308 374.226 18.215 374.001 19.1486C372.848 23.6976 376.093 30.0662 379.732 32.3407C379.732 32.3407 379.611 30.4604 381.249 30.7182C382.886 30.976 383.599 40.7563 381.082 45.7753C381.082 45.7753 385.237 41.014 386.647 30.4907C387.951 20.7408 387.314 12.8256 384.933 9.39868H371.499Z" fill="#263238"/>
<path d="M388.981 31.0214C388.14 33.8494 386.216 36.2309 383.628 37.6477C380.171 39.4825 377.563 36.6015 377.851 32.9016C378.093 29.6112 380.156 24.5922 383.916 24.3192C387.677 24.0463 389.966 27.5338 388.981 31.0214Z" fill="#FF9580"/>
<path d="M384.068 11.8552C384.068 11.8552 389.694 5.0317 376.244 0.846646C362.794 -3.33841 343.188 9.09545 347.237 14.0538C351.285 19.0122 364.978 16.9197 364.978 16.9197C363.035 16.6991 361.194 15.9314 359.671 14.7058C359.671 14.7058 379.565 16.025 384.068 11.8552Z" fill="#263238"/>
<path d="M408.027 69.1875C416.533 72.0534 422.356 124.958 422.25 129.552C422.144 134.147 409.119 136.118 408.027 126.52C406.935 116.921 402.462 96.4662 402.462 96.4662C402.462 96.4662 401.279 87.2166 402.462 81.6062C403.645 75.9958 408.027 69.1875 408.027 69.1875Z" fill="#03989E"/>
<path opacity="0.2" d="M408.027 69.1875C416.533 72.0534 422.356 124.958 422.25 129.552C422.144 134.147 409.119 136.118 408.027 126.52C406.935 116.921 402.462 96.4662 402.462 96.4662C402.462 96.4662 401.279 87.2166 402.462 81.6062C403.645 75.9958 408.027 69.1875 408.027 69.1875Z" fill="white"/>
<path d="M474.916 128.202L178.087 96.0608L155.728 302.545L452.557 334.686L474.916 128.202Z" fill="#03989E"/>
<path opacity="0.6" d="M474.916 128.202L178.087 96.0608L155.728 302.545L452.557 334.686L474.916 128.202Z" fill="white"/>
<path d="M445.755 326.827L466.597 134.348L184.888 103.844L164.046 296.323L445.755 326.827Z" stroke="#03989E" stroke-miterlimit="10"/>
<path d="M468.891 146.354L470.514 131.357L455.502 129.735L454.881 135.573L196.09 107.566L196.727 101.728L181.715 100.106L180.092 115.117L186.097 115.754L167.795 284.976L161.79 284.339L160.168 299.336L175.164 300.958L175.801 295.12L434.592 323.127L433.955 328.964L448.952 330.587L450.589 315.575L444.585 314.923L462.887 145.702L468.891 146.354Z" stroke="#03989E" stroke-miterlimit="10"/>
<path d="M188.311 108.339L191.768 108.718L191.389 112.206L188.023 111.781L188.387 108.339M187.053 106.671L186.886 108.187L186.507 111.629L186.355 113.146L187.872 113.312L191.314 113.676L192.83 113.843L192.997 112.327L193.361 108.87L193.527 107.353L192.011 107.186L188.554 106.823L187.038 106.656L187.053 106.671Z" fill="#03989E"/>
<path d="M168.75 289.251L172.192 289.63L171.813 293.072L168.311 292.648L168.69 289.19M167.34 287.522L167.173 289.039L166.809 292.481L166.643 293.997L168.159 294.164L171.616 294.543L173.132 294.71L173.299 293.194L173.663 289.751L173.83 288.235L172.314 288.084L168.856 287.704L167.34 287.538V287.522Z" fill="#03989E"/>
<path d="M458.869 137.619L462.311 137.983L461.932 141.425L458.49 141.015L458.869 137.573M457.52 135.89L457.353 137.406L456.989 140.849L456.822 142.365L458.339 142.516L461.796 142.896L463.312 143.062L463.479 141.546L463.843 138.104L464.01 136.588L462.493 136.436L459.036 136.057L457.52 135.89Z" fill="#03989E"/>
<path d="M439.293 318.532L442.735 318.896L442.371 322.353L438.914 321.974L439.293 318.532ZM437.944 316.864L437.777 318.38L437.413 321.822L437.246 323.339L438.762 323.506L442.22 323.869L443.736 324.036L443.903 322.52L444.282 319.063L444.434 317.546L442.917 317.38L439.475 317L437.959 316.849L437.944 316.864Z" fill="#03989E"/>
<path d="M243.809 140.333C244.038 138.866 244.692 137.498 245.691 136.4C246.69 135.301 247.99 134.52 249.429 134.154C250.868 133.787 252.382 133.851 253.785 134.338C255.188 134.824 256.417 135.712 257.32 136.891L255.47 138.286C255.061 137.71 254.532 137.23 253.919 136.88C253.307 136.529 252.625 136.315 251.922 136.254C251.27 136.166 250.607 136.21 249.972 136.383C249.337 136.555 248.743 136.853 248.225 137.259C247.707 137.664 247.276 138.17 246.956 138.745C246.637 139.32 246.435 139.953 246.365 140.607C246.294 141.261 246.354 141.923 246.543 142.553C246.732 143.183 247.046 143.769 247.465 144.277C247.884 144.784 248.4 145.202 248.983 145.507C249.566 145.811 250.205 145.996 250.86 146.05C251.559 146.131 252.266 146.063 252.936 145.848C253.605 145.634 254.221 145.278 254.742 144.806L256.258 146.58C255.125 147.539 253.734 148.144 252.26 148.32C250.786 148.496 249.292 148.235 247.965 147.57C246.637 146.905 245.534 145.864 244.793 144.578C244.052 143.291 243.704 141.815 243.794 140.333H243.809Z" fill="#03989E"/>
<path d="M269.224 147.93L268.981 150.114L258.519 148.976L260.035 135.026L270.209 136.133L269.982 138.301L262.4 137.483L262.006 141.107L268.739 141.834L268.496 144.048L261.763 143.32L261.354 147.081L269.224 147.93Z" fill="#03989E"/>
<path d="M280.989 151.402L278.578 147.081H278.048L274.894 146.747L274.454 150.705L271.876 150.417L273.393 136.482L279.124 137.088C282.794 137.498 284.856 139.605 284.522 142.699C284.451 143.654 284.081 144.563 283.462 145.296C282.844 146.028 282.011 146.547 281.08 146.778L283.795 151.706L280.989 151.402ZM278.76 139.272L275.728 138.953L275.121 144.503L278.154 144.837C280.428 145.079 281.717 144.169 281.899 142.411C282.081 140.652 281.035 139.499 278.76 139.272Z" fill="#03989E"/>
<path d="M290.33 140.531L285.705 140.03L285.948 137.832L297.775 139.12L297.548 141.304L292.999 140.804L291.725 152.555L289.132 152.282L290.33 140.531Z" fill="#03989E"/>
<path d="M299.731 139.332L302.324 139.605L300.808 153.555L298.215 153.267L299.731 139.332Z" fill="#03989E"/>
<path d="M308.435 142.532L307.98 146.763L314.713 147.49L314.47 149.689L307.814 148.901L307.237 154.238L304.645 153.95L306.161 140.015L316.335 141.122L316.108 143.29L308.435 142.532Z" fill="#03989E"/>
<path d="M318.777 141.379L321.354 141.667L319.838 155.618L317.245 155.33L318.777 141.379Z" fill="#03989E"/>
<path d="M323.371 148.931C323.46 147.956 323.749 147.01 324.22 146.151C324.69 145.293 325.332 144.54 326.105 143.94C326.879 143.34 327.768 142.905 328.716 142.663C329.665 142.421 330.653 142.376 331.62 142.532C332.667 142.615 333.683 142.93 334.593 143.454C335.503 143.979 336.285 144.7 336.881 145.565L335.047 146.96C334.634 146.387 334.104 145.908 333.492 145.555C332.881 145.202 332.201 144.983 331.498 144.913C330.681 144.833 329.858 144.959 329.102 145.278C328.346 145.598 327.681 146.101 327.169 146.742C326.657 147.383 326.313 148.142 326.169 148.95C326.024 149.758 326.084 150.59 326.342 151.369C326.6 152.148 327.049 152.85 327.648 153.411C328.246 153.973 328.976 154.376 329.769 154.584C330.563 154.793 331.397 154.799 332.194 154.604C332.991 154.408 333.726 154.017 334.334 153.465L335.85 155.239C334.717 156.198 333.326 156.803 331.852 156.979C330.378 157.155 328.884 156.894 327.557 156.228C326.229 155.563 325.126 154.523 324.385 153.236C323.643 151.95 323.296 150.474 323.386 148.992L323.371 148.931Z" fill="#03989E"/>
<path d="M347.238 155.3L340.263 154.557L338.534 157.589L335.865 157.301L343.598 144.049L346.161 144.322L350.937 158.939L348.238 158.651L347.238 155.3ZM346.601 153.177L344.63 146.793L341.354 152.616L346.601 153.177Z" fill="#03989E"/>
<path d="M356.124 147.642L351.499 147.081L351.787 144.958L363.63 146.231L363.387 148.43L358.762 147.93L357.488 159.681L354.911 159.393L356.124 147.642Z" fill="#03989E"/>
<path d="M365.509 146.444L368.102 146.717L366.586 160.667L363.993 160.394L365.509 146.444Z" fill="#03989E"/>
<path d="M370.119 153.995C370.211 152.482 370.753 151.031 371.677 149.83C372.601 148.628 373.864 147.731 375.302 147.254C376.741 146.777 378.29 146.743 379.749 147.155C381.207 147.567 382.509 148.407 383.485 149.566C384.462 150.725 385.069 152.151 385.227 153.658C385.386 155.165 385.089 156.686 384.375 158.023C383.661 159.36 382.562 160.452 381.221 161.159C379.88 161.865 378.358 162.153 376.852 161.986C375.874 161.933 374.918 161.68 374.042 161.243C373.166 160.806 372.389 160.195 371.758 159.446C371.128 158.697 370.657 157.828 370.375 156.89C370.093 155.953 370.006 154.968 370.119 153.995ZM382.523 155.345C382.628 154.376 382.444 153.397 381.993 152.533C381.542 151.669 380.845 150.958 379.99 150.49C379.135 150.022 378.16 149.818 377.189 149.904C376.218 149.99 375.294 150.362 374.535 150.973C373.775 151.584 373.214 152.406 372.922 153.336C372.63 154.266 372.62 155.262 372.894 156.198C373.168 157.133 373.714 157.966 374.461 158.592C375.209 159.217 376.125 159.607 377.095 159.712C377.741 159.803 378.399 159.76 379.029 159.587C379.658 159.414 380.246 159.113 380.754 158.704C381.263 158.295 381.682 157.785 381.987 157.208C382.291 156.63 382.473 155.996 382.523 155.345Z" fill="#03989E"/>
<path d="M401.021 150.28L399.504 164.231L397.366 164.003L390.71 153.722L389.679 163.169L387.116 162.896L388.632 148.946L390.77 149.173L397.442 159.454L398.458 150.007L401.021 150.28Z" fill="#03989E"/>
<path opacity="0.6" d="M386.753 204.095L247.995 189.084C246.438 188.915 244.879 189.371 243.659 190.352C242.439 191.333 241.658 192.759 241.49 194.315C241.321 195.871 241.777 197.431 242.758 198.651C243.739 199.871 245.165 200.651 246.721 200.82L385.48 215.831C386.25 215.915 387.03 215.846 387.774 215.629C388.518 215.411 389.212 215.049 389.816 214.563C390.42 214.077 390.922 213.477 391.294 212.797C391.666 212.117 391.901 211.371 391.985 210.6C392.068 209.83 391.999 209.05 391.782 208.306C391.564 207.562 391.202 206.868 390.716 206.264C390.23 205.66 389.63 205.158 388.951 204.786C388.271 204.413 387.524 204.179 386.753 204.095Z" fill="white"/>
<path d="M420.475 233.799L208.69 210.887" stroke="#03989E" stroke-linecap="round" stroke-linejoin="round"/>
<path d="M421.173 227.446L225.976 206.324" stroke="#03989E" stroke-linecap="round" stroke-linejoin="round"/>
<path d="M336.776 231.464L207.964 217.529" stroke="#03989E" stroke-linecap="round" stroke-linejoin="round"/>
<path d="M230.814 161.517L426.026 182.639" stroke="#03989E" stroke-linecap="round" stroke-linejoin="round"/>
<path d="M213.527 166.066L425.327 188.992" stroke="#03989E" stroke-linecap="round" stroke-linejoin="round"/>
<path d="M212.102 179.348L307.706 189.69" stroke="#03989E" stroke-linecap="round" stroke-linejoin="round"/>
<path d="M212.815 172.707L424.616 195.634" stroke="#03989E" stroke-linecap="round" stroke-linejoin="round"/>
<path d="M397.883 304.687L389.133 298.698L379.308 302.671L382.704 271.222L401.294 273.239L397.883 304.687Z" fill="#03989E"/>
<path opacity="0.2" d="M397.883 304.687L389.133 298.698L379.308 302.671L382.704 271.222L401.294 273.239L397.883 304.687Z" fill="#545454"/>
<path d="M394.608 248.129L397.671 246.355L399.612 249.327L403.038 248.357L404.176 251.723L407.724 251.647L407.997 255.18L411.454 255.984L410.832 259.486L413.986 261.124L412.516 264.354L415.154 266.734L412.925 269.494L414.896 272.451L412.045 274.574L413.228 277.925L409.938 279.274L410.241 282.808L406.723 283.308L406.147 286.811L402.614 286.401L401.173 289.646L397.853 288.388L395.654 291.178L392.758 289.131L389.937 291.284L387.633 288.57L384.373 289.949L382.811 286.765L379.308 287.281L378.595 283.808L375.062 283.444L375.244 279.896L371.908 278.668L372.955 275.271L370.043 273.255L371.908 270.237L369.573 267.538L372.136 265.082L370.544 261.897L373.637 260.154L372.894 256.681L376.321 255.756L376.457 252.208L380.021 252.163L381.037 248.751L384.479 249.6L386.313 246.552L389.452 248.235L391.985 245.733L394.608 248.129Z" fill="#03989E"/>
<path opacity="0.2" d="M394.152 252.268L396.608 250.843L398.155 253.224L400.884 252.45L401.794 255.134L404.63 255.074L404.842 257.909L407.602 258.546L407.116 261.336L409.634 262.64L408.451 265.218L410.559 267.113L408.784 269.327L410.361 271.693L408.087 273.376L409.027 276.06L406.404 277.136L406.646 279.957L403.841 280.351L403.371 283.156L400.551 282.822L399.398 285.43L396.76 284.415L395.001 286.644L392.681 285.006L390.422 286.719L388.587 284.551L385.979 285.658L384.736 283.111L381.93 283.535L381.369 280.76L378.549 280.457L378.685 277.637L376.032 276.651L376.866 273.937L374.546 272.329L376.032 269.918L374.167 267.765L376.214 265.809L374.955 263.262L377.412 261.867L376.82 259.092L379.55 258.349L379.671 255.513L382.507 255.483L383.325 252.769L386.07 253.436L387.541 251.01L390.043 252.344L392.059 250.358L394.152 252.268Z" fill="white"/>
<path d="M392.393 270.024L394.516 270.252L394.349 271.677L392.075 271.435L391.453 274.058L390.028 273.906L390.649 271.283L387.996 270.995L387.389 273.618L385.964 273.466L386.571 270.843L384.463 270.616L384.615 269.19L386.904 269.433L387.571 266.688L385.448 266.461L385.6 265.036L387.89 265.278L388.511 262.655L389.937 262.807L389.315 265.43L391.938 265.718L392.56 263.095L393.985 263.246L393.364 265.87L395.471 266.097L395.335 267.522L393.045 267.28L392.393 270.024ZM390.968 269.873L391.62 267.128L388.982 266.84L388.33 269.585L390.968 269.873Z" fill="#03989E"/>
<path d="M400.597 263.959L399.415 274.922L397.383 274.695L398.383 265.445L396.063 265.203L396.245 263.489L400.597 263.959Z" fill="#03989E"/>
<path d="M224.416 237.318C224.774 237.107 225.2 237.042 225.604 237.138C226.008 237.235 226.36 237.484 226.584 237.833C226.775 238.122 227.053 238.343 227.377 238.463C227.702 238.583 228.056 238.596 228.389 238.5C228.789 238.389 229.216 238.436 229.583 238.631C229.95 238.825 230.228 239.153 230.36 239.547C230.47 239.863 230.674 240.137 230.945 240.333C231.217 240.528 231.542 240.635 231.876 240.638C232.294 240.63 232.699 240.782 233.007 241.065C233.315 241.347 233.502 241.738 233.529 242.155C233.544 242.51 233.675 242.852 233.902 243.126C234.129 243.4 234.441 243.591 234.788 243.671C235.192 243.765 235.545 244.012 235.774 244.359C236.002 244.706 236.089 245.127 236.016 245.536C235.953 245.875 236.002 246.225 236.155 246.534C236.308 246.843 236.557 247.094 236.865 247.249C237.23 247.444 237.508 247.769 237.643 248.16C237.778 248.551 237.76 248.979 237.593 249.357C237.448 249.671 237.407 250.024 237.478 250.363C237.549 250.701 237.728 251.008 237.987 251.237C238.295 251.517 238.485 251.904 238.516 252.319C238.547 252.733 238.417 253.144 238.154 253.466C237.952 253.744 237.843 254.078 237.843 254.422C237.843 254.765 237.952 255.099 238.154 255.377C238.38 255.724 238.467 256.143 238.397 256.551C238.327 256.959 238.104 257.325 237.775 257.576C237.495 257.779 237.288 258.068 237.187 258.399C237.086 258.73 237.095 259.085 237.214 259.41C237.35 259.801 237.332 260.229 237.162 260.607C236.993 260.985 236.686 261.284 236.304 261.442C235.983 261.571 235.713 261.8 235.532 262.095C235.352 262.39 235.272 262.736 235.303 263.08C235.338 263.494 235.213 263.906 234.954 264.23C234.694 264.554 234.32 264.767 233.908 264.824C233.566 264.87 233.248 265.025 233 265.265C232.752 265.505 232.587 265.818 232.528 266.158C232.461 266.567 232.24 266.935 231.91 267.186C231.58 267.437 231.167 267.552 230.754 267.508C230.411 267.466 230.062 267.536 229.762 267.708C229.461 267.881 229.224 268.145 229.086 268.463C228.922 268.843 228.617 269.144 228.235 269.302C227.853 269.461 227.424 269.464 227.039 269.312C226.716 269.19 226.363 269.174 226.03 269.267C225.697 269.359 225.403 269.556 225.189 269.828C224.932 270.155 224.558 270.37 224.146 270.429C223.734 270.488 223.315 270.387 222.976 270.146C222.698 269.944 222.364 269.835 222.02 269.835C221.677 269.835 221.343 269.944 221.065 270.146C220.734 270.4 220.317 270.517 219.902 270.472C219.487 270.426 219.105 270.223 218.836 269.903C218.611 269.643 218.309 269.461 217.975 269.382C217.64 269.303 217.289 269.332 216.971 269.464C216.59 269.629 216.16 269.639 215.772 269.492C215.384 269.344 215.069 269.051 214.894 268.675C214.739 268.368 214.492 268.116 214.188 267.956C213.883 267.796 213.536 267.734 213.195 267.781C212.784 267.847 212.363 267.752 212.021 267.514C211.678 267.277 211.442 266.916 211.361 266.507C211.294 266.167 211.119 265.858 210.862 265.626C210.605 265.394 210.28 265.251 209.935 265.218C209.527 265.172 209.15 264.973 208.883 264.66C208.616 264.348 208.477 263.946 208.495 263.535C208.513 263.189 208.419 262.846 208.228 262.557C208.037 262.267 207.759 262.047 207.433 261.928C207.044 261.783 206.725 261.495 206.542 261.123C206.359 260.751 206.325 260.322 206.448 259.926C206.55 259.598 206.546 259.246 206.434 258.921C206.322 258.597 206.109 258.316 205.826 258.122C205.485 257.885 205.248 257.526 205.164 257.12C205.079 256.714 205.153 256.291 205.371 255.938C205.55 255.643 205.63 255.299 205.6 254.955C205.57 254.612 205.432 254.287 205.204 254.027C204.934 253.713 204.794 253.306 204.813 252.892C204.833 252.477 205.011 252.086 205.31 251.798C205.559 251.558 205.725 251.245 205.785 250.905C205.845 250.564 205.796 250.214 205.644 249.903C205.457 249.533 205.418 249.105 205.537 248.707C205.655 248.31 205.921 247.972 206.281 247.765C206.584 247.599 206.824 247.339 206.966 247.025C207.109 246.71 207.145 246.358 207.069 246.021C206.981 245.614 207.053 245.188 207.271 244.832C207.488 244.477 207.834 244.218 208.237 244.111C208.573 244.02 208.871 243.823 209.086 243.55C209.302 243.277 209.424 242.942 209.435 242.594C209.458 242.187 209.635 241.803 209.931 241.521C210.227 241.24 210.619 241.081 211.027 241.078C211.369 241.07 211.7 240.955 211.972 240.748C212.244 240.541 212.444 240.253 212.543 239.926C212.66 239.525 212.928 239.186 213.29 238.98C213.652 238.773 214.08 238.716 214.484 238.819C214.818 238.899 215.169 238.87 215.486 238.737C215.803 238.603 216.068 238.371 216.243 238.076C216.458 237.72 216.801 237.461 217.202 237.351C217.602 237.241 218.03 237.289 218.396 237.484C218.701 237.644 219.048 237.703 219.388 237.654C219.728 237.605 220.044 237.45 220.292 237.211C220.593 236.927 220.992 236.768 221.406 236.768C221.821 236.768 222.22 236.927 222.521 237.211C222.786 237.426 223.111 237.552 223.451 237.571C223.792 237.59 224.129 237.501 224.416 237.318Z" fill="#03989E"/>
<path opacity="0.2" d="M221.747 267.644C229.468 267.644 235.727 261.384 235.727 253.663C235.727 245.942 229.468 239.683 221.747 239.683C214.026 239.683 207.766 245.942 207.766 253.663C207.766 261.384 214.026 267.644 221.747 267.644Z" fill="white"/>
<path d="M222.49 246.719L224.264 251.541L229.222 252.814L225.189 255.968L225.507 261.093L221.246 258.228L216.485 260.108L217.88 255.18L214.62 251.237L219.745 251.04L222.49 246.719Z" fill="#03989E"/>
<path d="M283.677 272.404C290.977 266.528 292.132 255.847 286.256 248.547C280.381 241.247 269.699 240.092 262.399 245.968C255.099 251.844 253.945 262.525 259.82 269.825C265.696 277.125 276.377 278.28 283.677 272.404Z" fill="#03989E"/>
<path opacity="0.2" d="M285.751 260.593C285.478 263.11 284.465 265.489 282.84 267.43C281.215 269.371 279.051 270.786 276.622 271.497C274.192 272.208 271.607 272.183 269.192 271.424C266.777 270.665 264.641 269.208 263.055 267.235C261.468 265.263 260.503 262.864 260.279 260.343C260.056 257.822 260.586 255.291 261.801 253.07C263.016 250.85 264.863 249.04 267.107 247.869C269.351 246.698 271.892 246.218 274.408 246.492C277.782 246.858 280.873 248.549 283 251.194C285.127 253.838 286.116 257.219 285.751 260.593Z" fill="white"/>
<g opacity="0.2">
<path d="M271.421 273.815C268.533 273.495 265.806 272.327 263.582 270.457C261.359 268.587 259.74 266.1 258.929 263.311C258.119 260.521 258.153 257.554 259.029 254.784C259.904 252.014 261.581 249.566 263.847 247.748C266.113 245.931 268.868 244.826 271.762 244.574C274.656 244.321 277.56 244.932 280.106 246.329C282.653 247.727 284.729 249.848 286.071 252.424C287.412 255.001 287.96 257.917 287.645 260.805C287.218 264.681 285.269 268.23 282.227 270.669C279.184 273.109 275.297 274.241 271.421 273.815ZM274.453 245.49C271.738 245.196 268.997 245.714 266.577 246.979C264.157 248.244 262.166 250.198 260.857 252.595C259.548 254.992 258.98 257.723 259.224 260.443C259.468 263.163 260.514 265.749 262.229 267.874C263.944 269.999 266.251 271.568 268.858 272.381C271.465 273.194 274.255 273.216 276.874 272.442C279.493 271.669 281.824 270.136 283.571 268.038C285.319 265.939 286.404 263.369 286.69 260.653C287.068 257.022 285.994 253.388 283.701 250.547C281.408 247.705 278.083 245.887 274.453 245.49Z" fill="white"/>
</g>
<path d="M275.727 259.789L273.589 254.042L270.269 259.198L264.946 253.587L266.235 263.701L269.404 264.035L272.164 264.338L272.786 264.414L275.545 264.702L278.715 265.051L282.126 255.437L275.727 259.789Z" fill="#03989E"/>
<path d="M281.353 111.053L285.068 107.657L288.101 107.99L288.677 103.623L283.188 102.365C283.188 102.365 275.607 101.318 272.907 101.303C271.801 101.303 270.512 101.303 267.418 108.081C266.872 109.264 281.353 111.053 281.353 111.053Z" fill="#FF9580"/>
<path d="M405.131 120.606C405.91 118.884 406.882 117.257 408.027 115.754C409.043 114.874 418.292 116.921 419.824 118.18C421.355 119.438 420.643 122.289 420.643 122.289C420.643 122.289 418.065 126.322 416.306 126.11C414.547 125.898 405.616 125.443 405.131 124.791C404.645 124.139 405.131 120.606 405.131 120.606Z" fill="#FF9580"/>
</svg>
