<svg width="52" height="52" viewBox="0 0 52 52" fill="none" xmlns="http://www.w3.org/2000/svg">
<path d="M8.66634 6.50006C6.26134 6.50006 4.33301 8.42839 4.33301 10.8334V32.5001C4.33301 33.6493 4.78955 34.7515 5.60221 35.5642C6.41487 36.3768 7.51707 36.8334 8.66634 36.8334H25.9997V47.6667L32.4997 41.1667L38.9997 47.6667V36.8334H43.333C44.4823 36.8334 45.5845 36.3768 46.3971 35.5642C47.2098 34.7515 47.6663 33.6493 47.6663 32.5001V10.8334C47.6663 9.68412 47.2098 8.58192 46.3971 7.76926C45.5845 6.95661 44.4823 6.50006 43.333 6.50006H8.66634ZM25.9997 10.8334L32.4997 15.1667L38.9997 10.8334V18.4167L45.4997 21.6667L38.9997 24.9167V32.5001L32.4997 28.1667L25.9997 32.5001V24.9167L19.4997 21.6667L25.9997 18.4167V10.8334ZM8.66634 10.8334H19.4997V15.1667H8.66634V10.8334ZM8.66634 19.5001H15.1663V23.8334H8.66634V19.5001ZM8.66634 28.1667H19.4997V32.5001H8.66634V28.1667Z" fill="white"/>
</svg>
