<svg width="561" height="494" viewBox="0 0 561 494" fill="none" xmlns="http://www.w3.org/2000/svg">
<path d="M498.361 116.65H193.797C190.302 116.65 187.469 119.483 187.469 122.978V314.567C187.469 318.061 190.302 320.894 193.797 320.894H498.361C501.856 320.894 504.689 318.061 504.689 314.567V122.978C504.689 119.483 501.856 116.65 498.361 116.65Z" fill="#E09500"/>
<path d="M492.615 124.496H199.515C196.341 124.496 193.769 127.068 193.769 130.242V307.302C193.769 310.476 196.341 313.048 199.515 313.048H492.615C495.789 313.048 498.361 310.476 498.361 307.302V130.242C498.361 127.068 495.789 124.496 492.615 124.496Z" fill="white"/>
<path d="M377.735 271.845C377.735 272.844 367.462 274.922 355.57 275.182C343.298 275.462 332.965 273.703 332.525 275.542C332.266 276.601 335.563 277.72 335.284 278.739C335.004 279.759 332.206 279.918 314.737 278.14C302.465 276.901 304.324 276.141 299.447 276.261C289.794 276.401 284.417 279.099 279.9 275.622C278.553 274.183 276.871 273.098 275.004 272.464C272.763 271.975 270.424 272.213 268.328 273.144C266.749 273.763 258.335 274.143 241.426 274.883C226.316 275.562 213.445 275.862 211.826 272.484C211.651 272.185 211.544 271.851 211.513 271.505C211.482 271.16 211.527 270.812 211.646 270.486C212.285 269.407 214.544 269.986 216.383 269.787C218.222 269.587 221.2 269.247 225.177 268.707C243.33 266.453 261.608 265.345 279.9 265.39C321.872 264.831 363.245 265.55 363.265 267.389C363.265 267.928 359.268 268.288 359.268 269.067C359.327 270.646 377.675 270.506 377.735 271.845Z" fill="#739B48"/>
<path d="M364.723 237.793C364.723 239.272 364.423 240.491 364.024 240.491C363.624 240.491 363.324 239.272 363.324 237.793C363.324 236.314 363.644 235.115 364.024 235.115C364.404 235.115 364.723 236.314 364.723 237.793Z" fill="white"/>
<path d="M365.763 228.159H364.104C364.077 228.159 364.052 228.149 364.033 228.13C364.014 228.111 364.004 228.086 364.004 228.059C364.004 228.033 364.014 228.007 364.033 227.989C364.052 227.97 364.077 227.959 364.104 227.959H365.763C365.789 227.959 365.815 227.97 365.833 227.989C365.852 228.007 365.863 228.033 365.863 228.059C365.863 228.086 365.852 228.111 365.833 228.13C365.815 228.149 365.789 228.159 365.763 228.159Z" fill="black"/>
<path d="M360.427 251.082C360.367 251.399 360.367 251.724 360.427 252.041C360.359 251.732 360.359 251.411 360.427 251.102C360.427 251.102 360.427 251.002 360.287 251.102L360.427 251.082Z" fill="#B25944"/>
<path d="M361.425 252.061C361.416 252.174 361.416 252.288 361.425 252.401V252.161C361.425 252.061 361.425 252.021 361.425 252.021V252.061Z" fill="#B25944"/>
<path d="M362.565 248.803C362.486 248.849 362.423 248.918 362.386 249.002C362.386 249.002 362.485 248.763 362.386 248.763L362.565 248.803Z" fill="#B25944"/>
<path d="M363.144 249.323L362.984 249.523L363.124 249.323H363.144Z" fill="#B25944"/>
<path d="M363.783 248.823L363.644 249.102L363.763 248.823H363.783Z" fill="#B25944"/>
<path d="M364.684 247.425L364.344 247.625V247.745L364.664 247.545C364.664 247.545 364.664 247.545 364.664 247.445L364.684 247.425Z" fill="#B25944"/>
<path d="M360.147 255.478C360.033 255.78 359.96 256.096 359.927 256.417C359.951 256.109 360.018 255.807 360.127 255.518C360.127 255.518 360.127 255.398 360.007 255.518L360.147 255.478Z" fill="#B25944"/>
<path d="M363.045 254.039C363.025 254.231 363.025 254.426 363.045 254.618C363.035 254.425 363.035 254.232 363.045 254.039Z" fill="#B25944"/>
<path d="M364.024 254.459L364.204 255.298C364.204 255.298 364.364 255.298 364.344 255.298C364.267 255.029 364.207 254.755 364.164 254.479H364.024V254.459Z" fill="#B25944"/>
<path d="M355.371 228.439C355.371 227.959 355.691 226.92 358.509 225.581C363.705 223.123 369.701 223.323 369.821 224.062C369.941 224.802 367.403 224.502 363.825 226.66C360.248 228.819 358.569 231.376 356.87 230.837C356.403 230.64 356.009 230.304 355.741 229.875C355.473 229.446 355.343 228.944 355.371 228.439Z" fill="#68301A"/>
<path d="M258.295 250.783C265.327 250.783 271.027 245.513 271.027 239.012C271.027 232.511 265.327 227.241 258.295 227.241C251.264 227.241 245.564 232.511 245.564 239.012C245.564 245.513 251.264 250.783 258.295 250.783Z" fill="#FF9580"/>
<path d="M371.599 248.484C371.655 250.194 371.225 251.884 370.36 253.36C368.561 256.058 364.843 257.836 362.565 256.977C361.886 256.705 361.331 256.193 361.006 255.538C360.407 254.289 359.473 253.23 358.308 252.481C355.889 251.042 354.75 252.481 352.072 250.982C350.203 249.591 348.605 247.871 347.355 245.906C345.176 243.148 345.136 242.669 343.637 240.93C342.336 238.975 340.607 237.342 338.581 236.154C334.823 234.535 332.905 237.792 325.17 237.653C324.213 237.638 323.259 237.565 322.312 237.433C321.087 237.286 319.881 237.011 318.714 236.613C315.756 235.574 315.296 234.615 313.278 233.736C310.519 232.637 307.761 233.156 300.706 235.594C296.734 236.827 292.837 238.288 289.034 239.971C280.579 243.967 266.609 245.047 254.157 241.789C251.517 241.119 248.942 240.216 246.462 239.091C243.745 237.919 241.186 236.408 238.847 234.595C237.714 233.735 236.651 232.786 235.669 231.757C233.241 229.058 231.086 226.127 229.234 223.004C229.014 222.625 228.774 222.265 228.514 221.885C223.517 213.892 220.819 209.555 221.839 205.119C222.758 201.122 226.435 198.524 230.513 196.346C235.508 193.653 240.909 191.79 246.502 190.83C251.953 189.951 257.471 189.556 262.991 189.651H266.249C276.242 189.651 286.795 189.771 299.027 185.974C300.85 185.329 302.731 184.86 304.643 184.575C306.425 184.359 308.229 184.399 310 184.695C317.875 186.014 322.132 192.029 328.607 199.144L330.426 201.142C336.788 207.769 343.976 213.552 351.812 218.348C354.801 220.029 357.684 221.891 360.446 223.924C360.437 224.103 360.437 224.283 360.446 224.463C360.497 224.813 360.591 225.156 360.726 225.482C361.073 226.358 361.523 227.19 362.065 227.96C363.184 229.379 364.563 230.998 365.982 232.996C368.999 237.349 370.912 242.369 371.559 247.625C371.579 247.904 371.599 248.204 371.599 248.484Z" fill="#93563B"/>
<path d="M260.633 271.305H252.639C252.319 269.027 251.999 267.148 251.679 265.61C250.76 261.433 249.681 259.614 248.941 258.855C248.079 258.072 247.443 257.071 247.102 255.957C246.938 255.241 246.938 254.496 247.102 253.779C247.402 250.981 243.525 246.625 241.346 243.787C241.01 243.364 240.697 242.924 240.407 242.468C240.133 242.062 239.905 241.626 239.727 241.169C238.878 239.095 238.602 236.832 238.928 234.614C239.307 231.503 240.15 228.465 241.426 225.602L244.904 225.462L254.477 225.142C254.357 232.196 254.217 237.532 254.138 241.809C254.138 242.428 254.138 242.988 254.138 243.547C254.138 244.526 254.138 245.426 254.138 246.285C254.138 247.904 254.138 249.682 254.138 251.461C254.138 256.677 254.737 261.992 257.575 263.951C258.331 264.395 259.006 264.962 259.574 265.63C259.886 265.993 260.148 266.396 260.353 266.829C260.912 268.255 261.01 269.82 260.633 271.305Z" fill="#93563B"/>
<path d="M314.777 229.978C314.777 231.636 314.777 233.155 314.557 234.554C314.567 234.687 314.567 234.821 314.557 234.954C314.336 239.619 312.835 244.134 310.22 248.003L309.92 248.423C309.92 248.423 309.92 248.423 309.8 248.563C307.899 251.004 306.408 253.737 305.383 256.656C304.863 258.25 304.43 259.872 304.084 261.512C303.77 262.829 303.537 264.164 303.385 265.509C303.385 265.909 303.385 266.289 303.385 266.688C303.344 267.26 303.344 267.835 303.385 268.407C303.444 269.441 303.612 270.465 303.884 271.464C301.306 271.464 298.708 271.324 296.109 271.285C296.355 269.324 296.783 267.39 297.389 265.509C297.898 263.933 298.568 262.413 299.387 260.973C300.301 259.658 300.751 258.076 300.666 256.476C300.486 254.478 299.247 254.238 299.207 252.58C299.207 249.822 302.425 248.743 302.165 245.985C302.064 245.298 301.797 244.646 301.386 244.086C300.127 242.088 298.208 237.512 295.21 226.001L314.777 229.978Z" fill="#93563B"/>
<path d="M322.772 271.305H316.596C316.596 270.545 316.876 269.426 317.156 268.047C317.435 266.669 317.515 266.149 317.635 265.609C317.75 265.122 317.837 264.628 317.895 264.131C317.896 263.438 317.738 262.755 317.435 262.132C316.554 260.709 315.493 259.406 314.277 258.255C313.52 257.37 312.851 256.413 312.279 255.398C312.019 254.958 311.779 254.478 311.539 253.999C310.728 252.304 310.143 250.51 309.8 248.663C309.383 246.609 309.343 244.497 309.681 242.428C309.92 241.269 310.84 235.913 314.597 234.654C314.697 234.597 314.805 234.556 314.917 234.534C316.312 234.231 317.765 234.361 319.084 234.908C320.402 235.454 321.522 236.391 322.292 237.592L322.492 237.992C322.557 238.141 322.61 238.294 322.652 238.451C323.192 240.829 320.653 241.669 319.354 246.045C318.455 249.283 318.994 252.04 319.814 256.377C320.199 258.903 320.869 261.376 321.812 263.751C322.121 264.402 322.395 265.069 322.632 265.749C322.92 266.588 323.094 267.462 323.152 268.347C323.178 269.347 323.05 270.344 322.772 271.305Z" fill="#93563B"/>
<path d="M239.649 241.149C237.875 243.607 235.931 245.937 233.833 248.124C230.866 250.841 228.433 254.087 226.657 257.696C225.547 260.042 224.766 262.53 224.339 265.09C224.448 265.254 224.542 265.428 224.619 265.61C224.967 266.181 225.261 266.783 225.498 267.408C226.005 268.743 226.322 270.142 226.437 271.565L216.244 271.425C217.264 269.583 218.075 267.632 218.663 265.61C219.186 264.106 219.555 262.552 219.762 260.974C220.342 255.738 219.002 252.46 221.221 248.583C222.48 246.365 223.739 245.966 225.418 244.327C233.113 236.793 227.557 224.483 232.913 221.226C236.291 219.227 242.906 221.425 244.705 225.222C244.754 225.319 244.794 225.419 244.825 225.522C246.644 229.539 243.406 235.874 239.649 241.149Z" fill="#93563B"/>
<path d="M365.522 238.811C365.242 243.128 359.786 247.484 354.649 248.164C351.571 248.563 349.932 247.484 347.274 245.865C345.096 243.108 345.056 242.628 343.557 240.889C342.273 238.958 340.572 237.34 338.58 236.153C334.822 234.535 332.904 237.792 325.169 237.652C324.212 237.638 323.258 237.564 322.311 237.432C321.012 236.373 316.734 232.656 317.094 228.18C317.314 225.482 319.093 225.142 319.513 222.304C320.432 217.268 315.755 215.01 315.815 210.874C315.815 206.077 322.411 200.322 328.666 199.103L330.485 201.101C336.847 207.729 344.035 213.512 351.871 218.308C354.86 219.989 357.743 221.851 360.505 223.883C360.496 224.063 360.496 224.243 360.505 224.423C360.575 224.768 360.668 225.109 360.785 225.442C361.133 226.318 361.582 227.149 362.124 227.92C362.344 233.775 365.722 235.254 365.522 238.811Z" fill="#68301A"/>
<path d="M304.424 202.441C303.065 203.04 302.425 202.161 298.747 201.841C295.648 201.751 292.549 202.026 289.514 202.661C285.325 203.087 281.094 202.526 277.162 201.022C272.214 198.699 268.309 194.617 266.209 189.571C276.202 189.571 286.775 189.711 298.987 185.914C300.81 185.269 302.691 184.8 304.604 184.515C304.967 184.9 305.289 185.322 305.563 185.774C309.36 191.669 307.981 200.802 304.424 202.441Z" fill="#68301A"/>
<path d="M260.135 197.585C258.721 198.5 257.072 198.987 255.388 198.987C253.703 198.987 252.055 198.5 250.641 197.585C249.487 196.83 248.514 195.829 247.792 194.655C247.07 193.48 246.616 192.16 246.464 190.79C251.914 189.903 257.432 189.502 262.953 189.591C263.208 191.053 263.083 192.556 262.59 193.956C262.096 195.356 261.251 196.606 260.135 197.585Z" fill="#68301A"/>
<path d="M248.182 235.754C247.602 236.813 246.982 237.932 246.363 239.111C245.901 240.21 245.206 241.195 244.326 241.999C243.446 242.803 242.402 243.406 241.266 243.767C240.93 243.344 240.617 242.904 240.327 242.448C240.053 242.042 239.825 241.606 239.647 241.149C238.798 239.075 238.522 236.812 238.848 234.595C237.717 233.74 236.66 232.791 235.69 231.757C235.69 229.659 234.631 226.681 229.214 222.944C240.187 215.93 244.464 214.811 245.683 216.09C246.902 217.368 244.644 222.085 244.884 225.442C244.909 226.378 245.288 227.271 245.943 227.94C247.082 229.059 248.481 228.799 249.241 230.218C250.18 231.997 248.921 234.415 248.182 235.754Z" fill="#68301A"/>
<path d="M269.248 204.619C266.05 206.517 265.25 213.312 268.089 216.469C269.647 218.248 271.246 217.588 272.586 219.527C274.344 222.025 272.386 224.103 273.745 226.401C275.903 229.998 284.078 227.021 285.237 229.619C286.077 231.517 282.419 234.135 283.099 235.114C283.778 236.093 290.554 234.834 293.951 230.318C298.228 224.643 296.809 214.791 291.593 209.415C289.154 206.917 283.758 206.018 272.945 204.219C271.704 203.91 270.394 204.052 269.248 204.619Z" fill="#68301A"/>
<path d="M302.886 206.777C301.77 207.566 300.846 208.594 300.182 209.788C299.518 210.981 299.13 212.308 299.048 213.672C299.048 215.67 299.987 218.388 301.906 218.987C302.983 219.177 304.092 219.009 305.064 218.508C306.535 218.101 307.899 217.378 309.061 216.39C309.461 216.03 313.059 212.673 311.76 208.976C311.338 207.828 310.568 206.84 309.558 206.152C308.547 205.464 307.346 205.11 306.123 205.139C304.895 205.319 303.758 205.894 302.886 206.777Z" fill="#68301A"/>
<path d="M254.017 243.527C254.017 244.507 254.017 245.406 254.017 246.265C254.017 247.884 254.017 249.662 254.017 251.441C253.004 251.288 252.062 250.828 251.319 250.122C250.666 249.557 250.193 248.813 249.959 247.982C249.724 247.15 249.739 246.269 250 245.446C250.474 244.835 251.084 244.343 251.781 244.01C252.479 243.677 253.245 243.512 254.017 243.527Z" fill="#68301A"/>
<path d="M371.599 248.484C371.655 250.194 371.226 251.884 370.36 253.36C368.561 256.058 364.844 257.836 362.565 256.977C361.894 256.693 361.343 256.184 361.006 255.538C360.273 254.745 359.842 253.719 359.787 252.641C359.787 250.642 361.166 248.644 362.026 248.844C362.545 248.844 362.705 249.663 363.025 249.603C363.345 249.543 363.225 247.605 364.324 246.765C364.623 246.594 364.959 246.498 365.303 246.486C368.381 246.046 369.96 245.247 370.84 245.966C371.088 246.183 371.288 246.45 371.426 246.75C371.563 247.049 371.636 247.375 371.639 247.705C371.579 247.924 371.599 248.184 371.599 248.484Z" fill="#F4B78E"/>
<path d="M225.417 267.408C225.924 268.742 226.241 270.141 226.357 271.564L216.163 271.424C217.211 269.585 218.049 267.635 218.662 265.609H224.458C224.834 266.177 225.155 266.779 225.417 267.408Z" fill="#68301A"/>
<path d="M260.053 266.808C260.716 268.208 260.919 269.782 260.633 271.305H252.638C252.318 269.026 251.998 267.148 251.679 265.609H259.254C259.573 265.971 259.841 266.375 260.053 266.808Z" fill="#68301A"/>
<path d="M303.266 268.507C303.325 269.541 303.493 270.565 303.765 271.564C301.187 271.564 298.589 271.424 295.99 271.384C296.236 269.424 296.664 267.49 297.27 265.609H303.266C303.266 266.009 303.266 266.389 303.266 266.788C303.226 267.36 303.226 267.935 303.266 268.507Z" fill="#68301A"/>
<path d="M322.951 271.664H316.756C316.756 271.564 316.756 271.424 316.756 271.305H316.596C316.596 270.545 316.876 269.426 317.155 268.047C317.435 266.668 317.515 266.149 317.635 265.609H322.592C322.942 266.553 323.157 267.542 323.231 268.547C323.283 269.594 323.189 270.643 322.951 271.664Z" fill="#68301A"/>
<path d="M361.867 236.154C361.867 236.853 361.087 237.393 360.108 237.393C359.129 237.393 358.329 236.853 358.329 236.154C358.329 235.454 359.129 234.915 360.108 234.915C361.087 234.915 361.867 235.474 361.867 236.154Z" fill="black"/>
<path d="M218.082 234.995C218.082 232.997 218.082 230.998 218.082 229C218.509 220.103 220.54 211.356 224.078 203.181L225.058 203.6C221.548 211.677 219.536 220.324 219.121 229.12C219.121 231.118 219.121 233.117 219.121 234.975L218.082 234.995Z" fill="#93563B"/>
<path d="M220.66 236.992C220.631 238.016 220.414 239.025 220.021 239.97C219.761 240.63 218.882 242.948 218.162 242.868C217.443 242.788 216.943 239.351 217.063 236.873C217.148 235.188 217.478 233.526 218.042 231.937L219.081 232.156C220.106 233.561 220.659 235.254 220.66 236.992Z" fill="#68301A"/>
<path d="M254.057 241.889C254.039 241.87 254.029 241.845 254.029 241.819C254.029 241.793 254.039 241.768 254.057 241.749C255.098 238.826 255.769 235.785 256.056 232.696C256.718 224.175 254.615 215.668 250.06 208.436C250.045 208.415 250.037 208.391 250.037 208.366C250.037 208.341 250.045 208.316 250.06 208.296C250.06 208.296 250.16 208.296 250.2 208.296C254.766 215.568 256.868 224.116 256.196 232.676C255.916 235.786 255.245 238.848 254.197 241.789C254.198 241.806 254.195 241.824 254.188 241.839C254.181 241.855 254.17 241.869 254.156 241.879C254.141 241.889 254.125 241.895 254.108 241.897C254.09 241.899 254.073 241.896 254.057 241.889Z" fill="black"/>
<path d="M309.42 248.304L307.002 244.507L300.326 233.896C300.312 233.875 300.304 233.851 300.304 233.826C300.304 233.801 300.312 233.776 300.326 233.756H300.466L307.142 244.367L309.54 248.184V248.324L309.42 248.304Z" fill="black"/>
<path d="M321.692 237.114L318.894 231.119C318.894 231.119 318.894 231.119 318.894 230.999C318.915 230.986 318.939 230.98 318.964 230.98C318.988 230.98 319.012 230.986 319.033 230.999L321.852 236.994V237.114H321.692Z" fill="black"/>
<path d="M232.951 229.798C232.936 229.807 232.918 229.812 232.901 229.812C232.883 229.812 232.866 229.807 232.851 229.798L230.652 225.342V225.222C230.652 225.222 230.772 225.222 230.792 225.222L232.991 229.618C232.991 229.618 232.991 229.718 232.991 229.738L232.951 229.798Z" fill="black"/>
<path d="M249.14 254.199L247.541 253.2C247.541 253.2 247.541 253.2 247.541 253.06H247.681L249.24 254.039C249.252 254.061 249.259 254.085 249.259 254.109C249.259 254.134 249.252 254.158 249.24 254.179C249.24 254.179 249.18 254.199 249.14 254.199Z" fill="black"/>
<path d="M251.799 259.914L250.64 259.474C250.64 259.474 250.64 259.474 250.64 259.354C250.658 259.336 250.684 259.326 250.71 259.326C250.736 259.326 250.761 259.336 250.78 259.354L251.939 259.794V259.914C251.939 259.914 251.839 259.914 251.799 259.914Z" fill="black"/>
<path d="M223.338 254.559L222.139 253.699C222.124 253.679 222.116 253.655 222.116 253.63C222.116 253.604 222.124 253.58 222.139 253.56H222.279L223.418 254.399C223.418 254.399 223.418 254.399 223.418 254.539L223.338 254.559Z" fill="black"/>
<path d="M302.845 257.276L301.646 256.676C301.63 256.684 301.614 256.687 301.597 256.686C301.58 256.685 301.563 256.68 301.549 256.671C301.535 256.662 301.523 256.649 301.515 256.635C301.506 256.62 301.502 256.603 301.502 256.586C301.502 256.569 301.506 256.553 301.515 256.538C301.523 256.523 301.535 256.511 301.549 256.502C301.563 256.493 301.58 256.487 301.597 256.486C301.614 256.486 301.63 256.489 301.646 256.496L302.805 257.076C302.817 257.097 302.824 257.121 302.824 257.146C302.824 257.17 302.817 257.194 302.805 257.216C302.825 257.23 302.839 257.251 302.845 257.276Z" fill="black"/>
<path d="M340.279 236.114V236.014L340.1 233.156H340.2L340.379 236.034L340.279 236.134V236.114Z" fill="black"/>
<path d="M337.162 234.675C337.062 234.675 337.042 234.675 337.062 234.555L337.921 231.757C337.921 231.757 337.921 231.757 338.041 231.757C338.052 231.776 338.057 231.796 338.057 231.817C338.057 231.838 338.052 231.859 338.041 231.877L337.162 234.675Z" fill="black"/>
<path d="M257.535 251.32C257.535 253.639 256.956 255.517 256.256 255.517C255.557 255.517 254.977 253.639 254.977 251.32C254.977 249.002 255.537 247.144 256.256 247.144C256.976 247.144 257.535 248.982 257.535 251.32Z" fill="#FF9580"/>
<path d="M263.552 250.263C264.491 252.261 264.751 254.259 264.112 254.599C263.472 254.939 262.113 253.42 261.214 251.322C260.314 249.224 260.014 247.325 260.654 246.985C261.293 246.646 262.633 248.164 263.552 250.263Z" fill="#FF9580"/>
<path d="M354.032 223.863C354.032 223.363 354.332 222.324 357.13 220.925C362.266 218.367 368.262 218.467 368.402 219.207C368.542 219.946 366.004 219.686 362.406 221.924C358.809 224.163 357.27 226.741 355.611 226.221C355.138 226.037 354.733 225.712 354.45 225.29C354.168 224.869 354.022 224.37 354.032 223.863Z" fill="#68301A"/>
<g opacity="0.36">
<path d="M193.768 146.302V130.242C193.786 128.73 194.4 127.287 195.475 126.225C196.551 125.162 198.002 124.567 199.514 124.567H492.628C493.38 124.557 494.125 124.697 494.822 124.978C495.519 125.259 496.153 125.676 496.687 126.204C497.222 126.732 497.646 127.36 497.936 128.054C498.225 128.747 498.374 129.491 498.374 130.242V146.302H193.768Z" fill="#E09500"/>
</g>
<path d="M207.53 136.484C207.53 137.018 207.371 137.539 207.075 137.983C206.778 138.427 206.356 138.772 205.863 138.976C205.369 139.179 204.826 139.232 204.303 139.127C203.78 139.022 203.3 138.763 202.923 138.385C202.547 138.007 202.291 137.525 202.189 137.001C202.086 136.477 202.142 135.935 202.348 135.443C202.554 134.95 202.902 134.53 203.347 134.236C203.792 133.941 204.315 133.786 204.848 133.788C205.202 133.788 205.552 133.858 205.878 133.994C206.204 134.129 206.5 134.328 206.75 134.579C206.999 134.829 207.196 135.127 207.33 135.453C207.464 135.78 207.532 136.131 207.53 136.484Z" fill="#E09500"/>
<g opacity="0.36">
<path d="M216.541 136.484C216.541 137.018 216.382 137.539 216.086 137.983C215.789 138.427 215.367 138.772 214.873 138.976C214.38 139.179 213.837 139.232 213.314 139.127C212.791 139.022 212.31 138.763 211.934 138.385C211.558 138.007 211.302 137.525 211.2 137.001C211.097 136.477 211.153 135.935 211.359 135.443C211.565 134.95 211.913 134.53 212.358 134.236C212.803 133.941 213.326 133.786 213.859 133.788C214.213 133.788 214.563 133.858 214.889 133.994C215.215 134.129 215.511 134.328 215.76 134.579C216.01 134.829 216.207 135.127 216.341 135.453C216.475 135.78 216.543 136.131 216.541 136.484Z" fill="#E09500"/>
</g>
<path d="M225.179 136.484C225.179 137.017 225.021 137.538 224.725 137.982C224.429 138.425 224.008 138.77 223.515 138.974C223.023 139.178 222.481 139.232 221.958 139.128C221.435 139.024 220.955 138.767 220.578 138.39C220.201 138.013 219.944 137.533 219.84 137.01C219.736 136.487 219.789 135.945 219.993 135.452C220.197 134.96 220.543 134.539 220.986 134.243C221.429 133.946 221.951 133.788 222.484 133.788C222.838 133.786 223.19 133.855 223.518 133.99C223.845 134.125 224.143 134.323 224.394 134.574C224.645 134.824 224.843 135.122 224.978 135.45C225.113 135.778 225.181 136.129 225.179 136.484Z" fill="white"/>
<g opacity="0.2">
<path d="M378.462 169.754H214.227C212.182 169.754 210.524 171.412 210.524 173.457V287.014C210.524 289.059 212.182 290.717 214.227 290.717H378.462C380.508 290.717 382.165 289.059 382.165 287.014V173.457C382.165 171.412 380.508 169.754 378.462 169.754Z" fill="#E09500"/>
</g>
<path d="M427.02 173.088H394.682C394.263 173.088 393.862 172.938 393.566 172.67C393.27 172.401 393.104 172.038 393.104 171.658C393.11 171.283 393.279 170.925 393.575 170.662C393.87 170.398 394.268 170.251 394.682 170.251H427.02C427.224 170.251 427.425 170.287 427.614 170.358C427.802 170.429 427.974 170.533 428.118 170.663C428.262 170.794 428.376 170.949 428.454 171.12C428.532 171.291 428.573 171.474 428.573 171.658C428.573 172.034 428.41 172.394 428.119 172.662C427.829 172.929 427.434 173.083 427.02 173.088Z" fill="white"/>
<path d="M438.37 181.6H394.656C394.249 181.6 393.858 181.453 393.567 181.19C393.277 180.926 393.11 180.568 393.104 180.193C393.104 179.814 393.267 179.45 393.558 179.182C393.85 178.914 394.244 178.763 394.656 178.763H438.37C438.782 178.763 439.177 178.914 439.468 179.182C439.759 179.45 439.923 179.814 439.923 180.193C439.916 180.568 439.75 180.926 439.459 181.19C439.169 181.453 438.778 181.6 438.37 181.6Z" fill="#545454"/>
<path d="M438.37 190.113H394.656C394.244 190.113 393.85 189.887 393.558 189.485C393.267 189.083 393.104 188.537 393.104 187.968C393.11 187.405 393.277 186.868 393.567 186.473C393.858 186.078 394.249 185.857 394.656 185.857H438.37C438.778 185.857 439.169 186.078 439.459 186.473C439.75 186.868 439.916 187.405 439.923 187.968C439.923 188.537 439.759 189.083 439.468 189.485C439.177 189.887 438.782 190.113 438.37 190.113Z" fill="#545454"/>
<path d="M438.37 197.207H394.656C394.249 197.207 393.858 197.059 393.567 196.796C393.277 196.533 393.11 196.175 393.104 195.799C393.104 195.42 393.267 195.056 393.558 194.788C393.85 194.52 394.244 194.369 394.656 194.369H438.37C438.782 194.369 439.177 194.52 439.468 194.788C439.759 195.056 439.923 195.42 439.923 195.799C439.916 196.175 439.75 196.533 439.459 196.796C439.169 197.059 438.778 197.207 438.37 197.207Z" fill="#545454"/>
<path d="M415.659 204.301H394.667C394.252 204.301 393.855 204.151 393.562 203.885C393.268 203.619 393.104 203.258 393.104 202.882C393.104 202.506 393.268 202.145 393.562 201.879C393.855 201.613 394.252 201.463 394.667 201.463H415.659C416.074 201.463 416.472 201.613 416.765 201.879C417.058 202.145 417.223 202.506 417.223 202.882C417.223 203.258 417.058 203.619 416.765 203.885C416.472 204.151 416.074 204.301 415.659 204.301Z" fill="#545454"/>
<path d="M363.864 253.333H345.548C345.311 253.333 345.084 253.239 344.916 253.071C344.748 252.904 344.654 252.676 344.654 252.439C344.658 252.205 344.754 251.981 344.921 251.816C345.088 251.652 345.313 251.56 345.548 251.56H363.864C364.098 251.56 364.321 251.652 364.486 251.817C364.651 251.982 364.744 252.206 364.744 252.439C364.744 252.674 364.652 252.899 364.487 253.066C364.323 253.233 364.099 253.329 363.864 253.333Z" fill="white"/>
<path d="M370.717 258.369H345.548C345.313 258.369 345.088 258.277 344.921 258.113C344.754 257.948 344.658 257.724 344.654 257.49C344.654 257.253 344.748 257.025 344.916 256.858C345.084 256.69 345.311 256.596 345.548 256.596H370.717C370.954 256.596 371.181 256.69 371.349 256.858C371.516 257.025 371.611 257.253 371.611 257.49C371.607 257.724 371.511 257.948 371.344 258.113C371.177 258.277 370.951 258.369 370.717 258.369Z" fill="#545454"/>
<path d="M370.717 262.654H345.548C345.311 262.654 345.084 262.56 344.916 262.392C344.748 262.224 344.654 261.997 344.654 261.76C344.658 261.525 344.754 261.302 344.921 261.137C345.088 260.973 345.313 260.88 345.548 260.88H370.717C370.951 260.88 371.177 260.973 371.344 261.137C371.511 261.302 371.607 261.525 371.611 261.76C371.611 261.997 371.516 262.224 371.349 262.392C371.181 262.56 370.954 262.654 370.717 262.654Z" fill="#545454"/>
<path d="M370.717 266.925H345.548C345.313 266.925 345.088 266.832 344.921 266.668C344.754 266.503 344.658 266.28 344.654 266.045C344.654 265.808 344.748 265.581 344.916 265.413C345.084 265.245 345.311 265.151 345.548 265.151H370.717C370.954 265.151 371.181 265.245 371.349 265.413C371.516 265.581 371.611 265.808 371.611 266.045C371.607 266.28 371.511 266.503 371.344 266.668C371.177 266.832 370.951 266.925 370.717 266.925Z" fill="#545454"/>
<path d="M357.551 269.421H345.548C345.054 269.421 344.654 269.818 344.654 270.308C344.654 270.798 345.054 271.195 345.548 271.195H357.551C358.044 271.195 358.445 270.798 358.445 270.308C358.445 269.818 358.044 269.421 357.551 269.421Z" fill="#545454"/>
<path d="M274.765 258.072H256.449C256.212 258.072 255.985 257.977 255.817 257.81C255.65 257.642 255.555 257.415 255.555 257.178C255.559 256.943 255.655 256.719 255.822 256.555C255.989 256.39 256.215 256.298 256.449 256.298H274.765C274.881 256.298 274.995 256.321 275.102 256.365C275.209 256.409 275.306 256.474 275.387 256.556C275.469 256.637 275.534 256.734 275.578 256.841C275.622 256.948 275.645 257.062 275.645 257.178C275.645 257.412 275.553 257.638 275.388 257.805C275.224 257.972 275 258.068 274.765 258.072Z" fill="white"/>
<path d="M281.618 263.108H256.449C256.215 263.108 255.989 263.016 255.822 262.852C255.655 262.687 255.559 262.463 255.555 262.229C255.555 261.992 255.65 261.764 255.817 261.597C255.985 261.429 256.212 261.335 256.449 261.335H281.618C281.855 261.335 282.082 261.429 282.25 261.597C282.418 261.764 282.512 261.992 282.512 262.229C282.508 262.463 282.412 262.687 282.245 262.852C282.078 263.016 281.853 263.108 281.618 263.108Z" fill="#545454"/>
<path d="M281.618 267.393H256.449C256.212 267.393 255.985 267.299 255.817 267.131C255.65 266.963 255.555 266.736 255.555 266.499C255.559 266.264 255.655 266.041 255.822 265.876C255.989 265.712 256.215 265.619 256.449 265.619H281.618C281.853 265.619 282.078 265.712 282.245 265.876C282.412 266.041 282.508 266.264 282.512 266.499C282.512 266.616 282.489 266.733 282.444 266.841C282.399 266.949 282.333 267.048 282.25 267.131C282.167 267.214 282.068 267.28 281.96 267.325C281.852 267.37 281.735 267.393 281.618 267.393Z" fill="#545454"/>
<path d="M281.618 271.663H256.449C256.215 271.663 255.989 271.571 255.822 271.406C255.655 271.242 255.559 271.018 255.555 270.783C255.555 270.546 255.65 270.319 255.817 270.151C255.985 269.984 256.212 269.89 256.449 269.89H281.618C281.855 269.89 282.082 269.984 282.25 270.151C282.418 270.319 282.512 270.546 282.512 270.783C282.508 271.018 282.412 271.242 282.245 271.406C282.078 271.571 281.853 271.663 281.618 271.663Z" fill="#545454"/>
<path d="M268.452 275.948H256.449C256.212 275.948 255.985 275.854 255.817 275.686C255.65 275.519 255.555 275.291 255.555 275.054C255.555 274.817 255.65 274.59 255.817 274.422C255.985 274.255 256.212 274.16 256.449 274.16H268.452C268.689 274.16 268.916 274.255 269.084 274.422C269.252 274.59 269.346 274.817 269.346 275.054C269.346 275.291 269.252 275.519 269.084 275.686C268.916 275.854 268.689 275.948 268.452 275.948Z" fill="#545454"/>
<mask id="mask0_156_13014" style="mask-type:luminance" maskUnits="userSpaceOnUse" x="195" y="124" width="306" height="190">
<path d="M494.743 124.85H201.642C198.469 124.85 195.896 127.423 195.896 130.596V307.657C195.896 310.83 198.469 313.403 201.642 313.403H494.743C497.916 313.403 500.489 310.83 500.489 307.657V130.596C500.489 127.423 497.916 124.85 494.743 124.85Z" fill="white"/>
</mask>
<g mask="url(#mask0_156_13014)">
<path d="M458.651 294.107L404.242 293.71C404.242 293.71 392.892 359.753 392.353 382.893L457.204 384.51C457.204 384.51 461.063 355.809 461.531 347.765C462.255 334.897 458.651 294.107 458.651 294.107Z" fill="#545454"/>
<path d="M456.593 225.709C459.913 234.988 469.447 276.784 467.262 315.091L398.665 313.459C398.665 313.459 402.992 273.592 412.229 247.416C416.329 235.768 428.885 224.83 431.24 222.162L453.458 223.496C454.139 223.52 454.798 223.742 455.355 224.135C455.912 224.528 456.342 225.075 456.593 225.709Z" fill="#EBA23E"/>
<path d="M489.693 273.848C489.055 256.071 463.361 218.956 451.713 224.319C438.277 230.505 464.07 268.74 468.738 278.232C469.263 279.31 456.622 318.311 456.622 318.311C457.714 324.696 469.064 325.902 469.064 325.902C469.064 325.902 490.601 299.712 489.693 273.848Z" fill="#EBA23E"/>
<path d="M467.007 275.068C466.931 275.067 466.856 275.045 466.791 275.005C466.726 274.965 466.673 274.909 466.638 274.841L456.522 254.312C456.498 254.262 456.484 254.209 456.482 254.154C456.479 254.1 456.487 254.045 456.505 253.993C456.524 253.942 456.552 253.895 456.589 253.854C456.626 253.814 456.671 253.781 456.721 253.758C456.768 253.734 456.82 253.72 456.873 253.716C456.926 253.713 456.979 253.72 457.029 253.737C457.08 253.754 457.126 253.781 457.166 253.816C457.205 253.852 457.237 253.895 457.26 253.943L467.376 274.543C467.4 274.592 467.414 274.644 467.418 274.698C467.422 274.752 467.416 274.807 467.398 274.858C467.381 274.91 467.354 274.957 467.319 274.998C467.283 275.039 467.24 275.072 467.191 275.097C467.128 275.102 467.065 275.092 467.007 275.068Z" fill="#545454"/>
<path d="M457.118 317.105H456.991C456.94 317.089 456.893 317.063 456.852 317.028C456.812 316.994 456.779 316.951 456.755 316.904C456.731 316.856 456.717 316.804 456.714 316.751C456.71 316.698 456.718 316.645 456.735 316.594L467.319 283.395C467.335 283.343 467.362 283.294 467.397 283.252C467.432 283.21 467.476 283.175 467.525 283.15C467.574 283.125 467.627 283.109 467.682 283.105C467.737 283.101 467.792 283.108 467.844 283.126C467.895 283.142 467.942 283.168 467.983 283.202C468.023 283.237 468.056 283.279 468.08 283.327C468.104 283.375 468.118 283.427 468.121 283.48C468.125 283.533 468.117 283.586 468.1 283.637L457.516 316.85C457.482 316.927 457.426 316.992 457.356 317.037C457.285 317.083 457.202 317.106 457.118 317.105Z" fill="#545454"/>
<path d="M418.627 178.266C418.627 178.266 414.669 193.872 415.662 203.463C416.613 212.486 422.344 218.303 430.403 218.317L431.155 224.517C438.132 226.168 445.406 226.099 452.351 224.319L452.507 210.032L452.408 179.77L448.549 173.797L421.592 169.824L418.627 178.266Z" fill="#FF9580"/>
<path d="M442.136 215.523C438.515 218.011 434.77 220.313 430.913 222.418C430.913 222.418 430.317 217.424 430.374 218.048C430.374 218.318 432.502 218.445 435.141 217.679C437.307 216.999 439.417 216.155 441.455 215.154L442.136 215.523Z" fill="#545454"/>
<path d="M431.368 218.672C428.074 218.676 424.855 217.687 422.132 215.835C422.086 215.806 422.046 215.768 422.015 215.724C421.984 215.679 421.963 215.629 421.952 215.575C421.942 215.522 421.942 215.467 421.953 215.414C421.965 215.361 421.987 215.311 422.018 215.267C422.081 215.18 422.174 215.12 422.28 215.099C422.385 215.078 422.494 215.098 422.586 215.154C429.594 219.821 436.773 217.636 441.469 214.969C441.565 214.915 441.679 214.9 441.785 214.93C441.892 214.959 441.982 215.029 442.037 215.125C442.091 215.221 442.106 215.335 442.076 215.441C442.047 215.548 441.977 215.638 441.881 215.693C438.684 217.557 435.067 218.582 431.368 218.672Z" fill="#545454"/>
<path d="M417.165 168.817C415.904 170.083 415.007 171.666 414.57 173.399C414.134 175.132 414.172 176.95 414.683 178.663C415.217 179.88 416.065 180.933 417.139 181.716C418.213 182.498 419.475 182.982 420.797 183.118C423.548 183.316 426.302 182.772 428.771 181.543C429.564 182.722 430.614 183.705 431.843 184.418C433.072 185.131 434.448 185.555 435.865 185.658C439.369 186.112 441.412 185.87 443.441 183.657C443.588 185.173 444.22 186.601 445.242 187.731C446.264 188.86 447.622 189.63 449.116 189.928C449.116 189.928 447.867 207.35 451.471 212.628C451.797 213.096 461.7 217.778 462.324 208.372C462.324 208.372 471.192 209.407 471.461 200.058C471.461 200.058 480.073 193.446 475.42 183.444C475.42 183.444 479.364 173.655 471.475 170.193C471.475 170.193 473.66 157.169 458.707 156.474C456.996 154.335 454.644 152.803 451.996 152.104C450.199 151.589 448.309 151.492 446.469 151.822C444.629 152.152 442.89 152.898 441.384 154.005C440.22 153.23 438.908 152.704 437.531 152.459C436.154 152.215 434.741 152.258 433.382 152.586C432.157 152.702 430.991 153.163 430.018 153.917C429.046 154.671 428.308 155.685 427.891 156.843C426.216 156.622 424.512 156.881 422.978 157.589C421.444 158.297 420.142 159.425 419.223 160.843C417.7 163.212 416.979 166.007 417.165 168.817Z" fill="#545454"/>
<path d="M448.507 194.88C451.174 193.872 456.225 192.042 458.58 194.156C459.044 194.594 459.414 195.121 459.666 195.707C459.919 196.292 460.049 196.923 460.049 197.561C460.049 198.199 459.919 198.83 459.666 199.415C459.414 200.001 459.044 200.528 458.58 200.966C455.459 204.116 449.656 205.222 447.94 205.733" fill="#FF9580"/>
<path d="M456.749 197.561C456.693 197.574 456.635 197.574 456.579 197.561C456.073 197.306 455.521 197.154 454.956 197.115C454.39 197.077 453.823 197.151 453.287 197.334C453.187 197.379 453.074 197.383 452.971 197.344C452.869 197.306 452.786 197.228 452.741 197.128C452.696 197.028 452.692 196.915 452.731 196.812C452.769 196.71 452.847 196.627 452.947 196.582C453.59 196.351 454.273 196.253 454.956 196.291C455.638 196.33 456.306 196.506 456.919 196.809C457.017 196.858 457.092 196.943 457.129 197.046C457.166 197.149 457.162 197.262 457.118 197.362C457.08 197.425 457.025 197.477 456.96 197.512C456.896 197.547 456.822 197.564 456.749 197.561Z" fill="#545454"/>
<path d="M454.081 199.973C453.994 199.973 453.909 199.943 453.84 199.888C453.796 199.855 453.759 199.815 453.73 199.768C453.702 199.721 453.683 199.669 453.675 199.615C453.668 199.561 453.671 199.505 453.684 199.452C453.698 199.399 453.722 199.35 453.755 199.306C454.255 198.585 454.669 197.809 454.989 196.993C455.009 196.943 455.04 196.897 455.078 196.859C455.116 196.82 455.162 196.79 455.213 196.77C455.263 196.75 455.318 196.741 455.372 196.743C455.426 196.744 455.479 196.757 455.529 196.781C455.579 196.799 455.624 196.828 455.663 196.865C455.701 196.902 455.731 196.947 455.751 196.996C455.771 197.045 455.78 197.098 455.779 197.152C455.777 197.205 455.764 197.257 455.741 197.306C455.403 198.19 454.955 199.029 454.408 199.803C454.371 199.855 454.322 199.898 454.266 199.928C454.209 199.957 454.146 199.973 454.081 199.973Z" fill="#545454"/>
<path d="M442.051 226.319C438.02 226.326 434.01 225.743 430.148 224.588C430.096 224.57 430.049 224.543 430.008 224.507C429.968 224.471 429.935 224.427 429.911 224.379C429.887 224.33 429.873 224.277 429.87 224.223C429.867 224.169 429.875 224.114 429.892 224.063C429.91 224.012 429.937 223.964 429.973 223.924C430.009 223.883 430.053 223.85 430.102 223.826C430.151 223.802 430.204 223.789 430.258 223.785C430.312 223.782 430.366 223.79 430.417 223.808C430.517 223.808 441.583 227.525 452.252 223.935C452.304 223.907 452.362 223.89 452.422 223.886C452.481 223.882 452.541 223.891 452.597 223.912C452.652 223.934 452.703 223.967 452.744 224.01C452.786 224.052 452.817 224.104 452.837 224.16C452.857 224.216 452.864 224.276 452.859 224.335C452.853 224.395 452.835 224.452 452.805 224.504C452.775 224.555 452.734 224.6 452.685 224.634C452.636 224.668 452.58 224.691 452.522 224.701C449.141 225.801 445.606 226.347 442.051 226.319Z" fill="#545454"/>
<path d="M356.841 251.247C356.841 251.247 354.67 248.977 352.584 247.132C350.073 244.876 346.668 241.457 344.427 239.698C343.292 238.804 341.234 236.506 340.17 237.57C338.893 238.889 343.958 242.961 343.958 242.961C342.852 242.55 342.228 242.081 341.405 243.046C340.582 244.011 342.057 245.586 342.057 245.586C341.724 245.355 341.314 245.263 340.914 245.329C340.515 245.396 340.156 245.615 339.915 245.94C338.922 247.161 340.724 248.608 341.078 249.161C340.642 249.13 340.21 249.256 339.858 249.516C339.687 249.756 339.595 250.044 339.595 250.339C339.595 250.634 339.687 250.921 339.858 251.161C341.084 252.597 342.519 253.841 344.114 254.85C346.697 256.695 349.548 258.312 349.548 258.312L356.841 251.247Z" fill="#FF9580"/>
<path d="M350.045 240.975C351.464 240.435 352.344 242.393 353.167 244.777C353.564 245.926 354.798 248.48 354.671 249.331C354.5 250.565 350.542 246.664 350.542 246.664C350.542 246.664 347.08 242.039 350.045 240.975Z" fill="#FF9580"/>
<path d="M349.066 250.722C349.005 250.721 348.946 250.707 348.892 250.68C348.838 250.653 348.79 250.613 348.754 250.565C348.224 249.818 347.978 248.907 348.058 247.995C348.139 247.082 348.541 246.228 349.193 245.586C348.88 244.91 348.628 244.207 348.442 243.486C348.431 243.433 348.432 243.378 348.442 243.325C348.453 243.272 348.474 243.222 348.505 243.177C348.535 243.132 348.574 243.094 348.619 243.064C348.664 243.034 348.715 243.014 348.768 243.003C348.876 242.99 348.986 243.018 349.075 243.081C349.164 243.144 349.226 243.237 349.25 243.344C349.463 244.083 349.733 244.804 350.059 245.5C350.09 245.576 350.098 245.66 350.083 245.74C350.068 245.821 350.03 245.895 349.974 245.954C349.889 246.04 347.86 248.111 349.392 250.055C349.426 250.097 349.451 250.146 349.466 250.199C349.481 250.251 349.485 250.306 349.478 250.36C349.472 250.414 349.454 250.467 349.427 250.514C349.4 250.562 349.364 250.603 349.321 250.636C349.249 250.694 349.158 250.724 349.066 250.722Z" fill="#545454"/>
<path d="M346.086 247.899C345.002 247.748 343.973 247.328 343.092 246.679C343.049 246.647 343.012 246.607 342.983 246.561C342.955 246.515 342.936 246.464 342.927 246.41C342.919 246.357 342.921 246.302 342.933 246.25C342.946 246.197 342.969 246.148 343 246.104C343.032 246.06 343.072 246.023 343.118 245.995C343.164 245.966 343.215 245.947 343.268 245.939C343.322 245.93 343.376 245.932 343.429 245.945C343.481 245.957 343.531 245.98 343.575 246.012C344.345 246.619 345.278 246.984 346.256 247.062C346.322 247.056 346.386 247.035 346.443 247.001C346.5 246.966 346.547 246.919 346.583 246.863C346.605 246.814 346.617 246.761 346.617 246.707C346.617 246.653 346.605 246.6 346.583 246.551C346.398 245.629 344.44 244.054 343.248 243.288C343.159 243.227 343.096 243.134 343.075 243.027C343.054 242.921 343.075 242.811 343.135 242.72C343.196 242.63 343.289 242.568 343.395 242.547C343.502 242.526 343.612 242.547 343.702 242.607C344.043 242.82 347.079 244.834 347.377 246.395C347.415 246.554 347.42 246.72 347.391 246.881C347.361 247.042 347.299 247.196 347.207 247.331C347.106 247.478 346.976 247.602 346.825 247.695C346.673 247.788 346.504 247.847 346.327 247.87C346.248 247.889 346.167 247.898 346.086 247.899Z" fill="#545454"/>
<path d="M344.526 250.424C343.453 250.313 342.419 249.958 341.504 249.388C341.457 249.36 341.416 249.323 341.383 249.28C341.351 249.236 341.327 249.187 341.314 249.134C341.301 249.081 341.298 249.026 341.307 248.972C341.315 248.919 341.334 248.867 341.362 248.82C341.42 248.729 341.512 248.663 341.617 248.637C341.723 248.61 341.834 248.625 341.929 248.679C342.766 249.189 344.653 250.026 345.15 249.374C345.172 249.33 345.184 249.281 345.184 249.232C345.184 249.183 345.172 249.134 345.15 249.09C344.994 248.168 342.951 246.465 341.688 245.6C341.616 245.532 341.57 245.441 341.56 245.342C341.55 245.243 341.576 245.144 341.633 245.063C341.69 244.982 341.774 244.924 341.87 244.9C341.966 244.876 342.068 244.888 342.156 244.933C342.511 245.174 345.703 247.373 345.959 248.962C345.989 249.12 345.986 249.283 345.95 249.439C345.913 249.596 345.843 249.743 345.746 249.87C345.599 250.051 345.412 250.194 345.201 250.29C344.989 250.386 344.758 250.432 344.526 250.424Z" fill="#545454"/>
<path d="M343.929 253.077C342.872 252.925 341.871 252.505 341.021 251.857C340.969 251.83 340.922 251.792 340.886 251.746C340.849 251.7 340.823 251.647 340.809 251.589C340.794 251.532 340.793 251.473 340.804 251.415C340.814 251.357 340.837 251.302 340.871 251.254C340.905 251.206 340.949 251.165 341 251.135C341.05 251.106 341.107 251.087 341.166 251.081C341.224 251.075 341.283 251.081 341.339 251.1C341.395 251.119 341.446 251.15 341.489 251.19C342.553 251.928 343.944 252.509 344.242 252.155C344.259 252.119 344.268 252.08 344.268 252.041C344.268 252.002 344.259 251.963 344.242 251.928C344.1 251.176 342.113 249.842 340.766 249.09C340.717 249.066 340.674 249.033 340.638 248.992C340.603 248.951 340.576 248.903 340.558 248.852C340.541 248.8 340.535 248.746 340.538 248.692C340.542 248.638 340.557 248.585 340.581 248.537C340.605 248.488 340.639 248.445 340.68 248.41C340.721 248.374 340.769 248.348 340.821 248.332C340.873 248.316 340.927 248.311 340.981 248.317C341.035 248.323 341.087 248.34 341.135 248.367C341.745 248.679 344.767 250.31 345.05 251.715C345.083 251.874 345.079 252.04 345.037 252.197C344.995 252.355 344.917 252.501 344.809 252.623C344.705 252.759 344.572 252.87 344.42 252.948C344.268 253.027 344.1 253.07 343.929 253.077Z" fill="#545454"/>
<path d="M431.907 222.219C406.185 220.02 382.463 263.093 382.463 263.093L354.783 248.253L346.086 257.66C346.086 257.66 364.942 287.453 390.862 282.474C401.219 280.473 412.924 261.944 412.924 261.944" fill="#EBA23E"/>
<path d="M403.376 283.395H403.291C403.238 283.384 403.187 283.362 403.143 283.33C403.098 283.299 403.06 283.259 403.031 283.213C403.002 283.166 402.982 283.115 402.973 283.061C402.964 283.007 402.966 282.952 402.979 282.899C405.164 273.28 408.796 254.623 408.824 254.439C408.849 254.337 408.911 254.249 408.999 254.192C409.086 254.135 409.192 254.113 409.295 254.131C409.398 254.149 409.49 254.206 409.552 254.289C409.615 254.373 409.644 254.477 409.633 254.581C409.633 254.779 405.958 273.45 403.773 283.083C403.751 283.172 403.7 283.251 403.628 283.308C403.556 283.364 403.468 283.395 403.376 283.395Z" fill="#545454"/>
</g>
<path d="M129.216 177.954C129.216 177.954 136.749 207.748 134.891 225.922C133.089 243.104 122.122 254.184 106.814 254.198L105.395 266.016C105.395 266.016 84.9364 271.479 65.0597 265.633L64.7617 238.422L64.9462 180.82L72.2953 169.47L123.541 161.908L129.216 177.954Z" fill="#FF9580"/>
<path d="M84.3828 248.892C86.4258 251.006 104.997 261.661 105.763 262.015C105.763 262.015 106.884 252.51 106.785 253.702C106.785 254.198 102.742 254.439 97.7191 252.978C93.5871 251.698 89.564 250.089 85.6881 248.168L84.3828 248.892Z" fill="#545454"/>
<path d="M104.883 255.149C97.7904 254.957 90.8628 252.965 84.751 249.36C84.5381 249.208 84.3889 248.982 84.332 248.726C84.2751 248.471 84.3146 248.203 84.4429 247.974C84.5712 247.746 84.7792 247.573 85.0272 247.488C85.2751 247.404 85.5456 247.414 85.7867 247.516C94.7533 252.553 108.217 256.695 121.468 247.885C121.701 247.762 121.971 247.729 122.227 247.793C122.482 247.858 122.705 248.014 122.851 248.233C122.998 248.452 123.058 248.718 123.02 248.978C122.982 249.239 122.849 249.476 122.646 249.644C117.412 253.221 111.223 255.139 104.883 255.149Z" fill="#545454"/>
<path d="M69.8399 209.578C64.7608 207.677 55.1558 204.329 50.6583 208.16C49.7705 208.989 49.0612 209.991 48.5736 211.104C48.086 212.217 47.8304 213.417 47.8225 214.632C47.8145 215.847 48.0543 217.051 48.5273 218.17C49.0002 219.289 49.6964 220.3 50.5732 221.141C56.5036 227.143 67.5983 229.342 70.8472 230.221" fill="#FF9580"/>
<path d="M54.1493 214.842C53.9448 214.845 53.744 214.787 53.5724 214.676C53.4007 214.565 53.2657 214.405 53.1845 214.218C53.1231 214.09 53.0879 213.952 53.0812 213.811C53.0744 213.67 53.0962 213.529 53.1452 213.397C53.1942 213.264 53.2694 213.143 53.3664 213.04C53.4633 212.938 53.58 212.855 53.7094 212.799C54.9089 212.206 56.2159 211.861 57.5519 211.785C58.888 211.71 60.2255 211.905 61.4842 212.359C61.7093 212.492 61.8776 212.704 61.9567 212.953C62.0359 213.202 62.0205 213.472 61.9135 213.71C61.8065 213.949 61.6153 214.14 61.3765 214.247C61.1376 214.353 60.8679 214.368 60.6188 214.289C59.6334 213.953 58.5904 213.819 57.5521 213.894C56.5138 213.97 55.5013 214.253 54.5749 214.728C54.4418 214.794 54.2972 214.832 54.1493 214.842Z" fill="#545454"/>
<path d="M59.2136 219.553C59.0505 219.553 58.8896 219.514 58.7441 219.44C58.5986 219.366 58.4727 219.259 58.3766 219.127C57.3373 217.626 56.471 216.013 55.7944 214.317C55.6853 214.06 55.6831 213.769 55.7882 213.51C55.8933 213.25 56.0971 213.043 56.3549 212.934C56.6126 212.825 56.9031 212.823 57.1626 212.928C57.422 213.033 57.629 213.237 57.7381 213.494C58.3491 215.028 59.1296 216.489 60.0649 217.85C60.216 218.069 60.2781 218.338 60.2386 218.601C60.1991 218.865 60.0609 219.103 59.8521 219.269C59.6814 219.439 59.4541 219.54 59.2136 219.553Z" fill="#545454"/>
<path d="M98.3154 149.125C94.4564 149.21 70.8199 150.218 61.5838 153.14C56.6607 154.701 51.7802 157.155 48.7157 161.312C46.56 164.508 45.2114 168.178 44.7857 172.01C43.367 182.069 48.5313 209.763 48.5313 209.763C51.6082 207.741 55.2772 206.816 58.9449 207.138C61.1827 207.362 63.4016 207.747 65.5847 208.287C66.2799 208.457 66.4359 222.475 67.0744 222.475L75.5018 221.496C76.1118 221.496 75.0336 184.608 75.3883 184.083C77.6373 181.499 80.4902 179.511 83.6931 178.296C86.8961 177.08 90.3498 176.675 93.747 177.117C106.246 178.536 121.569 183.275 131.883 176.734C138.452 172.563 141.63 163.298 139.289 154.914C137.896 151.658 135.529 148.913 132.514 147.056C129.499 145.2 125.983 144.321 122.448 144.543C116.589 144.713 107.296 148.969 98.3154 149.125Z" fill="#545454"/>
<path d="M57.0148 227.993C66.9738 227.993 75.0472 219.92 75.0472 209.961C75.0472 200.002 66.9738 191.929 57.0148 191.929C47.0558 191.929 38.9824 200.002 38.9824 209.961C38.9824 219.92 47.0558 227.993 57.0148 227.993Z" fill="#EBA23E"/>
<path d="M65.5846 209.976C65.5846 211.659 65.0854 213.305 64.15 214.705C63.2146 216.105 61.8852 217.196 60.3297 217.84C58.7742 218.485 57.0627 218.653 55.4114 218.325C53.7601 217.996 52.2433 217.185 51.0528 215.995C49.8623 214.804 49.0516 213.288 48.7231 211.636C48.3947 209.985 48.5633 208.274 49.2076 206.718C49.8518 205.163 50.9429 203.833 52.3428 202.898C53.7427 201.962 55.3885 201.463 57.0721 201.463C59.3298 201.463 61.495 202.36 63.0914 203.956C64.6878 205.553 65.5846 207.718 65.5846 209.976Z" fill="#545454"/>
<path d="M57.0146 222.829C54.4689 222.829 51.9804 222.074 49.864 220.66C47.7475 219.245 46.0982 217.235 45.1247 214.882C44.1511 212.53 43.8971 209.942 44.3948 207.446C44.8925 204.949 46.1194 202.656 47.9205 200.857C49.7215 199.058 52.0158 197.834 54.5129 197.339C57.01 196.844 59.5977 197.101 61.9488 198.077C64.2999 199.053 66.3087 200.705 67.7209 202.823C69.1332 204.941 69.8855 207.43 69.8827 209.976C69.8752 213.385 68.5166 216.652 66.1046 219.061C63.6925 221.471 60.4238 222.826 57.0146 222.829ZM57.0146 198.853C54.8181 198.853 52.6709 199.504 50.8443 200.724C49.0178 201.944 47.5939 203.678 46.7527 205.707C45.9115 207.736 45.6907 209.969 46.1182 212.123C46.5457 214.278 47.6023 216.257 49.1544 217.812C50.7066 219.366 52.6847 220.425 54.8387 220.855C56.9926 221.285 59.2258 221.067 61.2559 220.229C63.2861 219.39 65.022 217.968 66.2444 216.143C67.4667 214.318 68.1206 212.172 68.1234 209.976C68.1234 207.028 66.9535 204.201 64.8706 202.115C62.7877 200.03 59.9621 198.856 57.0146 198.853Z" fill="#545454"/>
<path d="M49.3963 195.376C49.1566 184.955 52.1285 174.711 57.9088 166.036C65.1019 155.268 83.2903 146.004 98.627 149.338C98.627 149.338 78.9773 153.367 67.7833 167.469C58.0932 179.671 59.5829 194.624 59.5829 194.624L49.3963 195.376Z" fill="#EBA23E"/>
<path d="M18.0842 339.366C18.0842 339.366 21.8297 383.419 23.1208 388.086C24.4119 392.754 26.4974 405.367 40.2168 407.949C58.7316 411.51 131.4 408.999 131.4 408.999L123.115 389.136L54.0213 375.573L50.8575 341.31L18.0842 339.366Z" fill="#FF9580"/>
<path d="M243.865 389.534L247.483 406.147C247.483 406.147 197.996 408.19 165.89 404.799C155.831 403.735 124.746 355.98 124.746 355.98L155.59 333.28L173.282 370.607L243.865 389.534Z" fill="#FF9580"/>
<path d="M143.659 274.955C132.276 267.65 119.15 263.516 105.636 262.98C105.636 262.98 95.7049 268.968 85.3906 268.102C75.0762 267.237 65.9395 264.016 65.2726 261.221C65.2726 261.221 36.2449 264.272 22.9654 281.595C12.0977 295.754 14.013 349.014 14.013 349.014L51.61 347.822L36.4861 405.423H136.849L135.785 359.115L168.87 339.253C168.87 339.253 153.235 281.254 143.659 274.955Z" fill="#E09500"/>
<path d="M136.224 370.366C136.009 370.366 135.804 370.281 135.652 370.13C135.5 369.978 135.415 369.772 135.415 369.558V344.346C135.413 344.24 135.433 344.134 135.473 344.035C135.513 343.936 135.572 343.846 135.648 343.77C135.723 343.695 135.813 343.635 135.912 343.595C136.011 343.555 136.117 343.536 136.224 343.538C136.438 343.538 136.644 343.623 136.796 343.775C136.947 343.926 137.033 344.132 137.033 344.346V369.558C137.029 369.771 136.943 369.975 136.792 370.126C136.641 370.276 136.437 370.363 136.224 370.366Z" fill="#545454"/>
<path d="M84.2826 326.981L73.9257 409.268L140.011 417.597C141.245 417.775 142.5 417.457 143.499 416.713C144.499 415.968 145.163 414.857 145.346 413.624L154.554 340.501C154.618 339.882 154.559 339.256 154.379 338.66C154.199 338.063 153.903 337.509 153.507 337.028C153.111 336.548 152.623 336.151 152.072 335.86C151.521 335.57 150.918 335.392 150.297 335.337L84.2826 326.981Z" fill="#EFEDEF"/>
<path d="M84.5252 324.582L73.8845 408.97L136.31 416.844C137.57 417 138.841 416.651 139.844 415.871C140.846 415.092 141.499 413.947 141.658 412.687L151.093 337.805C151.25 336.545 150.9 335.274 150.121 334.271C149.341 333.268 148.196 332.616 146.936 332.456L84.5252 324.582Z" fill="#EBA23E"/>
<g opacity="0.08">
<path d="M136.309 416.844L73.8837 408.97L78.2676 374.154C78.2676 374.154 92.597 392.243 108.445 402.77C124.292 413.298 136.309 416.844 136.309 416.844Z" fill="#545454"/>
</g>
<path d="M128.251 351.113H128.124L103.679 347.978C103.547 347.964 103.419 347.924 103.302 347.859C103.186 347.795 103.084 347.708 103.002 347.603C102.92 347.499 102.86 347.379 102.825 347.251C102.79 347.123 102.781 346.989 102.799 346.857C102.816 346.726 102.86 346.599 102.926 346.484C102.993 346.37 103.081 346.269 103.187 346.189C103.292 346.108 103.413 346.05 103.541 346.016C103.669 345.982 103.803 345.974 103.934 345.992L128.365 349.113C128.611 349.154 128.834 349.285 128.989 349.48C129.144 349.676 129.222 349.922 129.206 350.171C129.19 350.42 129.082 350.655 128.903 350.829C128.724 351.003 128.487 351.104 128.237 351.113H128.251Z" fill="#545454"/>
<path d="M127.798 357.058H127.67L103.239 353.937C103.108 353.921 102.982 353.879 102.867 353.814C102.752 353.749 102.652 353.662 102.571 353.558C102.491 353.453 102.432 353.334 102.398 353.207C102.364 353.079 102.356 352.946 102.373 352.816C102.387 352.684 102.428 352.557 102.492 352.441C102.557 352.326 102.644 352.224 102.749 352.143C102.853 352.062 102.974 352.004 103.102 351.97C103.23 351.937 103.363 351.93 103.494 351.95L127.925 355.072C128.172 355.112 128.394 355.243 128.549 355.439C128.705 355.634 128.782 355.88 128.766 356.13C128.75 356.379 128.642 356.613 128.463 356.787C128.284 356.961 128.047 357.063 127.798 357.072V357.058Z" fill="#545454"/>
<path d="M77.8141 406.033H77.6864C77.4237 405.998 77.1855 405.861 77.0235 405.651C76.8615 405.441 76.7887 405.176 76.821 404.913L86.5536 328.371C86.5693 328.24 86.611 328.113 86.676 327.999C86.7411 327.884 86.8284 327.784 86.9327 327.703C87.037 327.623 87.1563 327.564 87.2837 327.53C87.411 327.496 87.5439 327.487 87.6744 327.505C87.9371 327.541 88.1753 327.678 88.3373 327.888C88.4993 328.098 88.5721 328.363 88.5399 328.626L78.8214 405.168C78.787 405.41 78.6659 405.631 78.4806 405.79C78.2952 405.949 78.0584 406.036 77.8141 406.033Z" fill="#545454"/>
<path d="M21.2617 373.601C21.9995 380.694 22.6805 386.554 23.1203 388.086C24.4114 392.768 26.4969 405.367 40.2163 407.949C58.731 411.51 131.4 408.999 131.4 408.999L123.114 389.136L54.0208 375.573L51.5663 347.921L21.2617 373.601Z" fill="#FF9580"/>
<path d="M119.625 388.739C122.286 388.108 125.023 387.855 127.754 387.987C134.593 388.157 142.949 385.575 148.724 385.149C151.675 384.951 152.781 385.987 152.98 386.965C153.125 387.722 153.035 388.505 152.723 389.21C152.412 389.915 151.892 390.508 151.235 390.91C153.533 391.491 155.136 391.42 155.406 393.974C155.69 396.812 151.391 397.478 151.391 397.478C152.209 397.471 152.998 397.785 153.587 398.352C154.176 398.92 154.518 399.697 154.541 400.515C154.81 403.707 150.114 404.033 148.865 404.558C149.631 405.002 150.21 405.707 150.497 406.544C150.517 407.146 150.344 407.738 150.005 408.236C149.666 408.733 149.177 409.109 148.61 409.311C143.583 410.17 138.463 410.352 133.387 409.85C126.733 409.226 117.88 408.8 117.88 408.8L119.625 388.739Z" fill="#FF9580"/>
<path d="M138.338 410.715C135.619 410.735 132.901 410.616 130.194 410.361C130.086 410.349 129.981 410.315 129.886 410.263C129.791 410.21 129.707 410.14 129.639 410.055C129.571 409.97 129.521 409.872 129.491 409.768C129.46 409.663 129.451 409.554 129.463 409.446C129.475 409.338 129.509 409.233 129.561 409.138C129.614 409.043 129.685 408.959 129.77 408.891C129.854 408.823 129.952 408.773 130.056 408.742C130.161 408.712 130.27 408.703 130.378 408.715C136.39 409.203 142.434 409.165 148.439 408.602C148.819 408.47 149.15 408.225 149.388 407.901C149.626 407.577 149.761 407.188 149.773 406.786C149.645 406.119 148.765 405.48 148.538 405.367C148.406 405.289 148.298 405.176 148.225 405.041C148.153 404.906 148.119 404.754 148.127 404.601C148.139 404.447 148.192 404.299 148.282 404.174C148.373 404.049 148.496 403.951 148.638 403.891C149.038 403.732 149.451 403.609 149.872 403.522C152.014 402.997 153.93 402.387 153.788 400.685C153.79 400.382 153.731 400.082 153.615 399.802C153.499 399.522 153.329 399.268 153.113 399.055C152.898 398.842 152.642 398.675 152.36 398.562C152.079 398.45 151.778 398.395 151.475 398.401C151.274 398.374 151.089 398.276 150.955 398.123C150.821 397.97 150.747 397.774 150.747 397.571C150.747 397.368 150.821 397.171 150.955 397.019C151.089 396.866 151.274 396.767 151.475 396.741C152.498 396.737 153.483 397.131 154.219 397.841C154.956 398.551 155.386 399.521 155.419 400.543C155.675 403.579 152.582 404.544 150.652 405.04C151.005 405.448 151.253 405.935 151.376 406.459C151.445 407.257 151.244 408.055 150.807 408.726C150.37 409.397 149.722 409.902 148.964 410.162C145.441 410.61 141.889 410.795 138.338 410.715Z" fill="#545454"/>
<path d="M139.146 380.68C137.316 378.098 133.712 380.339 129.541 383.432C127.569 384.851 123.469 387.135 122.703 388.682C121.568 390.952 131.754 389.59 131.754 389.59C131.754 389.59 142.849 385.901 139.146 380.68Z" fill="#FF9580"/>
<path d="M151.462 398.372C151.244 398.389 151.028 398.319 150.861 398.176C150.695 398.034 150.592 397.831 150.575 397.613C150.558 397.395 150.629 397.179 150.771 397.013C150.914 396.846 151.116 396.743 151.334 396.727C151.334 396.727 154.853 396.116 154.64 394.13C154.484 392.541 153.831 392.399 152.072 392.016L151.107 391.789C150.948 391.75 150.804 391.664 150.693 391.543C150.582 391.422 150.509 391.271 150.483 391.108C150.462 390.947 150.486 390.783 150.554 390.635C150.622 390.486 150.73 390.361 150.866 390.271C151.381 389.971 151.793 389.521 152.047 388.981C152.3 388.442 152.383 387.837 152.285 387.249C152.044 386.37 150.738 385.93 148.823 386.043C146.111 386.293 143.415 386.7 140.75 387.263C139.502 387.49 138.225 387.732 136.962 387.944C136.772 387.987 136.574 387.96 136.401 387.87C136.229 387.779 136.095 387.631 136.021 387.45C135.948 387.27 135.941 387.07 136.002 386.885C136.063 386.7 136.187 386.543 136.352 386.441C137.648 385.756 138.63 384.597 139.09 383.206C139.139 382.845 139.114 382.477 139.016 382.126C138.918 381.775 138.751 381.447 138.523 381.163C138.397 380.965 138.231 380.796 138.035 380.666C137.84 380.537 137.619 380.45 137.388 380.411C135.714 380.127 132.891 382.028 130.096 384.1C129.5 384.539 128.677 385.05 127.911 385.518C126.413 386.401 125.019 387.447 123.754 388.64C123.616 388.799 123.424 388.9 123.215 388.923C120.733 388.972 118.252 388.82 115.795 388.469C115.577 388.438 115.381 388.322 115.248 388.146C115.115 387.971 115.057 387.751 115.085 387.533C115.097 387.424 115.131 387.318 115.186 387.222C115.24 387.127 115.313 387.043 115.401 386.977C115.488 386.91 115.589 386.863 115.695 386.836C115.802 386.81 115.913 386.806 116.022 386.824C118.246 387.128 120.487 387.284 122.732 387.292C124.044 386.101 125.47 385.041 126.988 384.128C127.783 383.617 128.521 383.135 129.088 382.709C132.763 379.985 135.473 378.368 137.601 378.708C138.052 378.779 138.483 378.941 138.869 379.185C139.254 379.429 139.586 379.75 139.842 380.127C140.202 380.591 140.462 381.124 140.606 381.692C140.751 382.261 140.775 382.854 140.679 383.433C140.51 384.278 140.124 385.065 139.559 385.717L140.396 385.561C143.127 384.986 145.888 384.57 148.667 384.312C152.682 384.043 153.619 385.93 153.846 386.738C154.014 387.379 154.028 388.05 153.885 388.697C153.741 389.343 153.446 389.946 153.023 390.456C153.898 390.519 154.718 390.905 155.324 391.54C155.93 392.175 156.278 393.012 156.3 393.889C156.584 396.727 153.462 397.989 151.59 398.287L151.462 398.372Z" fill="#545454"/>
<path d="M147.844 405.409C145.815 405.409 143.886 405.296 142.325 405.182C142.107 405.16 141.905 405.055 141.763 404.889C141.62 404.722 141.547 404.507 141.559 404.288C141.577 404.069 141.681 403.865 141.848 403.722C142.016 403.578 142.233 403.506 142.453 403.522C144.859 403.718 147.275 403.784 149.688 403.721C149.89 403.747 150.075 403.846 150.209 403.999C150.343 404.151 150.417 404.348 150.417 404.551C150.417 404.754 150.343 404.95 150.209 405.103C150.075 405.256 149.89 405.354 149.688 405.381L147.844 405.409Z" fill="#545454"/>
<path d="M142.637 398.869C142.436 398.843 142.251 398.744 142.117 398.591C141.983 398.438 141.909 398.242 141.909 398.039C141.909 397.836 141.983 397.64 142.117 397.487C142.251 397.334 142.436 397.235 142.637 397.209C145.22 397.209 147.433 397.039 149.987 396.854L152.824 396.656C153.045 396.647 153.26 396.724 153.426 396.869C153.592 397.014 153.696 397.217 153.718 397.436C153.73 397.656 153.654 397.871 153.508 398.036C153.362 398.2 153.157 398.301 152.938 398.316L150.1 398.514C147.518 398.699 145.291 398.855 142.637 398.869Z" fill="#545454"/>
<path d="M142.651 392.272C142.543 392.274 142.436 392.254 142.337 392.214C142.237 392.174 142.146 392.115 142.069 392.04C141.993 391.965 141.932 391.875 141.891 391.776C141.849 391.677 141.828 391.57 141.828 391.463C141.824 391.354 141.842 391.245 141.881 391.143C141.919 391.04 141.978 390.947 142.053 390.868C142.129 390.789 142.219 390.725 142.319 390.681C142.419 390.637 142.527 390.614 142.636 390.612C145.786 390.616 148.932 390.37 152.043 389.874C152.248 389.867 152.449 389.937 152.606 390.069C152.764 390.201 152.868 390.386 152.898 390.589C152.927 390.793 152.881 391 152.768 391.171C152.655 391.343 152.483 391.467 152.284 391.52C149.102 392.02 145.886 392.271 142.665 392.272H142.651Z" fill="#545454"/>
<path d="M18.0691 349.326C17.8677 349.3 17.6827 349.201 17.5487 349.048C17.4147 348.895 17.3408 348.699 17.3408 348.496C17.3408 348.293 17.4147 348.097 17.5487 347.944C17.6827 347.791 17.8677 347.692 18.0691 347.666L56.5741 346.531L56.0208 330.925C56.017 330.815 56.035 330.705 56.0736 330.602C56.1122 330.499 56.1707 330.405 56.2458 330.324C56.3209 330.244 56.4111 330.179 56.5113 330.134C56.6114 330.088 56.7196 330.063 56.8295 330.059C57.0481 330.059 57.2584 330.143 57.4169 330.293C57.5754 330.444 57.6699 330.65 57.6808 330.868L58.2767 347.311C58.2796 347.532 58.1984 347.745 58.0497 347.907C57.9745 347.986 57.8843 348.05 57.7844 348.093C57.6846 348.137 57.577 348.161 57.468 348.163L18.1259 349.326H18.0691Z" fill="#545454"/>
<path d="M85.2333 269.563C70.7336 269.563 64.6897 262.47 64.4344 262.157C64.3231 261.986 64.2786 261.779 64.3093 261.577C64.34 261.374 64.4438 261.19 64.601 261.059C64.7582 260.928 64.958 260.859 65.1626 260.866C65.3672 260.872 65.5624 260.953 65.7113 261.093C65.7113 261.093 71.6842 268.088 85.6731 267.903C100.357 267.747 105.351 262.314 105.408 262.228C105.553 262.063 105.758 261.962 105.977 261.947C106.197 261.932 106.413 262.005 106.578 262.15C106.744 262.295 106.845 262.5 106.86 262.719C106.875 262.939 106.801 263.155 106.657 263.321C106.444 263.562 101.208 269.365 85.6873 269.535L85.2333 269.563Z" fill="#545454"/>
<path d="M264.877 388.81C260.621 387.746 248.036 388.81 243.808 389.959C241.422 390.775 239.427 392.455 238.219 394.669L240.886 405.466C244.321 406.379 247.898 406.63 251.427 406.204C254.747 405.636 269.005 402.997 270.467 403.976C270.778 404.212 271.14 404.373 271.523 404.447C271.907 404.521 272.302 404.506 272.679 404.403C273.056 404.3 273.404 404.112 273.697 403.854C273.99 403.596 274.22 403.273 274.368 402.912C274.295 402.369 274.132 401.841 273.886 401.352H274.297C276.823 401.082 275.432 398.287 275.432 398.287L275.021 398.017C276.241 398.244 275.83 397.578 276.085 396.982C277.518 393.591 269.204 389.86 264.877 388.81Z" fill="#FF9580"/>
<path d="M438.986 303.358H307.553C301.481 303.358 296.558 307.614 296.558 312.764L266.054 395.506L201.061 406.856C199.231 406.856 235.821 407.31 261.599 407.636L261.486 407.934H414.924L449.982 312.793C449.982 307.572 445.059 303.358 438.986 303.358Z" fill="white"/>
<path d="M438.986 303.358H307.553C301.481 303.358 296.558 307.614 296.558 312.764L266.054 395.506L201.061 406.856C199.231 406.856 235.821 407.31 261.599 407.636L261.486 407.934H414.924L449.982 312.793C449.982 307.572 445.059 303.358 438.986 303.358Z" fill="#545454"/>
<path d="M372.119 365.672C379.037 359.947 380.004 349.698 374.279 342.78C368.554 335.862 358.305 334.895 351.387 340.62C344.469 346.345 343.502 356.594 349.227 363.512C354.952 370.43 365.201 371.397 372.119 365.672Z" fill="white"/>
<path d="M471.235 405.551H11.7425C8.75714 405.551 6.33704 407.971 6.33704 410.957V413.312C6.33704 416.297 8.75714 418.717 11.7425 418.717H471.235C474.22 418.717 476.64 416.297 476.64 413.312V410.957C476.64 407.971 474.22 405.551 471.235 405.551Z" fill="#E09500"/>
<g opacity="0.14">
<path d="M455.061 378.325C455.061 378.325 444.903 362.719 447.854 350.418C449.414 343.92 454.664 339.437 459.332 335.067C465.177 329.591 466.922 326.455 467.248 318.198C467.155 314.656 467.899 311.142 469.419 307.941C471.136 304.876 474.682 302.535 478.13 303.287C479.665 303.745 481.036 304.634 482.08 305.849C483.124 307.064 483.796 308.553 484.018 310.14C484.412 313.328 484.012 316.564 482.855 319.56C480.832 326.145 477.449 332.23 472.923 337.422C468.667 342.033 461.673 345.311 458.736 350.872C452.039 363.598 455.061 378.325 455.061 378.325Z" fill="#F9BF7A"/>
</g>
<path d="M435.553 372.99L439.355 406.544C439.355 406.544 462.467 408.232 467.517 405.977L472.44 373.061L435.553 372.99Z" fill="#F9BF7A"/>
<path d="M434.475 395.677H434.333C432.11 395.625 429.996 394.705 428.442 393.114C426.888 391.523 426.019 389.388 426.019 387.164C426.067 384.951 426.975 382.843 428.551 381.288C430.127 379.734 432.247 378.854 434.461 378.836H434.589C436.637 379.116 438.515 380.132 439.869 381.695C441.224 383.257 441.963 385.259 441.949 387.327C441.935 389.395 441.169 391.387 439.793 392.932C438.418 394.476 436.528 395.467 434.475 395.719V395.677ZM434.475 382.397C433.207 382.401 431.99 382.902 431.088 383.794C430.186 384.685 429.67 385.896 429.651 387.164C429.698 388.403 430.218 389.576 431.104 390.443C431.99 391.309 433.175 391.802 434.415 391.82C435.654 391.839 436.853 391.38 437.765 390.54C438.676 389.7 439.23 388.543 439.313 387.306C439.322 386.672 439.207 386.043 438.973 385.454C438.739 384.866 438.392 384.329 437.95 383.874C437.509 383.42 436.983 383.056 436.401 382.805C435.819 382.554 435.194 382.42 434.56 382.411L434.475 382.397Z" fill="#F9BF7A"/>
<g opacity="0.14">
<path d="M473.846 348.9C471.292 347.836 468.171 349.482 465.957 351.184C463.744 352.887 462.836 356.519 464.836 358.449C465.675 359.093 466.68 359.483 467.734 359.574C468.788 359.664 469.845 359.451 470.781 358.959C471.924 358.53 472.943 357.825 473.747 356.906C474.552 355.988 475.117 354.885 475.392 353.696C475.818 351.284 475.009 349.397 473.846 348.9Z" fill="#F9BF7A"/>
</g>
<path d="M471.872 377.474H436.261C436.042 377.47 435.833 377.38 435.679 377.224C435.525 377.067 435.438 376.856 435.438 376.637C435.438 376.419 435.525 376.209 435.68 376.055C435.834 375.901 436.043 375.814 436.261 375.814H471.872C472.092 375.814 472.302 375.9 472.459 376.054C472.616 376.208 472.705 376.417 472.709 376.637C472.706 376.858 472.616 377.068 472.46 377.225C472.304 377.381 472.093 377.47 471.872 377.474Z" fill="#545454"/>
<path d="M467.829 403.934H438.901C438.783 403.949 438.663 403.939 438.549 403.905C438.435 403.87 438.33 403.812 438.24 403.733C438.151 403.654 438.079 403.558 438.03 403.449C437.98 403.341 437.955 403.223 437.955 403.104C437.955 402.985 437.98 402.867 438.03 402.759C438.079 402.65 438.151 402.553 438.24 402.475C438.33 402.396 438.435 402.338 438.549 402.303C438.663 402.268 438.783 402.258 438.901 402.274H467.829C468.031 402.3 468.216 402.399 468.35 402.552C468.484 402.704 468.558 402.901 468.558 403.104C468.558 403.307 468.484 403.503 468.35 403.656C468.216 403.809 468.031 403.907 467.829 403.934Z" fill="#545454"/>
<path d="M554.53 207.082H497.723C494.15 207.082 491.254 209.978 491.254 213.551V231.484C491.254 235.057 494.15 237.954 497.723 237.954H554.53C558.103 237.954 561 235.057 561 231.484V213.551C561 209.978 558.103 207.082 554.53 207.082Z" fill="#F9BF7A"/>
<path d="M522.395 219.439H502.675C502.236 219.435 501.815 219.259 501.505 218.949C501.194 218.638 501.018 218.218 501.015 217.779C501.015 217.339 501.19 216.916 501.501 216.605C501.812 216.294 502.234 216.119 502.675 216.119H522.395C522.613 216.119 522.828 216.162 523.028 216.246C523.229 216.329 523.411 216.452 523.564 216.606C523.717 216.76 523.838 216.943 523.92 217.145C524.002 217.346 524.043 217.562 524.041 217.779C524.041 218.217 523.868 218.637 523.56 218.948C523.252 219.259 522.833 219.435 522.395 219.439Z" fill="white"/>
<path d="M542.144 228.419H502.675C502.237 228.419 501.817 228.246 501.506 227.938C501.195 227.63 501.018 227.211 501.015 226.773C501.015 226.333 501.19 225.911 501.501 225.6C501.812 225.288 502.234 225.114 502.675 225.114H542.144C542.585 225.114 543.007 225.288 543.318 225.6C543.629 225.911 543.804 226.333 543.804 226.773C543.804 226.991 543.761 227.206 543.678 227.407C543.594 227.607 543.472 227.789 543.317 227.942C543.163 228.095 542.98 228.216 542.779 228.298C542.577 228.38 542.362 228.421 542.144 228.419Z" fill="white"/>
<path d="M549.437 161.539H496.404C493.56 161.539 491.254 163.845 491.254 166.689V192.17C491.254 195.015 493.56 197.32 496.404 197.32H549.437C552.281 197.32 554.587 195.015 554.587 192.17V166.689C554.587 163.845 552.281 161.539 549.437 161.539Z" fill="#588645"/>
<path d="M523.814 172.648H500.362C500.012 172.648 499.676 172.509 499.428 172.262C499.181 172.014 499.042 171.679 499.042 171.329C499.04 171.155 499.073 170.983 499.139 170.822C499.204 170.661 499.301 170.514 499.424 170.392C499.547 170.269 499.693 170.172 499.854 170.106C500.015 170.04 500.188 170.007 500.362 170.009H523.814C523.987 170.007 524.16 170.04 524.321 170.106C524.482 170.172 524.628 170.269 524.751 170.392C524.874 170.514 524.971 170.661 525.036 170.822C525.102 170.983 525.135 171.155 525.133 171.329C525.133 171.679 524.994 172.014 524.746 172.262C524.499 172.509 524.163 172.648 523.814 172.648Z" fill="white"/>
<path d="M539.562 179.756H500.362C500.012 179.756 499.676 179.617 499.428 179.37C499.181 179.122 499.042 178.787 499.042 178.437C499.04 178.263 499.073 178.09 499.139 177.93C499.204 177.769 499.301 177.622 499.424 177.499C499.547 177.377 499.693 177.279 499.854 177.214C500.015 177.148 500.188 177.115 500.362 177.117H539.562C539.735 177.117 539.907 177.151 540.067 177.218C540.227 177.284 540.372 177.381 540.495 177.504C540.617 177.626 540.714 177.772 540.781 177.932C540.847 178.092 540.881 178.263 540.881 178.437C540.881 178.61 540.847 178.782 540.781 178.942C540.714 179.102 540.617 179.247 540.495 179.37C540.372 179.492 540.227 179.589 540.067 179.656C539.907 179.722 539.735 179.756 539.562 179.756Z" fill="#545454"/>
<path d="M539.562 187.275H500.362C500.188 187.275 500.017 187.241 499.857 187.175C499.696 187.109 499.551 187.012 499.428 186.889C499.306 186.766 499.209 186.621 499.142 186.461C499.076 186.301 499.042 186.129 499.042 185.956C499.04 185.782 499.073 185.61 499.139 185.449C499.204 185.288 499.301 185.142 499.424 185.019C499.547 184.896 499.693 184.799 499.854 184.733C500.015 184.667 500.188 184.635 500.362 184.637H539.562C539.735 184.637 539.907 184.671 540.067 184.737C540.227 184.803 540.372 184.9 540.495 185.023C540.617 185.146 540.714 185.291 540.781 185.451C540.847 185.611 540.881 185.783 540.881 185.956C540.881 186.129 540.847 186.301 540.781 186.461C540.714 186.621 540.617 186.766 540.495 186.889C540.372 187.012 540.227 187.109 540.067 187.175C539.907 187.241 539.735 187.275 539.562 187.275Z" fill="#545454"/>
<path d="M257.442 72.9238H196.933C193.36 72.9238 190.463 75.8203 190.463 79.3933V97.3264C190.463 100.899 193.36 103.796 196.933 103.796H257.442C261.015 103.796 263.912 100.899 263.912 97.3264V79.3933C263.912 75.8203 261.015 72.9238 257.442 72.9238Z" fill="#588645"/>
<path d="M225.293 85.2671H201.884C201.666 85.269 201.451 85.2278 201.249 85.1459C201.048 85.0641 200.865 84.9432 200.711 84.7901C200.556 84.6371 200.434 84.4551 200.35 84.2545C200.267 84.0539 200.224 83.8387 200.224 83.6214C200.224 83.1811 200.399 82.7589 200.71 82.4476C201.021 82.1363 201.443 81.9614 201.884 81.9614H225.293C225.733 81.9614 226.155 82.1363 226.467 82.4476C226.778 82.7589 226.953 83.1811 226.953 83.6214C226.949 84.0591 226.773 84.4777 226.462 84.786C226.151 85.0942 225.731 85.2671 225.293 85.2671Z" fill="#545454"/>
<path d="M245.042 94.191H201.884C201.666 94.1928 201.451 94.1516 201.249 94.0698C201.048 93.9879 200.865 93.867 200.711 93.714C200.556 93.561 200.434 93.3789 200.35 93.1783C200.267 92.9777 200.224 92.7625 200.224 92.5452C200.224 92.105 200.399 91.6827 200.71 91.3714C201.021 91.0601 201.443 90.8853 201.884 90.8853H245.042C245.482 90.8853 245.905 91.0601 246.216 91.3714C246.527 91.6827 246.702 92.105 246.702 92.5452C246.702 92.7625 246.659 92.9777 246.575 93.1783C246.492 93.3789 246.369 93.561 246.215 93.714C246.061 93.867 245.878 93.9879 245.676 94.0698C245.475 94.1516 245.259 94.1928 245.042 94.191Z" fill="white"/>
<path d="M174.502 90.9424H124.689C121.845 90.9424 119.539 93.2482 119.539 96.0925V121.573C119.539 124.418 121.845 126.723 124.689 126.723H174.502C177.346 126.723 179.652 124.418 179.652 121.573V96.0925C179.652 93.2482 177.346 90.9424 174.502 90.9424Z" fill="#F9BF7A"/>
<path d="M148.88 102.037H128.634C128.284 102.037 127.948 101.898 127.701 101.651C127.454 101.403 127.315 101.068 127.315 100.718C127.315 100.544 127.349 100.373 127.415 100.213C127.481 100.053 127.579 99.9073 127.701 99.7847C127.824 99.6622 127.969 99.565 128.129 99.4987C128.289 99.4324 128.461 99.3983 128.634 99.3983H148.88C149.053 99.3964 149.226 99.4292 149.387 99.4948C149.548 99.5605 149.694 99.6576 149.817 99.7805C149.94 99.9034 150.037 100.05 150.103 100.211C150.168 100.371 150.201 100.544 150.199 100.718C150.199 101.068 150.06 101.403 149.813 101.651C149.565 101.898 149.23 102.037 148.88 102.037Z" fill="white"/>
<path d="M164.685 109.145H128.634C128.284 109.145 127.948 109.005 127.701 108.758C127.454 108.511 127.315 108.175 127.315 107.825C127.315 107.475 127.454 107.14 127.701 106.892C127.948 106.645 128.284 106.506 128.634 106.506H164.685C165.035 106.506 165.37 106.645 165.618 106.892C165.865 107.14 166.004 107.475 166.004 107.825C166.004 108.175 165.865 108.511 165.618 108.758C165.37 109.005 165.035 109.145 164.685 109.145Z" fill="#545454"/>
<path d="M164.685 116.664H128.634C128.284 116.664 127.948 116.525 127.701 116.278C127.454 116.03 127.315 115.695 127.315 115.345C127.315 114.995 127.454 114.659 127.701 114.412C127.948 114.164 128.284 114.025 128.634 114.025H164.685C165.035 114.025 165.37 114.164 165.618 114.412C165.865 114.659 166.004 114.995 166.004 115.345C166.004 115.695 165.865 116.03 165.618 116.278C165.37 116.525 165.035 116.664 164.685 116.664Z" fill="#545454"/>
<path d="M356.655 464.529L343.787 459.577L333.062 468.26L335.204 481.88L348.086 486.832L358.812 478.163L356.655 464.529Z" fill="#F9BF7A"/>
<path d="M360.089 62.666L347.689 68.7241L346.725 82.486L358.16 90.2041L370.56 84.146L371.524 70.384L360.089 62.666Z" fill="#F9BF7A"/>
<path d="M483.691 2.0144L472.228 27.6229L499.766 22.2742L483.691 2.0144Z" fill="#588645"/>
<path d="M138.749 449.944L110.984 445.915L123.654 470.941L138.749 449.944Z" fill="#588645"/>
<path d="M267.417 9.23609C267.417 11.0628 266.875 12.8485 265.86 14.3674C264.845 15.8863 263.403 17.0701 261.715 17.7691C260.027 18.4682 258.17 18.6511 256.379 18.2947C254.587 17.9383 252.941 17.0587 251.65 15.767C250.358 14.4753 249.478 12.8296 249.122 11.038C248.766 9.24634 248.948 7.38927 249.648 5.70159C250.347 4.01392 251.53 2.57144 253.049 1.55656C254.568 0.541687 256.354 0 258.181 0C260.63 0 262.979 0.973086 264.711 2.70519C266.444 4.43729 267.417 6.78653 267.417 9.23609Z" fill="#588645"/>
<path d="M378.562 17.4792C378.341 17.4755 378.13 17.3862 377.974 17.23C377.818 17.0738 377.728 16.863 377.725 16.6421V7.0939C377.725 6.8719 377.813 6.65899 377.97 6.50201C378.127 6.34503 378.34 6.25684 378.562 6.25684C378.784 6.25684 378.997 6.34503 379.154 6.50201C379.311 6.65899 379.399 6.8719 379.399 7.0939V16.6705C379.388 16.8864 379.295 17.0901 379.14 17.2403C378.985 17.3904 378.778 17.4759 378.562 17.4792Z" fill="#545454"/>
<path d="M383.357 12.6836H373.766C373.565 12.6572 373.38 12.5585 373.246 12.4058C373.112 12.2531 373.038 12.0568 373.038 11.8537C373.038 11.6505 373.112 11.4543 373.246 11.3015C373.38 11.1488 373.565 11.0501 373.766 11.0237H383.357C383.559 11.0501 383.744 11.1488 383.878 11.3015C384.012 11.4543 384.085 11.6505 384.085 11.8537C384.085 12.0568 384.012 12.2531 383.878 12.4058C383.744 12.5585 383.559 12.6572 383.357 12.6836Z" fill="#545454"/>
<path d="M5.78505 240.947C5.67578 240.947 5.56761 240.925 5.46684 240.883C5.36606 240.841 5.27471 240.779 5.19811 240.701C5.12151 240.623 5.0612 240.531 5.02069 240.429C4.98018 240.328 4.96029 240.219 4.96217 240.11V230.533C4.9467 230.415 4.95661 230.295 4.99123 230.181C5.02586 230.067 5.08441 229.962 5.16298 229.872C5.24154 229.783 5.3383 229.711 5.4468 229.662C5.5553 229.613 5.67304 229.587 5.79214 229.587C5.91125 229.587 6.02899 229.613 6.13749 229.662C6.24599 229.711 6.34275 229.783 6.42131 229.872C6.49987 229.962 6.55842 230.067 6.59305 230.181C6.62768 230.295 6.63759 230.415 6.62212 230.533V240.11C6.62404 240.22 6.6037 240.33 6.56231 240.432C6.52093 240.535 6.45934 240.628 6.38122 240.706C6.30311 240.784 6.21007 240.846 6.10764 240.887C6.00521 240.928 5.8955 240.949 5.78505 240.947Z" fill="#545454"/>
<path d="M10.5224 236.152H0.945811C0.827712 236.167 0.70767 236.157 0.593706 236.123C0.479743 236.088 0.374481 236.029 0.284955 235.951C0.195429 235.872 0.1237 235.776 0.0745594 235.667C0.0254192 235.559 0 235.441 0 235.322C0 235.203 0.0254192 235.085 0.0745594 234.976C0.1237 234.868 0.195429 234.771 0.284955 234.693C0.374481 234.614 0.479743 234.555 0.593706 234.521C0.70767 234.486 0.827712 234.476 0.945811 234.492H10.5224C10.6405 234.476 10.7605 234.486 10.8745 234.521C10.9885 234.555 11.0937 234.614 11.1833 234.693C11.2728 234.771 11.3445 234.868 11.3937 234.976C11.4428 235.085 11.4682 235.203 11.4682 235.322C11.4682 235.441 11.4428 235.559 11.3937 235.667C11.3445 235.776 11.2728 235.872 11.1833 235.951C11.0937 236.029 10.9885 236.088 10.8745 236.123C10.7605 236.157 10.6405 236.167 10.5224 236.152Z" fill="#545454"/>
<path d="M239.963 493.102C239.853 493.104 239.743 493.084 239.641 493.043C239.538 493.001 239.445 492.94 239.367 492.861C239.289 492.783 239.227 492.69 239.186 492.588C239.145 492.486 239.124 492.376 239.126 492.265V482.689C239.111 482.571 239.121 482.451 239.155 482.337C239.19 482.223 239.248 482.117 239.327 482.028C239.405 481.938 239.502 481.867 239.611 481.817C239.719 481.768 239.837 481.743 239.956 481.743C240.075 481.743 240.193 481.768 240.301 481.817C240.41 481.867 240.507 481.938 240.585 482.028C240.664 482.117 240.722 482.223 240.757 482.337C240.792 482.451 240.802 482.571 240.786 482.689V492.308C240.779 492.521 240.689 492.723 240.535 492.871C240.382 493.02 240.177 493.103 239.963 493.102Z" fill="#545454"/>
<path d="M244.744 488.307H235.168C235.05 488.322 234.929 488.312 234.816 488.278C234.702 488.243 234.596 488.185 234.507 488.106C234.417 488.028 234.345 487.931 234.296 487.822C234.247 487.714 234.222 487.596 234.222 487.477C234.222 487.358 234.247 487.24 234.296 487.132C234.345 487.023 234.417 486.926 234.507 486.848C234.596 486.769 234.702 486.711 234.816 486.676C234.929 486.641 235.05 486.632 235.168 486.647H244.744C244.862 486.632 244.982 486.641 245.096 486.676C245.21 486.711 245.316 486.769 245.405 486.848C245.495 486.926 245.566 487.023 245.615 487.132C245.665 487.24 245.69 487.358 245.69 487.477C245.69 487.596 245.665 487.714 245.615 487.822C245.566 487.931 245.495 488.028 245.405 488.106C245.316 488.185 245.21 488.243 245.096 488.278C244.982 488.312 244.862 488.322 244.744 488.307Z" fill="#545454"/>
<path d="M517.216 390.327C517.106 390.329 516.996 390.309 516.894 390.268C516.791 390.226 516.698 390.165 516.62 390.087C516.542 390.008 516.48 389.915 516.439 389.813C516.398 389.711 516.377 389.601 516.379 389.49V379.914C516.364 379.796 516.374 379.676 516.408 379.562C516.443 379.448 516.501 379.343 516.58 379.253C516.658 379.163 516.755 379.092 516.864 379.043C516.972 378.993 517.09 378.968 517.209 378.968C517.328 378.968 517.446 378.993 517.554 379.043C517.663 379.092 517.76 379.163 517.838 379.253C517.917 379.343 517.975 379.448 518.01 379.562C518.045 379.676 518.055 379.796 518.039 379.914V389.49C518.041 389.6 518.021 389.708 517.981 389.81C517.94 389.911 517.88 390.004 517.803 390.081C517.727 390.159 517.635 390.221 517.534 390.264C517.434 390.306 517.325 390.328 517.216 390.327Z" fill="#545454"/>
<path d="M521.998 385.532H512.421C512.303 385.548 512.183 385.538 512.069 385.503C511.955 385.469 511.85 385.41 511.761 385.332C511.671 385.253 511.599 385.156 511.55 385.048C511.501 384.939 511.476 384.822 511.476 384.703C511.476 384.583 511.501 384.466 511.55 384.357C511.599 384.249 511.671 384.152 511.761 384.073C511.85 383.995 511.955 383.936 512.069 383.902C512.183 383.867 512.303 383.857 512.421 383.873H521.998C522.116 383.857 522.236 383.867 522.35 383.902C522.464 383.936 522.569 383.995 522.659 384.073C522.748 384.152 522.82 384.249 522.869 384.357C522.918 384.466 522.944 384.583 522.944 384.703C522.944 384.822 522.918 384.939 522.869 385.048C522.82 385.156 522.748 385.253 522.659 385.332C522.569 385.41 522.464 385.469 522.35 385.503C522.236 385.538 522.116 385.548 521.998 385.532Z" fill="#545454"/>
<path d="M551.848 109.485C551.739 109.487 551.63 109.467 551.529 109.426C551.427 109.386 551.335 109.326 551.257 109.249C551.179 109.172 551.117 109.081 551.075 108.98C551.032 108.88 551.011 108.771 551.011 108.662V99.0713C551.037 98.8699 551.136 98.6849 551.289 98.5509C551.441 98.4169 551.638 98.343 551.841 98.343C552.044 98.343 552.24 98.4169 552.393 98.5509C552.546 98.6849 552.644 98.8699 552.671 99.0713V108.662C552.671 108.88 552.584 109.09 552.43 109.244C552.275 109.398 552.066 109.485 551.848 109.485Z" fill="#545454"/>
<path d="M556.629 104.704H547.052C546.934 104.72 546.814 104.71 546.7 104.675C546.586 104.64 546.481 104.582 546.391 104.503C546.302 104.425 546.23 104.328 546.181 104.22C546.132 104.111 546.106 103.993 546.106 103.874C546.106 103.755 546.132 103.637 546.181 103.529C546.23 103.42 546.302 103.324 546.391 103.245C546.481 103.166 546.586 103.108 546.7 103.073C546.814 103.039 546.934 103.029 547.052 103.044H556.629C556.747 103.029 556.867 103.039 556.981 103.073C557.095 103.108 557.2 103.166 557.29 103.245C557.379 103.324 557.451 103.42 557.5 103.529C557.549 103.637 557.575 103.755 557.575 103.874C557.575 103.993 557.549 104.111 557.5 104.22C557.451 104.328 557.379 104.425 557.29 104.503C557.2 104.582 557.095 104.64 556.981 104.675C556.867 104.71 556.747 104.72 556.629 104.704Z" fill="#545454"/>
</svg>
