<svg width="90" height="90" viewBox="0 0 90 90" fill="none" xmlns="http://www.w3.org/2000/svg">
<rect width="90" height="90" rx="16" fill="#03989E"/>
<path d="M31.6666 35.6667L36.9999 30.3334L31.6666 25L26.3333 30.3334L31.6666 35.6667ZM23.6666 50.3334C22.1999 50.3334 20.9439 49.8107 19.8986 48.7654C18.8533 47.72 18.3315 46.4649 18.3333 45V21C18.3333 19.5334 18.8559 18.2774 19.9013 17.232C20.9466 16.1867 22.2017 15.6649 23.6666 15.6667H66.3333C67.7999 15.6667 69.0559 16.1894 70.1013 17.2347C71.1466 18.28 71.6684 19.5351 71.6666 21V45C71.6666 46.4667 71.1439 47.7227 70.0986 48.768C69.0533 49.8134 67.7981 50.3351 66.3333 50.3334H57.7333C57.9999 49.4445 58.1777 48.5556 58.2666 47.6667C58.3555 46.7778 58.3555 45.8889 58.2666 45H66.3333V21H23.6666V45H31.7333C31.6444 45.8889 31.6444 46.7778 31.7333 47.6667C31.8221 48.5556 31.9999 49.4445 32.2666 50.3334H23.6666ZM56.9999 31.6667C58.111 31.6667 59.0559 31.2774 59.8346 30.4987C60.6133 29.72 61.0017 28.776 60.9999 27.6667C60.9999 26.5556 60.6106 25.6107 59.8319 24.832C59.0533 24.0534 58.1093 23.6649 56.9999 23.6667C55.8888 23.6667 54.9439 24.056 54.1653 24.8347C53.3866 25.6134 52.9981 26.5574 52.9999 27.6667C52.9999 28.7778 53.3893 29.7227 54.1679 30.5014C54.9466 31.28 55.8906 31.6685 56.9999 31.6667ZM26.3333 74.3334V68.7334C26.3333 67.1778 26.767 65.7334 27.6346 64.4C28.5021 63.0667 29.6461 62.0667 31.0666 61.4C33.2444 60.3778 35.511 59.6107 37.8666 59.0987C40.2221 58.5867 42.5999 58.3316 44.9999 58.3334C47.3999 58.3334 49.7777 58.5894 52.1333 59.1014C54.4888 59.6134 56.7555 60.3796 58.9333 61.4C60.3555 62.0667 61.5004 63.0667 62.3679 64.4C63.2355 65.7334 63.6684 67.1778 63.6666 68.7334V74.3334H26.3333ZM31.6666 69H58.3333V68.7334C58.3333 68.2 58.1777 67.7111 57.8666 67.2667C57.5555 66.8223 57.1555 66.4889 56.6666 66.2667C54.7999 65.4223 52.8888 64.7778 50.9333 64.3334C48.9777 63.8889 46.9999 63.6667 44.9999 63.6667C42.9999 63.6667 41.0221 63.8889 39.0666 64.3334C37.111 64.7778 35.1999 65.4223 33.3333 66.2667C32.8444 66.4889 32.4444 66.8223 32.1333 67.2667C31.8221 67.7111 31.6666 68.2 31.6666 68.7334V69ZM44.9999 55.6667C42.4221 55.6667 40.2221 54.7556 38.3999 52.9334C36.5777 51.1111 35.6666 48.9111 35.6666 46.3334C35.6666 43.7556 36.5777 41.5556 38.3999 39.7334C40.2221 37.9111 42.4221 37 44.9999 37C47.5777 37 49.7777 37.9111 51.5999 39.7334C53.4221 41.5556 54.3333 43.7556 54.3333 46.3334C54.3333 48.9111 53.4221 51.1111 51.5999 52.9334C49.7777 54.7556 47.5777 55.6667 44.9999 55.6667ZM44.9999 50.3334C46.111 50.3334 47.0559 49.944 47.8346 49.1654C48.6133 48.3867 49.0017 47.4427 48.9999 46.3334C48.9999 45.2222 48.6106 44.2774 47.8319 43.4987C47.0533 42.72 46.1093 42.3316 44.9999 42.3334C43.8888 42.3334 42.9439 42.7227 42.1653 43.5014C41.3866 44.28 40.9981 45.224 40.9999 46.3334C40.9999 47.4445 41.3893 48.3894 42.1679 49.168C42.9466 49.9467 43.8906 50.3351 44.9999 50.3334Z" fill="white"/>
</svg>
