<svg width="90" height="90" viewBox="0 0 90 90" fill="none" xmlns="http://www.w3.org/2000/svg">
<rect width="90" height="90" rx="16" fill="#03989E"/>
<path d="M66.3334 42.3333C65.6813 37.6406 63.5043 33.2924 60.1378 29.9587C56.7713 26.6249 52.4021 24.4904 47.7032 23.8841C43.0043 23.2778 38.2364 24.2333 34.134 26.6033C30.0315 28.9734 26.8221 32.6265 25.0001 37M23.6667 26.3333V37H34.3334M23.6667 47.6667C24.4312 53.182 27.2976 58.1885 31.6667 61.64M42.3334 53H47.6667C48.374 53 49.0523 53.281 49.5524 53.781C50.0525 54.2811 50.3334 54.9594 50.3334 55.6667V58.3333C50.3334 59.0406 50.0525 59.7189 49.5524 60.219C49.0523 60.7191 48.374 61 47.6667 61H45.0001C44.2928 61 43.6146 61.281 43.1145 61.781C42.6144 62.2811 42.3334 62.9594 42.3334 63.6667V66.3333C42.3334 67.0406 42.6144 67.7189 43.1145 68.219C43.6146 68.7191 44.2928 69 45.0001 69H50.3334M58.3334 53V58.3333C58.3334 59.0406 58.6144 59.7189 59.1145 60.219C59.6146 60.7191 60.2928 61 61.0001 61H63.6667M66.3334 53V69" stroke="white" stroke-width="5.33333" stroke-linecap="round" stroke-linejoin="round"/>
</svg>
