<svg width="638" height="359" viewBox="0 0 638 359" fill="none" xmlns="http://www.w3.org/2000/svg">
<g filter="url(#filter0_d_156_9921)">
<g clip-path="url(#clip0_156_9921)">
<rect x="18" y="14" width="602" height="323" rx="32" fill="white"/>
<g clip-path="url(#clip1_156_9921)">
<g opacity="0.5">
<path d="M342.112 213.941C331.674 204.753 311.339 204.01 302.439 194.025C284.544 173.96 304.957 164.501 309.118 141.207C314.058 113.503 298.112 77.2757 263.37 68.6477C231.53 60.7722 210.915 78.9821 188.832 94.4355C185.414 96.7281 178.63 98.6707 173.751 92.9916C141.868 59.6346 85.5933 70.3803 73.9659 116.102C68.3271 138.232 76.8072 163.136 64.7077 184.373C59.2612 193.92 52.8793 197.875 45.3346 203.388C29.5983 214.65 10.8547 221.694 -1 234.593V288.618C7.891 296.494 20.8559 302.269 34.0132 309.2C45.2472 315.097 57.5739 324.513 57.5739 336.396C57.5739 336.589 57.5739 336.79 57.5739 336.982H293.059C293.059 335.827 293.137 334.681 293.233 333.526C295.332 308.622 318.98 301.718 337.409 284.523C359.186 264.336 366.967 235.809 342.112 213.941ZM293.391 177.32C293.391 176.375 293.522 175.57 293.767 175.57C293.703 176.165 293.577 176.752 293.391 177.32Z" fill="url(#paint0_linear_156_9921)"/>
<path d="M27.9198 337H328.798C329.112 336.177 329.409 335.346 329.672 334.515C338.239 307.467 326.026 287.385 305.674 268.527C298.934 262.279 290.593 258.473 287.376 250.029C284.885 243.474 286.24 239.309 286.86 236.106C290.357 217.993 310.946 207.23 311.907 186.605C312.921 164.886 297.989 143.885 276.378 133.997C239.66 117.283 223.05 147.586 191.892 145.119C174.993 143.78 172.79 134.618 163.418 122.367C130.783 80.0059 59.1213 83.1298 35.4645 133.848C17.7262 171.886 47.2405 205.751 46.2089 243.133C45.3346 274.381 10.2777 301.613 25.8129 333.167C26.4502 334.48 27.1534 335.759 27.9198 337Z" fill="url(#paint1_linear_156_9921)"/>
</g>
<g style="mix-blend-mode:multiply">
<path d="M278.249 291.716C278.249 288.216 276.737 285.389 274.752 284.961C274.682 283.928 274.603 282.904 274.516 281.915C274.657 281.82 274.792 281.715 274.918 281.6C275.591 280.979 275.416 273.235 274.752 264.056C275.024 263.856 275.253 263.603 275.425 263.313C275.598 263.023 275.711 262.701 275.757 262.367C276.142 255.62 282.087 203.467 255.405 201.988C253.438 196.265 255.038 186.43 256.953 177.793C260.064 174.874 262.537 171.342 264.217 167.418C265.896 163.495 266.744 159.266 266.709 154.998C266.709 138.477 254.347 125.089 239.101 125.089C225.113 125.089 213.529 136.394 211.737 151.034C211.918 150.948 212.114 150.897 212.314 150.885C212.122 151.76 211.947 152.635 211.798 153.51C210.251 154.823 209.324 159.854 209.674 165.761C210.023 171.668 211.518 176.577 213.171 177.653C213.463 178.519 213.807 179.367 214.202 180.191C213.828 180.191 213.463 180.072 213.162 179.849C215.846 196.659 220.899 200.308 220.899 200.308C225.622 200.47 230.351 200.271 235.044 199.713C235.472 202.317 235.691 204.95 235.7 207.589C225.952 213.609 223.871 223.051 223.723 234.715C216.842 241.637 200.048 269.822 199.935 275.545L198.108 274.39C195.668 263.391 189.951 246.598 186.235 240.744C186.002 240.624 185.759 240.521 185.51 240.438L184.557 238.285C186.524 236.404 184.268 224.766 184.242 223.742C184.242 223.068 184.242 222.753 183.866 222.596L183.7 221.493C184.195 220.896 184.445 220.133 184.4 219.358C184.4 218.037 183.84 216.969 183.149 216.969C182.938 216.983 182.74 217.073 182.59 217.223L182.371 216.689C182.402 216.635 182.423 216.576 182.432 216.514C182.494 215.823 179.749 210.791 178.219 209.514L177.441 207.667C177.452 207.131 177.366 206.598 177.187 206.092C177.126 205.908 177.056 205.716 176.986 205.523C177.046 205.067 177.046 204.606 176.986 204.15C176.68 201.918 175.342 198.899 174.223 199.066C173.708 199.144 173.349 199.941 173.104 200.921C173.043 199.416 172.676 198.996 171.531 198.934C169.878 198.838 168.777 206.442 168.777 206.442C167.028 209.732 162.657 216.812 162.299 217.573C161.94 218.334 161.853 222.499 161.687 229.902C161.687 230.13 161.687 230.34 161.687 230.559C160.813 241.532 160.166 242.652 156.564 250.011C154.131 255.355 152.273 260.943 151.021 266.681C148.267 260.188 141.894 251.954 138.415 247.718C139.577 246.388 140.294 245.382 140.294 244.944C140.294 244.944 131.779 229.194 121.839 219.655C120.866 216.507 119.537 213.481 117.879 210.634C116.795 206.188 114.95 196.852 116.261 189.195C118.316 190.175 120.519 191.155 122.573 191.934C123.36 192.24 124.138 192.511 124.838 192.721C125.67 193.053 126.58 193.141 127.46 192.975C129.497 192.1 133.047 179.526 133.134 177.119C133.134 177.119 136.946 177.504 137.654 176.445C138.362 175.387 134.909 168.185 136.5 159.732C137.156 156.275 137.741 152.731 138.03 149.678C142.337 149.855 146.607 148.822 150.357 146.694C164.345 139.028 149.753 128.685 141.859 136.762C141.859 136.762 137.103 115.244 117.582 117.108C98.0598 118.972 99.5373 130.881 99.5373 130.881C99.5373 130.881 89.4136 128.913 87.3941 142.721C85.3746 156.529 97.0107 174.17 94.9825 177.565C92.9542 180.961 94.7727 186.771 98.8204 185.126C99.1963 184.977 99.5897 184.811 100.009 184.627C99.1351 187.576 96.7222 195.268 94.8688 199.503C87.2979 202.592 79.6046 216.567 79.4298 229.806C76.9994 240.569 77.2879 251.359 78.1359 252.286C78.5553 252.595 79.0348 252.813 79.5434 252.925C79.4123 260.372 79.1763 269.008 78.8703 277.925C78.3183 283.879 78.0907 289.859 78.1884 295.838C77.4453 313.05 76.5273 329.002 75.6531 336.965H129.349C128.361 324.767 125.694 290.473 125.528 276.473C125.528 274.635 125.528 272.299 125.642 269.604C133.309 280.489 145.033 295.916 149.885 295.916C152.385 295.916 160.83 295.041 164.082 282.222C167.273 269.673 167.186 250.72 167.973 238.469C169.516 236.31 170.768 233.956 171.697 231.469C172.641 228.529 171.338 224.53 170.823 222.097C170.403 219.962 171.924 217.818 172.632 215.385C172.634 215.937 172.716 216.485 172.877 217.013C173.122 217.774 173.489 218.133 173.944 218.255L174.372 219.27V219.34C174.197 219.822 174.669 221.257 175.29 222.727C174.999 223.247 174.77 223.799 174.608 224.372C173.279 229.036 174.232 233.289 176.252 237.2C176.547 237.802 176.957 238.339 177.458 238.784L178.009 242.766C177.895 242.932 177.773 243.107 177.659 243.291C177.659 243.291 174.293 278.512 188.019 289.1C188.226 289.304 188.506 289.418 188.797 289.418C189.088 289.418 189.367 289.304 189.575 289.1C190.581 289.805 191.652 290.412 192.775 290.911C193.422 292.827 195.922 294.254 198.894 294.254C201.867 294.254 204.271 292.889 205.014 291.042C207.99 290.039 210.668 288.306 212.804 286.002C213.156 286.174 213.529 286.3 213.914 286.378C214.98 286.553 222.525 278.862 229.921 270.452C227.945 277.733 228.732 299.11 231.766 304.439C232.353 305.314 233.183 305.998 234.152 306.408L234.231 307.922C232.037 308.5 231.084 326.657 232.177 336.93H272.811C273.685 325.729 275.198 304.641 274.472 302.453C274.718 301.102 274.882 299.737 274.962 298.366C276.824 297.894 278.249 295.085 278.249 291.716ZM176.837 217.013C176.864 216.958 176.882 216.899 176.89 216.838C177.133 217.284 177.411 217.712 177.72 218.115L177.773 218.273C177.626 218.114 177.451 217.983 177.257 217.888L176.837 217.013ZM173.043 213.513C173.043 211.859 172.169 211.369 171.172 211.465C171.966 209.374 172.532 207.203 172.86 204.99C172.924 205.851 173.085 206.702 173.34 207.527C173.453 207.906 173.608 208.27 173.804 208.612L174.739 210.817C174.702 211.645 174.871 212.469 175.229 213.215C175.046 213.012 174.814 212.861 174.554 212.777C174.295 212.692 174.018 212.677 173.751 212.734C173.586 212.806 173.436 212.91 173.311 213.041C173.187 213.171 173.089 213.326 173.026 213.495L173.043 213.513ZM232.08 268.265L231.984 268.212L232.168 267.993V268.326L232.08 268.265Z" fill="#E6E6E6"/>
</g>
<path d="M171.968 181.739C172.204 177.364 172.16 176.367 170.071 176.253C167.981 176.139 166.574 185.003 166.574 185.003L171.968 181.739Z" fill="#E19E83"/>
<path d="M162.579 205.506C163.514 197.35 166.95 191.558 168.768 191.024C170.587 190.49 172.51 190.971 171.889 194.296C171.268 197.622 168.698 200.422 169.31 203.292C169.922 206.162 171.566 210.774 170.368 214.195C169.17 217.617 165.516 223.059 164.248 223.759C162.981 224.46 157.429 220.916 157.639 212.296C157.849 203.677 157.858 198.995 158.417 197.945C158.977 196.895 166.635 185.511 167.378 183.402C168.121 181.293 169.494 178.248 171.312 178.668C173.131 179.088 170.954 188.731 169.074 191.925C167.195 195.119 162.579 205.506 162.579 205.506Z" fill="#FF9580"/>
<path d="M162.552 205.506C162.998 201.306 164.598 192.914 168.759 190.997C167.69 191.785 166.843 192.837 166.303 194.051C164.406 197.6 163.132 201.447 162.535 205.427L162.552 205.506Z" fill="#DE886F"/>
<path d="M170.569 195.303H170.639C169.698 194.72 168.675 194.281 167.605 193.999C167.955 194.891 169.922 195.513 170.569 195.303Z" fill="#FCD3C2"/>
<path d="M171.583 193.089C171.588 193.028 171.588 192.966 171.583 192.905C171.579 192.888 171.579 192.87 171.583 192.853C171.579 192.812 171.579 192.771 171.583 192.73V192.66C171.588 192.634 171.588 192.607 171.583 192.581V192.476C171.583 192.476 171.583 192.415 171.583 192.406C170.725 191.906 169.801 191.529 168.838 191.286C168.838 191.286 167.352 192.765 167.492 193.798C167.501 193.861 167.519 193.923 167.544 193.981C168.614 194.264 169.637 194.703 170.578 195.285C171.085 195.04 171.435 193.868 171.583 193.089Z" fill="#FCC6B0"/>
<path d="M165.673 222.333C164.694 236.588 164.799 258.665 160.787 273.279C156.686 288.207 146.038 289.222 142.891 289.222C133.449 289.222 103.34 246.345 103.34 246.345C103.34 246.345 111.208 229.386 125.354 229.719C125.354 229.719 139.341 244.402 144.22 255.095C144.22 255.095 146.668 244.253 151.214 235.686C155.76 227.12 156.511 225.816 157.674 213.049C157.665 213.058 165.979 217.503 165.673 222.333Z" fill="#FF9580"/>
<path d="M130.713 229.806C130.713 232.431 106.426 252.785 103.34 252.794C100.254 252.802 63.4751 215.306 81.6155 196.152C99.7559 176.997 130.713 229.806 130.713 229.806Z" fill="#176937"/>
<path d="M49.3735 337H117.022C115.789 322.798 112.432 282.887 112.214 266.576C111.951 246.572 120.37 176.253 77.2442 176.253C66.1939 176.253 53.0016 196.825 54.2081 214.991C55.3009 231.512 52.1274 313.592 49.3735 337Z" fill="#588645"/>
<path d="M56.9794 337H77.3841C80.7849 309.698 80.0068 272.141 80.0068 272.141C84.0808 261.142 84.5791 240.858 84.5791 240.858C74.8138 230.602 57.2766 237.025 57.2766 237.025C57.2766 237.025 48.2895 293.282 54.9512 299.968C55.6505 306.338 55.7292 322.395 56.9794 337Z" fill="#FF9580"/>
<path d="M88.0937 241.506C86.214 243.387 54.689 240.569 52.5034 238.382C50.3178 236.194 51.0609 186.859 77.4192 186.15C103.777 185.441 88.0937 241.506 88.0937 241.506Z" fill="#176937"/>
<path d="M80.4615 158.236C80.4615 158.236 75.286 174.45 72.436 179.141C69.586 183.831 84.5005 179.141 102.239 192.039C102.316 192.098 102.411 192.131 102.508 192.134C102.606 192.136 102.701 192.108 102.782 192.052C102.862 191.997 102.923 191.918 102.956 191.826C102.989 191.734 102.992 191.634 102.964 191.54C101.784 187.427 98.5932 174.783 100.499 164.72C100.499 164.72 112.004 170.311 114.574 169.305C117.145 168.299 121.612 153.65 121.726 150.85C121.726 150.85 126.525 151.296 127.417 150.071C128.309 148.846 123.92 140.446 125.966 130.61C128.011 120.775 129.541 110.598 126.079 108.025C122.617 105.452 85.0775 98.627 78.0399 111.263C71.0023 123.899 72.5322 150.736 80.4615 158.236Z" fill="#FF9580"/>
<path d="M97.6404 139.037V123.47C97.6404 123.47 109.233 122.831 111.016 113.398C111.016 113.398 125.8 124.362 143.363 115.437C160.926 106.511 142.602 94.4355 132.662 103.869C132.662 103.869 126.665 78.8246 102.064 80.9947C77.463 83.1648 79.43 97.0694 79.43 97.0694C79.43 97.0694 66.6836 94.768 64.1396 110.843C61.5955 126.917 76.2478 147.455 73.695 151.41C71.1422 155.365 73.4327 162.121 78.5295 160.204C83.6263 158.288 92.8583 154.49 90.5328 143.841C90.5328 143.841 85.7595 147.096 84.9552 142.091C84.1509 137.086 79.3076 125.832 87.5779 124.844C92.6485 124.231 94.021 130.155 93.6101 134.539C93.5488 135.106 93.6073 135.679 93.7818 136.221C93.9563 136.764 94.243 137.263 94.6232 137.688C95.0033 138.112 95.4684 138.451 95.9883 138.684C96.5081 138.916 97.071 139.037 97.6404 139.037Z" fill="#111D45"/>
<path d="M90.0605 159.977C97.0545 163.031 104.127 166.417 111.243 169.007C103.769 167.152 96.731 163.757 90.0605 159.977Z" fill="#DE886F"/>
<path d="M85.4097 127.81C87.368 127.119 90.3054 126.559 91.6517 128.685C92.2899 130.216 91.949 131.923 91.8353 133.472C91.7206 134.715 91.5042 135.947 91.1884 137.156L91.0922 137.479L90.8125 137.576C88.8979 138.092 88.8105 140.201 90.0868 141.443L90.0344 141.557C89.5442 141.34 89.1273 140.986 88.834 140.538C88.5408 140.089 88.3838 139.564 88.3821 139.028C88.4069 138.439 88.6113 137.872 88.9676 137.403C89.3239 136.934 89.8151 136.585 90.3753 136.403L89.9994 136.823C90.489 134.513 91.2933 132.098 91.1971 129.735C91.2496 128.598 90.1655 127.862 89.029 127.661C87.8291 127.496 86.6078 127.585 85.4446 127.924V127.81H85.4097Z" fill="#DE886F"/>
<path d="M119.732 149.135C120.342 148.736 121.081 148.582 121.799 148.706C122.518 148.829 123.163 149.22 123.605 149.8C122.361 149.362 121.051 149.137 119.732 149.135Z" fill="#DE886F"/>
<path d="M109.154 155.462C110.343 155.112 112.196 155.707 112.249 157.133C111.375 156.153 110.299 156.022 109.154 155.462Z" fill="#DE886F"/>
<path d="M106.697 150.535C110.046 152.416 113.105 154.797 116.768 156.022C112.896 155.619 109.521 153.073 106.697 150.535Z" fill="#DE886F"/>
<g style="mix-blend-mode:overlay" opacity="0.3">
<path d="M79.6224 191.243C76.8286 191.854 74.1211 192.809 71.5619 194.087C69.0524 195.353 66.7925 197.064 64.8915 199.136C64.3905 199.635 63.9368 200.18 63.5364 200.763C63.0801 201.311 62.6707 201.897 62.3125 202.513L61.1934 204.351C60.8962 205.016 60.599 205.681 60.3192 206.337L59.8471 207.335L59.4974 208.385L58.7543 210.494C58.3172 211.929 58.0287 213.408 57.5479 214.869C57.4956 213.323 57.5307 211.774 57.6528 210.231L58.0462 207.913C58.1161 207.528 58.1861 207.142 58.2735 206.757L58.6407 205.629C59.5524 202.575 61.1492 199.771 63.3091 197.429C65.4124 195.142 68.0325 193.393 70.9499 192.328C73.713 191.279 76.6865 190.907 79.6224 191.243Z" fill="white"/>
</g>
<path d="M229.528 159.251C234.848 159.251 239.162 147.956 239.162 134.023C239.162 120.09 234.848 108.795 229.528 108.795C224.207 108.795 219.894 120.09 219.894 134.023C219.894 147.956 224.207 159.251 229.528 159.251Z" fill="#111D45"/>
<path d="M279.027 146.72C275.906 158.804 272.287 174.923 276.859 181.958C281.431 188.994 250.509 195.268 250.509 195.268C250.509 195.268 253.027 175.334 246.042 167.494C239.057 159.653 279.027 146.72 279.027 146.72Z" fill="#111D45"/>
<path d="M255.283 90.349C246.857 90.3529 238.719 93.4169 232.379 98.9722C226.04 104.528 221.929 112.197 220.812 120.556C221.103 120.374 221.432 120.264 221.773 120.232C224.877 120.04 227.893 127.539 228.461 136.981C229.029 146.422 227.019 154.237 223.915 154.438C223.432 154.454 222.956 154.312 222.56 154.035C225.943 173.601 232.299 177.845 232.299 177.845C232.299 177.845 258.176 178.852 261.84 172.823C265.503 166.794 256.166 163.95 268.195 157.501H268.239C275.734 154.485 281.948 148.953 285.813 141.853C289.678 134.753 290.954 126.528 289.422 118.589C287.889 110.65 283.644 103.493 277.415 98.3445C271.186 93.1964 263.361 90.3788 255.283 90.3752V90.349Z" fill="white"/>
<path d="M176.942 182.325C177.327 184.951 176.261 185.624 174.862 185.826C173.463 186.027 172.239 185.677 171.854 183.069C171.47 180.462 172.064 176.603 173.472 176.393C174.879 176.183 176.558 179.762 176.942 182.325Z" fill="#E6E6E6"/>
<path d="M176.269 196.23L172.773 197.835L174.378 201.335L177.874 199.729L176.269 196.23Z" fill="#111D45"/>
<path d="M177.079 185.418L172.867 187.352L174.472 190.851L178.683 188.917L177.079 185.418Z" fill="#111D45"/>
<path d="M184.959 199.503L185.851 204.99L179.478 202.776L177.572 197.762L183.35 196.003L184.959 199.503Z" fill="#111D45"/>
<path d="M185.536 219.988L188.631 226.437L178.63 229.43L177.476 221.747L183.254 219.988H185.536Z" fill="#111D45"/>
<path d="M177.231 184.583C178.105 187.077 177.179 187.952 175.832 188.416C174.486 188.88 173.209 188.757 172.335 186.263C171.461 183.77 171.347 179.876 172.694 179.412C174.04 178.948 176.374 182.098 177.231 184.583Z" fill="#F2F2F2"/>
<path d="M178.061 188.276C179.81 188.932 183.927 195.81 183.84 196.685C183.753 197.56 179.556 199.774 178.306 198.995C177.056 198.217 173.629 191.4 174.127 190.122C174.626 188.845 178.061 188.276 178.061 188.276Z" fill="#F2F2F2"/>
<path d="M186.314 199.993C186.314 201.533 185.615 202.776 184.741 202.776C183.866 202.776 183.167 201.533 183.167 199.993C183.167 198.453 183.875 197.21 184.741 197.21C185.606 197.21 186.314 198.462 186.314 199.993Z" fill="#F2F2F2"/>
<path d="M181.654 199.451C182.791 200.063 182.826 203.563 184.452 203.607C186.078 203.651 186.096 203.87 186.122 205.095C186.148 206.32 189.147 220.557 186.314 222.184C183.482 223.812 178.63 225.422 176.094 220.863C173.559 216.304 172.361 211.36 174.031 205.935C175.701 200.509 181.654 199.451 181.654 199.451Z" fill="white"/>
<path d="M179.775 209.925C181.653 209.925 183.176 208.401 183.176 206.521C183.176 204.641 181.653 203.117 179.775 203.117C177.897 203.117 176.374 204.641 176.374 206.521C176.374 208.401 177.897 209.925 179.775 209.925Z" fill="#111D45"/>
<path d="M176.75 195.688C177.344 197.438 176.383 198.138 175.001 198.602C173.62 199.065 172.449 199.092 171.854 197.368C171.26 195.644 171.505 192.818 172.842 192.354C174.18 191.89 176.155 193.964 176.75 195.688Z" fill="white"/>
<path d="M177.344 198.348C178.944 198.96 182.686 205.445 182.59 206.276C182.494 207.107 180.151 210.555 177.545 208.446C176.496 207.571 173.288 201.288 173.743 200.081C174.197 198.873 177.344 198.348 177.344 198.348Z" fill="white"/>
<path d="M242.187 213.11C242.187 213.11 233.016 221.677 232.317 225.903C231.617 230.13 252.835 246.808 259.095 239.624C265.354 232.44 266.517 228.765 266.517 228.765L242.187 213.11Z" fill="#111D45"/>
<path d="M200.564 262.306C200.564 262.306 195.747 267.162 195.494 269.253C195.24 271.345 183.534 272.019 183.534 272.019C183.534 272.019 192.075 285.608 205.207 284.864C218.338 284.121 223.767 275.79 223.767 275.79L200.564 262.306Z" fill="#111D45"/>
<path d="M271.806 229.045C266.176 235.17 251.655 232.93 246.645 231.539C246.059 231.378 245.519 231.08 245.071 230.669C244.622 230.258 244.278 229.747 244.066 229.176C242.265 224.293 238.821 210.004 244.425 203.87C251.366 196.3 262.373 196.633 269.926 203.581C277.48 210.529 278.756 221.476 271.806 229.045Z" fill="white"/>
<path d="M237.938 218.36C237.962 218.158 237.924 217.954 237.829 217.774C237.735 217.594 237.588 217.446 237.408 217.352C237.228 217.257 237.023 217.219 236.822 217.243C236.62 217.267 236.43 217.351 236.277 217.485C227.805 224.923 205.678 259.217 205.88 265.613C206.133 272.745 209.184 280.402 213.45 277.321C217.717 274.241 220.934 277.794 223.539 278.196C225.987 278.564 255.737 248.348 261.691 238.338C261.783 238.184 261.832 238.009 261.833 237.83C261.835 237.651 261.789 237.475 261.7 237.32C261.611 237.165 261.482 237.036 261.327 236.948C261.171 236.859 260.995 236.813 260.817 236.815C256.987 236.99 247.825 236.912 243.288 232.571C241.346 230.788 239.85 228.573 238.92 226.104C237.991 223.636 237.654 220.983 237.938 218.36Z" fill="white"/>
<path d="M204.647 287.323C209.031 287.323 212.585 285.078 212.585 282.309C212.585 279.54 209.031 277.295 204.647 277.295C200.263 277.295 196.709 279.54 196.709 282.309C196.709 285.078 200.263 287.323 204.647 287.323Z" fill="white"/>
<path d="M204.647 275.423C207.418 271.1 195.389 234.733 188.631 224.888C188.631 224.888 182.135 221.651 177.878 227.951C177.878 227.951 173.638 268.956 190.921 281.285C193.273 282.965 193.841 278.818 198.475 276.735C200.408 275.841 202.517 275.393 204.647 275.423Z" fill="white"/>
<path d="M296.687 321.197L249.416 308.115L246.024 248.523H296.687V321.197Z" fill="#111D45"/>
<path d="M246.409 256.959C240.928 253.765 241.234 291.357 246.06 299.171C250.885 306.986 293.417 304.938 298.243 300.615C303.069 296.293 299.51 259.409 296.975 258.919C294.44 258.429 262.399 266.322 246.409 256.959Z" fill="#F2F2F2"/>
<path d="M291.371 337C291.756 324.636 290.104 305.927 288.819 305.577C287.009 305.096 261.175 312.779 249.758 303.415C246.558 300.79 245.072 324.18 246.54 337H291.371Z" fill="#F2F2F2"/>
<path d="M266.674 180.698C232.299 188.11 235.376 209.347 236.408 236.605C237.44 263.863 300.944 258.63 301.469 250.125C301.993 241.619 310.736 171.195 266.674 180.698Z" fill="#F2F2F2"/>
<path d="M263.448 215.858C263.448 215.858 263.929 228.397 266.674 231.696C269.419 234.995 295.882 229.832 294.545 220.391C293.207 210.949 291.205 207.676 291.205 207.676L263.448 215.858Z" fill="#111D45"/>
<path d="M273.406 279.518C273.406 279.518 273.93 286.343 275.347 287.901C276.763 289.458 299.825 296.835 299.825 296.835L300.07 282.388L298.776 270.767L273.406 279.518Z" fill="#111D45"/>
<path d="M294.868 203.852C295.821 212.13 284.622 221.651 280.295 224.538C279.786 224.879 279.203 225.093 278.595 225.163C277.987 225.233 277.371 225.157 276.798 224.941C271.937 223.112 258.859 216.392 257.906 208.114C256.734 197.91 264.174 189.799 274.376 188.617C284.579 187.436 293.688 193.64 294.868 203.852Z" fill="white"/>
<path d="M264.646 222.508C264.509 222.358 264.33 222.252 264.132 222.206C263.934 222.16 263.727 222.174 263.538 222.248C263.348 222.322 263.186 222.452 263.071 222.62C262.957 222.788 262.897 222.987 262.897 223.19C262.976 234.47 267.715 275.904 272.663 279.894C278.214 284.365 292.7 284.829 293.164 279.588C293.627 274.346 298.409 274.232 300.411 272.517C302.413 270.802 298.916 228.616 295.244 217.555C295.188 217.382 295.085 217.227 294.947 217.107C294.809 216.988 294.642 216.908 294.462 216.876C294.282 216.845 294.097 216.863 293.927 216.929C293.757 216.994 293.608 217.105 293.496 217.249C291.127 220.268 285.068 227.146 278.826 227.749C276.218 228.043 273.577 227.722 271.115 226.812C268.653 225.902 266.437 224.428 264.646 222.508Z" fill="white"/>
<path d="M299.554 292.232C302.321 292.232 304.564 288.675 304.564 284.287C304.564 279.899 302.321 276.341 299.554 276.341C296.788 276.341 294.545 279.899 294.545 284.287C294.545 288.675 296.788 292.232 299.554 292.232Z" fill="white"/>
<path d="M297.71 337C298.811 323.962 300.726 299.416 299.808 296.861C298.558 293.361 292.91 293.624 291.677 288.067C290.445 282.51 275.347 286.369 275.347 286.369C271.526 289.493 270.398 319.744 272.435 337H297.71Z" fill="white"/>
<path d="M264.629 143.43C271.383 143.43 276.859 137.949 276.859 131.188C276.859 124.427 271.383 118.946 264.629 118.946C257.874 118.946 252.398 124.427 252.398 131.188C252.398 137.949 257.874 143.43 264.629 143.43Z" fill="#111D45"/>
<path d="M264.628 141.172C270.137 141.172 274.603 136.702 274.603 131.188C274.603 125.674 270.137 121.203 264.628 121.203C259.119 121.203 254.653 125.674 254.653 131.188C254.653 136.702 259.119 141.172 264.628 141.172Z" fill="white"/>
<path d="M227.176 137.068C227.674 145.014 226.057 151.585 223.566 151.743C221.074 151.9 218.635 145.617 218.137 137.637C217.638 129.656 219.256 123.12 221.756 122.962C224.256 122.805 226.652 129.114 227.176 137.068Z" fill="#588645"/>
<path d="M271.352 241.392C272.068 244.419 272.645 247.464 273.17 250.51C273.695 253.555 274.149 256.635 274.586 259.68C275.023 262.725 275.373 265.806 275.679 268.886C275.985 271.966 276.247 275.011 276.37 278.153C275.653 275.134 275.076 272.088 274.551 269.043C274.027 265.998 273.572 262.918 273.144 259.873C272.715 256.828 272.348 253.747 272.051 250.658C271.754 247.569 271.474 244.516 271.352 241.392Z" fill="#F2F2F2"/>
<path d="M276.369 258.035C276.979 259.857 277.495 261.709 277.917 263.583C278.371 265.438 278.73 267.32 279.08 269.201C279.429 271.082 279.692 272.964 279.91 274.871C280.153 276.776 280.299 278.692 280.347 280.612C279.735 278.79 279.216 276.938 278.791 275.064C278.345 273.209 277.987 271.327 277.637 269.446C277.287 267.565 277.025 265.683 276.763 263.776C276.535 261.87 276.404 259.954 276.369 258.035Z" fill="#F2F2F2"/>
<path d="M276.483 290.893C276.649 292.819 276.675 294.735 276.658 296.651C276.64 298.568 276.535 300.475 276.422 302.374C276.308 304.273 276.116 306.189 275.862 308.079C275.641 309.988 275.32 311.884 274.901 313.759C274.735 311.833 274.708 309.917 274.726 308.001C274.743 306.084 274.848 304.185 274.962 302.278C275.076 300.37 275.277 298.471 275.521 296.573C275.747 294.665 276.068 292.769 276.483 290.893Z" fill="#F2F2F2"/>
<path d="M229.572 232.449C228.112 235.188 226.529 237.848 224.903 240.482C223.277 243.116 221.607 245.732 219.902 248.287C218.198 250.842 216.406 253.415 214.657 255.926C212.909 258.438 211.011 260.923 209.044 263.329C210.504 260.582 212.087 257.922 213.704 255.288C215.321 252.654 217.009 250.037 218.714 247.482C220.418 244.927 222.167 242.363 223.959 239.852C225.751 237.34 227.605 234.89 229.572 232.449Z" fill="#F2F2F2"/>
<path d="M187.529 232.589C188.823 235.406 189.977 238.285 191.087 241.173C192.198 244.061 193.238 246.966 194.252 249.924C195.266 252.881 196.228 255.786 197.12 258.744C198.011 261.702 198.868 264.677 199.603 267.696C198.309 264.878 197.155 261.999 196.044 259.112C194.934 256.224 193.894 253.319 192.88 250.361C191.866 247.403 190.913 244.498 190.012 241.541C189.112 238.583 188.255 235.608 187.529 232.589Z" fill="#F2F2F2"/>
<path d="M222.324 248.244C221.582 250.013 220.748 251.743 219.824 253.424C218.949 255.122 217.961 256.767 216.982 258.403C216.003 260.039 214.954 261.641 213.861 263.207C212.768 264.773 211.641 266.331 210.364 267.801C211.107 266.029 211.942 264.297 212.865 262.612C213.739 260.923 214.727 259.278 215.706 257.642C216.685 256.005 217.734 254.404 218.836 252.838C219.919 251.248 221.083 249.714 222.324 248.244Z" fill="#F2F2F2"/>
<path d="M245.701 264.414C246.042 266.302 246.284 268.207 246.427 270.12C246.602 272.027 246.689 273.935 246.75 275.843C246.811 277.75 246.82 279.667 246.75 281.583C246.68 283.499 246.584 285.407 246.339 287.323C245.981 285.424 245.771 283.517 245.605 281.609C245.439 279.702 245.351 277.794 245.29 275.886C245.229 273.979 245.229 272.071 245.29 270.155C245.331 268.236 245.469 266.32 245.701 264.414Z" fill="white"/>
<path d="M273.406 193.264C271.728 193.871 270.129 194.676 268.641 195.662C267.207 196.617 265.957 197.823 264.952 199.223C264.688 199.558 264.454 199.915 264.253 200.291C264.024 200.65 263.825 201.027 263.658 201.419L263.134 202.601C263.011 203.012 262.889 203.476 262.749 203.843L262.557 204.473L262.434 205.121L262.172 206.425C262.041 207.3 261.997 208.175 261.84 209.12C261.663 208.217 261.534 207.306 261.455 206.39V204.99C261.455 204.753 261.455 204.526 261.455 204.29L261.577 203.598C261.86 201.702 262.595 199.901 263.719 198.348C264.838 196.8 266.306 195.538 268.003 194.664C269.675 193.794 271.522 193.315 273.406 193.264Z" fill="#F2F2F2"/>
<path d="M265.415 122.665C264.184 123.107 263.01 123.695 261.918 124.415C260.851 125.115 259.921 126.005 259.173 127.04C258.806 127.556 258.484 128.104 258.211 128.676L257.818 129.551C257.731 129.858 257.643 130.164 257.538 130.479L257.39 130.943L257.302 131.424L257.11 132.395C257.005 133.043 256.979 133.708 256.856 134.39C256.723 133.72 256.629 133.042 256.577 132.36V131.328C256.577 131.153 256.577 130.978 256.577 130.803L256.673 130.286C256.898 128.899 257.448 127.584 258.277 126.449C259.107 125.315 260.193 124.393 261.446 123.758C262.669 123.096 264.026 122.722 265.415 122.665Z" fill="#F2F2F2"/>
<path d="M262.146 187.016C259.356 187.627 256.654 188.585 254.103 189.869C251.591 191.132 249.331 192.843 247.432 194.918C246.925 195.409 246.465 195.949 246.06 196.528C245.604 197.076 245.195 197.662 244.836 198.278L243.717 200.116C243.42 200.772 243.131 201.437 242.843 202.093L242.379 203.091L242.029 204.141L241.286 206.25C240.849 207.685 240.552 209.172 240.08 210.625C240.029 209.075 240.061 207.524 240.176 205.978L240.578 203.668C240.639 203.274 240.718 202.889 240.806 202.504L241.173 201.384C242.077 198.328 243.675 195.522 245.841 193.185C247.945 190.897 250.565 189.144 253.482 188.075C256.244 187.036 259.215 186.673 262.146 187.016Z" fill="white"/>
<path d="M249.417 97.5769C246.624 98.1835 243.919 99.1389 241.365 100.421C238.855 101.687 236.596 103.398 234.694 105.47C234.191 105.966 233.732 106.504 233.322 107.08C232.868 107.628 232.462 108.214 232.107 108.83L230.979 110.668C230.69 111.333 230.393 111.998 230.105 112.654L229.641 113.652L229.292 114.702L228.549 116.811C228.111 118.246 227.814 119.725 227.342 121.186C227.291 119.639 227.324 118.091 227.438 116.548L227.84 114.229C227.902 113.844 227.98 113.459 228.068 113.074L228.435 111.945C229.341 108.89 230.939 106.084 233.103 103.746C235.205 101.457 237.826 99.7077 240.744 98.6445C243.509 97.6019 246.482 97.2359 249.417 97.5769Z" fill="#F2F2F2"/>
<path d="M222.639 123.995C221.845 125.177 221.226 126.468 220.803 127.827C220.285 129.532 219.991 131.297 219.929 133.078C219.887 133.581 219.872 134.087 219.885 134.592C219.885 135.117 219.885 135.624 219.929 136.184L220.016 137.829C220.086 138.398 220.156 138.976 220.208 139.579L220.305 140.454L220.453 141.33L220.733 143.08C220.934 144.278 221.205 145.477 221.415 146.729C221.039 145.556 220.654 144.348 220.322 143.123L219.894 141.251C219.815 140.936 219.745 140.629 219.684 140.314L219.526 139.369C219.08 136.973 218.904 134.534 219.002 132.098C219.045 130.21 219.439 128.346 220.165 126.602C220.372 126.019 220.7 125.486 221.126 125.036C221.552 124.587 222.067 124.232 222.639 123.995Z" fill="white"/>
</g>
<g filter="url(#filter1_d_156_9921)">
<rect x="335" y="14" width="292" height="324" fill="#545454"/>
</g>
<path d="M379.641 194V164.222H385.437V178.376L397.953 164.18H404.337L392.913 177.41L405.051 194H398.499L389.217 181.148L385.437 185.096V194H379.641ZM415.878 194.42C414.086 194.42 412.476 194.126 411.048 193.538C409.62 192.922 408.402 192.082 407.394 191.018C406.414 189.954 405.658 188.736 405.126 187.364C404.594 185.992 404.328 184.55 404.328 183.038C404.328 181.498 404.594 180.042 405.126 178.67C405.658 177.298 406.414 176.08 407.394 175.016C408.402 173.952 409.62 173.126 411.048 172.538C412.476 171.922 414.086 171.614 415.878 171.614C417.67 171.614 419.266 171.922 420.666 172.538C422.094 173.126 423.312 173.952 424.32 175.016C425.328 176.08 426.084 177.298 426.588 178.67C427.12 180.042 427.386 181.498 427.386 183.038C427.386 184.55 427.12 185.992 426.588 187.364C426.084 188.736 425.328 189.954 424.32 191.018C423.34 192.082 422.136 192.922 420.708 193.538C419.28 194.126 417.67 194.42 415.878 194.42ZM410.124 183.038C410.124 184.326 410.376 185.474 410.88 186.482C411.384 187.462 412.07 188.232 412.938 188.792C413.806 189.352 414.786 189.632 415.878 189.632C416.942 189.632 417.908 189.352 418.776 188.792C419.644 188.204 420.33 187.42 420.834 186.44C421.366 185.432 421.632 184.284 421.632 182.996C421.632 181.736 421.366 180.602 420.834 179.594C420.33 178.586 419.644 177.802 418.776 177.242C417.908 176.682 416.942 176.402 415.878 176.402C414.786 176.402 413.806 176.696 412.938 177.284C412.07 177.844 411.384 178.628 410.88 179.636C410.376 180.616 410.124 181.75 410.124 183.038ZM451.639 194H446.011V181.652C446.011 179.888 445.703 178.6 445.087 177.788C444.471 176.976 443.617 176.57 442.525 176.57C441.769 176.57 440.999 176.766 440.215 177.158C439.459 177.55 438.773 178.096 438.157 178.796C437.541 179.468 437.093 180.252 436.813 181.148V194H431.185V171.992H436.267V176.066C436.827 175.114 437.541 174.316 438.409 173.672C439.277 173 440.271 172.496 441.391 172.16C442.539 171.796 443.743 171.614 445.003 171.614C446.375 171.614 447.495 171.866 448.363 172.37C449.259 172.846 449.931 173.504 450.379 174.344C450.855 175.156 451.177 176.08 451.345 177.116C451.541 178.152 451.639 179.202 451.639 180.266V194ZM464.639 194.42C462.763 194.42 460.971 194.112 459.263 193.496C457.555 192.88 456.085 191.97 454.853 190.766L456.869 187.112C458.185 188.176 459.473 188.96 460.733 189.464C462.021 189.968 463.253 190.22 464.429 190.22C465.521 190.22 466.389 190.024 467.033 189.632C467.705 189.24 468.041 188.652 468.041 187.868C468.041 187.336 467.859 186.93 467.495 186.65C467.131 186.342 466.599 186.076 465.899 185.852C465.227 185.628 464.401 185.376 463.421 185.096C461.797 184.564 460.439 184.046 459.347 183.542C458.255 183.038 457.429 182.408 456.869 181.652C456.337 180.868 456.071 179.874 456.071 178.67C456.071 177.214 456.435 175.968 457.163 174.932C457.919 173.868 458.955 173.042 460.271 172.454C461.615 171.866 463.183 171.572 464.975 171.572C466.543 171.572 468.027 171.824 469.427 172.328C470.827 172.804 472.101 173.588 473.249 174.68L470.981 178.25C469.861 177.382 468.797 176.752 467.789 176.36C466.781 175.94 465.759 175.73 464.723 175.73C464.135 175.73 463.575 175.8 463.043 175.94C462.539 176.08 462.119 176.318 461.783 176.654C461.475 176.962 461.321 177.41 461.321 177.998C461.321 178.53 461.461 178.95 461.741 179.258C462.049 179.538 462.497 179.79 463.085 180.014C463.701 180.238 464.443 180.49 465.311 180.77C467.075 181.274 468.559 181.792 469.763 182.324C470.995 182.856 471.919 183.514 472.535 184.298C473.151 185.054 473.459 186.104 473.459 187.448C473.459 189.632 472.661 191.34 471.065 192.572C469.469 193.804 467.327 194.42 464.639 194.42ZM477.077 185.768V171.992H482.705V184.55C482.705 186.23 483.013 187.504 483.629 188.372C484.245 189.212 485.155 189.632 486.359 189.632C487.087 189.632 487.801 189.492 488.501 189.212C489.229 188.904 489.887 188.456 490.475 187.868C491.091 187.28 491.609 186.538 492.029 185.642V171.992H497.657V187.7C497.657 188.288 497.755 188.708 497.951 188.96C498.175 189.212 498.525 189.366 499.001 189.422V194C498.441 194.084 497.965 194.14 497.573 194.168C497.209 194.224 496.873 194.252 496.565 194.252C495.557 194.252 494.731 194.028 494.087 193.58C493.471 193.104 493.107 192.46 492.995 191.648L492.869 189.884C491.889 191.368 490.629 192.502 489.089 193.286C487.549 194.042 485.855 194.42 484.007 194.42C481.739 194.42 480.017 193.692 478.841 192.236C477.665 190.752 477.077 188.596 477.077 185.768ZM503.208 163.34H508.836V186.944C508.836 187.952 509.004 188.638 509.34 189.002C509.676 189.338 510.138 189.506 510.726 189.506C511.174 189.506 511.636 189.45 512.112 189.338C512.588 189.226 513.008 189.086 513.372 188.918L514.128 193.202C513.372 193.566 512.49 193.846 511.481 194.042C510.474 194.238 509.564 194.336 508.752 194.336C506.988 194.336 505.616 193.874 504.636 192.95C503.684 191.998 503.208 190.654 503.208 188.918V163.34ZM529.521 192.866C529.045 193.062 528.471 193.286 527.799 193.538C527.127 193.79 526.399 193.986 525.615 194.126C524.859 194.294 524.089 194.378 523.305 194.378C522.269 194.378 521.317 194.196 520.449 193.832C519.581 193.468 518.881 192.894 518.349 192.11C517.845 191.298 517.593 190.248 517.593 188.96V176.318H514.695V171.992H517.593V164.852H523.221V171.992H527.841V176.318H523.221V187.07C523.249 187.826 523.459 188.372 523.851 188.708C524.243 189.044 524.733 189.212 525.321 189.212C525.909 189.212 526.483 189.114 527.043 188.918C527.603 188.722 528.051 188.554 528.387 188.414L529.521 192.866ZM530.941 187.49C530.941 186.062 531.333 184.816 532.117 183.752C532.929 182.66 534.049 181.82 535.477 181.232C536.905 180.644 538.543 180.35 540.391 180.35C541.315 180.35 542.253 180.42 543.205 180.56C544.157 180.7 544.983 180.924 545.683 181.232V180.056C545.683 178.656 545.263 177.578 544.423 176.822C543.611 176.066 542.393 175.688 540.769 175.688C539.565 175.688 538.417 175.898 537.325 176.318C536.233 176.738 535.085 177.354 533.881 178.166L532.075 174.47C533.531 173.518 535.015 172.804 536.527 172.328C538.067 171.852 539.677 171.614 541.357 171.614C544.493 171.614 546.929 172.398 548.665 173.966C550.429 175.534 551.311 177.774 551.311 180.686V187.7C551.311 188.288 551.409 188.708 551.605 188.96C551.829 189.212 552.179 189.366 552.655 189.422V194C552.151 194.084 551.689 194.154 551.269 194.21C550.877 194.266 550.541 194.294 550.261 194.294C549.141 194.294 548.287 194.042 547.699 193.538C547.139 193.034 546.789 192.418 546.649 191.69L546.523 190.556C545.571 191.788 544.381 192.74 542.953 193.412C541.525 194.084 540.069 194.42 538.585 194.42C537.129 194.42 535.813 194.126 534.637 193.538C533.489 192.922 532.579 192.096 531.907 191.06C531.263 189.996 530.941 188.806 530.941 187.49ZM544.633 188.624C544.941 188.288 545.193 187.952 545.389 187.616C545.585 187.28 545.683 186.972 545.683 186.692V184.466C545.011 184.186 544.283 183.976 543.499 183.836C542.715 183.668 541.973 183.584 541.273 183.584C539.817 183.584 538.613 183.906 537.661 184.55C536.737 185.166 536.275 185.992 536.275 187.028C536.275 187.588 536.429 188.12 536.737 188.624C537.045 189.128 537.493 189.534 538.081 189.842C538.669 190.15 539.369 190.304 540.181 190.304C541.021 190.304 541.847 190.15 542.659 189.842C543.471 189.506 544.129 189.1 544.633 188.624ZM564.676 194.42C562.8 194.42 561.008 194.112 559.3 193.496C557.592 192.88 556.122 191.97 554.89 190.766L556.906 187.112C558.222 188.176 559.51 188.96 560.77 189.464C562.058 189.968 563.29 190.22 564.466 190.22C565.558 190.22 566.426 190.024 567.07 189.632C567.742 189.24 568.078 188.652 568.078 187.868C568.078 187.336 567.896 186.93 567.532 186.65C567.168 186.342 566.636 186.076 565.936 185.852C565.264 185.628 564.438 185.376 563.458 185.096C561.834 184.564 560.476 184.046 559.384 183.542C558.292 183.038 557.466 182.408 556.906 181.652C556.374 180.868 556.108 179.874 556.108 178.67C556.108 177.214 556.472 175.968 557.2 174.932C557.956 173.868 558.992 173.042 560.308 172.454C561.652 171.866 563.22 171.572 565.012 171.572C566.58 171.572 568.064 171.824 569.464 172.328C570.864 172.804 572.138 173.588 573.286 174.68L571.018 178.25C569.898 177.382 568.834 176.752 567.826 176.36C566.818 175.94 565.796 175.73 564.76 175.73C564.172 175.73 563.612 175.8 563.08 175.94C562.576 176.08 562.156 176.318 561.82 176.654C561.512 176.962 561.358 177.41 561.358 177.998C561.358 178.53 561.498 178.95 561.778 179.258C562.086 179.538 562.534 179.79 563.122 180.014C563.738 180.238 564.48 180.49 565.348 180.77C567.112 181.274 568.596 181.792 569.8 182.324C571.032 182.856 571.956 183.514 572.572 184.298C573.188 185.054 573.496 186.104 573.496 187.448C573.496 189.632 572.698 191.34 571.102 192.572C569.506 193.804 567.364 194.42 564.676 194.42ZM577.324 194V171.992H582.952V194H577.324ZM577.324 168.926V163.34H582.952V168.926H577.324ZM472.096 213.18H477.976L488.938 243H482.974L480.202 235.566H469.786L467.056 243H461.092L472.096 213.18ZM479.152 231.492L475.036 219.186L470.752 231.492H479.152ZM492.209 243V213.18H498.005V243H492.209Z" fill="white"/>
<path d="M504.999 120.333V115H499.666V109.667C499.661 108.254 499.098 106.899 498.099 105.9C497.1 104.901 495.746 104.338 494.332 104.333H488.999V99.0001H483.666V104.333H478.332V99.0001H472.999V104.333H467.666C466.252 104.338 464.898 104.901 463.899 105.9C462.9 106.899 462.337 108.254 462.332 109.667V115H456.999V120.333H462.332V125.667H456.999V131H462.332V136.333C462.337 137.747 462.9 139.101 463.899 140.1C464.898 141.099 466.252 141.663 467.666 141.667H472.999V147H478.332V141.667H483.666V147H488.999V141.667H494.332C495.746 141.663 497.1 141.099 498.099 140.1C499.098 139.101 499.661 137.747 499.666 136.333V131H504.999V125.667H499.666V120.333H504.999ZM494.332 136.333H467.666V109.667H494.332V136.333Z" fill="white"/>
<path d="M479.295 112.332H475.708L470.348 133.665H473.087L474.324 128.665H480.5L481.706 133.665H484.538L479.295 112.332ZM474.684 126.529L477.399 114.865H477.522L480.143 126.529H474.684ZM486.983 112.332H489.65V133.665H486.983V112.332Z" fill="white"/>
</g>
</g>
<defs>
<filter id="filter0_d_156_9921" x="0" y="0" width="638" height="359" filterUnits="userSpaceOnUse" color-interpolation-filters="sRGB">
<feFlood flood-opacity="0" result="BackgroundImageFix"/>
<feColorMatrix in="SourceAlpha" type="matrix" values="0 0 0 0 0 0 0 0 0 0 0 0 0 0 0 0 0 0 127 0" result="hardAlpha"/>
<feOffset dy="4"/>
<feGaussianBlur stdDeviation="9"/>
<feComposite in2="hardAlpha" operator="out"/>
<feColorMatrix type="matrix" values="0 0 0 0 0 0 0 0 0 0 0 0 0 0 0 0 0 0 0.15 0"/>
<feBlend mode="normal" in2="BackgroundImageFix" result="effect1_dropShadow_156_9921"/>
<feBlend mode="normal" in="SourceGraphic" in2="effect1_dropShadow_156_9921" result="shape"/>
</filter>
<filter id="filter1_d_156_9921" x="314" y="1" width="318" height="350" filterUnits="userSpaceOnUse" color-interpolation-filters="sRGB">
<feFlood flood-opacity="0" result="BackgroundImageFix"/>
<feColorMatrix in="SourceAlpha" type="matrix" values="0 0 0 0 0 0 0 0 0 0 0 0 0 0 0 0 0 0 127 0" result="hardAlpha"/>
<feOffset dx="-8"/>
<feGaussianBlur stdDeviation="6.5"/>
<feComposite in2="hardAlpha" operator="out"/>
<feColorMatrix type="matrix" values="0 0 0 0 0 0 0 0 0 0 0 0 0 0 0 0 0 0 0.1 0"/>
<feBlend mode="normal" in2="BackgroundImageFix" result="effect1_dropShadow_156_9921"/>
<feBlend mode="normal" in="SourceGraphic" in2="effect1_dropShadow_156_9921" result="shape"/>
</filter>
<linearGradient id="paint0_linear_156_9921" x1="292.499" y1="84.8537" x2="69.7812" y2="372.58" gradientUnits="userSpaceOnUse">
<stop stop-color="#FFD683"/>
<stop offset="1" stop-color="#ED9E00"/>
</linearGradient>
<linearGradient id="paint1_linear_156_9921" x1="41.4967" y1="121.798" x2="292.882" y2="372.949" gradientUnits="userSpaceOnUse">
<stop stop-color="#176937"/>
<stop offset="1" stop-color="#7FB74A"/>
</linearGradient>
<clipPath id="clip0_156_9921">
<rect x="18" y="14" width="602" height="323" rx="32" fill="white"/>
</clipPath>
<clipPath id="clip1_156_9921">
<rect width="532" height="355" fill="white" transform="translate(-1 -18)"/>
</clipPath>
</defs>
</svg>
