<svg width="90" height="90" viewBox="0 0 90 90" fill="none" xmlns="http://www.w3.org/2000/svg">
<rect width="90" height="90" rx="16" fill="#03989E"/>
<path d="M69 42.3333V37H63.6667V31.6667C63.6624 30.2535 63.0992 28.8994 62.0999 27.9001C61.1006 26.9008 59.7465 26.3376 58.3333 26.3333H53V21H47.6667V26.3333H42.3333V21H37V26.3333H31.6667C30.2535 26.3376 28.8994 26.9008 27.9001 27.9001C26.9008 28.8994 26.3376 30.2535 26.3333 31.6667V37H21V42.3333H26.3333V47.6667H21V53H26.3333V58.3333C26.3376 59.7465 26.9008 61.1006 27.9001 62.0999C28.8994 63.0992 30.2535 63.6624 31.6667 63.6667H37V69H42.3333V63.6667H47.6667V69H53V63.6667H58.3333C59.7465 63.6624 61.1006 63.0992 62.0999 62.0999C63.0992 61.1006 63.6624 59.7465 63.6667 58.3333V53H69V47.6667H63.6667V42.3333H69ZM58.3333 58.3333H31.6667V31.6667H58.3333V58.3333Z" fill="white"/>
<path d="M43.296 34.3333H39.7094L34.3494 55.6667H37.088L38.3254 50.6667H44.5014L45.7067 55.6667H48.5387L43.296 34.3333ZM38.6854 48.5307L41.4 36.8667H41.5227L44.144 48.5307H38.6854ZM50.984 34.3333H53.6507V55.6667H50.984V34.3333Z" fill="white"/>
</svg>
