<svg width="638" height="359" viewBox="0 0 638 359" fill="none" xmlns="http://www.w3.org/2000/svg">
<g filter="url(#filter0_d_156_9770)">
<g clip-path="url(#clip0_156_9770)">
<rect x="18" y="14" width="602" height="323" rx="32" fill="white"/>
<path d="M342.413 250.92C342.413 250.92 312.464 244.869 283.555 247.798C254.646 250.726 297.156 288.505 297.156 288.505H303.122C303.122 288.505 280.602 264.545 281.849 258.592C283.095 252.638 339.848 260.443 339.848 260.443L342.413 250.92Z" fill="#263238"/>
<path opacity="0.2" d="M342.413 250.92C342.413 250.92 312.464 244.869 283.555 247.798C254.646 250.726 297.156 288.505 297.156 288.505H303.122C303.122 288.505 280.602 264.545 281.849 258.592C283.095 252.638 339.848 260.443 339.848 260.443L342.413 250.92Z" fill="white"/>
<path d="M331.607 287.198C341.059 250.188 346.535 212.276 347.944 174.104C348.084 170.473 349.627 167.038 352.246 164.52C354.866 162.002 358.359 160.596 361.993 160.599H387.199C390.915 160.599 394.481 162.071 397.116 164.692C399.751 167.313 401.241 170.871 401.26 174.588C401.357 197.579 399.747 249.056 386.799 287.198H331.607Z" fill="#263238"/>
<path opacity="0.4" d="M331.607 287.198C341.059 250.188 346.535 212.276 347.944 174.104C348.084 170.473 349.627 167.038 352.246 164.52C354.866 162.002 358.359 160.596 361.993 160.599H387.199C390.915 160.599 394.481 162.071 397.116 164.692C399.751 167.313 401.241 170.871 401.26 174.588C401.357 197.579 399.747 249.056 386.799 287.198H331.607Z" fill="white"/>
<path d="M324.25 280.797C328.34 265.308 337.561 225.254 339.509 172.325C339.659 168.389 341.329 164.664 344.168 161.934C347.007 159.204 350.793 157.68 354.732 157.683H382.056C386.087 157.683 389.954 159.279 392.811 162.123C395.669 164.966 397.283 168.826 397.303 172.857C397.399 197.737 395.669 248.621 381.572 289.969L329.538 288.057C328.679 288.01 327.842 287.772 327.087 287.362C326.331 286.951 325.677 286.377 325.171 285.682C324.664 284.987 324.319 284.188 324.16 283.343C324.001 282.498 324.031 281.628 324.25 280.797Z" fill="#03989E"/>
<path opacity="0.2" d="M324.25 280.797C328.34 265.308 337.561 225.254 339.509 172.325C339.659 168.389 341.329 164.664 344.168 161.934C347.007 159.204 350.793 157.68 354.732 157.683H382.056C386.087 157.683 389.954 159.279 392.811 162.123C395.669 164.966 397.283 168.826 397.303 172.857C397.399 197.737 395.669 248.621 381.572 289.969L329.538 288.057C328.679 288.01 327.842 287.772 327.087 287.362C326.331 286.951 325.677 286.377 325.171 285.682C324.664 284.987 324.319 284.188 324.16 283.343C324.001 282.498 324.031 281.628 324.25 280.797Z" fill="#545454"/>
<path d="M378.341 288.408H285.927V273.972C285.927 272.367 286.564 270.828 287.699 269.693C288.834 268.559 290.373 267.921 291.977 267.921H372.291C373.895 267.921 375.434 268.559 376.569 269.693C377.704 270.828 378.341 272.367 378.341 273.972V288.408Z" fill="#03989E"/>
<path d="M375.328 360.432L345.717 357.516V315.901H333.979V357.504L304.235 360.432C302.81 360.571 301.488 361.235 300.526 362.295C299.564 363.356 299.031 364.736 299.032 366.168V370.561H380.471V366.12C380.461 364.706 379.932 363.345 378.983 362.296C378.035 361.247 376.734 360.584 375.328 360.432Z" fill="#263238"/>
<path opacity="0.4" d="M375.328 360.432L345.717 357.516V315.901H333.979V357.504L304.235 360.432C302.81 360.571 301.488 361.235 300.526 362.295C299.564 363.356 299.031 364.736 299.032 366.168V370.561H380.471V366.12C380.461 364.706 379.932 363.345 378.983 362.296C378.035 361.247 376.734 360.584 375.328 360.432Z" fill="white"/>
<path d="M331.958 287.779H347.689V319.846C347.689 321.171 347.163 322.443 346.226 323.38C345.288 324.317 344.017 324.844 342.692 324.844H336.908C335.582 324.844 334.311 324.317 333.374 323.38C332.436 322.443 331.91 321.171 331.91 319.846V287.779H331.958Z" fill="#263238"/>
<path opacity="0.2" d="M331.958 287.779H347.689V319.846C347.689 321.171 347.163 322.443 346.226 323.38C345.288 324.317 344.017 324.844 342.692 324.844H336.908C335.582 324.844 334.311 324.317 333.374 323.38C332.436 322.443 331.91 321.171 331.91 319.846V287.779H331.958Z" fill="white"/>
<path d="M285.056 292.038H385.36C386.703 292.038 387.792 290.949 387.792 289.606V288.468C387.792 287.125 386.703 286.036 385.36 286.036H285.056C283.712 286.036 282.623 287.125 282.623 288.468V289.606C282.623 290.949 283.712 292.038 285.056 292.038Z" fill="#263238"/>
<g opacity="0.4">
<path d="M285.056 292.038H385.36C386.703 292.038 387.792 290.949 387.792 289.606V288.468C387.792 287.125 386.703 286.036 385.36 286.036H285.056C283.712 286.036 282.623 287.125 282.623 288.468V289.606C282.623 290.949 283.712 292.038 285.056 292.038Z" fill="white"/>
</g>
<path d="M395.657 250.92C395.657 250.92 365.708 244.869 336.799 247.798C307.89 250.726 350.4 288.505 350.4 288.505H356.366C356.366 288.505 333.846 264.545 335.093 258.592C336.339 252.638 393.092 260.443 393.092 260.443L395.657 250.92Z" fill="#263238"/>
<path opacity="0.4" d="M395.657 250.92C395.657 250.92 365.708 244.869 336.799 247.798C307.89 250.726 350.4 288.505 350.4 288.505H356.366C356.366 288.505 333.846 264.545 335.093 258.592C336.339 252.638 393.092 260.443 393.092 260.443L395.657 250.92Z" fill="white"/>
<path d="M26.1341 257.406V258.616H7.69238V257.685C7.69238 255.446 10.0157 253.607 12.9926 253.486H13.9727L20.2168 253.232C23.4961 253.074 26.1341 254.986 26.1341 257.406Z" fill="#263238"/>
<path d="M176.511 383.739H178.387C178.497 383.739 178.603 383.696 178.682 383.619C178.761 383.543 178.807 383.438 178.81 383.328L181.751 269.713H173.171L176.112 383.328C176.115 383.434 176.157 383.535 176.231 383.611C176.305 383.687 176.405 383.733 176.511 383.739Z" fill="#263238"/>
<path d="M242.679 383.739H246.963L234.862 269.713H226.282L242.679 383.739Z" fill="#263238"/>
<path d="M29.28 383.739H34.205H34.2171L36.0322 269.713H27.4648L29.28 383.739Z" fill="#263238"/>
<g opacity="0.4">
<path d="M242.679 383.739H246.963L234.862 269.713H226.282L242.679 383.739Z" fill="white"/>
</g>
<path opacity="0.4" d="M29.28 383.739H34.205H34.2171L36.0322 269.713H27.4648L29.28 383.739Z" fill="white"/>
<g opacity="0.2">
<path d="M176.511 383.739H178.387C178.497 383.739 178.603 383.696 178.682 383.619C178.761 383.543 178.807 383.438 178.81 383.328L181.751 269.713H173.171L176.112 383.328C176.115 383.434 176.157 383.535 176.231 383.611C176.305 383.687 176.405 383.733 176.511 383.739Z" fill="white"/>
</g>
<path d="M44.2124 259.234H68.6198L72.5042 225.158C72.4671 224.541 72.1959 223.963 71.746 223.54C71.2961 223.117 70.7015 222.882 70.084 222.883H53.7479C53.1304 222.882 52.5358 223.117 52.0859 223.54C51.636 223.963 51.3647 224.541 51.3277 225.158L44.2124 259.234Z" fill="#263238"/>
<path d="M6.96643 172.797H13.0169L19.8659 237.149H13.8155C13.3139 237.139 12.8328 236.949 12.4597 236.613C12.0865 236.278 11.8463 235.82 11.7826 235.322L5.34492 174.624C5.31348 174.394 5.33213 174.16 5.39958 173.938C5.46704 173.716 5.5817 173.511 5.73572 173.338C5.88974 173.164 6.07947 173.026 6.29189 172.933C6.50432 172.839 6.73442 172.793 6.96643 172.797Z" fill="#263238"/>
<path d="M16.3926 237.15H107.706C107.938 237.153 108.168 237.107 108.38 237.014C108.593 236.92 108.782 236.782 108.936 236.609C109.09 236.435 109.205 236.23 109.272 236.008C109.34 235.786 109.359 235.552 109.327 235.322L102.877 174.624C102.816 174.128 102.579 173.67 102.207 173.334C101.836 172.999 101.357 172.808 100.857 172.797H9.54351C9.31049 172.792 9.07903 172.837 8.86512 172.929C8.65122 173.022 8.45997 173.16 8.30462 173.333C8.14926 173.507 8.03351 173.713 7.96535 173.936C7.8972 174.158 7.87828 174.393 7.90989 174.624L14.3596 235.322C14.4233 235.82 14.6636 236.278 15.0367 236.613C15.4099 236.949 15.891 237.139 16.3926 237.15Z" fill="#263238"/>
<path d="M43.1355 259.258H73.4723C74.1139 259.258 74.634 258.737 74.634 258.096V257.769C74.634 257.128 74.1139 256.607 73.4723 256.607H43.1355C42.4939 256.607 41.9738 257.128 41.9738 257.769V258.096C41.9738 258.737 42.4939 259.258 43.1355 259.258Z" fill="#263238"/>
<path opacity="0.2" d="M16.3926 237.15H107.706C107.938 237.153 108.168 237.107 108.38 237.014C108.593 236.92 108.782 236.782 108.936 236.609C109.09 236.435 109.205 236.23 109.272 236.008C109.34 235.786 109.359 235.552 109.327 235.322L102.877 174.624C102.816 174.128 102.579 173.67 102.207 173.334C101.836 172.999 101.357 172.808 100.857 172.797H9.54351C9.31049 172.792 9.07903 172.837 8.86512 172.929C8.65122 173.022 8.45997 173.16 8.30462 173.333C8.14926 173.507 8.03351 173.713 7.96535 173.936C7.8972 174.158 7.87828 174.393 7.90989 174.624L14.3596 235.322C14.4233 235.82 14.6636 236.278 15.0367 236.613C15.4099 236.949 15.891 237.139 16.3926 237.15Z" fill="white"/>
<path d="M18.0869 231.208H104.197C104.4 231.214 104.603 231.175 104.79 231.094C104.977 231.013 105.145 230.892 105.281 230.74C105.417 230.588 105.518 230.409 105.577 230.214C105.636 230.018 105.653 229.813 105.624 229.611L99.9854 176.645C99.933 176.214 99.7266 175.816 99.4043 175.525C99.0819 175.234 98.6652 175.069 98.2308 175.06H12.1211C11.9185 175.055 11.7171 175.094 11.5308 175.174C11.3445 175.254 11.1778 175.373 11.0421 175.524C10.9064 175.675 10.805 175.853 10.7448 176.046C10.6845 176.24 10.667 176.444 10.6932 176.645L16.3322 229.611C16.3819 230.044 16.5871 230.445 16.9098 230.739C17.2324 231.032 17.6506 231.199 18.0869 231.208Z" fill="#03989E"/>
<path opacity="0.2" d="M43.1355 259.258H73.4723C74.1139 259.258 74.634 258.737 74.634 258.096V257.769C74.634 257.128 74.1139 256.607 73.4723 256.607H43.1355C42.4939 256.607 41.9738 257.128 41.9738 257.769V258.096C41.9738 258.737 42.4939 259.258 43.1355 259.258Z" fill="white"/>
<path opacity="0.2" d="M18.0869 231.208H104.197C104.4 231.214 104.603 231.175 104.79 231.094C104.977 231.013 105.145 230.892 105.281 230.74C105.417 230.588 105.518 230.409 105.577 230.214C105.636 230.018 105.653 229.813 105.624 229.611L99.9854 176.645C99.933 176.214 99.7266 175.816 99.4043 175.525C99.0819 175.234 98.6652 175.069 98.2308 175.06H12.1211C11.9185 175.055 11.7171 175.094 11.5308 175.174C11.3445 175.254 11.1778 175.373 11.0421 175.524C10.9064 175.675 10.805 175.853 10.7448 176.046C10.6845 176.24 10.667 176.444 10.6932 176.645L16.3322 229.611C16.3819 230.044 16.5871 230.445 16.9098 230.739C17.2324 231.032 17.6506 231.199 18.0869 231.208Z" fill="#545454"/>
<path d="M43.7047 258.495H22.504H-30.6309V269.713H22.504H43.7047H239.823V258.495H43.7047Z" fill="#03989E"/>
<path d="M98.7031 256.474H100.942C101.057 256.474 101.168 256.428 101.25 256.347C101.332 256.265 101.377 256.154 101.377 256.039V253.618C101.377 253.503 101.332 253.392 101.25 253.31C101.168 253.229 101.057 253.183 100.942 253.183H99.3081C99.2128 253.183 99.1203 253.215 99.0457 253.275C98.971 253.334 98.9185 253.417 98.8967 253.51L98.2433 255.93C98.2255 255.997 98.2243 256.068 98.2397 256.136C98.2551 256.205 98.2867 256.268 98.3318 256.321C98.3769 256.375 98.4342 256.417 98.4988 256.443C98.5634 256.47 98.6335 256.48 98.7031 256.474Z" fill="#03989E"/>
<path d="M95.5565 256.474H97.8315C97.947 256.474 98.0578 256.428 98.1395 256.347C98.2212 256.265 98.2671 256.154 98.2671 256.039V253.618C98.2671 253.503 98.2212 253.392 98.1395 253.31C98.0578 253.229 97.947 253.183 97.8315 253.183H96.1979C96.1015 253.184 96.0082 253.217 95.9319 253.276C95.8556 253.335 95.8003 253.417 95.7743 253.51L95.133 255.93C95.1163 255.994 95.1147 256.062 95.1282 256.127C95.1417 256.192 95.17 256.254 95.2109 256.306C95.2518 256.359 95.3043 256.401 95.3642 256.43C95.4241 256.46 95.4899 256.475 95.5565 256.474Z" fill="#03989E"/>
<path d="M92.4711 256.474H94.746C94.8616 256.474 94.9724 256.428 95.054 256.347C95.1357 256.265 95.1817 256.154 95.1817 256.039V253.618C95.1817 253.503 95.1357 253.392 95.054 253.31C94.9724 253.229 94.8616 253.183 94.746 253.183H93.1124C93.016 253.184 92.9228 253.217 92.8465 253.276C92.7702 253.335 92.7149 253.417 92.6889 253.51L92.0475 255.93C92.0309 255.994 92.0292 256.062 92.0427 256.127C92.0562 256.192 92.0846 256.254 92.1255 256.306C92.1664 256.359 92.2188 256.401 92.2787 256.43C92.3386 256.46 92.4044 256.475 92.4711 256.474Z" fill="#03989E"/>
<path d="M89.264 256.474H91.539C91.6545 256.474 91.7653 256.428 91.847 256.347C91.9287 256.265 91.9746 256.154 91.9746 256.039V253.618C91.9746 253.503 91.9287 253.392 91.847 253.31C91.7653 253.229 91.6545 253.183 91.539 253.183H89.9054C89.809 253.184 89.7158 253.217 89.6394 253.276C89.5631 253.335 89.5079 253.417 89.4818 253.51L88.8405 255.93C88.8238 255.994 88.8222 256.062 88.8357 256.127C88.8492 256.192 88.8775 256.254 88.9184 256.306C88.9593 256.359 89.0118 256.401 89.0717 256.43C89.1316 256.46 89.1974 256.475 89.264 256.474Z" fill="#03989E"/>
<path d="M86.1183 256.474H88.3932C88.5088 256.474 88.6196 256.428 88.7013 256.347C88.783 256.265 88.8289 256.154 88.8289 256.039V253.618C88.8289 253.503 88.783 253.392 88.7013 253.31C88.6196 253.229 88.5088 253.183 88.3932 253.183H86.7596C86.6627 253.182 86.5685 253.214 86.4918 253.274C86.4151 253.333 86.3603 253.416 86.3361 253.51L85.6947 255.93C85.6781 255.994 85.6764 256.062 85.69 256.127C85.7035 256.192 85.7318 256.254 85.7727 256.306C85.8136 256.359 85.866 256.401 85.9259 256.43C85.9858 256.46 86.0516 256.475 86.1183 256.474Z" fill="#03989E"/>
<path d="M82.9719 256.474H85.2106C85.3261 256.474 85.4369 256.428 85.5186 256.347C85.6003 256.265 85.6462 256.154 85.6462 256.039V253.618C85.6462 253.503 85.6003 253.392 85.5186 253.31C85.4369 253.229 85.3261 253.183 85.2106 253.183H83.577C83.4801 253.182 83.3858 253.214 83.3091 253.274C83.2324 253.333 83.1776 253.416 83.1534 253.51L82.5121 255.93C82.4943 255.997 82.4931 256.068 82.5085 256.136C82.5239 256.205 82.5555 256.268 82.6006 256.321C82.6457 256.375 82.703 256.417 82.7676 256.443C82.8322 256.47 82.9023 256.48 82.9719 256.474Z" fill="#03989E"/>
<path d="M79.8256 256.474H82.1005C82.216 256.474 82.3268 256.428 82.4085 256.347C82.4902 256.265 82.5361 256.154 82.5361 256.039V253.618C82.5361 253.503 82.4902 253.392 82.4085 253.31C82.3268 253.229 82.216 253.183 82.1005 253.183H80.4669C80.37 253.182 80.2758 253.214 80.1991 253.274C80.1224 253.333 80.0676 253.416 80.0434 253.51L79.402 255.93C79.3854 255.994 79.3837 256.062 79.3972 256.127C79.4107 256.192 79.439 256.254 79.48 256.306C79.5209 256.359 79.5733 256.401 79.6332 256.43C79.6931 256.46 79.7589 256.475 79.8256 256.474Z" fill="#03989E"/>
<path d="M76.7401 256.474H79.0151C79.1306 256.474 79.2414 256.428 79.3231 256.347C79.4048 256.265 79.4507 256.154 79.4507 256.039V253.618C79.4507 253.503 79.4048 253.392 79.3231 253.31C79.2414 253.229 79.1306 253.183 79.0151 253.183H77.3814C77.2846 253.182 77.1903 253.214 77.1136 253.274C77.0369 253.333 76.9821 253.416 76.9579 253.51L76.3166 255.93C76.2999 255.994 76.2983 256.062 76.3118 256.127C76.3253 256.192 76.3536 256.254 76.3945 256.306C76.4354 256.359 76.4878 256.401 76.5477 256.43C76.6077 256.46 76.6735 256.475 76.7401 256.474Z" fill="#03989E"/>
<path d="M73.5328 256.474H75.8078C75.9233 256.474 76.0341 256.429 76.1158 256.347C76.1975 256.265 76.2434 256.154 76.2434 256.039V253.619C76.2434 253.503 76.1975 253.392 76.1158 253.311C76.0341 253.229 75.9233 253.183 75.8078 253.183H74.1742C74.0768 253.18 73.9814 253.212 73.9043 253.271C73.8271 253.331 73.7729 253.415 73.7506 253.51L73.1093 255.93C73.0926 255.994 73.091 256.062 73.1045 256.127C73.118 256.192 73.1463 256.254 73.1872 256.306C73.2281 256.359 73.2806 256.401 73.3405 256.431C73.4004 256.46 73.4662 256.475 73.5328 256.474Z" fill="#03989E"/>
<path d="M70.3871 256.474H72.662C72.7776 256.474 72.8884 256.429 72.9701 256.347C73.0518 256.265 73.0977 256.154 73.0977 256.039V253.619C73.0977 253.503 73.0518 253.392 72.9701 253.311C72.8884 253.229 72.7776 253.183 72.662 253.183H71.0284C70.931 253.18 70.8357 253.212 70.7585 253.271C70.6814 253.331 70.6271 253.415 70.6049 253.51L69.9635 255.93C69.9469 255.994 69.9452 256.062 69.9588 256.127C69.9723 256.192 70.0006 256.254 70.0415 256.306C70.0824 256.359 70.1348 256.401 70.1947 256.431C70.2546 256.46 70.3204 256.475 70.3871 256.474Z" fill="#03989E"/>
<path d="M67.2407 256.474H69.4794C69.5949 256.474 69.7057 256.429 69.7874 256.347C69.8691 256.265 69.915 256.154 69.915 256.039V253.619C69.915 253.503 69.8691 253.392 69.7874 253.311C69.7057 253.229 69.5949 253.183 69.4794 253.183H67.8458C67.7483 253.18 67.653 253.212 67.5759 253.271C67.4987 253.331 67.4445 253.415 67.4222 253.51L66.7809 255.93C66.7631 255.998 66.7619 256.068 66.7773 256.137C66.7927 256.205 66.8243 256.268 66.8694 256.322C66.9145 256.375 66.9718 256.417 67.0364 256.443C67.101 256.47 67.1711 256.481 67.2407 256.474Z" fill="#03989E"/>
<path d="M64.0823 256.474H66.3693C66.4849 256.474 66.5957 256.429 66.6774 256.347C66.7591 256.265 66.805 256.154 66.805 256.039V253.619C66.805 253.503 66.7591 253.392 66.6774 253.311C66.5957 253.229 66.4849 253.183 66.3693 253.183H64.7357C64.6383 253.18 64.543 253.212 64.4658 253.271C64.3887 253.331 64.3344 253.415 64.3122 253.51L63.6708 255.93C63.6544 255.993 63.6526 256.06 63.6654 256.124C63.6783 256.189 63.7055 256.249 63.745 256.302C63.7846 256.354 63.8355 256.397 63.8939 256.427C63.9523 256.457 64.0167 256.473 64.0823 256.474Z" fill="#03989E"/>
<path d="M60.936 256.474H63.2231C63.3386 256.474 63.4494 256.429 63.5311 256.347C63.6128 256.265 63.6587 256.154 63.6587 256.039V253.619C63.6587 253.503 63.6128 253.392 63.5311 253.311C63.4494 253.229 63.3386 253.183 63.2231 253.183H61.5895C61.4921 253.18 61.3968 253.212 61.3196 253.271C61.2425 253.331 61.1882 253.415 61.166 253.51L60.5246 255.93C60.5082 255.993 60.5063 256.06 60.5192 256.124C60.532 256.189 60.5592 256.249 60.5988 256.302C60.6384 256.354 60.6892 256.397 60.7476 256.427C60.806 256.457 60.8704 256.473 60.936 256.474Z" fill="#03989E"/>
<path d="M57.7895 256.474H60.0766C60.19 256.471 60.2978 256.424 60.3769 256.342C60.456 256.261 60.5002 256.152 60.5001 256.039V253.618C60.5002 253.505 60.456 253.396 60.3769 253.315C60.2978 253.233 60.19 253.186 60.0766 253.183H58.4309C58.3356 253.183 58.2431 253.215 58.1684 253.275C58.0937 253.334 58.0413 253.417 58.0195 253.51L57.3781 255.93C57.3617 255.993 57.3598 256.06 57.3727 256.124C57.3855 256.188 57.4128 256.249 57.4523 256.301C57.4919 256.354 57.5428 256.396 57.6011 256.426C57.6595 256.456 57.7239 256.473 57.7895 256.474Z" fill="#03989E"/>
<path d="M54.6433 256.474H56.9183C57.0338 256.474 57.1446 256.428 57.2263 256.347C57.308 256.265 57.3539 256.154 57.3539 256.039V253.618C57.3539 253.503 57.308 253.392 57.2263 253.31C57.1446 253.229 57.0338 253.183 56.9183 253.183H55.2847C55.1893 253.183 55.0968 253.215 55.0222 253.275C54.9475 253.334 54.895 253.417 54.8732 253.51L54.2319 255.93C54.2155 255.993 54.2136 256.06 54.2264 256.124C54.2393 256.188 54.2665 256.249 54.3061 256.301C54.3456 256.354 54.3965 256.396 54.4549 256.426C54.5133 256.456 54.5777 256.473 54.6433 256.474Z" fill="#03989E"/>
<path d="M52.3562 258.628H103.277V254.841H52.3562V258.628Z" fill="#263238"/>
<path opacity="0.2" d="M52.3562 258.628H103.277V254.841H52.3562V258.628Z" fill="white"/>
<path opacity="0.2" d="M52.3566 258.628H68.8501V254.841H52.3566V258.628Z" fill="white"/>
<path opacity="0.2" d="M22.4914 269.701H239.811V258.483H22.4914V269.701Z" fill="white"/>
<path d="M209.159 89.8216C203.883 89.6158 183.335 123.087 183.335 123.087L169.359 120.449L166.37 127.588C166.37 127.588 178.967 133.736 184.025 134.28C189.083 134.825 208.457 107.803 208.457 107.803L209.159 89.8216Z" fill="#03989E"/>
<path opacity="0.2" d="M209.159 89.8219L208.457 107.816C208.457 107.816 207.985 108.469 207.174 109.558C205.698 111.579 203.048 115.125 200.035 118.912C194.142 126.294 186.845 134.643 184.025 134.28C178.955 133.736 166.37 127.613 166.37 127.613L169.359 120.473L183.323 123.111C183.323 123.111 203.883 89.6525 209.159 89.8219Z" fill="white"/>
<path opacity="0.2" d="M207.174 109.582C205.698 111.603 203.048 115.149 200.034 118.936C200.143 111.797 206.387 102.915 206.387 102.915C206.387 102.915 206.823 105.819 207.174 109.582Z" fill="#545454"/>
<path d="M255.493 163.951H203.92C199.007 190.731 183.663 299.481 194.674 383.909H212.136C212.136 383.909 210.514 255.64 225.931 214.23C227.71 236.411 245.728 383.872 245.728 383.872H263.504C263.504 383.872 260.854 328.426 258.192 276.042C256.522 243.006 255.566 170.716 255.493 163.951Z" fill="#263238"/>
<path opacity="0.2" d="M225.931 214.231C223.394 221.496 221.468 228.959 220.171 236.545C218.731 216.808 224.491 195.886 224.491 195.886L225.931 214.231Z" fill="#545454"/>
<path d="M203.484 164.569H255.396V170.752L202.818 170.111L203.484 164.569Z" fill="#545454"/>
<path d="M238.709 161.785H236.858V172.761H238.709V161.785Z" fill="#263238"/>
<path d="M212.438 161.785H210.587V172.761H212.438V161.785Z" fill="#263238"/>
<path d="M227.153 163.479H217.545V170.401H227.153V163.479Z" fill="white"/>
<path d="M255.553 165.561C256.933 136.023 265.621 94.1661 265.621 94.1661C241.517 88.3456 209.159 89.8098 209.159 89.8098C202.842 112.366 202.963 148.765 203.508 165.513L255.553 165.561Z" fill="#03989E"/>
<path opacity="0.2" d="M265.621 94.2019C265.621 94.2019 264.653 98.8849 263.31 106.206C262.669 109.703 261.931 113.805 261.192 118.307C260.757 120.933 260.309 123.68 259.886 126.511C259.462 129.343 259.026 132.114 258.675 134.982C257.248 145.243 256.05 156.049 255.602 165.573H203.568C203.024 148.825 202.915 112.426 209.219 89.8577C209.159 89.8214 241.516 88.3935 265.621 94.2019Z" fill="white"/>
<path opacity="0.2" d="M263.31 106.206C262.669 109.703 261.931 113.805 261.193 118.307C260.757 120.933 260.309 123.68 259.886 126.511C256.062 116.479 262.572 102.927 262.572 102.927L263.31 106.206Z" fill="#545454"/>
<path d="M226.294 93.7788L227.588 100.168C227.588 100.168 220.146 131.231 218.537 147.361L221.26 150.072L225.58 147.349C225.58 147.349 225.955 114.532 229.718 100.749L236.47 95.2309L231.11 93.4521L226.294 93.7788Z" fill="#263238"/>
<path d="M246.502 90.9471C242.037 95.0009 231.109 93.452 231.109 93.452C231.109 93.452 224.297 91.5885 225.725 89.4587C229.742 88.7932 231.69 86.9175 232.489 84.5216C232.928 83.0351 233.068 81.4762 232.9 79.9353C232.84 79.0762 232.707 78.217 232.562 77.37L246.066 67.3625C244.299 74.018 242.133 86.1915 246.502 90.9471Z" fill="#FF9580"/>
<path opacity="0.2" d="M242.957 73.7758C242.412 81.8712 235.696 84.1099 232.49 84.5697C232.929 83.0833 233.069 81.5244 232.901 79.9835L242.957 73.7758Z" fill="#545454"/>
<path d="M244.505 85.804L231.63 91.6245L230.88 86.9656L226.088 88.6114C225.26 88.8992 224.555 89.4592 224.087 90.1999C223.618 90.9406 223.415 91.8183 223.51 92.6893L224.043 97.8201L230.589 94.1898L233.857 98.8124L249.37 91.3461L244.505 85.804Z" fill="#03989E"/>
<path opacity="0.3" d="M244.505 85.804L231.63 91.6245L230.88 86.9656L226.088 88.6114C225.26 88.8992 224.555 89.4592 224.087 90.1999C223.618 90.9406 223.415 91.8183 223.51 92.6893L224.043 97.8201L230.589 94.1898L233.857 98.8124L249.37 91.3461L244.505 85.804Z" fill="white"/>
<path d="M218.319 48.6789C218.319 48.6789 216.311 61.6873 223.16 66.7213C230.009 71.7552 230.214 47.4688 230.214 47.4688L218.319 48.6789Z" fill="#263238"/>
<path d="M243.271 77.0792C241.82 79.2209 239.704 80.8255 237.251 81.6456C234.797 82.4656 232.142 82.4556 229.694 81.6171C226.506 80.602 223.827 78.4073 222.204 75.4819C221.975 75.0906 221.769 74.6866 221.587 74.2718C218.211 66.2732 217.17 52.3088 225.58 47.1659C227.433 46.0084 229.552 45.3444 231.734 45.2372C233.917 45.13 236.09 45.5832 238.048 46.5536C240.006 47.524 241.683 48.9793 242.919 50.781C244.155 52.5827 244.91 54.6708 245.111 56.8466C246.151 66.1764 247.156 71.5976 243.271 77.0792Z" fill="#FF9580"/>
<path d="M236.471 46.5004V50.651C237.196 50.8982 237.803 51.4076 238.173 52.0792C238.542 52.7508 238.647 53.5362 238.467 54.2813C237.548 57.9115 240.137 62.9939 243.041 64.809C243.041 64.809 242.945 63.3085 244.252 63.5142C245.558 63.7199 246.127 71.525 244.118 75.5304C244.118 75.5304 247.434 71.7307 248.559 63.3327C249.6 55.5519 249.092 49.2352 247.192 46.5004H236.471Z" fill="#263238"/>
<path d="M250.423 63.7562C249.751 66.0131 248.216 67.9136 246.151 69.0443C243.392 70.5085 241.311 68.2093 241.541 65.2567C241.734 62.6308 243.38 58.6254 246.381 58.4076C249.382 58.1898 251.209 60.973 250.423 63.7562Z" fill="#FF9580"/>
<path d="M246.502 48.4609C246.502 48.4609 250.991 43.0155 240.258 39.6757C229.524 36.3358 213.878 46.2585 217.109 50.2155C220.34 54.1725 231.267 52.5026 231.267 52.5026C229.716 52.3265 228.248 51.7139 227.032 50.7358C227.032 50.7358 242.908 51.7886 246.502 48.4609Z" fill="#263238"/>
<path d="M265.621 94.2143C272.41 96.5013 277.057 138.721 276.972 142.388C276.887 146.054 266.493 147.627 265.621 139.968C264.75 132.308 261.18 115.984 261.18 115.984C261.18 115.984 260.237 108.602 261.18 104.125C262.124 99.6475 265.621 94.2143 265.621 94.2143Z" fill="#03989E"/>
<path opacity="0.2" d="M265.621 94.2143C272.41 96.5013 277.057 138.721 276.972 142.388C276.887 146.054 266.493 147.627 265.621 139.968C264.75 132.308 261.18 115.984 261.18 115.984C261.18 115.984 260.237 108.602 261.18 104.125C262.124 99.6475 265.621 94.2143 265.621 94.2143Z" fill="white"/>
<path d="M319.002 141.31L82.1206 115.66L64.2777 280.442L301.159 306.092L319.002 141.31Z" fill="#03989E"/>
<path opacity="0.6" d="M319.002 141.31L82.1206 115.66L64.2777 280.442L301.159 306.092L319.002 141.31Z" fill="white"/>
<path d="M295.73 299.821L312.363 146.215L87.5486 121.872L70.9159 275.477L295.73 299.821Z" stroke="#03989E" stroke-miterlimit="10"/>
<path d="M314.194 155.796L315.489 143.828L303.509 142.533L303.013 147.192L96.488 124.842L96.9962 120.183L85.0164 118.888L83.7216 130.868L88.5135 131.376L73.9078 266.422L69.1158 265.913L67.821 277.881L79.7888 279.176L80.297 274.517L286.822 296.867L286.314 301.526L298.282 302.821L299.589 290.841L294.797 290.321L309.402 155.275L314.194 155.796Z" stroke="#03989E" stroke-miterlimit="10"/>
<path d="M90.2802 125.459L93.0392 125.761L92.7367 128.544L90.0503 128.206L90.3407 125.459M89.2759 124.128L89.1428 125.338L88.8402 128.085L88.7192 129.295L89.9293 129.428L92.6762 129.718L93.8863 129.851L94.0194 128.641L94.3098 125.882L94.4429 124.672L93.2329 124.539L90.4739 124.249L89.2638 124.115L89.2759 124.128Z" fill="#03989E"/>
<path d="M74.6703 269.834L77.4172 270.136L77.1147 272.883L74.3194 272.544L74.6219 269.785M73.5449 268.454L73.4118 269.664L73.1214 272.411L72.9883 273.621L74.1984 273.754L76.9574 274.057L78.1674 274.19L78.3006 272.98L78.591 270.233L78.7241 269.023L77.514 268.902L74.755 268.599L73.5449 268.466V268.454Z" fill="#03989E"/>
<path d="M306.196 148.825L308.943 149.116L308.641 151.862L305.894 151.536L306.196 148.789M305.119 147.446L304.986 148.656L304.696 151.403L304.562 152.613L305.773 152.734L308.532 153.036L309.742 153.169L309.875 151.959L310.165 149.212L310.298 148.002L309.088 147.881L306.329 147.579L305.119 147.446Z" fill="#03989E"/>
<path d="M290.574 293.201L293.32 293.491L293.03 296.25L290.271 295.948L290.574 293.201ZM289.497 291.87L289.363 293.08L289.073 295.827L288.94 297.037L290.15 297.17L292.909 297.46L294.119 297.593L294.252 296.383L294.555 293.624L294.676 292.414L293.466 292.281L290.719 291.979L289.509 291.858L289.497 291.87Z" fill="#03989E"/>
<path d="M134.57 150.991C134.752 149.821 135.275 148.729 136.072 147.852C136.869 146.976 137.906 146.353 139.054 146.06C140.203 145.767 141.411 145.819 142.531 146.207C143.65 146.595 144.631 147.304 145.352 148.244L143.875 149.358C143.549 148.898 143.127 148.515 142.638 148.235C142.149 147.955 141.605 147.785 141.044 147.736C140.523 147.666 139.994 147.701 139.488 147.839C138.981 147.976 138.507 148.214 138.094 148.538C137.68 148.862 137.336 149.265 137.081 149.724C136.826 150.183 136.666 150.688 136.609 151.21C136.552 151.732 136.601 152.26 136.752 152.763C136.902 153.266 137.152 153.734 137.487 154.138C137.821 154.543 138.233 154.877 138.699 155.12C139.164 155.363 139.673 155.51 140.197 155.553C140.754 155.619 141.319 155.564 141.853 155.393C142.387 155.221 142.879 154.938 143.295 154.561L144.505 155.977C143.6 156.742 142.49 157.225 141.314 157.365C140.137 157.506 138.945 157.298 137.886 156.767C136.827 156.236 135.947 155.405 135.355 154.379C134.763 153.352 134.486 152.174 134.558 150.991H134.57Z" fill="#03989E"/>
<path d="M154.851 157.054L154.657 158.796L146.308 157.889L147.518 146.756L155.637 147.639L155.456 149.37L149.405 148.716L149.091 151.609L154.464 152.189L154.27 153.956L148.897 153.375L148.57 156.376L154.851 157.054Z" fill="#03989E"/>
<path d="M164.241 159.825L162.317 156.376H161.893L159.376 156.11L159.025 159.268L156.968 159.038L158.178 147.918L162.752 148.402C165.681 148.728 167.326 150.41 167.06 152.879C167.004 153.642 166.708 154.367 166.214 154.952C165.721 155.536 165.056 155.95 164.313 156.134L166.479 160.067L164.241 159.825ZM162.462 150.144L160.042 149.89L159.558 154.319L161.978 154.585C163.793 154.779 164.821 154.053 164.967 152.649C165.112 151.245 164.277 150.326 162.462 150.144Z" fill="#03989E"/>
<path d="M171.695 151.149L168.004 150.749L168.198 148.995L177.636 150.023L177.455 151.766L173.825 151.367L172.808 160.745L170.739 160.527L171.695 151.149Z" fill="#03989E"/>
<path d="M179.197 150.193L181.267 150.41L180.057 161.543L177.987 161.313L179.197 150.193Z" fill="#03989E"/>
<path d="M186.144 152.746L185.781 156.122L191.153 156.703L190.96 158.458L185.647 157.828L185.188 162.088L183.118 161.858L184.328 150.737L192.448 151.621L192.267 153.351L186.144 152.746Z" fill="#03989E"/>
<path d="M194.396 151.826L196.454 152.056L195.244 163.189L193.174 162.959L194.396 151.826Z" fill="#03989E"/>
<path d="M198.063 157.853C198.134 157.075 198.365 156.32 198.74 155.634C199.116 154.949 199.628 154.349 200.245 153.87C200.863 153.391 201.572 153.044 202.329 152.851C203.086 152.657 203.875 152.622 204.646 152.746C205.482 152.812 206.292 153.064 207.019 153.482C207.745 153.901 208.369 154.476 208.845 155.166L207.381 156.28C207.051 155.822 206.628 155.44 206.14 155.159C205.652 154.877 205.11 154.702 204.549 154.646C203.897 154.582 203.24 154.683 202.636 154.938C202.033 155.193 201.503 155.594 201.094 156.106C200.685 156.618 200.411 157.223 200.296 157.868C200.181 158.513 200.228 159.176 200.434 159.798C200.64 160.42 200.998 160.98 201.476 161.428C201.954 161.876 202.536 162.198 203.169 162.364C203.803 162.53 204.468 162.536 205.104 162.38C205.74 162.224 206.327 161.911 206.812 161.471L208.022 162.887C207.117 163.652 206.008 164.135 204.831 164.275C203.655 164.416 202.463 164.207 201.403 163.676C200.344 163.145 199.464 162.315 198.872 161.288C198.281 160.262 198.003 159.084 198.075 157.901L198.063 157.853Z" fill="#03989E"/>
<path d="M217.11 162.935L211.543 162.342L210.164 164.762L208.034 164.532L214.205 153.956L216.25 154.174L220.062 165.839L217.908 165.609L217.11 162.935ZM216.601 161.241L215.028 156.147L212.414 160.793L216.601 161.241Z" fill="#03989E"/>
<path d="M224.201 156.824L220.51 156.376L220.74 154.682L230.191 155.698L229.997 157.453L226.306 157.054L225.29 166.432L223.233 166.202L224.201 156.824Z" fill="#03989E"/>
<path d="M231.691 155.868L233.76 156.085L232.55 167.218L230.48 167L231.691 155.868Z" fill="#03989E"/>
<path d="M235.369 161.894C235.442 160.687 235.875 159.529 236.612 158.57C237.35 157.611 238.357 156.895 239.506 156.515C240.654 156.134 241.89 156.107 243.054 156.435C244.218 156.764 245.257 157.435 246.036 158.36C246.815 159.285 247.3 160.422 247.426 161.625C247.553 162.828 247.316 164.041 246.746 165.108C246.176 166.175 245.299 167.047 244.229 167.611C243.159 168.175 241.945 168.405 240.742 168.272C239.962 168.229 239.199 168.027 238.5 167.678C237.801 167.33 237.181 166.842 236.678 166.244C236.174 165.647 235.798 164.953 235.574 164.205C235.349 163.457 235.279 162.67 235.369 161.894ZM245.268 162.971C245.352 162.198 245.205 161.417 244.845 160.727C244.485 160.038 243.929 159.47 243.246 159.097C242.564 158.723 241.786 158.56 241.011 158.629C240.236 158.698 239.499 158.994 238.893 159.482C238.287 159.97 237.839 160.626 237.606 161.368C237.373 162.111 237.365 162.905 237.584 163.652C237.803 164.398 238.238 165.063 238.834 165.563C239.431 166.062 240.162 166.373 240.936 166.456C241.452 166.529 241.977 166.495 242.48 166.357C242.982 166.218 243.451 165.978 243.856 165.652C244.262 165.325 244.597 164.919 244.84 164.458C245.083 163.997 245.228 163.491 245.268 162.971Z" fill="#03989E"/>
<path d="M260.031 158.93L258.821 170.063L257.115 169.881L251.802 161.677L250.98 169.215L248.935 168.998L250.145 157.865L251.851 158.046L257.175 166.251L257.986 158.712L260.031 158.93Z" fill="#03989E"/>
<path opacity="0.6" d="M248.644 201.876L137.909 189.896C136.667 189.761 135.423 190.125 134.449 190.908C133.476 191.691 132.853 192.829 132.718 194.071C132.583 195.313 132.948 196.557 133.73 197.531C134.513 198.504 135.651 199.127 136.893 199.262L247.628 211.242C248.243 211.308 248.865 211.253 249.459 211.08C250.052 210.906 250.606 210.617 251.088 210.229C251.57 209.842 251.971 209.363 252.268 208.82C252.565 208.278 252.752 207.682 252.819 207.067C252.886 206.452 252.831 205.83 252.657 205.236C252.483 204.642 252.195 204.089 251.807 203.607C251.419 203.125 250.94 202.724 250.398 202.427C249.855 202.13 249.259 201.942 248.644 201.876Z" fill="white"/>
<path d="M275.557 225.581L106.544 207.296" stroke="#03989E" stroke-linecap="round" stroke-linejoin="round"/>
<path d="M276.113 220.511L120.339 203.654" stroke="#03989E" stroke-linecap="round" stroke-linejoin="round"/>
<path d="M208.76 223.718L105.963 212.597" stroke="#03989E" stroke-linecap="round" stroke-linejoin="round"/>
<path d="M124.199 167.897L279.986 184.753" stroke="#03989E" stroke-linecap="round" stroke-linejoin="round"/>
<path d="M110.404 171.527L279.429 189.823" stroke="#03989E" stroke-linecap="round" stroke-linejoin="round"/>
<path d="M109.267 182.127L185.562 190.38" stroke="#03989E" stroke-linecap="round" stroke-linejoin="round"/>
<path d="M109.836 176.827L278.86 195.123" stroke="#03989E" stroke-linecap="round" stroke-linejoin="round"/>
<path d="M257.526 282.152L250.544 277.372L242.703 280.543L245.413 255.446L260.249 257.055L257.526 282.152Z" fill="#03989E"/>
<path opacity="0.2" d="M257.526 282.152L250.544 277.372L242.703 280.543L245.413 255.446L260.249 257.055L257.526 282.152Z" fill="#545454"/>
<path d="M254.913 237.017L257.357 235.601L258.906 237.973L261.641 237.198L262.548 239.885L265.38 239.824L265.598 242.644L268.357 243.285L267.861 246.08L270.377 247.387L269.204 249.965L271.309 251.864L269.53 254.067L271.104 256.426L268.829 258.121L269.772 260.795L267.147 261.872L267.389 264.691L264.581 265.091L264.121 267.886L261.302 267.559L260.152 270.149L257.502 269.144L255.748 271.371L253.436 269.737L251.186 271.456L249.346 269.29L246.745 270.391L245.498 267.85L242.703 268.261L242.134 265.49L239.315 265.2L239.46 262.368L236.798 261.388L237.633 258.677L235.309 257.068L236.798 254.66L234.934 252.506L236.979 250.545L235.709 248.004L238.177 246.613L237.584 243.842L240.319 243.103L240.428 240.272L243.272 240.235L244.082 237.513L246.829 238.19L248.293 235.758L250.798 237.101L252.819 235.105L254.913 237.017Z" fill="#03989E"/>
<path opacity="0.2" d="M254.55 240.32L256.51 239.183L257.744 241.082L259.922 240.465L260.648 242.607L262.911 242.559L263.081 244.822L265.283 245.33L264.896 247.556L266.904 248.597L265.961 250.654L267.643 252.167L266.227 253.934L267.485 255.821L265.67 257.164L266.42 259.306L264.327 260.166L264.521 262.416L262.282 262.731L261.907 264.97L259.656 264.703L258.736 266.785L256.631 265.974L255.227 267.753L253.376 266.446L251.573 267.813L250.108 266.083L248.027 266.966L247.035 264.933L244.796 265.272L244.348 263.058L242.098 262.816L242.207 260.565L240.089 259.778L240.755 257.612L238.903 256.33L240.089 254.406L238.601 252.687L240.234 251.126L239.23 249.093L241.19 247.98L240.718 245.765L242.896 245.173L242.993 242.91L245.256 242.886L245.91 240.719L248.1 241.252L249.274 239.316L251.27 240.381L252.88 238.795L254.55 240.32Z" fill="white"/>
<path d="M253.146 254.49L254.84 254.671L254.707 255.809L252.892 255.615L252.395 257.709L251.258 257.588L251.754 255.494L249.636 255.264L249.152 257.358L248.015 257.237L248.499 255.143L246.817 254.962L246.938 253.824L248.765 254.018L249.298 251.828L247.603 251.646L247.724 250.509L249.552 250.702L250.048 248.609L251.185 248.73L250.689 250.823L252.783 251.053L253.279 248.96L254.416 249.081L253.92 251.174L255.602 251.356L255.493 252.493L253.666 252.3L253.146 254.49ZM252.008 254.369L252.528 252.179L250.423 251.949L249.903 254.139L252.008 254.369Z" fill="#03989E"/>
<path d="M259.693 249.65L258.749 258.399L257.127 258.217L257.926 250.836L256.074 250.642L256.22 249.275L259.693 249.65Z" fill="#03989E"/>
<path d="M119.093 228.389C119.378 228.22 119.718 228.169 120.041 228.246C120.363 228.323 120.644 228.521 120.823 228.8C120.975 229.031 121.196 229.207 121.456 229.303C121.715 229.399 121.998 229.409 122.263 229.333C122.582 229.244 122.923 229.281 123.216 229.437C123.508 229.592 123.73 229.854 123.836 230.168C123.923 230.42 124.086 230.639 124.303 230.795C124.52 230.951 124.779 231.036 125.046 231.039C125.38 231.032 125.703 231.154 125.948 231.379C126.194 231.605 126.343 231.916 126.365 232.249C126.377 232.533 126.481 232.805 126.663 233.024C126.844 233.243 127.092 233.395 127.37 233.459C127.692 233.534 127.974 233.731 128.156 234.008C128.339 234.285 128.408 234.621 128.35 234.947C128.299 235.218 128.338 235.498 128.46 235.744C128.583 235.991 128.782 236.191 129.027 236.315C129.319 236.47 129.54 236.73 129.648 237.042C129.756 237.354 129.742 237.695 129.608 237.997C129.492 238.247 129.46 238.529 129.517 238.799C129.573 239.07 129.716 239.314 129.923 239.497C130.169 239.72 130.32 240.029 130.345 240.36C130.369 240.691 130.266 241.019 130.056 241.276C129.895 241.498 129.808 241.764 129.808 242.038C129.808 242.312 129.895 242.579 130.056 242.801C130.237 243.077 130.306 243.412 130.25 243.738C130.194 244.063 130.016 244.355 129.753 244.555C129.53 244.718 129.365 244.948 129.284 245.213C129.203 245.477 129.211 245.76 129.306 246.02C129.414 246.332 129.4 246.673 129.265 246.975C129.13 247.276 128.885 247.514 128.58 247.641C128.324 247.744 128.108 247.927 127.964 248.162C127.82 248.398 127.756 248.673 127.781 248.948C127.809 249.278 127.709 249.607 127.502 249.866C127.295 250.125 126.996 250.294 126.668 250.34C126.395 250.377 126.141 250.5 125.943 250.692C125.745 250.883 125.613 251.133 125.566 251.405C125.513 251.731 125.336 252.024 125.073 252.225C124.81 252.425 124.48 252.517 124.151 252.482C123.876 252.448 123.598 252.504 123.359 252.642C123.119 252.779 122.93 252.99 122.82 253.244C122.689 253.547 122.445 253.787 122.14 253.914C121.835 254.04 121.493 254.043 121.186 253.922C120.928 253.824 120.646 253.811 120.38 253.885C120.115 253.959 119.88 254.116 119.71 254.333C119.504 254.594 119.206 254.766 118.877 254.813C118.548 254.86 118.214 254.779 117.943 254.587C117.721 254.426 117.455 254.339 117.181 254.339C116.907 254.339 116.64 254.426 116.418 254.587C116.154 254.79 115.821 254.883 115.49 254.847C115.159 254.811 114.854 254.648 114.639 254.393C114.46 254.186 114.219 254.041 113.952 253.978C113.685 253.915 113.405 253.937 113.151 254.043C112.847 254.174 112.504 254.182 112.194 254.065C111.885 253.947 111.633 253.714 111.493 253.413C111.37 253.168 111.173 252.967 110.93 252.839C110.687 252.711 110.41 252.662 110.138 252.699C109.81 252.753 109.474 252.677 109.2 252.487C108.927 252.297 108.738 252.009 108.674 251.683C108.62 251.412 108.481 251.165 108.276 250.98C108.071 250.795 107.811 250.68 107.536 250.654C107.21 250.618 106.91 250.459 106.696 250.209C106.483 249.96 106.372 249.639 106.387 249.311C106.401 249.035 106.326 248.761 106.174 248.53C106.022 248.3 105.799 248.124 105.54 248.028C105.229 247.913 104.974 247.683 104.828 247.386C104.682 247.089 104.655 246.747 104.753 246.431C104.835 246.17 104.831 245.889 104.742 245.629C104.653 245.37 104.483 245.147 104.257 244.991C103.985 244.802 103.796 244.516 103.728 244.192C103.661 243.868 103.72 243.53 103.894 243.249C104.037 243.013 104.101 242.739 104.077 242.464C104.053 242.19 103.942 241.931 103.761 241.724C103.545 241.473 103.433 241.148 103.449 240.818C103.464 240.487 103.606 240.174 103.845 239.945C104.044 239.753 104.176 239.504 104.224 239.232C104.272 238.96 104.233 238.68 104.112 238.432C103.962 238.137 103.931 237.795 104.026 237.478C104.121 237.161 104.333 236.892 104.62 236.726C104.861 236.594 105.053 236.386 105.167 236.135C105.28 235.885 105.309 235.603 105.249 235.335C105.179 235.009 105.236 234.67 105.41 234.386C105.583 234.102 105.859 233.896 106.181 233.81C106.449 233.737 106.687 233.581 106.859 233.363C107.031 233.145 107.128 232.877 107.137 232.6C107.155 232.274 107.297 231.968 107.533 231.744C107.769 231.519 108.082 231.392 108.407 231.39C108.68 231.384 108.944 231.291 109.162 231.126C109.379 230.961 109.539 230.731 109.618 230.47C109.711 230.151 109.924 229.88 110.213 229.715C110.502 229.55 110.844 229.504 111.166 229.587C111.433 229.651 111.713 229.628 111.966 229.521C112.219 229.415 112.43 229.23 112.57 228.994C112.742 228.71 113.016 228.503 113.335 228.415C113.655 228.327 113.996 228.366 114.288 228.522C114.532 228.649 114.808 228.696 115.08 228.657C115.351 228.618 115.604 228.494 115.801 228.304C116.041 228.077 116.36 227.95 116.691 227.95C117.021 227.95 117.34 228.077 117.58 228.304C117.791 228.475 118.051 228.575 118.323 228.591C118.594 228.606 118.863 228.535 119.093 228.389Z" fill="#03989E"/>
<path opacity="0.2" d="M116.963 252.59C123.125 252.59 128.12 247.595 128.12 241.433C128.12 235.271 123.125 230.276 116.963 230.276C110.801 230.276 105.806 235.271 105.806 241.433C105.806 247.595 110.801 252.59 116.963 252.59Z" fill="white"/>
<path d="M117.556 235.891L118.972 239.739L122.929 240.756L119.71 243.273L119.964 247.363L116.563 245.076L112.764 246.576L113.877 242.643L111.275 239.497L115.365 239.34L117.556 235.891Z" fill="#03989E"/>
<path d="M166.386 256.389C172.212 251.7 173.133 243.176 168.444 237.35C163.755 231.524 155.231 230.603 149.405 235.292C143.58 239.981 142.658 248.505 147.347 254.331C152.036 260.156 160.56 261.078 166.386 256.389Z" fill="#03989E"/>
<path opacity="0.2" d="M168.041 246.964C167.823 248.972 167.015 250.87 165.718 252.419C164.421 253.968 162.694 255.098 160.756 255.665C158.817 256.233 156.753 256.212 154.826 255.607C152.899 255.002 151.195 253.838 149.929 252.264C148.663 250.69 147.892 248.776 147.714 246.764C147.536 244.752 147.958 242.732 148.928 240.96C149.898 239.188 151.371 237.743 153.162 236.809C154.953 235.874 156.981 235.492 158.989 235.71C161.682 236.002 164.148 237.352 165.845 239.462C167.543 241.573 168.332 244.271 168.041 246.964Z" fill="white"/>
<g opacity="0.2">
<path d="M156.605 257.515C154.301 257.26 152.124 256.327 150.35 254.835C148.575 253.343 147.283 251.359 146.636 249.132C145.989 246.906 146.017 244.538 146.716 242.328C147.414 240.117 148.752 238.163 150.561 236.713C152.37 235.263 154.568 234.381 156.877 234.179C159.187 233.978 161.504 234.466 163.537 235.581C165.569 236.696 167.225 238.388 168.296 240.444C169.367 242.501 169.804 244.828 169.553 247.133C169.212 250.226 167.657 253.058 165.229 255.005C162.801 256.952 159.699 257.855 156.605 257.515ZM159.025 234.911C156.859 234.676 154.671 235.09 152.739 236.099C150.808 237.108 149.219 238.668 148.175 240.581C147.13 242.493 146.677 244.673 146.872 246.844C147.067 249.014 147.901 251.078 149.27 252.774C150.639 254.47 152.48 255.722 154.56 256.371C156.641 257.02 158.867 257.037 160.957 256.42C163.047 255.803 164.907 254.579 166.302 252.905C167.696 251.23 168.562 249.179 168.791 247.012C169.093 244.114 168.235 241.214 166.405 238.946C164.575 236.679 161.922 235.228 159.025 234.911Z" fill="white"/>
</g>
<path d="M160.042 246.322L158.336 241.736L155.686 245.85L151.438 241.373L152.467 249.444L154.996 249.71L157.198 249.952L157.694 250.013L159.897 250.242L162.426 250.521L165.148 242.849L160.042 246.322Z" fill="#03989E"/>
<path d="M164.531 127.625L167.496 124.914L169.916 125.181L170.376 121.696L165.996 120.691C165.996 120.691 159.945 119.856 157.791 119.844C156.908 119.844 155.879 119.844 153.411 125.253C152.975 126.197 164.531 127.625 164.531 127.625Z" fill="#FF9580"/>
<path d="M263.31 135.248C263.932 133.874 264.708 132.575 265.622 131.376C266.432 130.674 273.814 132.308 275.036 133.312C276.258 134.316 275.689 136.591 275.689 136.591C275.689 136.591 273.632 139.81 272.229 139.641C270.825 139.471 263.698 139.108 263.31 138.588C262.923 138.068 263.31 135.248 263.31 135.248Z" fill="#FF9580"/>
<g filter="url(#filter1_d_156_9770)">
<rect x="335" y="14" width="292" height="324" fill="#FFAA00"/>
</g>
<path d="M458.666 107.5C456.261 107.5 454.333 109.428 454.333 111.833V133.5C454.333 134.649 454.79 135.752 455.602 136.564C456.415 137.377 457.517 137.833 458.666 137.833H476V148.667L482.5 142.167L489 148.667V137.833H493.333C494.482 137.833 495.584 137.377 496.397 136.564C497.21 135.752 497.666 134.649 497.666 133.5V111.833C497.666 110.684 497.21 109.582 496.397 108.769C495.584 107.957 494.482 107.5 493.333 107.5H458.666ZM476 111.833L482.5 116.167L489 111.833V119.417L495.5 122.667L489 125.917V133.5L482.5 129.167L476 133.5V125.917L469.5 122.667L476 119.417V111.833ZM458.666 111.833H469.5V116.167H458.666V111.833ZM458.666 120.5H465.166V124.833H458.666V120.5ZM458.666 129.167H469.5V133.5H458.666V129.167Z" fill="white"/>
<path d="M398.56 177.992C398.364 177.796 398 177.53 397.468 177.194C396.964 176.858 396.334 176.536 395.578 176.228C394.85 175.92 394.052 175.654 393.184 175.43C392.316 175.178 391.434 175.052 390.538 175.052C388.97 175.052 387.78 175.346 386.968 175.934C386.184 176.522 385.792 177.348 385.792 178.412C385.792 179.224 386.044 179.868 386.548 180.344C387.052 180.82 387.808 181.226 388.816 181.562C389.824 181.898 391.084 182.262 392.596 182.654C394.556 183.13 396.25 183.718 397.678 184.418C399.134 185.09 400.24 185.986 400.996 187.106C401.78 188.198 402.172 189.654 402.172 191.474C402.172 193.07 401.878 194.442 401.29 195.59C400.702 196.71 399.89 197.62 398.854 198.32C397.818 199.02 396.642 199.538 395.326 199.874C394.01 200.182 392.61 200.336 391.126 200.336C389.642 200.336 388.158 200.182 386.674 199.874C385.19 199.566 383.762 199.132 382.39 198.572C381.018 197.984 379.758 197.284 378.61 196.472L381.172 191.474C381.424 191.726 381.872 192.062 382.516 192.482C383.16 192.874 383.944 193.28 384.868 193.7C385.792 194.092 386.8 194.428 387.892 194.708C388.984 194.988 390.09 195.128 391.21 195.128C392.778 195.128 393.968 194.862 394.78 194.33C395.592 193.798 395.998 193.042 395.998 192.062C395.998 191.166 395.676 190.466 395.032 189.962C394.388 189.458 393.492 189.024 392.344 188.66C391.196 188.268 389.838 187.848 388.27 187.4C386.394 186.868 384.826 186.28 383.566 185.636C382.306 184.964 381.368 184.124 380.752 183.116C380.136 182.108 379.828 180.848 379.828 179.336C379.828 177.292 380.304 175.584 381.256 174.212C382.236 172.812 383.552 171.762 385.204 171.062C386.856 170.334 388.69 169.97 390.706 169.97C392.106 169.97 393.422 170.124 394.654 170.432C395.914 170.74 397.09 171.146 398.182 171.65C399.274 172.154 400.254 172.7 401.122 173.288L398.56 177.992ZM416.211 200.42C414.447 200.42 412.851 200.126 411.423 199.538C409.995 198.922 408.777 198.096 407.769 197.06C406.761 195.996 405.977 194.792 405.417 193.448C404.885 192.076 404.619 190.634 404.619 189.122C404.619 187.022 405.081 185.104 406.005 183.368C406.957 181.632 408.301 180.246 410.037 179.21C411.801 178.146 413.873 177.614 416.253 177.614C418.661 177.614 420.719 178.146 422.427 179.21C424.135 180.246 425.437 181.632 426.333 183.368C427.257 185.076 427.719 186.924 427.719 188.912C427.719 189.248 427.705 189.598 427.677 189.962C427.649 190.298 427.621 190.578 427.593 190.802H410.583C410.695 191.922 411.017 192.902 411.549 193.742C412.109 194.582 412.809 195.226 413.649 195.674C414.517 196.094 415.441 196.304 416.421 196.304C417.541 196.304 418.591 196.038 419.571 195.506C420.579 194.946 421.265 194.218 421.629 193.322L426.459 194.666C425.927 195.786 425.157 196.78 424.149 197.648C423.169 198.516 422.007 199.202 420.663 199.706C419.319 200.182 417.835 200.42 416.211 200.42ZM410.457 187.232H421.965C421.853 186.112 421.531 185.146 420.999 184.334C420.495 183.494 419.823 182.85 418.983 182.402C418.143 181.926 417.205 181.688 416.169 181.688C415.161 181.688 414.237 181.926 413.397 182.402C412.585 182.85 411.913 183.494 411.381 184.334C410.877 185.146 410.569 186.112 410.457 187.232ZM444.252 182.864C442.544 182.864 441.018 183.2 439.674 183.872C438.33 184.516 437.364 185.454 436.776 186.686V200H431.148V177.992H436.314V182.696C437.098 181.184 438.092 179.994 439.296 179.126C440.5 178.258 441.774 177.782 443.118 177.698C443.426 177.698 443.664 177.698 443.832 177.698C444 177.698 444.14 177.712 444.252 177.74V182.864ZM460.578 198.866C460.102 199.062 459.528 199.286 458.856 199.538C458.184 199.79 457.456 199.986 456.672 200.126C455.916 200.294 455.146 200.378 454.362 200.378C453.326 200.378 452.374 200.196 451.506 199.832C450.638 199.468 449.938 198.894 449.406 198.11C448.902 197.298 448.65 196.248 448.65 194.96V182.318H445.752V177.992H448.65V170.852H454.278V177.992H458.898V182.318H454.278V193.07C454.306 193.826 454.516 194.372 454.908 194.708C455.3 195.044 455.79 195.212 456.378 195.212C456.966 195.212 457.54 195.114 458.1 194.918C458.66 194.722 459.108 194.554 459.444 194.414L460.578 198.866ZM463.509 200V177.992H469.137V200H463.509ZM463.509 174.926V169.34H469.137V174.926H463.509ZM475.558 183.452H472.66V179.168H475.558V177.824C475.558 176.592 475.754 175.444 476.146 174.38C476.566 173.316 477.154 172.378 477.91 171.566C478.694 170.726 479.632 170.082 480.724 169.634C481.844 169.158 483.104 168.92 484.504 168.92C485.568 168.92 486.562 169.032 487.486 169.256C488.438 169.48 489.334 169.802 490.174 170.222C491.042 170.642 491.868 171.118 492.652 171.65L490.426 175.85C489.698 175.206 488.844 174.688 487.864 174.296C486.884 173.904 485.89 173.708 484.882 173.708C484.07 173.708 483.384 173.89 482.824 174.254C482.264 174.618 481.844 175.094 481.564 175.682C481.312 176.27 481.186 176.914 481.186 177.614V179.168H492.988V200H487.36V183.452H481.186V200H475.558V183.452ZM513.121 200L506.695 190.508L503.713 193.448V200H498.085V169.34H503.713V187.904L512.575 178.034H518.539L510.349 187.358L519.127 200H513.121ZM519.788 193.49C519.788 192.062 520.18 190.816 520.964 189.752C521.776 188.66 522.896 187.82 524.324 187.232C525.752 186.644 527.39 186.35 529.238 186.35C530.162 186.35 531.1 186.42 532.052 186.56C533.004 186.7 533.83 186.924 534.53 187.232V186.056C534.53 184.656 534.11 183.578 533.27 182.822C532.458 182.066 531.24 181.688 529.616 181.688C528.412 181.688 527.264 181.898 526.172 182.318C525.08 182.738 523.932 183.354 522.728 184.166L520.922 180.47C522.378 179.518 523.862 178.804 525.374 178.328C526.914 177.852 528.524 177.614 530.204 177.614C533.34 177.614 535.776 178.398 537.512 179.966C539.276 181.534 540.158 183.774 540.158 186.686V193.7C540.158 194.288 540.256 194.708 540.452 194.96C540.676 195.212 541.026 195.366 541.502 195.422V200C540.998 200.084 540.536 200.154 540.116 200.21C539.724 200.266 539.388 200.294 539.108 200.294C537.988 200.294 537.134 200.042 536.546 199.538C535.986 199.034 535.636 198.418 535.496 197.69L535.37 196.556C534.418 197.788 533.228 198.74 531.8 199.412C530.372 200.084 528.916 200.42 527.432 200.42C525.976 200.42 524.66 200.126 523.484 199.538C522.336 198.922 521.426 198.096 520.754 197.06C520.11 195.996 519.788 194.806 519.788 193.49ZM533.48 194.624C533.788 194.288 534.04 193.952 534.236 193.616C534.432 193.28 534.53 192.972 534.53 192.692V190.466C533.858 190.186 533.13 189.976 532.346 189.836C531.562 189.668 530.82 189.584 530.12 189.584C528.664 189.584 527.46 189.906 526.508 190.55C525.584 191.166 525.122 191.992 525.122 193.028C525.122 193.588 525.276 194.12 525.584 194.624C525.892 195.128 526.34 195.534 526.928 195.842C527.516 196.15 528.216 196.304 529.028 196.304C529.868 196.304 530.694 196.15 531.506 195.842C532.318 195.506 532.976 195.1 533.48 194.624ZM553.523 200.42C551.647 200.42 549.855 200.112 548.147 199.496C546.439 198.88 544.969 197.97 543.737 196.766L545.753 193.112C547.069 194.176 548.357 194.96 549.617 195.464C550.905 195.968 552.137 196.22 553.313 196.22C554.405 196.22 555.273 196.024 555.917 195.632C556.589 195.24 556.925 194.652 556.925 193.868C556.925 193.336 556.743 192.93 556.379 192.65C556.015 192.342 555.483 192.076 554.783 191.852C554.111 191.628 553.285 191.376 552.305 191.096C550.681 190.564 549.323 190.046 548.231 189.542C547.139 189.038 546.313 188.408 545.753 187.652C545.221 186.868 544.955 185.874 544.955 184.67C544.955 183.214 545.319 181.968 546.047 180.932C546.803 179.868 547.839 179.042 549.155 178.454C550.499 177.866 552.067 177.572 553.859 177.572C555.427 177.572 556.911 177.824 558.311 178.328C559.711 178.804 560.985 179.588 562.133 180.68L559.865 184.25C558.745 183.382 557.681 182.752 556.673 182.36C555.665 181.94 554.643 181.73 553.607 181.73C553.019 181.73 552.459 181.8 551.927 181.94C551.423 182.08 551.003 182.318 550.667 182.654C550.359 182.962 550.205 183.41 550.205 183.998C550.205 184.53 550.345 184.95 550.625 185.258C550.933 185.538 551.381 185.79 551.969 186.014C552.585 186.238 553.327 186.49 554.195 186.77C555.959 187.274 557.443 187.792 558.647 188.324C559.879 188.856 560.803 189.514 561.419 190.298C562.035 191.054 562.343 192.104 562.343 193.448C562.343 195.632 561.545 197.34 559.949 198.572C558.353 199.804 556.211 200.42 553.523 200.42ZM566.171 200V177.992H571.799V200H566.171ZM566.171 174.926V169.34H571.799V174.926H566.171Z" fill="white"/>
</g>
</g>
<defs>
<filter id="filter0_d_156_9770" x="0" y="0" width="638" height="359" filterUnits="userSpaceOnUse" color-interpolation-filters="sRGB">
<feFlood flood-opacity="0" result="BackgroundImageFix"/>
<feColorMatrix in="SourceAlpha" type="matrix" values="0 0 0 0 0 0 0 0 0 0 0 0 0 0 0 0 0 0 127 0" result="hardAlpha"/>
<feOffset dy="4"/>
<feGaussianBlur stdDeviation="9"/>
<feComposite in2="hardAlpha" operator="out"/>
<feColorMatrix type="matrix" values="0 0 0 0 0 0 0 0 0 0 0 0 0 0 0 0 0 0 0.15 0"/>
<feBlend mode="normal" in2="BackgroundImageFix" result="effect1_dropShadow_156_9770"/>
<feBlend mode="normal" in="SourceGraphic" in2="effect1_dropShadow_156_9770" result="shape"/>
</filter>
<filter id="filter1_d_156_9770" x="314" y="1" width="318" height="350" filterUnits="userSpaceOnUse" color-interpolation-filters="sRGB">
<feFlood flood-opacity="0" result="BackgroundImageFix"/>
<feColorMatrix in="SourceAlpha" type="matrix" values="0 0 0 0 0 0 0 0 0 0 0 0 0 0 0 0 0 0 127 0" result="hardAlpha"/>
<feOffset dx="-8"/>
<feGaussianBlur stdDeviation="6.5"/>
<feComposite in2="hardAlpha" operator="out"/>
<feColorMatrix type="matrix" values="0 0 0 0 0 0 0 0 0 0 0 0 0 0 0 0 0 0 0.1 0"/>
<feBlend mode="normal" in2="BackgroundImageFix" result="effect1_dropShadow_156_9770"/>
<feBlend mode="normal" in="SourceGraphic" in2="effect1_dropShadow_156_9770" result="shape"/>
</filter>
<clipPath id="clip0_156_9770">
<rect x="18" y="14" width="602" height="323" rx="32" fill="white"/>
</clipPath>
</defs>
</svg>
