<svg width="638" height="359" viewBox="0 0 638 359" fill="none" xmlns="http://www.w3.org/2000/svg">
<g filter="url(#filter0_d_156_9578)">
<g clip-path="url(#clip0_156_9578)">
<rect x="18" y="14" width="602" height="323" rx="32" fill="white"/>
<path d="M365.252 89.8346H135.924C133.292 89.8346 131.159 91.9678 131.159 94.5991V238.86C131.159 241.491 133.292 243.625 135.924 243.625H365.252C367.883 243.625 370.016 241.491 370.016 238.86V94.5991C370.016 91.9678 367.883 89.8346 365.252 89.8346Z" fill="#E09500"/>
<path d="M360.925 95.742H140.229C137.839 95.742 135.902 97.679 135.902 100.069V233.39C135.902 235.78 137.839 237.717 140.229 237.717H360.925C363.315 237.717 365.252 235.78 365.252 233.39V100.069C365.252 97.679 363.315 95.742 360.925 95.742Z" fill="white"/>
<path d="M274.424 206.692C274.424 207.444 266.689 209.009 257.734 209.204C248.494 209.415 240.713 208.091 240.382 209.475C240.187 210.273 242.67 211.115 242.459 211.883C242.248 212.65 240.141 212.771 226.988 211.431C217.748 210.499 219.147 209.927 215.475 210.017C208.207 210.122 204.158 212.154 200.757 209.536C199.742 208.452 198.476 207.635 197.07 207.158C195.383 206.789 193.622 206.968 192.043 207.67C190.855 208.136 184.519 208.422 171.787 208.979C160.41 209.49 150.718 209.716 149.499 207.173C149.367 206.948 149.286 206.696 149.263 206.436C149.24 206.176 149.274 205.914 149.363 205.668C149.845 204.856 151.545 205.292 152.93 205.142C154.315 204.991 156.557 204.735 159.552 204.329C173.221 202.632 186.983 201.797 200.757 201.831C232.361 201.41 263.513 201.952 263.528 203.336C263.528 203.742 260.518 204.013 260.518 204.6C260.563 205.789 274.379 205.683 274.424 206.692Z" fill="#739B48"/>
<path d="M264.627 181.051C264.627 182.165 264.401 183.083 264.1 183.083C263.799 183.083 263.573 182.165 263.573 181.051C263.573 179.938 263.814 179.035 264.1 179.035C264.386 179.035 264.627 179.938 264.627 181.051Z" fill="white"/>
<path d="M265.409 173.798H264.16C264.14 173.798 264.121 173.79 264.107 173.776C264.093 173.762 264.085 173.742 264.085 173.722C264.085 173.703 264.093 173.683 264.107 173.669C264.121 173.655 264.14 173.647 264.16 173.647H265.409C265.429 173.647 265.448 173.655 265.463 173.669C265.477 173.683 265.485 173.703 265.485 173.722C265.485 173.742 265.477 173.762 265.463 173.776C265.448 173.79 265.429 173.798 265.409 173.798Z" fill="#545454"/>
<path d="M261.391 191.058C261.346 191.296 261.346 191.541 261.391 191.78C261.34 191.547 261.34 191.306 261.391 191.073C261.391 191.073 261.391 190.997 261.286 191.073L261.391 191.058Z" fill="#B25944"/>
<path d="M262.144 191.795C262.136 191.88 262.136 191.966 262.144 192.051V191.87C262.144 191.795 262.144 191.765 262.144 191.765V191.795Z" fill="#B25944"/>
<path d="M263.001 189.342C262.941 189.376 262.894 189.429 262.866 189.492C262.866 189.492 262.941 189.312 262.866 189.312L263.001 189.342Z" fill="#B25944"/>
<path d="M263.437 189.734L263.317 189.884L263.422 189.734H263.437Z" fill="#B25944"/>
<path d="M263.919 189.357L263.814 189.567L263.904 189.357H263.919Z" fill="#B25944"/>
<path d="M264.597 188.304L264.341 188.454V188.545L264.582 188.394C264.582 188.394 264.582 188.394 264.582 188.319L264.597 188.304Z" fill="#B25944"/>
<path d="M261.18 194.368C261.095 194.595 261.039 194.833 261.015 195.075C261.033 194.843 261.083 194.615 261.165 194.398C261.165 194.398 261.165 194.308 261.075 194.398L261.18 194.368Z" fill="#B25944"/>
<path d="M263.362 193.284C263.347 193.429 263.347 193.576 263.362 193.721C263.355 193.575 263.355 193.43 263.362 193.284Z" fill="#B25944"/>
<path d="M264.1 193.6L264.235 194.232C264.235 194.232 264.355 194.232 264.34 194.232C264.283 194.03 264.237 193.824 264.205 193.615H264.1V193.6Z" fill="#B25944"/>
<path d="M257.584 174.008C257.584 173.647 257.825 172.864 259.947 171.856C263.859 170.005 268.374 170.156 268.464 170.713C268.555 171.269 266.644 171.044 263.95 172.669C261.256 174.294 259.992 176.22 258.712 175.814C258.361 175.665 258.064 175.413 257.862 175.089C257.66 174.766 257.563 174.389 257.584 174.008Z" fill="#68301A"/>
<path d="M184.489 190.832C189.783 190.832 194.075 186.864 194.075 181.969C194.075 177.074 189.783 173.106 184.489 173.106C179.194 173.106 174.902 177.074 174.902 181.969C174.902 186.864 179.194 190.832 184.489 190.832Z" fill="#FF9580"/>
<path d="M269.803 189.101C269.846 190.389 269.522 191.662 268.87 192.773C267.516 194.804 264.717 196.144 263.001 195.497C262.49 195.292 262.072 194.906 261.827 194.413C261.376 193.472 260.673 192.675 259.795 192.111C257.975 191.027 257.117 192.111 255.1 190.982C253.693 189.935 252.49 188.64 251.548 187.16C249.908 185.084 249.878 184.723 248.749 183.414C247.769 181.942 246.467 180.712 244.942 179.817C242.112 178.598 240.668 181.051 234.844 180.946C234.123 180.935 233.405 180.88 232.692 180.78C231.77 180.67 230.862 180.463 229.983 180.163C227.755 179.381 227.409 178.659 225.889 177.996C223.812 177.169 221.736 177.56 216.423 179.396C213.432 180.324 210.498 181.424 207.634 182.691C201.268 185.701 190.749 186.513 181.373 184.061C179.386 183.556 177.447 182.876 175.579 182.029C173.533 181.146 171.606 180.009 169.845 178.644C168.992 177.996 168.192 177.282 167.452 176.507C165.624 174.475 164.001 172.267 162.606 169.916C162.441 169.63 162.26 169.359 162.065 169.073C158.302 163.054 156.271 159.789 157.038 156.449C157.73 153.439 160.5 151.483 163.57 149.843C167.331 147.815 171.397 146.412 175.609 145.69C179.713 145.028 183.868 144.731 188.025 144.802H190.478C198.003 144.802 205.949 144.892 215.159 142.033C216.532 141.548 217.948 141.195 219.388 140.98C220.73 140.817 222.088 140.847 223.421 141.07C229.351 142.063 232.556 146.593 237.432 151.95L238.802 153.454C243.592 158.445 249.004 162.799 254.904 166.41C257.155 167.676 259.326 169.078 261.406 170.608C261.398 170.744 261.398 170.879 261.406 171.015C261.444 171.278 261.515 171.536 261.616 171.782C261.878 172.441 262.217 173.068 262.625 173.648C263.468 174.716 264.506 175.935 265.574 177.44C267.846 180.717 269.286 184.497 269.773 188.454C269.788 188.665 269.803 188.891 269.803 189.101Z" fill="#93563B"/>
<path d="M186.249 206.285H180.229C179.989 204.57 179.748 203.155 179.507 201.997C178.815 198.852 178.002 197.482 177.445 196.911C176.796 196.321 176.318 195.567 176.061 194.729C175.937 194.189 175.937 193.628 176.061 193.089C176.286 190.982 173.367 187.702 171.727 185.565C171.474 185.246 171.238 184.915 171.019 184.572C170.813 184.266 170.642 183.938 170.508 183.594C169.868 182.032 169.66 180.328 169.906 178.658C170.192 176.315 170.826 174.028 171.787 171.872L174.405 171.767L181.614 171.526C181.524 176.838 181.418 180.855 181.358 184.075C181.358 184.542 181.358 184.963 181.358 185.384C181.358 186.122 181.358 186.799 181.358 187.446C181.358 188.665 181.358 190.004 181.358 191.343C181.358 195.27 181.81 199.273 183.947 200.748C184.515 201.082 185.024 201.509 185.452 202.012C185.686 202.285 185.884 202.589 186.038 202.915C186.459 203.989 186.533 205.167 186.249 206.285Z" fill="#93563B"/>
<path d="M227.018 175.167C227.018 176.416 227.018 177.56 226.852 178.613C226.86 178.713 226.86 178.814 226.852 178.914C226.686 182.427 225.556 185.826 223.587 188.74L223.361 189.056C223.361 189.056 223.361 189.056 223.271 189.161C221.839 190.999 220.716 193.057 219.945 195.255C219.553 196.456 219.227 197.676 218.967 198.912C218.731 199.903 218.555 200.908 218.44 201.921C218.44 202.222 218.44 202.508 218.44 202.809C218.41 203.24 218.41 203.672 218.44 204.103C218.485 204.881 218.611 205.653 218.816 206.405C216.875 206.405 214.918 206.3 212.962 206.27C213.147 204.793 213.469 203.338 213.925 201.921C214.309 200.734 214.813 199.59 215.43 198.505C216.118 197.515 216.457 196.324 216.393 195.12C216.258 193.615 215.325 193.434 215.295 192.186C215.295 190.109 217.718 189.296 217.522 187.22C217.446 186.703 217.244 186.212 216.935 185.79C215.987 184.286 214.542 180.84 212.285 172.173L227.018 175.167Z" fill="#93563B"/>
<path d="M233.038 206.285H228.387C228.387 205.713 228.598 204.871 228.809 203.832C229.019 202.794 229.08 202.403 229.17 201.996C229.257 201.629 229.322 201.258 229.366 200.883C229.366 200.362 229.248 199.847 229.019 199.378C228.356 198.307 227.557 197.326 226.642 196.459C226.071 195.792 225.567 195.072 225.137 194.307C224.941 193.976 224.76 193.615 224.58 193.254C223.969 191.978 223.528 190.627 223.271 189.236C222.956 187.69 222.926 186.099 223.18 184.542C223.361 183.669 224.053 179.636 226.882 178.688C226.957 178.645 227.039 178.615 227.123 178.598C228.173 178.369 229.268 178.468 230.261 178.879C231.253 179.291 232.096 179.996 232.676 180.9L232.827 181.201C232.876 181.313 232.916 181.429 232.947 181.547C233.354 183.338 231.442 183.97 230.464 187.265C229.787 189.703 230.193 191.779 230.81 195.045C231.1 196.946 231.605 198.809 232.315 200.597C232.548 201.087 232.754 201.59 232.932 202.102C233.149 202.734 233.281 203.391 233.324 204.058C233.343 204.811 233.247 205.562 233.038 206.285Z" fill="#93563B"/>
<path d="M170.448 183.579C169.112 185.429 167.649 187.184 166.069 188.83C163.835 190.876 162.003 193.321 160.666 196.038C159.83 197.804 159.242 199.678 158.92 201.606C159.002 201.729 159.073 201.86 159.131 201.997C159.393 202.427 159.615 202.88 159.793 203.351C160.175 204.356 160.413 205.41 160.5 206.481L152.825 206.376C153.593 204.988 154.204 203.52 154.646 201.997C155.04 200.865 155.318 199.695 155.474 198.506C155.91 194.564 154.902 192.096 156.572 189.177C157.521 187.506 158.469 187.205 159.733 185.972C165.527 180.299 161.343 171.03 165.376 168.577C167.92 167.072 172.901 168.727 174.256 171.586C174.292 171.659 174.322 171.734 174.346 171.812C175.715 174.836 173.277 179.606 170.448 183.579Z" fill="#93563B"/>
<path d="M265.229 181.818C265.018 185.068 260.909 188.349 257.042 188.86C254.724 189.161 253.49 188.349 251.488 187.13C249.848 185.053 249.818 184.692 248.689 183.383C247.723 181.929 246.442 180.71 244.942 179.817C242.113 178.598 240.668 181.051 234.844 180.945C234.124 180.935 233.405 180.879 232.692 180.78C231.714 179.982 228.493 177.184 228.764 173.813C228.929 171.782 230.269 171.526 230.585 169.389C231.277 165.597 227.756 163.897 227.801 160.782C227.801 157.171 232.767 152.837 237.477 151.919L238.847 153.424C243.638 158.414 249.049 162.768 254.95 166.38C257.2 167.646 259.371 169.048 261.451 170.578C261.444 170.713 261.444 170.849 261.451 170.984C261.504 171.244 261.574 171.501 261.662 171.751C261.924 172.411 262.262 173.037 262.67 173.617C262.836 178.026 265.379 179.14 265.229 181.818Z" fill="#68301A"/>
<path d="M219.223 154.432C218.199 154.884 217.718 154.222 214.949 153.981C212.615 153.913 210.281 154.12 207.996 154.598C204.842 154.919 201.656 154.496 198.695 153.364C194.97 151.615 192.03 148.541 190.448 144.742C197.973 144.742 205.934 144.847 215.129 141.988C216.502 141.502 217.918 141.149 219.358 140.935C219.632 141.224 219.874 141.542 220.081 141.883C222.94 146.322 221.901 153.198 219.223 154.432Z" fill="#68301A"/>
<path d="M185.873 150.776C184.809 151.465 183.567 151.832 182.299 151.832C181.031 151.832 179.79 151.465 178.725 150.776C177.856 150.208 177.123 149.454 176.579 148.57C176.036 147.685 175.694 146.692 175.58 145.66C179.683 144.992 183.838 144.69 187.995 144.757C188.188 145.858 188.093 146.99 187.722 148.044C187.35 149.098 186.714 150.039 185.873 150.776Z" fill="#68301A"/>
<path d="M176.874 179.516C176.437 180.313 175.971 181.156 175.504 182.044C175.156 182.871 174.633 183.613 173.971 184.218C173.308 184.824 172.522 185.278 171.667 185.55C171.414 185.231 171.178 184.9 170.959 184.557C170.753 184.251 170.582 183.923 170.448 183.579C169.808 182.017 169.601 180.313 169.846 178.643C168.994 178 168.198 177.285 167.468 176.506C167.468 174.926 166.67 172.684 162.592 169.871C170.854 164.589 174.074 163.746 174.993 164.709C175.911 165.672 174.21 169.224 174.391 171.751C174.41 172.457 174.695 173.128 175.188 173.632C176.046 174.475 177.099 174.279 177.671 175.348C178.379 176.687 177.431 178.508 176.874 179.516Z" fill="#68301A"/>
<path d="M192.736 156.072C190.328 157.502 189.726 162.618 191.863 164.995C193.037 166.334 194.241 165.838 195.249 167.297C196.574 169.178 195.099 170.743 196.122 172.474C197.747 175.182 203.903 172.94 204.775 174.896C205.408 176.326 202.654 178.297 203.165 179.034C203.677 179.772 208.779 178.824 211.337 175.423C214.558 171.15 213.489 163.731 209.561 159.684C207.725 157.803 203.662 157.125 195.52 155.771C194.586 155.539 193.599 155.645 192.736 156.072Z" fill="#68301A"/>
<path d="M218.064 157.698C217.224 158.291 216.528 159.066 216.028 159.964C215.528 160.863 215.236 161.862 215.174 162.889C215.174 164.394 215.882 166.44 217.326 166.891C218.137 167.034 218.972 166.908 219.704 166.53C220.812 166.224 221.839 165.68 222.714 164.935C223.015 164.664 225.724 162.136 224.746 159.353C224.429 158.488 223.849 157.745 223.088 157.227C222.327 156.709 221.422 156.442 220.502 156.464C219.577 156.599 218.721 157.032 218.064 157.698Z" fill="#68301A"/>
<path d="M181.268 185.369C181.268 186.107 181.268 186.784 181.268 187.431C181.268 188.65 181.268 189.989 181.268 191.328C180.505 191.213 179.796 190.867 179.236 190.335C178.744 189.909 178.388 189.349 178.212 188.723C178.035 188.097 178.046 187.434 178.243 186.814C178.6 186.354 179.059 185.984 179.584 185.733C180.109 185.482 180.686 185.358 181.268 185.369Z" fill="#68301A"/>
<path d="M269.804 189.101C269.846 190.389 269.523 191.662 268.871 192.773C267.516 194.804 264.717 196.144 263.002 195.497C262.496 195.283 262.081 194.9 261.828 194.413C261.276 193.816 260.951 193.044 260.91 192.231C260.91 190.727 261.948 189.222 262.595 189.372C262.986 189.372 263.107 189.989 263.348 189.944C263.588 189.899 263.498 188.439 264.326 187.807C264.551 187.678 264.804 187.606 265.063 187.597C267.381 187.266 268.57 186.664 269.232 187.206C269.419 187.369 269.569 187.57 269.673 187.796C269.777 188.021 269.832 188.266 269.834 188.515C269.789 188.68 269.804 188.876 269.804 189.101Z" fill="#F4B78E"/>
<path d="M159.732 203.351C160.114 204.355 160.352 205.409 160.439 206.48L152.764 206.375C153.553 204.99 154.184 203.522 154.645 201.996H159.01C159.293 202.424 159.535 202.877 159.732 203.351Z" fill="#68301A"/>
<path d="M185.813 202.899C186.312 203.953 186.465 205.139 186.249 206.285H180.229C179.988 204.569 179.748 203.155 179.507 201.996H185.211C185.451 202.269 185.653 202.573 185.813 202.899Z" fill="#68301A"/>
<path d="M218.35 204.178C218.394 204.957 218.521 205.728 218.726 206.48C216.784 206.48 214.828 206.375 212.872 206.345C213.057 204.869 213.379 203.413 213.835 201.996H218.35C218.35 202.297 218.35 202.583 218.35 202.884C218.319 203.315 218.319 203.747 218.35 204.178Z" fill="#68301A"/>
<path d="M233.173 206.556H228.508C228.508 206.48 228.508 206.375 228.508 206.285H228.387C228.387 205.713 228.598 204.87 228.809 203.832C229.019 202.794 229.079 202.403 229.17 201.996H232.902C233.166 202.707 233.328 203.452 233.384 204.208C233.423 204.997 233.352 205.787 233.173 206.556Z" fill="#68301A"/>
<path d="M262.475 179.817C262.475 180.344 261.888 180.75 261.15 180.75C260.413 180.75 259.811 180.344 259.811 179.817C259.811 179.291 260.413 178.884 261.15 178.884C261.888 178.884 262.475 179.306 262.475 179.817Z" fill="#545454"/>
<path d="M154.209 178.945C154.209 177.44 154.209 175.935 154.209 174.43C154.531 167.731 156.06 161.145 158.724 154.989L159.462 155.305C156.819 161.387 155.304 167.898 154.992 174.521C154.992 176.026 154.992 177.53 154.992 178.93L154.209 178.945Z" fill="#93563B"/>
<path d="M156.151 180.449C156.128 181.219 155.965 181.979 155.669 182.691C155.473 183.187 154.811 184.933 154.269 184.873C153.728 184.813 153.351 182.224 153.442 180.359C153.505 179.09 153.754 177.838 154.179 176.642L154.962 176.807C155.733 177.865 156.15 179.14 156.151 180.449Z" fill="#68301A"/>
<path d="M181.298 184.136C181.284 184.121 181.276 184.103 181.276 184.083C181.276 184.063 181.284 184.044 181.298 184.03C182.081 181.83 182.587 179.54 182.803 177.214C183.301 170.798 181.718 164.392 178.288 158.946C178.277 158.931 178.271 158.913 178.271 158.894C178.271 158.875 178.277 158.856 178.288 158.841C178.288 158.841 178.363 158.841 178.393 158.841C181.831 164.317 183.414 170.753 182.908 177.199C182.698 179.54 182.192 181.846 181.403 184.06C181.404 184.073 181.402 184.086 181.397 184.098C181.391 184.11 181.383 184.12 181.372 184.128C181.361 184.136 181.349 184.14 181.336 184.142C181.323 184.143 181.31 184.141 181.298 184.136Z" fill="#545454"/>
<path d="M222.985 188.966L221.164 186.107L216.137 178.117C216.126 178.102 216.12 178.083 216.12 178.064C216.12 178.045 216.126 178.027 216.137 178.012H216.242L221.269 186.002L223.075 188.876V188.981L222.985 188.966Z" fill="#545454"/>
<path d="M232.225 180.54L230.118 176.026C230.118 176.026 230.118 176.026 230.118 175.936C230.134 175.926 230.152 175.922 230.171 175.922C230.189 175.922 230.207 175.926 230.224 175.936L232.345 180.45V180.54H232.225Z" fill="#545454"/>
<path d="M165.406 175.032C165.395 175.038 165.382 175.042 165.368 175.042C165.355 175.042 165.342 175.038 165.331 175.032L163.675 171.676V171.586C163.675 171.586 163.766 171.586 163.781 171.586L165.436 174.896C165.436 174.896 165.436 174.971 165.436 174.986L165.406 175.032Z" fill="#545454"/>
<path d="M177.596 193.405L176.392 192.653C176.392 192.653 176.392 192.653 176.392 192.547H176.497L177.671 193.284C177.681 193.301 177.685 193.319 177.685 193.337C177.685 193.356 177.681 193.374 177.671 193.39C177.671 193.39 177.626 193.405 177.596 193.405Z" fill="#545454"/>
<path d="M179.597 197.708L178.725 197.377C178.725 197.377 178.725 197.377 178.725 197.287C178.739 197.273 178.758 197.265 178.777 197.265C178.797 197.265 178.816 197.273 178.83 197.287L179.703 197.618V197.708C179.703 197.708 179.628 197.708 179.597 197.708Z" fill="#545454"/>
<path d="M158.167 193.676L157.264 193.029C157.253 193.013 157.247 192.995 157.247 192.976C157.247 192.957 157.253 192.939 157.264 192.923H157.369L158.227 193.555C158.227 193.555 158.227 193.555 158.227 193.661L158.167 193.676Z" fill="#545454"/>
<path d="M218.034 195.722L217.131 195.27C217.12 195.276 217.107 195.278 217.094 195.278C217.081 195.277 217.069 195.273 217.058 195.266C217.047 195.259 217.039 195.25 217.032 195.239C217.026 195.228 217.023 195.215 217.023 195.202C217.023 195.19 217.026 195.177 217.032 195.166C217.039 195.155 217.047 195.145 217.058 195.139C217.069 195.132 217.081 195.128 217.094 195.127C217.107 195.127 217.12 195.129 217.131 195.135L218.004 195.571C218.013 195.587 218.018 195.605 218.018 195.624C218.018 195.642 218.013 195.66 218.004 195.676C218.019 195.687 218.03 195.703 218.034 195.722Z" fill="#545454"/>
<path d="M246.221 179.787V179.712L246.086 177.56H246.161L246.297 179.727L246.221 179.802V179.787Z" fill="#545454"/>
<path d="M243.874 178.704C243.799 178.704 243.784 178.704 243.799 178.613L244.446 176.507C244.446 176.507 244.446 176.507 244.536 176.507C244.544 176.52 244.548 176.536 244.548 176.552C244.548 176.568 244.544 176.583 244.536 176.597L243.874 178.704Z" fill="#545454"/>
<path d="M183.917 191.237C183.917 192.983 183.48 194.397 182.953 194.397C182.427 194.397 181.99 192.983 181.99 191.237C181.99 189.492 182.412 188.093 182.953 188.093C183.495 188.093 183.917 189.477 183.917 191.237Z" fill="#FF9580"/>
<path d="M188.447 190.441C189.154 191.945 189.35 193.45 188.868 193.706C188.386 193.962 187.363 192.818 186.686 191.238C186.009 189.658 185.783 188.229 186.264 187.973C186.746 187.717 187.754 188.861 188.447 190.441Z" fill="#FF9580"/>
<path d="M256.576 170.563C256.576 170.186 256.801 169.404 258.908 168.351C262.776 166.425 267.291 166.5 267.396 167.057C267.501 167.613 265.59 167.418 262.881 169.103C260.172 170.788 259.014 172.729 257.764 172.338C257.408 172.2 257.103 171.955 256.891 171.637C256.678 171.32 256.568 170.945 256.576 170.563Z" fill="#68301A"/>
<g opacity="0.36">
<path d="M135.902 112.162V100.069C135.916 98.9305 136.378 97.8437 137.188 97.0438C137.998 96.2439 139.091 95.7954 140.229 95.7955H360.936C361.502 95.7885 362.063 95.8938 362.588 96.1053C363.112 96.3169 363.59 96.6306 363.992 97.0281C364.395 97.4256 364.714 97.899 364.932 98.421C365.15 98.9429 365.263 99.503 365.263 100.069V112.162H135.902Z" fill="#E09500"/>
</g>
<path d="M146.265 104.769C146.265 105.171 146.145 105.564 145.922 105.898C145.698 106.232 145.381 106.492 145.009 106.645C144.638 106.798 144.229 106.838 143.835 106.759C143.441 106.68 143.079 106.485 142.796 106.2C142.512 105.915 142.32 105.553 142.243 105.158C142.166 104.764 142.207 104.355 142.363 103.985C142.518 103.614 142.78 103.298 143.115 103.076C143.45 102.854 143.844 102.737 144.245 102.739C144.512 102.739 144.775 102.792 145.021 102.894C145.266 102.996 145.489 103.146 145.677 103.334C145.865 103.523 146.013 103.747 146.114 103.993C146.215 104.239 146.266 104.503 146.265 104.769Z" fill="#E09500"/>
<g opacity="0.36">
<path d="M153.048 104.769C153.048 105.171 152.929 105.564 152.705 105.898C152.482 106.232 152.164 106.492 151.793 106.645C151.421 106.798 151.013 106.838 150.619 106.759C150.225 106.68 149.863 106.485 149.579 106.2C149.296 105.915 149.104 105.553 149.026 105.158C148.949 104.764 148.991 104.355 149.146 103.985C149.302 103.614 149.563 103.298 149.899 103.076C150.234 102.854 150.627 102.737 151.029 102.739C151.295 102.739 151.559 102.792 151.804 102.894C152.05 102.996 152.273 103.146 152.461 103.334C152.648 103.523 152.797 103.747 152.898 103.993C152.998 104.239 153.05 104.503 153.048 104.769Z" fill="#E09500"/>
</g>
<path d="M159.554 104.769C159.554 105.17 159.435 105.563 159.212 105.896C158.989 106.23 158.672 106.49 158.301 106.644C157.93 106.798 157.522 106.838 157.128 106.76C156.735 106.681 156.373 106.488 156.089 106.204C155.805 105.92 155.612 105.558 155.534 105.165C155.455 104.771 155.496 104.363 155.649 103.992C155.803 103.621 156.063 103.304 156.397 103.081C156.73 102.858 157.123 102.739 157.524 102.739C157.791 102.738 158.056 102.789 158.303 102.891C158.55 102.992 158.774 103.142 158.963 103.33C159.152 103.519 159.301 103.743 159.402 103.99C159.504 104.237 159.556 104.502 159.554 104.769Z" fill="white"/>
<g opacity="0.2">
<path d="M274.972 129.82H151.307C149.767 129.82 148.519 131.068 148.519 132.608V218.114C148.519 219.653 149.767 220.902 151.307 220.902H274.972C276.512 220.902 277.76 219.653 277.76 218.114V132.608C277.76 131.068 276.512 129.82 274.972 129.82Z" fill="#E09500"/>
</g>
<path d="M311.534 132.331H287.184C286.869 132.331 286.567 132.217 286.344 132.016C286.121 131.814 285.996 131.54 285.996 131.254C286.001 130.971 286.128 130.702 286.351 130.504C286.573 130.305 286.872 130.194 287.184 130.194H311.534C311.687 130.194 311.839 130.222 311.981 130.275C312.123 130.328 312.252 130.406 312.361 130.505C312.469 130.603 312.555 130.72 312.614 130.849C312.673 130.977 312.703 131.115 312.703 131.254C312.703 131.537 312.581 131.808 312.362 132.01C312.143 132.211 311.846 132.326 311.534 132.331Z" fill="white"/>
<path d="M320.08 138.74H287.165C286.858 138.74 286.564 138.629 286.345 138.431C286.126 138.233 286.001 137.963 285.996 137.681C285.996 137.395 286.119 137.121 286.338 136.919C286.558 136.717 286.855 136.604 287.165 136.604H320.08C320.39 136.604 320.688 136.717 320.907 136.919C321.126 137.121 321.249 137.395 321.249 137.681C321.245 137.963 321.119 138.233 320.901 138.431C320.682 138.629 320.387 138.74 320.08 138.74Z" fill="#545454"/>
<path d="M320.08 145.15H287.165C286.855 145.15 286.558 144.98 286.338 144.677C286.119 144.374 285.996 143.963 285.996 143.535C286.001 143.111 286.126 142.707 286.345 142.409C286.564 142.112 286.858 141.945 287.165 141.945H320.08C320.387 141.945 320.682 142.112 320.901 142.409C321.119 142.707 321.245 143.111 321.249 143.535C321.249 143.963 321.126 144.374 320.907 144.677C320.688 144.98 320.39 145.15 320.08 145.15Z" fill="#545454"/>
<path d="M320.08 150.491H287.165C286.858 150.491 286.564 150.38 286.345 150.182C286.126 149.984 286.001 149.714 285.996 149.432C285.996 149.146 286.119 148.872 286.338 148.67C286.558 148.468 286.855 148.355 287.165 148.355H320.08C320.39 148.355 320.688 148.468 320.907 148.67C321.126 148.872 321.249 149.146 321.249 149.432C321.245 149.714 321.119 149.984 320.901 150.182C320.682 150.38 320.387 150.491 320.08 150.491Z" fill="#545454"/>
<path d="M302.98 155.833H287.173C286.861 155.833 286.562 155.72 286.341 155.52C286.12 155.32 285.996 155.048 285.996 154.765C285.996 154.481 286.12 154.21 286.341 154.009C286.562 153.809 286.861 153.696 287.173 153.696H302.98C303.292 153.696 303.591 153.809 303.812 154.009C304.033 154.21 304.157 154.481 304.157 154.765C304.157 155.048 304.033 155.32 303.812 155.52C303.591 155.72 303.292 155.833 302.98 155.833Z" fill="#545454"/>
<path d="M263.979 192.753H250.187C250.009 192.753 249.837 192.682 249.711 192.556C249.585 192.429 249.514 192.258 249.514 192.08C249.517 191.903 249.589 191.735 249.715 191.611C249.841 191.487 250.011 191.417 250.187 191.417H263.979C264.154 191.417 264.323 191.487 264.447 191.611C264.571 191.736 264.641 191.904 264.641 192.08C264.641 192.256 264.572 192.426 264.448 192.552C264.324 192.678 264.155 192.75 263.979 192.753Z" fill="white"/>
<path d="M269.139 196.545H250.187C250.011 196.545 249.841 196.476 249.715 196.352C249.589 196.228 249.517 196.059 249.514 195.883C249.514 195.704 249.585 195.533 249.711 195.407C249.837 195.281 250.009 195.21 250.187 195.21H269.139C269.317 195.21 269.488 195.281 269.614 195.407C269.741 195.533 269.812 195.704 269.812 195.883C269.809 196.059 269.737 196.228 269.611 196.352C269.485 196.476 269.315 196.545 269.139 196.545Z" fill="#545454"/>
<path d="M269.139 199.771H250.187C250.009 199.771 249.837 199.7 249.711 199.574C249.585 199.448 249.514 199.277 249.514 199.098C249.517 198.922 249.589 198.753 249.715 198.629C249.841 198.505 250.011 198.436 250.187 198.436H269.139C269.315 198.436 269.485 198.505 269.611 198.629C269.737 198.753 269.809 198.922 269.812 199.098C269.812 199.277 269.741 199.448 269.614 199.574C269.488 199.7 269.317 199.771 269.139 199.771Z" fill="#545454"/>
<path d="M269.139 202.987H250.187C250.011 202.987 249.841 202.918 249.715 202.794C249.589 202.67 249.517 202.501 249.514 202.325C249.514 202.146 249.585 201.975 249.711 201.849C249.837 201.723 250.009 201.652 250.187 201.652H269.139C269.317 201.652 269.488 201.723 269.614 201.849C269.741 201.975 269.812 202.146 269.812 202.325C269.809 202.501 269.737 202.67 269.611 202.794C269.485 202.918 269.315 202.987 269.139 202.987Z" fill="#545454"/>
<path d="M259.225 204.867H250.187C249.815 204.867 249.514 205.166 249.514 205.535C249.514 205.903 249.815 206.202 250.187 206.202H259.225C259.597 206.202 259.898 205.903 259.898 205.535C259.898 205.166 259.597 204.867 259.225 204.867Z" fill="#545454"/>
<path d="M196.89 196.321H183.099C182.92 196.321 182.749 196.25 182.623 196.124C182.497 195.997 182.426 195.826 182.426 195.648C182.429 195.471 182.501 195.303 182.627 195.179C182.753 195.055 182.922 194.985 183.099 194.985H196.89C196.977 194.985 197.063 195.002 197.144 195.036C197.224 195.069 197.297 195.118 197.359 195.179C197.42 195.241 197.469 195.314 197.502 195.394C197.536 195.475 197.553 195.561 197.553 195.648C197.553 195.824 197.483 195.994 197.359 196.12C197.235 196.246 197.067 196.318 196.89 196.321Z" fill="white"/>
<path d="M202.05 200.113H183.099C182.922 200.113 182.753 200.044 182.627 199.92C182.501 199.796 182.429 199.628 182.426 199.451C182.426 199.273 182.497 199.101 182.623 198.975C182.749 198.849 182.92 198.778 183.099 198.778H202.05C202.229 198.778 202.4 198.849 202.526 198.975C202.652 199.101 202.723 199.273 202.723 199.451C202.72 199.628 202.648 199.796 202.522 199.92C202.396 200.044 202.227 200.113 202.05 200.113Z" fill="#545454"/>
<path d="M202.05 203.34H183.099C182.92 203.34 182.749 203.269 182.623 203.143C182.497 203.016 182.426 202.845 182.426 202.667C182.429 202.49 182.501 202.322 182.627 202.198C182.753 202.074 182.922 202.004 183.099 202.004H202.05C202.227 202.004 202.396 202.074 202.522 202.198C202.648 202.322 202.72 202.49 202.723 202.667C202.723 202.755 202.706 202.842 202.672 202.924C202.638 203.006 202.589 203.08 202.526 203.143C202.464 203.205 202.389 203.255 202.308 203.288C202.226 203.322 202.139 203.34 202.05 203.34Z" fill="#545454"/>
<path d="M202.05 206.555H183.099C182.922 206.555 182.753 206.485 182.627 206.362C182.501 206.238 182.429 206.069 182.426 205.893C182.426 205.714 182.497 205.543 182.623 205.417C182.749 205.29 182.92 205.22 183.099 205.22H202.05C202.229 205.22 202.4 205.29 202.526 205.417C202.652 205.543 202.723 205.714 202.723 205.893C202.72 206.069 202.648 206.238 202.522 206.362C202.396 206.485 202.227 206.555 202.05 206.555Z" fill="#545454"/>
<path d="M192.136 209.781H183.099C182.92 209.781 182.749 209.71 182.623 209.584C182.497 209.458 182.426 209.287 182.426 209.108C182.426 208.93 182.497 208.759 182.623 208.632C182.749 208.506 182.92 208.435 183.099 208.435H192.136C192.315 208.435 192.486 208.506 192.612 208.632C192.739 208.759 192.809 208.93 192.809 209.108C192.809 209.287 192.739 209.458 192.612 209.584C192.486 209.71 192.315 209.781 192.136 209.781Z" fill="#545454"/>
<mask id="mask0_156_9578" style="mask-type:luminance" maskUnits="userSpaceOnUse" x="137" y="96" width="230" height="142">
<path d="M362.528 96.009H141.831C139.442 96.009 137.505 97.9461 137.505 100.336V233.657C137.505 236.047 139.442 237.984 141.831 237.984H362.528C364.917 237.984 366.854 236.047 366.854 233.657V100.336C366.854 97.9461 364.917 96.009 362.528 96.009Z" fill="white"/>
</mask>
<g mask="url(#mask0_156_9578)">
<path d="M335.351 223.455L294.382 223.156C294.382 223.156 285.836 272.884 285.43 290.308L334.261 291.526C334.261 291.526 337.167 269.915 337.519 263.857C338.064 254.168 335.351 223.455 335.351 223.455Z" fill="#545454"/>
<path d="M333.802 171.953C336.302 178.939 343.481 210.411 341.836 239.255L290.184 238.026C290.184 238.026 293.442 208.007 300.397 188.298C303.484 179.527 312.938 171.291 314.712 169.282L331.441 170.286C331.954 170.304 332.451 170.472 332.87 170.768C333.289 171.064 333.613 171.476 333.802 171.953Z" fill="#EBA23E"/>
<path d="M358.725 208.2C358.244 194.814 338.897 166.868 330.127 170.906C320.01 175.564 339.432 204.354 342.946 211.501C343.341 212.313 333.823 241.68 333.823 241.68C334.646 246.487 343.192 247.395 343.192 247.395C343.192 247.395 359.408 227.675 358.725 208.2Z" fill="#EBA23E"/>
<path d="M341.643 209.119C341.586 209.118 341.53 209.101 341.481 209.071C341.432 209.041 341.392 208.998 341.365 208.948L333.748 193.49C333.73 193.453 333.72 193.412 333.718 193.371C333.716 193.33 333.722 193.289 333.736 193.25C333.749 193.211 333.771 193.175 333.799 193.145C333.827 193.115 333.86 193.09 333.898 193.073C333.934 193.055 333.972 193.044 334.012 193.041C334.052 193.038 334.092 193.044 334.13 193.057C334.168 193.07 334.203 193.09 334.233 193.117C334.263 193.143 334.287 193.176 334.304 193.212L341.921 208.723C341.939 208.76 341.95 208.8 341.953 208.84C341.956 208.881 341.951 208.922 341.938 208.961C341.925 208.999 341.904 209.035 341.878 209.066C341.851 209.097 341.818 209.122 341.782 209.14C341.734 209.144 341.687 209.137 341.643 209.119Z" fill="#545454"/>
<path d="M334.197 240.771H334.101C334.063 240.759 334.027 240.74 333.997 240.714C333.966 240.688 333.941 240.656 333.923 240.62C333.905 240.584 333.895 240.545 333.892 240.505C333.89 240.465 333.895 240.425 333.909 240.387L341.878 215.389C341.89 215.349 341.91 215.313 341.937 215.281C341.963 215.249 341.996 215.223 342.033 215.204C342.07 215.185 342.11 215.174 342.151 215.171C342.192 215.168 342.234 215.173 342.273 215.186C342.311 215.198 342.347 215.218 342.377 215.244C342.408 215.27 342.433 215.302 342.451 215.338C342.469 215.374 342.479 215.413 342.482 215.453C342.484 215.493 342.479 215.533 342.465 215.571L334.496 240.579C334.471 240.637 334.429 240.686 334.376 240.721C334.322 240.755 334.26 240.773 334.197 240.771Z" fill="#545454"/>
<path d="M305.214 136.229C305.214 136.229 302.234 147.981 302.982 155.202C303.697 161.996 308.013 166.376 314.081 166.387L314.647 171.055C319.901 172.298 325.378 172.247 330.608 170.906L330.725 160.148L330.65 137.362L327.744 132.864L307.447 129.873L305.214 136.229Z" fill="#FF9580"/>
<path d="M322.916 164.283C320.19 166.157 317.37 167.89 314.466 169.475C314.466 169.475 314.017 165.714 314.06 166.184C314.06 166.387 315.662 166.483 317.649 165.907C319.28 165.394 320.869 164.759 322.403 164.005L322.916 164.283Z" fill="#545454"/>
<path d="M314.808 166.654C312.328 166.657 309.904 165.913 307.853 164.518C307.819 164.496 307.789 164.468 307.766 164.434C307.742 164.4 307.726 164.362 307.718 164.322C307.71 164.282 307.71 164.241 307.719 164.201C307.728 164.161 307.744 164.124 307.768 164.09C307.815 164.025 307.885 163.98 307.965 163.964C308.044 163.948 308.126 163.963 308.195 164.005C313.472 167.519 318.878 165.874 322.414 163.866C322.486 163.825 322.572 163.814 322.652 163.836C322.732 163.858 322.8 163.911 322.841 163.983C322.882 164.056 322.893 164.141 322.871 164.221C322.849 164.302 322.796 164.37 322.724 164.411C320.317 165.815 317.594 166.587 314.808 166.654Z" fill="#545454"/>
<path d="M304.114 129.115C303.164 130.068 302.489 131.26 302.16 132.565C301.831 133.87 301.86 135.239 302.245 136.529C302.647 137.445 303.285 138.238 304.094 138.827C304.903 139.416 305.853 139.781 306.849 139.883C308.92 140.032 310.994 139.623 312.853 138.697C313.45 139.585 314.241 140.325 315.166 140.862C316.092 141.399 317.127 141.718 318.194 141.795C320.833 142.137 322.371 141.955 323.899 140.289C324.01 141.43 324.485 142.506 325.255 143.356C326.024 144.207 327.047 144.787 328.172 145.011C328.172 145.011 327.232 158.129 329.945 162.103C330.191 162.456 337.647 165.981 338.117 158.898C338.117 158.898 344.794 159.678 344.997 152.638C344.997 152.638 351.482 147.66 347.978 140.129C347.978 140.129 350.948 132.758 345.008 130.151C345.008 130.151 346.653 120.344 335.393 119.821C334.105 118.21 332.334 117.057 330.34 116.53C328.988 116.143 327.564 116.07 326.179 116.318C324.794 116.566 323.484 117.129 322.35 117.962C321.473 117.378 320.486 116.982 319.449 116.798C318.412 116.614 317.348 116.647 316.325 116.894C315.402 116.981 314.524 117.328 313.792 117.896C313.06 118.463 312.504 119.227 312.19 120.098C310.929 119.932 309.646 120.127 308.491 120.66C307.335 121.193 306.355 122.043 305.663 123.111C304.517 124.895 303.974 126.999 304.114 129.115Z" fill="#545454"/>
<path d="M327.712 148.739C329.721 147.981 333.524 146.603 335.297 148.194C335.646 148.524 335.925 148.921 336.115 149.362C336.305 149.803 336.403 150.278 336.403 150.758C336.403 151.238 336.305 151.713 336.115 152.154C335.925 152.595 335.646 152.993 335.297 153.322C332.947 155.694 328.578 156.527 327.285 156.912" fill="#FF9580"/>
<path d="M333.919 150.758C333.877 150.768 333.833 150.768 333.791 150.758C333.41 150.566 332.995 150.452 332.569 150.423C332.143 150.393 331.716 150.449 331.313 150.587C331.237 150.621 331.152 150.624 331.075 150.595C330.998 150.566 330.935 150.507 330.901 150.432C330.867 150.357 330.864 150.272 330.893 150.195C330.923 150.117 330.981 150.055 331.056 150.021C331.541 149.847 332.055 149.773 332.569 149.802C333.083 149.832 333.586 149.964 334.047 150.192C334.121 150.229 334.178 150.293 334.206 150.37C334.233 150.448 334.23 150.533 334.197 150.609C334.168 150.656 334.127 150.695 334.078 150.721C334.03 150.748 333.975 150.76 333.919 150.758Z" fill="#545454"/>
<path d="M331.911 152.574C331.845 152.574 331.781 152.552 331.729 152.51C331.696 152.486 331.668 152.455 331.647 152.42C331.625 152.385 331.611 152.345 331.605 152.305C331.599 152.264 331.602 152.222 331.612 152.182C331.622 152.142 331.64 152.105 331.665 152.072C332.041 151.529 332.353 150.945 332.595 150.331C332.61 150.293 332.632 150.258 332.661 150.229C332.69 150.2 332.725 150.178 332.763 150.163C332.801 150.148 332.842 150.141 332.883 150.142C332.924 150.143 332.964 150.153 333.001 150.171C333.038 150.184 333.073 150.206 333.101 150.234C333.13 150.262 333.153 150.296 333.168 150.333C333.183 150.37 333.19 150.41 333.189 150.45C333.188 150.49 333.178 150.53 333.161 150.566C332.906 151.232 332.569 151.864 332.157 152.446C332.129 152.486 332.092 152.518 332.05 152.54C332.007 152.563 331.959 152.574 331.911 152.574Z" fill="#545454"/>
<path d="M322.852 172.412C319.816 172.417 316.797 171.978 313.889 171.109C313.85 171.096 313.815 171.075 313.784 171.048C313.753 171.021 313.728 170.988 313.71 170.951C313.693 170.914 313.682 170.874 313.68 170.834C313.677 170.793 313.683 170.752 313.697 170.713C313.71 170.675 313.73 170.639 313.758 170.609C313.785 170.578 313.817 170.553 313.854 170.535C313.891 170.517 313.931 170.507 313.972 170.504C314.012 170.502 314.053 170.508 314.092 170.521C314.167 170.521 322.499 173.32 330.533 170.617C330.572 170.596 330.616 170.583 330.66 170.58C330.705 170.577 330.75 170.584 330.792 170.6C330.834 170.616 330.872 170.641 330.903 170.673C330.935 170.705 330.958 170.744 330.973 170.786C330.988 170.829 330.994 170.874 330.99 170.919C330.985 170.963 330.971 171.006 330.949 171.045C330.926 171.084 330.895 171.117 330.859 171.143C330.822 171.169 330.78 171.186 330.736 171.194C328.19 172.022 325.528 172.433 322.852 172.412Z" fill="#545454"/>
<path d="M258.691 191.182C258.691 191.182 257.056 189.473 255.486 188.084C253.595 186.385 251.031 183.811 249.343 182.486C248.489 181.813 246.94 180.082 246.139 180.884C245.177 181.877 248.991 184.943 248.991 184.943C248.158 184.633 247.688 184.281 247.068 185.007C246.448 185.734 247.559 186.919 247.559 186.919C247.309 186.746 247 186.676 246.699 186.726C246.398 186.776 246.128 186.941 245.946 187.186C245.199 188.105 246.555 189.195 246.822 189.611C246.494 189.588 246.168 189.683 245.904 189.878C245.775 190.059 245.706 190.276 245.706 190.498C245.706 190.72 245.775 190.937 245.904 191.118C246.827 192.199 247.907 193.135 249.108 193.895C251.053 195.284 253.2 196.502 253.2 196.502L258.691 191.182Z" fill="#FF9580"/>
<path d="M253.574 183.447C254.642 183.041 255.304 184.516 255.924 186.31C256.223 187.176 257.153 189.099 257.056 189.74C256.928 190.669 253.948 187.731 253.948 187.731C253.948 187.731 251.341 184.249 253.574 183.447Z" fill="#FF9580"/>
<path d="M252.837 190.787C252.791 190.786 252.747 190.775 252.706 190.755C252.665 190.735 252.63 190.705 252.602 190.669C252.203 190.106 252.017 189.42 252.078 188.733C252.139 188.046 252.442 187.403 252.933 186.919C252.697 186.41 252.507 185.881 252.367 185.338C252.359 185.298 252.359 185.257 252.367 185.217C252.376 185.177 252.392 185.139 252.414 185.106C252.437 185.072 252.466 185.043 252.5 185.021C252.534 184.998 252.573 184.983 252.613 184.975C252.694 184.965 252.776 184.986 252.844 185.033C252.911 185.081 252.958 185.151 252.976 185.231C253.136 185.788 253.339 186.331 253.585 186.855C253.608 186.912 253.614 186.975 253.603 187.036C253.592 187.096 253.563 187.152 253.521 187.197C253.456 187.261 251.929 188.821 253.083 190.284C253.108 190.317 253.127 190.353 253.138 190.393C253.149 190.432 253.152 190.474 253.148 190.515C253.143 190.555 253.13 190.595 253.109 190.63C253.089 190.666 253.062 190.697 253.029 190.722C252.974 190.766 252.906 190.788 252.837 190.787Z" fill="#545454"/>
<path d="M250.593 188.661C249.777 188.547 249.002 188.232 248.339 187.742C248.306 187.718 248.278 187.688 248.257 187.654C248.236 187.619 248.221 187.581 248.215 187.54C248.208 187.5 248.21 187.459 248.219 187.42C248.229 187.38 248.246 187.343 248.27 187.31C248.294 187.277 248.324 187.249 248.358 187.227C248.393 187.206 248.432 187.192 248.472 187.185C248.512 187.179 248.553 187.18 248.592 187.19C248.632 187.199 248.669 187.216 248.702 187.24C249.283 187.697 249.985 187.972 250.721 188.031C250.771 188.027 250.819 188.011 250.862 187.985C250.905 187.959 250.941 187.924 250.967 187.881C250.984 187.844 250.993 187.804 250.993 187.764C250.993 187.723 250.984 187.683 250.967 187.646C250.828 186.952 249.354 185.766 248.457 185.189C248.389 185.143 248.342 185.073 248.326 184.993C248.31 184.913 248.326 184.83 248.371 184.762C248.417 184.694 248.487 184.647 248.567 184.631C248.647 184.615 248.73 184.631 248.799 184.676C249.055 184.837 251.341 186.354 251.565 187.529C251.594 187.649 251.598 187.773 251.576 187.895C251.554 188.016 251.506 188.132 251.437 188.234C251.362 188.344 251.264 188.437 251.149 188.507C251.035 188.577 250.908 188.622 250.775 188.64C250.715 188.654 250.654 188.661 250.593 188.661Z" fill="#545454"/>
<path d="M249.418 190.562C248.61 190.479 247.832 190.212 247.143 189.782C247.107 189.761 247.077 189.734 247.052 189.701C247.028 189.668 247.01 189.631 247 189.591C246.99 189.551 246.988 189.51 246.994 189.469C247 189.429 247.014 189.39 247.036 189.355C247.08 189.286 247.149 189.236 247.228 189.217C247.308 189.197 247.392 189.208 247.463 189.248C248.093 189.633 249.514 190.263 249.888 189.772C249.905 189.739 249.914 189.702 249.914 189.665C249.914 189.628 249.905 189.591 249.888 189.558C249.771 188.864 248.232 187.582 247.281 186.93C247.227 186.879 247.193 186.81 247.185 186.736C247.177 186.661 247.197 186.587 247.24 186.526C247.283 186.465 247.346 186.421 247.419 186.403C247.491 186.385 247.567 186.394 247.634 186.428C247.901 186.609 250.305 188.265 250.497 189.462C250.52 189.581 250.518 189.703 250.49 189.821C250.463 189.939 250.41 190.049 250.337 190.145C250.226 190.281 250.086 190.389 249.926 190.462C249.767 190.534 249.593 190.568 249.418 190.562Z" fill="#545454"/>
<path d="M248.97 192.56C248.173 192.445 247.42 192.129 246.78 191.641C246.74 191.621 246.705 191.593 246.678 191.558C246.65 191.523 246.631 191.483 246.62 191.44C246.609 191.397 246.608 191.352 246.616 191.308C246.624 191.265 246.641 191.223 246.667 191.187C246.692 191.151 246.725 191.12 246.764 191.098C246.802 191.076 246.845 191.062 246.889 191.057C246.933 191.052 246.977 191.057 247.019 191.072C247.061 191.086 247.1 191.109 247.132 191.139C247.933 191.695 248.98 192.133 249.205 191.866C249.218 191.839 249.225 191.81 249.225 191.78C249.225 191.75 249.218 191.721 249.205 191.695C249.098 191.128 247.602 190.124 246.587 189.558C246.551 189.54 246.518 189.515 246.492 189.484C246.465 189.453 246.444 189.417 246.431 189.379C246.419 189.34 246.413 189.299 246.416 189.258C246.419 189.218 246.43 189.178 246.449 189.141C246.467 189.105 246.492 189.072 246.523 189.046C246.554 189.019 246.59 188.999 246.629 188.987C246.668 188.975 246.709 188.971 246.75 188.976C246.79 188.98 246.83 188.993 246.865 189.013C247.325 189.248 249.6 190.477 249.814 191.534C249.839 191.655 249.835 191.779 249.804 191.898C249.772 192.016 249.713 192.126 249.632 192.218C249.554 192.32 249.454 192.404 249.339 192.463C249.225 192.522 249.098 192.555 248.97 192.56Z" fill="#545454"/>
<path d="M315.214 169.325C295.846 167.669 277.984 200.102 277.984 200.102L257.142 188.928L250.593 196.01C250.593 196.01 264.791 218.444 284.308 214.695C292.107 213.188 300.92 199.237 300.92 199.237" fill="#EBA23E"/>
<path d="M293.73 215.389H293.666C293.626 215.38 293.588 215.363 293.554 215.34C293.521 215.316 293.492 215.286 293.47 215.251C293.448 215.216 293.434 215.178 293.427 215.137C293.42 215.097 293.422 215.055 293.431 215.015C295.076 207.772 297.811 193.724 297.832 193.585C297.851 193.509 297.898 193.443 297.964 193.4C298.03 193.357 298.11 193.34 298.187 193.354C298.264 193.368 298.334 193.41 298.381 193.473C298.428 193.536 298.45 193.614 298.441 193.692C298.441 193.842 295.675 207.9 294.029 215.154C294.013 215.221 293.974 215.28 293.92 215.323C293.866 215.365 293.799 215.389 293.73 215.389Z" fill="#545454"/>
</g>
<path d="M87.2953 135.995C87.2953 135.995 92.9678 158.429 91.5684 172.114C90.2117 185.051 81.9538 193.394 70.4271 193.404L69.3588 202.303C69.3588 202.303 53.9542 206.416 38.9875 202.015L38.7632 181.525L38.9021 138.153L44.4358 129.607L83.0221 123.913L87.2953 135.995Z" fill="#FF9580"/>
<path d="M53.5376 189.409C55.0759 191.001 69.0597 199.023 69.6366 199.291C69.6366 199.291 70.4806 192.133 70.4058 193.03C70.4058 193.404 67.3612 193.586 63.5795 192.486C60.4682 191.521 57.4389 190.31 54.5204 188.864L53.5376 189.409Z" fill="#545454"/>
<path d="M68.9745 194.12C63.6338 193.975 58.4176 192.476 53.8156 189.762C53.6552 189.647 53.5429 189.477 53.5001 189.284C53.4572 189.092 53.487 188.89 53.5836 188.718C53.6802 188.546 53.8368 188.416 54.0235 188.352C54.2102 188.288 54.4139 188.296 54.5954 188.373C61.347 192.165 71.485 195.285 81.4627 188.651C81.6379 188.558 81.8414 188.533 82.0337 188.582C82.226 188.63 82.3935 188.748 82.5038 188.913C82.6141 189.078 82.6594 189.277 82.6309 189.474C82.6024 189.67 82.5021 189.849 82.3494 189.975C78.4084 192.669 73.7479 194.113 68.9745 194.12Z" fill="#545454"/>
<path d="M42.5879 159.807C38.7635 158.375 31.5312 155.854 28.1448 158.739C27.4763 159.363 26.9422 160.117 26.575 160.955C26.2079 161.793 26.0154 162.697 26.0094 163.612C26.0034 164.527 26.184 165.433 26.5401 166.276C26.8962 167.119 27.4204 167.88 28.0807 168.513C32.5461 173.032 40.9001 174.688 43.3464 175.35" fill="#FF9580"/>
<path d="M30.7729 163.77C30.619 163.772 30.4678 163.729 30.3385 163.645C30.2093 163.561 30.1076 163.441 30.0465 163.3C30.0002 163.204 29.9738 163.1 29.9687 162.994C29.9636 162.888 29.98 162.782 30.0169 162.682C30.0538 162.582 30.1104 162.491 30.1835 162.413C30.2565 162.336 30.3443 162.274 30.4418 162.232C31.3449 161.785 32.329 161.525 33.335 161.468C34.341 161.412 35.3482 161.558 36.2959 161.901C36.4655 162.001 36.5921 162.16 36.6517 162.348C36.7114 162.535 36.6998 162.738 36.6192 162.918C36.5386 163.098 36.3946 163.242 36.2148 163.322C36.035 163.402 35.8319 163.413 35.6443 163.353C34.9023 163.101 34.117 163 33.3352 163.056C32.5534 163.113 31.791 163.327 31.0934 163.685C30.9932 163.734 30.8843 163.763 30.7729 163.77Z" fill="#545454"/>
<path d="M34.5862 167.317C34.4633 167.317 34.3421 167.288 34.2326 167.232C34.1231 167.177 34.0283 167.096 33.9559 166.997C33.1733 165.867 32.5211 164.652 32.0116 163.375C31.9294 163.181 31.9277 162.962 32.0069 162.767C32.086 162.572 32.2395 162.416 32.4336 162.334C32.6277 162.251 32.8464 162.25 33.0418 162.329C33.2371 162.408 33.393 162.561 33.4752 162.756C33.9352 163.911 34.5229 165.011 35.2271 166.035C35.3409 166.2 35.3877 166.403 35.3579 166.601C35.3282 166.799 35.2241 166.979 35.0669 167.103C34.9384 167.231 34.7672 167.307 34.5862 167.317Z" fill="#545454"/>
<path d="M64.0282 114.287C61.1224 114.352 43.3249 115.11 36.3703 117.311C32.6634 118.486 28.9885 120.334 26.681 123.464C25.0578 125.87 24.0424 128.634 23.7219 131.519C22.6536 139.093 26.5421 159.946 26.5421 159.946C28.859 158.423 31.6217 157.727 34.3833 157.969C36.0683 158.139 37.7391 158.428 39.3829 158.835C39.9064 158.963 40.0239 169.518 40.5046 169.518L46.8502 168.78C47.3095 168.78 46.4977 141.005 46.7647 140.61C48.4582 138.664 50.6063 137.167 53.018 136.252C55.4298 135.337 58.0303 135.032 60.5883 135.365C69.9999 136.433 81.5373 140.001 89.3037 135.076C94.2499 131.935 96.6428 124.96 94.8802 118.646C93.8312 116.195 92.0492 114.128 89.7788 112.73C87.5084 111.332 84.8608 110.67 82.1997 110.837C77.7876 110.965 70.7904 114.17 64.0282 114.287Z" fill="#545454"/>
<path d="M32.9304 173.673C40.4293 173.673 46.5083 167.594 46.5083 160.095C46.5083 152.596 40.4293 146.517 32.9304 146.517C25.4316 146.517 19.3525 152.596 19.3525 160.095C19.3525 167.594 25.4316 173.673 32.9304 173.673Z" fill="#EBA23E"/>
<path d="M39.3829 160.106C39.3829 161.374 39.0069 162.613 38.3026 163.667C37.5983 164.721 36.5973 165.543 35.4261 166.028C34.2548 166.513 32.9661 166.64 31.7227 166.393C30.4793 166.145 29.3372 165.535 28.4408 164.638C27.5444 163.742 26.934 162.6 26.6866 161.356C26.4393 160.113 26.5663 158.824 27.0514 157.653C27.5365 156.482 28.3581 155.481 29.4121 154.777C30.4662 154.072 31.7055 153.696 32.9732 153.696C34.6731 153.696 36.3035 154.372 37.5055 155.574C38.7076 156.776 39.3829 158.406 39.3829 160.106Z" fill="#545454"/>
<path d="M32.9305 169.785C31.0137 169.785 29.14 169.216 27.5463 168.151C25.9527 167.086 24.7108 165.572 23.9777 163.801C23.2447 162.03 23.0534 160.081 23.4282 158.201C23.8029 156.321 24.7268 154.595 26.0829 153.24C27.4391 151.885 29.1665 150.963 31.0468 150.591C32.927 150.218 34.8756 150.412 36.6459 151.147C38.4162 151.882 39.9287 153.125 40.9921 154.72C42.0555 156.315 42.622 158.189 42.6199 160.106C42.6142 162.673 41.5912 165.133 39.775 166.947C37.9588 168.761 35.4976 169.782 32.9305 169.785ZM32.9305 151.731C31.2766 151.731 29.6598 152.221 28.2845 153.14C26.9092 154.058 25.837 155.364 25.2036 156.892C24.5702 158.42 24.4039 160.101 24.7258 161.723C25.0477 163.345 25.8433 164.836 27.0121 166.006C28.1808 167.176 29.6702 167.974 31.2921 168.298C32.914 168.622 34.5955 168.458 36.1241 167.826C37.6528 167.195 38.9599 166.124 39.8803 164.75C40.8007 163.376 41.2931 161.76 41.2952 160.106C41.2952 157.886 40.4143 155.758 38.8459 154.187C37.2775 152.617 35.15 151.733 32.9305 151.731Z" fill="#545454"/>
<path d="M27.1942 149.113C27.0137 141.266 29.2515 133.553 33.6039 127.021C39.0201 118.913 52.7155 111.937 64.2636 114.447C64.2636 114.447 49.4679 117.481 41.0391 128.1C33.7428 137.287 34.8645 148.547 34.8645 148.547L27.1942 149.113Z" fill="#EBA23E"/>
<path d="M3.61719 257.534C3.61719 257.534 6.43745 290.704 7.40959 294.218C8.38173 297.733 9.9521 307.23 20.2824 309.174C34.2235 311.856 88.9409 309.965 88.9409 309.965L82.7021 295.009L30.6768 284.796L28.2945 258.997L3.61719 257.534Z" fill="#FF9580"/>
<path d="M173.624 295.308L176.348 307.818C176.348 307.818 139.086 309.356 114.911 306.803C107.337 306.001 83.9307 270.043 83.9307 270.043L107.155 252.951L120.477 281.057L173.624 295.308Z" fill="#FF9580"/>
<path d="M98.1707 209.033C89.6 203.533 79.7165 200.421 69.5408 200.017C69.5408 200.017 62.0628 204.525 54.2964 203.874C46.53 203.222 39.6502 200.797 39.1481 198.692C39.1481 198.692 17.2911 200.989 7.29194 214.033C-0.891101 224.694 0.55108 264.798 0.55108 264.798L28.8606 263.9L17.4727 307.273H93.043L92.2418 272.404L117.154 257.448C117.154 257.448 105.382 213.777 98.1707 209.033Z" fill="#E09500"/>
<path d="M92.5729 280.876C92.4114 280.876 92.2565 280.811 92.1423 280.697C92.0281 280.583 91.964 280.428 91.964 280.267V261.283C91.9625 261.203 91.9773 261.123 92.0074 261.049C92.0375 260.974 92.0822 260.906 92.1391 260.849C92.1959 260.793 92.2636 260.748 92.3382 260.718C92.4127 260.688 92.4925 260.673 92.5729 260.674C92.7344 260.674 92.8893 260.739 93.0035 260.853C93.1176 260.967 93.1818 261.122 93.1818 261.283V280.267C93.1791 280.427 93.114 280.581 93.0004 280.694C92.8868 280.808 92.7335 280.873 92.5729 280.876Z" fill="#545454"/>
<path d="M53.463 248.207L45.6646 310.168L95.4251 316.439C96.3542 316.573 97.2987 316.334 98.0517 315.773C98.8046 315.212 99.3045 314.376 99.4419 313.447L106.375 258.388C106.424 257.922 106.379 257.45 106.244 257.001C106.108 256.552 105.885 256.135 105.587 255.773C105.288 255.411 104.921 255.112 104.506 254.894C104.092 254.675 103.637 254.541 103.17 254.5L53.463 248.207Z" fill="#EFEDEF"/>
<path d="M53.6449 246.401L45.6328 309.943L92.6372 315.872C93.5862 315.99 94.5432 315.726 95.2982 315.14C96.0532 314.553 96.5446 313.69 96.6647 312.742L103.769 256.358C103.887 255.409 103.623 254.452 103.036 253.697C102.45 252.942 101.587 252.45 100.639 252.33L53.6449 246.401Z" fill="#EBA23E"/>
<g opacity="0.08">
<path d="M92.6372 315.872L45.6328 309.944L48.9338 283.728C48.9338 283.728 59.7235 297.348 71.6562 305.275C83.5889 313.202 92.6372 315.872 92.6372 315.872Z" fill="#545454"/>
</g>
<path d="M86.5692 266.379H86.4731L68.0666 264.018C67.9671 264.007 67.8707 263.977 67.7832 263.928C67.6957 263.88 67.6188 263.814 67.557 263.736C67.4952 263.657 67.4499 263.567 67.4237 263.47C67.3974 263.374 67.3908 263.273 67.4042 263.174C67.4174 263.075 67.4499 262.979 67.5 262.893C67.5501 262.807 67.6168 262.731 67.6962 262.67C67.7756 262.61 67.8662 262.566 67.9627 262.54C68.0593 262.515 68.1599 262.509 68.2588 262.522L86.6547 264.872C86.8402 264.903 87.0076 265.001 87.1246 265.149C87.2416 265.296 87.2997 265.481 87.2878 265.669C87.2758 265.857 87.1946 266.033 87.0598 266.164C86.9251 266.295 86.7464 266.372 86.5585 266.379H86.5692Z" fill="#545454"/>
<path d="M86.2277 270.855H86.1315L67.7357 268.504C67.6372 268.493 67.542 268.461 67.4557 268.412C67.3694 268.363 67.2937 268.298 67.2331 268.219C67.1724 268.14 67.128 268.051 67.1024 267.955C67.0768 267.859 67.0706 267.759 67.0841 267.661C67.0945 267.561 67.1249 267.465 67.1735 267.378C67.222 267.291 67.2878 267.215 67.3666 267.154C67.4455 267.093 67.536 267.049 67.6324 267.024C67.7289 266.999 67.8295 266.994 67.928 267.009L86.3238 269.359C86.5093 269.39 86.6768 269.488 86.7938 269.635C86.9108 269.783 86.9689 269.968 86.9569 270.156C86.945 270.343 86.8637 270.52 86.729 270.651C86.5942 270.782 86.4156 270.858 86.2277 270.865V270.855Z" fill="#545454"/>
<path d="M48.5918 307.732H48.4957C48.2979 307.705 48.1185 307.602 47.9965 307.444C47.8745 307.286 47.8197 307.086 47.844 306.888L55.1724 249.254C55.1843 249.156 55.2156 249.06 55.2646 248.974C55.3136 248.888 55.3793 248.812 55.4579 248.751C55.5364 248.691 55.6262 248.646 55.7221 248.621C55.818 248.595 55.918 248.589 56.0164 248.602C56.2142 248.629 56.3935 248.733 56.5155 248.891C56.6375 249.049 56.6923 249.248 56.668 249.446L49.3503 307.08C49.3244 307.262 49.2332 307.429 49.0936 307.549C48.9541 307.669 48.7758 307.734 48.5918 307.732Z" fill="#545454"/>
<path d="M6.01025 283.311C6.56576 288.652 7.07854 293.064 7.4097 294.218C8.38184 297.743 9.95222 307.23 20.2825 309.174C34.2236 311.855 88.941 309.965 88.941 309.965L82.7022 295.009L30.6769 284.796L28.8288 263.975L6.01025 283.311Z" fill="#FF9580"/>
<path d="M80.0737 294.71C82.0775 294.235 84.1381 294.044 86.195 294.143C91.3441 294.272 97.6363 292.327 101.984 292.007C104.206 291.857 105.04 292.637 105.189 293.374C105.298 293.944 105.231 294.534 104.996 295.064C104.761 295.595 104.37 296.041 103.875 296.344C105.606 296.782 106.813 296.729 107.016 298.652C107.229 300.788 103.993 301.29 103.993 301.29C104.609 301.284 105.202 301.521 105.646 301.948C106.089 302.376 106.347 302.961 106.364 303.576C106.567 305.98 103.031 306.226 102.091 306.621C102.667 306.955 103.103 307.486 103.32 308.117C103.334 308.57 103.205 309.016 102.949 309.39C102.694 309.765 102.326 310.048 101.899 310.2C98.1132 310.847 94.2579 310.984 90.4361 310.606C85.4258 310.136 78.7598 309.815 78.7598 309.815L80.0737 294.71Z" fill="#FF9580"/>
<path d="M94.1645 311.257C92.1173 311.272 90.0707 311.183 88.0326 310.99C87.9512 310.981 87.8724 310.956 87.8007 310.917C87.729 310.877 87.6659 310.824 87.6148 310.76C87.5637 310.696 87.5257 310.622 87.503 310.544C87.4803 310.465 87.4733 310.383 87.4824 310.301C87.4915 310.22 87.5166 310.141 87.5561 310.069C87.5957 309.998 87.649 309.935 87.713 309.884C87.777 309.832 87.8504 309.794 87.929 309.772C88.0077 309.749 88.0901 309.742 88.1714 309.751C92.6984 310.119 97.2487 310.09 101.771 309.666C102.057 309.566 102.306 309.382 102.485 309.138C102.665 308.894 102.766 308.601 102.775 308.298C102.679 307.796 102.016 307.315 101.845 307.23C101.746 307.171 101.664 307.087 101.61 306.985C101.555 306.883 101.529 306.768 101.536 306.653C101.544 306.537 101.585 306.426 101.653 306.332C101.721 306.238 101.813 306.164 101.92 306.119C102.221 305.999 102.532 305.906 102.85 305.841C104.463 305.446 105.905 304.987 105.798 303.705C105.8 303.477 105.755 303.251 105.668 303.04C105.581 302.829 105.452 302.638 105.29 302.478C105.128 302.317 104.935 302.191 104.723 302.106C104.511 302.022 104.285 301.98 104.057 301.985C103.905 301.965 103.766 301.891 103.665 301.776C103.564 301.661 103.508 301.513 103.508 301.36C103.508 301.207 103.564 301.059 103.665 300.944C103.766 300.829 103.905 300.755 104.057 300.735C104.827 300.732 105.568 301.029 106.123 301.564C106.677 302.098 107.002 302.828 107.027 303.598C107.219 305.884 104.89 306.61 103.437 306.984C103.703 307.291 103.89 307.658 103.982 308.053C104.034 308.653 103.883 309.254 103.554 309.759C103.225 310.265 102.736 310.645 102.166 310.841C99.5128 311.178 96.8383 311.317 94.1645 311.257Z" fill="#545454"/>
<path d="M94.7735 288.642C93.3954 286.697 90.682 288.385 87.5413 290.714C86.0564 291.782 82.969 293.502 82.3921 294.667C81.5375 296.376 89.2078 295.35 89.2078 295.35C89.2078 295.35 97.5617 292.573 94.7735 288.642Z" fill="#FF9580"/>
<path d="M104.046 301.963C103.882 301.976 103.719 301.923 103.594 301.816C103.469 301.709 103.392 301.556 103.379 301.392C103.366 301.228 103.419 301.065 103.526 300.94C103.633 300.814 103.786 300.737 103.95 300.724C103.95 300.724 106.6 300.265 106.439 298.769C106.322 297.573 105.83 297.466 104.506 297.177L103.779 297.007C103.659 296.977 103.551 296.912 103.467 296.821C103.384 296.73 103.329 296.616 103.309 296.494C103.293 296.372 103.312 296.249 103.363 296.137C103.414 296.026 103.495 295.931 103.598 295.863C103.986 295.638 104.296 295.299 104.487 294.892C104.677 294.486 104.74 294.031 104.666 293.588C104.484 292.926 103.502 292.595 102.059 292.68C100.017 292.868 97.9875 293.175 95.9809 293.599C95.0408 293.77 94.0794 293.951 93.1286 294.112C92.9856 294.143 92.8359 294.123 92.7062 294.055C92.5765 293.987 92.4751 293.875 92.4201 293.74C92.365 293.604 92.3598 293.453 92.4054 293.314C92.451 293.175 92.5445 293.056 92.6692 292.979C93.6452 292.464 94.3841 291.591 94.731 290.543C94.7675 290.271 94.7484 289.995 94.675 289.731C94.6015 289.466 94.4752 289.219 94.3037 289.005C94.2088 288.856 94.0838 288.729 93.9365 288.631C93.7893 288.534 93.6232 288.468 93.4491 288.439C92.1885 288.225 90.0626 289.657 87.9581 291.216C87.5094 291.548 86.8898 291.932 86.3129 292.285C85.1852 292.949 84.1353 293.737 83.1829 294.635C83.0792 294.755 82.9343 294.831 82.7769 294.849C80.9084 294.885 79.04 294.771 77.1898 294.507C77.026 294.483 76.8782 294.396 76.7783 294.264C76.6783 294.132 76.6343 293.966 76.6557 293.802C76.6647 293.719 76.6904 293.64 76.7313 293.568C76.7721 293.496 76.8273 293.433 76.8932 293.383C76.9592 293.333 77.0347 293.297 77.1151 293.277C77.1955 293.257 77.2791 293.254 77.3607 293.268C79.0354 293.496 80.7235 293.614 82.4137 293.62C83.4016 292.723 84.475 291.925 85.6186 291.238C86.2168 290.853 86.7723 290.49 87.1996 290.17C89.9665 288.118 92.0069 286.901 93.6093 287.157C93.9488 287.21 94.2737 287.332 94.5641 287.516C94.8544 287.7 95.1039 287.941 95.2972 288.225C95.5682 288.574 95.764 288.976 95.8725 289.404C95.981 289.832 95.9997 290.278 95.9275 290.714C95.7998 291.351 95.509 291.944 95.0835 292.434L95.7138 292.317C97.7701 291.884 99.8496 291.57 101.942 291.377C104.965 291.174 105.67 292.595 105.841 293.203C105.968 293.686 105.978 294.191 105.871 294.678C105.763 295.165 105.54 295.619 105.222 296.002C105.88 296.05 106.498 296.341 106.954 296.819C107.41 297.297 107.672 297.927 107.689 298.588C107.903 300.724 105.553 301.675 104.143 301.899L104.046 301.963Z" fill="#545454"/>
<path d="M101.322 307.262C99.7947 307.262 98.3418 307.176 97.1667 307.091C97.0024 307.075 96.8507 306.996 96.7432 306.87C96.6357 306.745 96.5808 306.583 96.5898 306.418C96.6035 306.252 96.6818 306.099 96.8078 305.991C96.9338 305.883 97.0973 305.829 97.2629 305.841C99.0749 305.989 100.894 306.038 102.711 305.991C102.863 306.01 103.002 306.085 103.103 306.2C103.204 306.315 103.259 306.463 103.259 306.615C103.259 306.768 103.204 306.916 103.103 307.031C103.002 307.146 102.863 307.221 102.711 307.24L101.322 307.262Z" fill="#545454"/>
<path d="M97.4019 302.337C97.2502 302.317 97.111 302.243 97.0101 302.128C96.9092 302.013 96.8535 301.865 96.8535 301.712C96.8535 301.559 96.9092 301.411 97.0101 301.296C97.111 301.181 97.2502 301.107 97.4019 301.087C99.3462 301.087 101.013 300.959 102.936 300.82L105.072 300.671C105.238 300.664 105.4 300.722 105.525 300.831C105.65 300.94 105.729 301.093 105.745 301.258C105.754 301.424 105.697 301.586 105.587 301.71C105.477 301.834 105.323 301.909 105.158 301.921L103.021 302.07C101.077 302.209 99.3996 302.326 97.4019 302.337Z" fill="#545454"/>
<path d="M97.4125 297.37C97.3316 297.371 97.2513 297.356 97.1761 297.326C97.101 297.297 97.0326 297.252 96.975 297.195C96.9173 297.139 96.8715 297.071 96.8402 296.996C96.8089 296.922 96.7928 296.842 96.7929 296.761C96.79 296.679 96.8036 296.597 96.8328 296.52C96.862 296.443 96.9062 296.372 96.9629 296.313C97.0196 296.253 97.0876 296.205 97.1629 296.172C97.2383 296.139 97.3195 296.121 97.4018 296.12C99.7737 296.123 102.142 295.937 104.484 295.564C104.639 295.559 104.79 295.612 104.909 295.711C105.028 295.81 105.106 295.95 105.128 296.103C105.151 296.256 105.116 296.412 105.031 296.541C104.946 296.671 104.816 296.764 104.666 296.804C102.27 297.18 99.8485 297.37 97.4231 297.37H97.4125Z" fill="#545454"/>
<path d="M3.60602 265.033C3.45434 265.013 3.31506 264.939 3.21416 264.824C3.11326 264.709 3.05762 264.561 3.05762 264.408C3.05762 264.255 3.11326 264.107 3.21416 263.992C3.31506 263.877 3.45434 263.803 3.60602 263.783L32.5992 262.928L32.1826 251.177C32.1797 251.094 32.1932 251.012 32.2223 250.934C32.2513 250.857 32.2954 250.786 32.352 250.725C32.4085 250.665 32.4764 250.616 32.5519 250.582C32.6273 250.547 32.7087 250.528 32.7915 250.526C32.9561 250.525 33.1144 250.588 33.2338 250.702C33.3531 250.815 33.4242 250.97 33.4325 251.135L33.8811 263.516C33.8834 263.682 33.8222 263.842 33.7102 263.965C33.6536 264.024 33.5857 264.072 33.5105 264.105C33.4353 264.138 33.3543 264.155 33.2722 264.157L3.64875 265.033H3.60602Z" fill="#545454"/>
<path d="M54.1788 204.974C43.261 204.974 38.7101 199.632 38.5178 199.397C38.434 199.268 38.4005 199.112 38.4236 198.96C38.4468 198.808 38.5249 198.669 38.6433 198.57C38.7617 198.472 38.9121 198.42 39.0662 198.425C39.2202 198.429 39.3672 198.49 39.4793 198.596C39.4793 198.596 43.9768 203.863 54.51 203.724C65.5667 203.606 69.3271 199.515 69.3698 199.451C69.4789 199.326 69.633 199.25 69.7983 199.239C69.9636 199.228 70.1265 199.283 70.2512 199.392C70.3758 199.501 70.452 199.655 70.4631 199.821C70.4741 199.986 70.419 200.149 70.3099 200.273C70.1497 200.455 66.2077 204.824 54.5207 204.952L54.1788 204.974Z" fill="#545454"/>
<path d="M189.445 294.763C186.24 293.962 176.764 294.763 173.581 295.628C171.784 296.243 170.282 297.508 169.372 299.175L171.38 307.305C173.966 307.992 176.66 308.181 179.317 307.86C181.817 307.433 192.553 305.446 193.654 306.183C193.888 306.36 194.16 306.481 194.449 306.537C194.738 306.593 195.036 306.582 195.319 306.504C195.603 306.427 195.865 306.285 196.086 306.091C196.306 305.896 196.479 305.654 196.591 305.382C196.536 304.972 196.413 304.575 196.228 304.207H196.538C198.44 304.004 197.393 301.899 197.393 301.899L197.083 301.696C198.002 301.867 197.692 301.365 197.884 300.916C198.963 298.363 192.703 295.553 189.445 294.763Z" fill="#FF9580"/>
<path d="M320.544 230.42H221.578C217.006 230.42 213.299 233.625 213.299 237.503L190.331 299.805L141.393 308.351C140.015 308.351 167.566 308.693 186.977 308.939L186.891 309.163H302.426L328.823 237.524C328.823 233.593 325.116 230.42 320.544 230.42Z" fill="white"/>
<path d="M320.544 230.42H221.578C217.006 230.42 213.299 233.625 213.299 237.503L190.331 299.805L141.393 308.351C140.015 308.351 167.566 308.693 186.977 308.939L186.891 309.163H302.426L328.823 237.524C328.823 233.593 325.116 230.42 320.544 230.42Z" fill="#545454"/>
<path d="M270.196 277.341C275.405 273.03 276.133 265.313 271.822 260.104C267.511 254.895 259.794 254.167 254.585 258.477C249.376 262.788 248.648 270.505 252.959 275.714C257.269 280.923 264.987 281.651 270.196 277.341Z" fill="white"/>
<path d="M344.827 307.369H-1.15787C-3.40576 307.369 -5.22803 309.191 -5.22803 311.439V313.212C-5.22803 315.46 -3.40576 317.282 -1.15787 317.282H344.827C347.075 317.282 348.897 315.46 348.897 313.212V311.439C348.897 309.191 347.075 307.369 344.827 307.369Z" fill="#E09500"/>
<g opacity="0.14">
<path d="M332.648 286.868C332.648 286.868 324.999 275.117 327.221 265.855C328.396 260.963 332.349 257.587 335.864 254.296C340.265 250.173 341.579 247.812 341.825 241.595C341.755 238.927 342.315 236.281 343.459 233.871C344.752 231.563 347.422 229.801 350.018 230.367C351.174 230.712 352.207 231.381 352.993 232.296C353.779 233.211 354.285 234.332 354.452 235.527C354.748 237.927 354.447 240.364 353.576 242.62C352.053 247.578 349.505 252.16 346.098 256.07C342.893 259.542 337.626 262.009 335.415 266.197C330.373 275.78 332.648 286.868 332.648 286.868Z" fill="#F9BF7A"/>
</g>
<path d="M317.959 282.852L320.822 308.116C320.822 308.116 338.224 309.388 342.027 307.689L345.734 282.905L317.959 282.852Z" fill="#F9BF7A"/>
<path d="M317.147 299.934H317.04C315.366 299.894 313.774 299.202 312.604 298.004C311.435 296.806 310.78 295.198 310.78 293.524C310.816 291.857 311.5 290.27 312.687 289.1C313.874 287.929 315.47 287.266 317.137 287.253H317.233C318.775 287.464 320.189 288.229 321.209 289.405C322.229 290.582 322.785 292.09 322.775 293.647C322.764 295.204 322.187 296.704 321.152 297.867C320.116 299.03 318.693 299.776 317.147 299.966V299.934ZM317.147 289.934C316.192 289.937 315.276 290.315 314.597 290.986C313.918 291.658 313.529 292.569 313.515 293.524C313.55 294.456 313.942 295.34 314.609 295.992C315.276 296.645 316.169 297.016 317.102 297.03C318.035 297.044 318.938 296.699 319.624 296.066C320.31 295.434 320.728 294.562 320.79 293.631C320.797 293.154 320.71 292.68 320.534 292.237C320.358 291.793 320.096 291.389 319.764 291.047C319.432 290.704 319.035 290.431 318.597 290.242C318.159 290.053 317.688 289.952 317.211 289.945L317.147 289.934Z" fill="#F9BF7A"/>
<g opacity="0.14">
<path d="M346.792 264.712C344.869 263.911 342.519 265.15 340.852 266.432C339.186 267.714 338.502 270.449 340.008 271.902C340.64 272.387 341.397 272.681 342.19 272.749C342.983 272.817 343.779 272.657 344.484 272.287C345.345 271.963 346.112 271.432 346.718 270.741C347.324 270.049 347.749 269.219 347.956 268.323C348.277 266.507 347.668 265.086 346.792 264.712Z" fill="#F9BF7A"/>
</g>
<path d="M345.307 286.228H318.493C318.328 286.225 318.17 286.157 318.054 286.039C317.938 285.921 317.874 285.763 317.874 285.597C317.874 285.433 317.939 285.275 318.055 285.159C318.171 285.043 318.329 284.978 318.493 284.978H345.307C345.472 284.978 345.631 285.043 345.749 285.158C345.867 285.274 345.934 285.432 345.937 285.597C345.935 285.764 345.867 285.922 345.75 286.04C345.632 286.157 345.473 286.225 345.307 286.228Z" fill="#545454"/>
<path d="M342.263 306.151H320.48C320.391 306.163 320.301 306.155 320.215 306.129C320.129 306.103 320.05 306.059 319.983 306C319.915 305.941 319.861 305.868 319.824 305.786C319.787 305.704 319.768 305.616 319.768 305.526C319.768 305.436 319.787 305.348 319.824 305.266C319.861 305.184 319.915 305.112 319.983 305.052C320.05 304.993 320.129 304.949 320.215 304.923C320.301 304.897 320.391 304.89 320.48 304.901H342.263C342.414 304.921 342.553 304.995 342.654 305.11C342.755 305.225 342.811 305.373 342.811 305.526C342.811 305.679 342.755 305.827 342.654 305.942C342.553 306.057 342.414 306.131 342.263 306.151Z" fill="#545454"/>
<path d="M407.545 157.927H364.771C362.081 157.927 359.9 160.108 359.9 162.798V176.301C359.9 178.991 362.081 181.172 364.771 181.172H407.545C410.236 181.172 412.417 178.991 412.417 176.301V162.798C412.417 160.108 410.236 157.927 407.545 157.927Z" fill="#F9BF7A"/>
<path d="M383.349 167.232H368.499C368.169 167.229 367.852 167.096 367.619 166.862C367.385 166.629 367.252 166.312 367.25 165.982C367.25 165.65 367.381 165.332 367.616 165.098C367.85 164.863 368.168 164.732 368.499 164.732H383.349C383.512 164.732 383.674 164.764 383.825 164.827C383.976 164.89 384.113 164.982 384.229 165.098C384.344 165.215 384.435 165.353 384.496 165.504C384.558 165.656 384.589 165.818 384.588 165.982C384.588 166.311 384.458 166.628 384.225 166.862C383.993 167.096 383.678 167.229 383.349 167.232Z" fill="white"/>
<path d="M398.219 173.994H368.499C368.17 173.994 367.853 173.863 367.619 173.631C367.385 173.399 367.252 173.084 367.25 172.754C367.25 172.423 367.381 172.105 367.616 171.871C367.85 171.636 368.168 171.504 368.499 171.504H398.219C398.55 171.504 398.868 171.636 399.103 171.871C399.337 172.105 399.469 172.423 399.469 172.754C399.469 172.918 399.437 173.08 399.374 173.231C399.311 173.382 399.218 173.519 399.102 173.634C398.986 173.75 398.848 173.841 398.697 173.902C398.545 173.964 398.383 173.995 398.219 173.994Z" fill="white"/>
<path d="M403.71 123.635H363.778C361.636 123.635 359.9 125.371 359.9 127.513V146.699C359.9 148.841 361.636 150.577 363.778 150.577H403.71C405.852 150.577 407.588 148.841 407.588 146.699V127.513C407.588 125.371 405.852 123.635 403.71 123.635Z" fill="#588645"/>
<path d="M384.417 132H366.758C366.495 132 366.242 131.895 366.056 131.709C365.869 131.522 365.765 131.27 365.765 131.006C365.763 130.875 365.788 130.745 365.837 130.624C365.887 130.503 365.96 130.393 366.052 130.3C366.145 130.208 366.255 130.135 366.376 130.085C366.497 130.036 366.627 130.011 366.758 130.013H384.417C384.548 130.011 384.678 130.036 384.799 130.085C384.92 130.135 385.03 130.208 385.123 130.3C385.215 130.393 385.288 130.503 385.338 130.624C385.387 130.745 385.412 130.875 385.41 131.006C385.41 131.27 385.306 131.522 385.119 131.709C384.933 131.895 384.68 132 384.417 132Z" fill="white"/>
<path d="M396.275 137.351H366.758C366.495 137.351 366.242 137.247 366.056 137.06C365.869 136.874 365.765 136.621 365.765 136.358C365.763 136.227 365.788 136.097 365.837 135.976C365.887 135.855 365.96 135.745 366.052 135.652C366.145 135.56 366.255 135.487 366.376 135.437C366.497 135.388 366.627 135.363 366.758 135.364H396.275C396.405 135.364 396.535 135.39 396.655 135.44C396.776 135.49 396.885 135.563 396.977 135.655C397.07 135.748 397.143 135.857 397.193 135.978C397.243 136.098 397.268 136.228 397.268 136.358C397.268 136.488 397.243 136.618 397.193 136.738C397.143 136.859 397.07 136.968 396.977 137.06C396.885 137.153 396.776 137.226 396.655 137.276C396.535 137.326 396.405 137.351 396.275 137.351Z" fill="#545454"/>
<path d="M396.275 143.013H366.758C366.628 143.013 366.499 142.988 366.378 142.938C366.257 142.888 366.148 142.815 366.056 142.722C365.963 142.63 365.89 142.521 365.84 142.4C365.79 142.28 365.765 142.15 365.765 142.02C365.763 141.889 365.788 141.759 365.837 141.638C365.887 141.517 365.96 141.407 366.052 141.314C366.145 141.222 366.255 141.149 366.376 141.099C366.497 141.05 366.627 141.025 366.758 141.026H396.275C396.405 141.026 396.535 141.052 396.655 141.102C396.776 141.152 396.885 141.225 396.977 141.317C397.07 141.41 397.143 141.519 397.193 141.64C397.243 141.76 397.268 141.889 397.268 142.02C397.268 142.15 397.243 142.28 397.193 142.4C397.143 142.521 397.07 142.63 396.977 142.722C396.885 142.815 396.776 142.888 396.655 142.938C396.535 142.988 396.405 143.013 396.275 143.013Z" fill="#545454"/>
<path d="M183.847 56.9098H138.284C135.594 56.9098 133.413 59.0908 133.413 61.7812V75.2842C133.413 77.9746 135.594 80.1556 138.284 80.1556H183.847C186.537 80.1556 188.718 77.9746 188.718 75.2842V61.7812C188.718 59.0908 186.537 56.9098 183.847 56.9098Z" fill="#588645"/>
<path d="M159.639 66.204H142.013C141.849 66.2054 141.687 66.1744 141.535 66.1128C141.383 66.0511 141.246 65.9601 141.129 65.8448C141.013 65.7296 140.921 65.5925 140.858 65.4415C140.795 65.2905 140.763 65.1284 140.763 64.9648C140.763 64.6333 140.894 64.3154 141.129 64.081C141.363 63.8466 141.681 63.7149 142.013 63.7149H159.639C159.971 63.7149 160.289 63.8466 160.523 64.081C160.757 64.3154 160.889 64.6333 160.889 64.9648C160.886 65.2944 160.753 65.6096 160.519 65.8417C160.285 66.0738 159.969 66.204 159.639 66.204Z" fill="#545454"/>
<path d="M174.51 72.9235H142.013C141.849 72.925 141.687 72.8939 141.535 72.8323C141.383 72.7707 141.246 72.6796 141.129 72.5644C141.013 72.4492 140.921 72.3121 140.858 72.161C140.795 72.01 140.763 71.848 140.763 71.6843C140.763 71.3529 140.894 71.0349 141.129 70.8005C141.363 70.5661 141.681 70.4344 142.013 70.4344H174.51C174.841 70.4344 175.159 70.5661 175.394 70.8005C175.628 71.0349 175.76 71.3529 175.76 71.6843C175.76 71.848 175.727 72.01 175.664 72.161C175.601 72.3121 175.509 72.4492 175.393 72.5644C175.277 72.6796 175.139 72.7707 174.987 72.8323C174.836 72.8939 174.673 72.925 174.51 72.9235Z" fill="white"/>
<path d="M121.396 70.4772H83.8881C81.7464 70.4772 80.0103 72.2134 80.0103 74.3551V93.5414C80.0103 95.6831 81.7464 97.4193 83.8881 97.4193H121.396C123.537 97.4193 125.273 95.6831 125.273 93.5414V74.3551C125.273 72.2134 123.537 70.4772 121.396 70.4772Z" fill="#F9BF7A"/>
<path d="M102.102 78.8312H86.8578C86.5943 78.8312 86.3416 78.7265 86.1552 78.5402C85.9689 78.3539 85.8643 78.1012 85.8643 77.8377C85.8643 77.7072 85.8899 77.578 85.9399 77.4575C85.9898 77.3369 86.063 77.2274 86.1552 77.1352C86.2475 77.0429 86.357 76.9697 86.4776 76.9198C86.5981 76.8699 86.7273 76.8442 86.8578 76.8442H102.102C102.233 76.8427 102.363 76.8675 102.484 76.9169C102.605 76.9663 102.715 77.0394 102.808 77.132C102.9 77.2245 102.974 77.3346 103.023 77.4558C103.072 77.577 103.097 77.7068 103.096 77.8377C103.096 78.1012 102.991 78.3539 102.805 78.5402C102.618 78.7265 102.366 78.8312 102.102 78.8312Z" fill="white"/>
<path d="M114.003 84.183H86.8578C86.5943 84.183 86.3416 84.0783 86.1552 83.892C85.9689 83.7057 85.8643 83.453 85.8643 83.1895C85.8643 82.926 85.9689 82.6733 86.1552 82.487C86.3416 82.3007 86.5943 82.196 86.8578 82.196H114.003C114.266 82.196 114.519 82.3007 114.705 82.487C114.892 82.6733 114.996 82.926 114.996 83.1895C114.996 83.453 114.892 83.7057 114.705 83.892C114.519 84.0783 114.266 84.183 114.003 84.183Z" fill="#545454"/>
<path d="M114.003 89.8452H86.8578C86.5943 89.8452 86.3416 89.7405 86.1552 89.5542C85.9689 89.3679 85.8643 89.1152 85.8643 88.8517C85.8643 88.5882 85.9689 88.3355 86.1552 88.1492C86.3416 87.9629 86.5943 87.8582 86.8578 87.8582H114.003C114.266 87.8582 114.519 87.9629 114.705 88.1492C114.892 88.3355 114.996 88.5882 114.996 88.8517C114.996 89.1152 114.892 89.3679 114.705 89.5542C114.519 89.7405 114.266 89.8452 114.003 89.8452Z" fill="#545454"/>
<path d="M261.137 49.1862L251.801 53.7477L251.074 64.1101L259.685 69.9215L269.021 65.36L269.748 54.9976L261.137 49.1862Z" fill="#F9BF7A"/>
<path d="M354.206 3.51709L345.574 22.7996L366.31 18.7722L354.206 3.51709Z" fill="#588645"/>
<path d="M191.357 8.9547C191.357 10.3302 190.949 11.6748 190.185 12.8184C189.421 13.9621 188.335 14.8535 187.064 15.3798C185.793 15.9062 184.395 16.0439 183.046 15.7756C181.697 15.5072 180.458 14.8449 179.485 13.8723C178.513 12.8997 177.85 11.6605 177.582 10.3115C177.314 8.96242 177.451 7.56409 177.978 6.29332C178.504 5.02255 179.395 3.9364 180.539 3.17223C181.683 2.40806 183.027 2.00018 184.403 2.00018C186.247 2.00018 188.016 2.73289 189.32 4.03711C190.625 5.34134 191.357 7.11025 191.357 8.9547Z" fill="#588645"/>
<path d="M275.046 15.1616C274.88 15.1589 274.721 15.0916 274.604 14.974C274.486 14.8563 274.419 14.6976 274.416 14.5313V7.34177C274.416 7.17461 274.482 7.0143 274.601 6.89609C274.719 6.77789 274.879 6.71149 275.046 6.71149C275.213 6.71149 275.374 6.77789 275.492 6.89609C275.61 7.0143 275.677 7.17461 275.677 7.34177V14.5527C275.668 14.7152 275.599 14.8686 275.482 14.9817C275.365 15.0948 275.209 15.1591 275.046 15.1616Z" fill="#545454"/>
<path d="M379.449 295.906C379.366 295.907 379.283 295.892 379.206 295.861C379.129 295.83 379.059 295.783 379 295.725C378.941 295.666 378.895 295.596 378.864 295.519C378.833 295.441 378.817 295.359 378.819 295.276V288.065C378.807 287.976 378.815 287.885 378.841 287.8C378.867 287.714 378.911 287.635 378.97 287.567C379.029 287.5 379.102 287.446 379.184 287.409C379.265 287.372 379.354 287.353 379.444 287.353C379.533 287.353 379.622 287.372 379.704 287.409C379.785 287.446 379.858 287.5 379.917 287.567C379.977 287.635 380.021 287.714 380.047 287.8C380.073 287.885 380.08 287.976 380.069 288.065V295.276C380.07 295.358 380.055 295.44 380.025 295.516C379.994 295.592 379.949 295.662 379.891 295.721C379.833 295.779 379.765 295.826 379.689 295.858C379.613 295.89 379.531 295.906 379.449 295.906Z" fill="#545454"/>
<path d="M383.05 292.295H375.839C375.75 292.307 375.66 292.299 375.574 292.273C375.488 292.247 375.409 292.203 375.342 292.144C375.274 292.085 375.22 292.012 375.183 291.93C375.146 291.849 375.127 291.76 375.127 291.67C375.127 291.581 375.146 291.492 375.183 291.41C375.22 291.329 375.274 291.256 375.342 291.196C375.409 291.137 375.488 291.093 375.574 291.067C375.66 291.041 375.75 291.034 375.839 291.045H383.05C383.139 291.034 383.229 291.041 383.315 291.067C383.401 291.093 383.48 291.137 383.548 291.196C383.615 291.256 383.669 291.329 383.706 291.41C383.743 291.492 383.762 291.581 383.762 291.67C383.762 291.76 383.743 291.849 383.706 291.93C383.669 292.012 383.615 292.085 383.548 292.144C383.48 292.203 383.401 292.247 383.315 292.273C383.229 292.299 383.139 292.307 383.05 292.295Z" fill="#545454"/>
<path d="M405.526 84.4393C405.444 84.4407 405.362 84.4257 405.286 84.3952C405.209 84.3647 405.14 84.3193 405.081 84.2616C405.022 84.2039 404.976 84.1352 404.944 84.0593C404.912 83.9834 404.896 83.9019 404.896 83.8197V76.5981C404.916 76.4464 404.99 76.3071 405.105 76.2062C405.22 76.1053 405.368 76.0497 405.521 76.0497C405.674 76.0497 405.821 76.1053 405.936 76.2062C406.051 76.3071 406.126 76.4464 406.146 76.5981V83.8197C406.146 83.984 406.08 84.1416 405.964 84.2578C405.848 84.374 405.69 84.4393 405.526 84.4393Z" fill="#545454"/>
<path d="M409.126 80.8395H401.915C401.826 80.8511 401.736 80.8437 401.65 80.8176C401.564 80.7915 401.485 80.7474 401.418 80.6883C401.35 80.6291 401.296 80.5562 401.259 80.4746C401.222 80.3929 401.203 80.3042 401.203 80.2145C401.203 80.1248 401.222 80.0362 401.259 79.9545C401.296 79.8728 401.35 79.7999 401.418 79.7408C401.485 79.6816 401.564 79.6375 401.65 79.6115C401.736 79.5854 401.826 79.5779 401.915 79.5896H409.126C409.215 79.5779 409.306 79.5854 409.391 79.6115C409.477 79.6375 409.556 79.6816 409.624 79.7408C409.691 79.7999 409.745 79.8728 409.782 79.9545C409.819 80.0362 409.838 80.1248 409.838 80.2145C409.838 80.3042 409.819 80.3929 409.782 80.4746C409.745 80.5562 409.691 80.6291 409.624 80.6883C409.556 80.7474 409.477 80.7915 409.391 80.8176C409.306 80.8437 409.215 80.8511 409.126 80.8395Z" fill="#545454"/>
<g filter="url(#filter1_d_156_9578)">
<rect x="335" y="14" width="292" height="324" fill="#7FB74A"/>
</g>
<path d="M407.283 172.918V178H386.577V148.18H406.905V153.262H392.373V160.444H404.931V165.148H392.373V172.918H407.283ZM411.129 169.012V163.93H423.855V169.012H411.129ZM427.55 162.88C427.55 161.06 427.872 159.282 428.516 157.546C429.188 155.782 430.154 154.186 431.414 152.758C432.674 151.302 434.214 150.154 436.034 149.314C437.854 148.446 439.926 148.012 442.25 148.012C444.994 148.012 447.36 148.614 449.348 149.818C451.364 151.022 452.862 152.59 453.842 154.522L449.39 157.588C448.886 156.468 448.228 155.586 447.416 154.942C446.604 154.27 445.736 153.808 444.812 153.556C443.888 153.276 442.978 153.136 442.082 153.136C440.626 153.136 439.352 153.43 438.26 154.018C437.196 154.606 436.3 155.376 435.572 156.328C434.844 157.28 434.298 158.344 433.934 159.52C433.598 160.696 433.43 161.872 433.43 163.048C433.43 164.364 433.64 165.638 434.06 166.87C434.48 168.074 435.068 169.152 435.824 170.104C436.608 171.028 437.532 171.77 438.596 172.33C439.688 172.862 440.878 173.128 442.166 173.128C443.09 173.128 444.028 172.974 444.98 172.666C445.932 172.358 446.814 171.868 447.626 171.196C448.438 170.524 449.068 169.656 449.516 168.592L454.262 171.322C453.674 172.806 452.708 174.066 451.364 175.102C450.048 176.138 448.564 176.922 446.912 177.454C445.26 177.986 443.622 178.252 441.998 178.252C439.87 178.252 437.924 177.818 436.16 176.95C434.396 176.054 432.87 174.878 431.582 173.422C430.322 171.938 429.328 170.286 428.6 168.466C427.9 166.618 427.55 164.756 427.55 162.88ZM467.685 178.42C465.893 178.42 464.283 178.126 462.855 177.538C461.427 176.922 460.209 176.082 459.201 175.018C458.221 173.954 457.465 172.736 456.933 171.364C456.401 169.992 456.135 168.55 456.135 167.038C456.135 165.498 456.401 164.042 456.933 162.67C457.465 161.298 458.221 160.08 459.201 159.016C460.209 157.952 461.427 157.126 462.855 156.538C464.283 155.922 465.893 155.614 467.685 155.614C469.477 155.614 471.073 155.922 472.473 156.538C473.901 157.126 475.119 157.952 476.127 159.016C477.135 160.08 477.891 161.298 478.395 162.67C478.927 164.042 479.193 165.498 479.193 167.038C479.193 168.55 478.927 169.992 478.395 171.364C477.891 172.736 477.135 173.954 476.127 175.018C475.147 176.082 473.943 176.922 472.515 177.538C471.087 178.126 469.477 178.42 467.685 178.42ZM461.931 167.038C461.931 168.326 462.183 169.474 462.687 170.482C463.191 171.462 463.877 172.232 464.745 172.792C465.613 173.352 466.593 173.632 467.685 173.632C468.749 173.632 469.715 173.352 470.583 172.792C471.451 172.204 472.137 171.42 472.641 170.44C473.173 169.432 473.439 168.284 473.439 166.996C473.439 165.736 473.173 164.602 472.641 163.594C472.137 162.586 471.451 161.802 470.583 161.242C469.715 160.682 468.749 160.402 467.685 160.402C466.593 160.402 465.613 160.696 464.745 161.284C463.877 161.844 463.191 162.628 462.687 163.636C462.183 164.616 461.931 165.75 461.931 167.038ZM482.782 169.768V155.992H488.41V168.55C488.41 170.23 488.718 171.504 489.334 172.372C489.95 173.212 490.86 173.632 492.064 173.632C492.792 173.632 493.506 173.492 494.206 173.212C494.934 172.904 495.592 172.456 496.18 171.868C496.796 171.28 497.314 170.538 497.734 169.642V155.992H503.362V171.7C503.362 172.288 503.46 172.708 503.656 172.96C503.88 173.212 504.23 173.366 504.706 173.422V178C504.146 178.084 503.67 178.14 503.278 178.168C502.914 178.224 502.578 178.252 502.27 178.252C501.262 178.252 500.436 178.028 499.792 177.58C499.176 177.104 498.812 176.46 498.7 175.648L498.574 173.884C497.594 175.368 496.334 176.502 494.794 177.286C493.254 178.042 491.56 178.42 489.712 178.42C487.444 178.42 485.722 177.692 484.546 176.236C483.37 174.752 482.782 172.596 482.782 169.768ZM522.059 160.864C520.351 160.864 518.825 161.2 517.481 161.872C516.137 162.516 515.171 163.454 514.583 164.686V178H508.955V155.992H514.121V160.696C514.905 159.184 515.899 157.994 517.103 157.126C518.307 156.258 519.581 155.782 520.925 155.698C521.233 155.698 521.471 155.698 521.639 155.698C521.807 155.698 521.947 155.712 522.059 155.74V160.864ZM533.303 178.42C531.427 178.42 529.635 178.112 527.927 177.496C526.219 176.88 524.749 175.97 523.517 174.766L525.533 171.112C526.849 172.176 528.137 172.96 529.397 173.464C530.685 173.968 531.917 174.22 533.093 174.22C534.185 174.22 535.053 174.024 535.697 173.632C536.369 173.24 536.705 172.652 536.705 171.868C536.705 171.336 536.523 170.93 536.159 170.65C535.795 170.342 535.263 170.076 534.563 169.852C533.891 169.628 533.065 169.376 532.085 169.096C530.461 168.564 529.103 168.046 528.011 167.542C526.919 167.038 526.093 166.408 525.533 165.652C525.001 164.868 524.735 163.874 524.735 162.67C524.735 161.214 525.099 159.968 525.827 158.932C526.583 157.868 527.619 157.042 528.935 156.454C530.279 155.866 531.847 155.572 533.639 155.572C535.207 155.572 536.691 155.824 538.091 156.328C539.491 156.804 540.765 157.588 541.913 158.68L539.645 162.25C538.525 161.382 537.461 160.752 536.453 160.36C535.445 159.94 534.423 159.73 533.387 159.73C532.799 159.73 532.239 159.8 531.707 159.94C531.203 160.08 530.783 160.318 530.447 160.654C530.139 160.962 529.985 161.41 529.985 161.998C529.985 162.53 530.125 162.95 530.405 163.258C530.713 163.538 531.161 163.79 531.749 164.014C532.365 164.238 533.107 164.49 533.975 164.77C535.739 165.274 537.223 165.792 538.427 166.324C539.659 166.856 540.583 167.514 541.199 168.298C541.815 169.054 542.123 170.104 542.123 171.448C542.123 173.632 541.325 175.34 539.729 176.572C538.133 177.804 535.991 178.42 533.303 178.42ZM556.157 178.42C554.393 178.42 552.797 178.126 551.369 177.538C549.941 176.922 548.723 176.096 547.715 175.06C546.707 173.996 545.923 172.792 545.363 171.448C544.831 170.076 544.565 168.634 544.565 167.122C544.565 165.022 545.027 163.104 545.951 161.368C546.903 159.632 548.247 158.246 549.983 157.21C551.747 156.146 553.819 155.614 556.199 155.614C558.607 155.614 560.665 156.146 562.373 157.21C564.081 158.246 565.383 159.632 566.279 161.368C567.203 163.076 567.665 164.924 567.665 166.912C567.665 167.248 567.651 167.598 567.623 167.962C567.595 168.298 567.567 168.578 567.539 168.802H550.529C550.641 169.922 550.963 170.902 551.495 171.742C552.055 172.582 552.755 173.226 553.595 173.674C554.463 174.094 555.387 174.304 556.367 174.304C557.487 174.304 558.537 174.038 559.517 173.506C560.525 172.946 561.211 172.218 561.575 171.322L566.405 172.666C565.873 173.786 565.103 174.78 564.095 175.648C563.115 176.516 561.953 177.202 560.609 177.706C559.265 178.182 557.781 178.42 556.157 178.42ZM550.403 165.232H561.911C561.799 164.112 561.477 163.146 560.945 162.334C560.441 161.494 559.769 160.85 558.929 160.402C558.089 159.926 557.151 159.688 556.115 159.688C555.107 159.688 554.183 159.926 553.343 160.402C552.531 160.85 551.859 161.494 551.327 162.334C550.823 163.146 550.515 164.112 550.403 165.232ZM364.08 227V197.18H376.722C378.094 197.18 379.354 197.46 380.502 198.02C381.65 198.58 382.644 199.336 383.484 200.288C384.352 201.24 385.024 202.304 385.5 203.48C385.976 204.656 386.214 205.86 386.214 207.092C386.214 208.772 385.822 210.368 385.038 211.88C384.254 213.392 383.176 214.624 381.804 215.576C380.432 216.528 378.808 217.004 376.932 217.004H369.876V227H364.08ZM369.876 211.922H376.596C377.296 211.922 377.926 211.726 378.486 211.334C379.046 210.942 379.494 210.382 379.83 209.654C380.166 208.898 380.334 208.044 380.334 207.092C380.334 206.056 380.138 205.174 379.746 204.446C379.382 203.718 378.892 203.172 378.276 202.808C377.688 202.444 377.044 202.262 376.344 202.262H369.876V211.922ZM399.456 227.42C397.692 227.42 396.096 227.126 394.668 226.538C393.24 225.922 392.022 225.096 391.014 224.06C390.006 222.996 389.222 221.792 388.662 220.448C388.13 219.076 387.864 217.634 387.864 216.122C387.864 214.022 388.326 212.104 389.25 210.368C390.202 208.632 391.546 207.246 393.282 206.21C395.046 205.146 397.118 204.614 399.498 204.614C401.906 204.614 403.964 205.146 405.672 206.21C407.38 207.246 408.682 208.632 409.578 210.368C410.502 212.076 410.964 213.924 410.964 215.912C410.964 216.248 410.95 216.598 410.922 216.962C410.894 217.298 410.866 217.578 410.838 217.802H393.828C393.94 218.922 394.262 219.902 394.794 220.742C395.354 221.582 396.054 222.226 396.894 222.674C397.762 223.094 398.686 223.304 399.666 223.304C400.786 223.304 401.836 223.038 402.816 222.506C403.824 221.946 404.51 221.218 404.874 220.322L409.704 221.666C409.172 222.786 408.402 223.78 407.394 224.648C406.414 225.516 405.252 226.202 403.908 226.706C402.564 227.182 401.08 227.42 399.456 227.42ZM393.702 214.232H405.21C405.098 213.112 404.776 212.146 404.244 211.334C403.74 210.494 403.068 209.85 402.228 209.402C401.388 208.926 400.45 208.688 399.414 208.688C398.406 208.688 397.482 208.926 396.642 209.402C395.83 209.85 395.158 210.494 394.626 211.334C394.122 212.146 393.814 213.112 393.702 214.232ZM427.376 225.866C426.9 226.062 426.326 226.286 425.654 226.538C424.982 226.79 424.254 226.986 423.47 227.126C422.714 227.294 421.944 227.378 421.16 227.378C420.124 227.378 419.172 227.196 418.304 226.832C417.436 226.468 416.736 225.894 416.204 225.11C415.7 224.298 415.448 223.248 415.448 221.96V209.318H412.55V204.992H415.448V197.852H421.076V204.992H425.696V209.318H421.076V220.07C421.104 220.826 421.314 221.372 421.706 221.708C422.098 222.044 422.588 222.212 423.176 222.212C423.764 222.212 424.338 222.114 424.898 221.918C425.458 221.722 425.906 221.554 426.242 221.414L427.376 225.866ZM440.267 227.42C438.503 227.42 436.907 227.126 435.479 226.538C434.051 225.922 432.833 225.096 431.825 224.06C430.817 222.996 430.033 221.792 429.473 220.448C428.941 219.076 428.675 217.634 428.675 216.122C428.675 214.022 429.137 212.104 430.061 210.368C431.013 208.632 432.357 207.246 434.093 206.21C435.857 205.146 437.929 204.614 440.309 204.614C442.717 204.614 444.775 205.146 446.483 206.21C448.191 207.246 449.493 208.632 450.389 210.368C451.313 212.076 451.775 213.924 451.775 215.912C451.775 216.248 451.761 216.598 451.733 216.962C451.705 217.298 451.677 217.578 451.649 217.802H434.639C434.751 218.922 435.073 219.902 435.605 220.742C436.165 221.582 436.865 222.226 437.705 222.674C438.573 223.094 439.497 223.304 440.477 223.304C441.597 223.304 442.647 223.038 443.627 222.506C444.635 221.946 445.321 221.218 445.685 220.322L450.515 221.666C449.983 222.786 449.213 223.78 448.205 224.648C447.225 225.516 446.063 226.202 444.719 226.706C443.375 227.182 441.891 227.42 440.267 227.42ZM434.513 214.232H446.021C445.909 213.112 445.587 212.146 445.055 211.334C444.551 210.494 443.879 209.85 443.039 209.402C442.199 208.926 441.261 208.688 440.225 208.688C439.217 208.688 438.293 208.926 437.453 209.402C436.641 209.85 435.969 210.494 435.437 211.334C434.933 212.146 434.625 213.112 434.513 214.232ZM468.308 209.864C466.6 209.864 465.074 210.2 463.73 210.872C462.386 211.516 461.42 212.454 460.832 213.686V227H455.204V204.992H460.37V209.696C461.154 208.184 462.148 206.994 463.352 206.126C464.556 205.258 465.83 204.782 467.174 204.698C467.482 204.698 467.72 204.698 467.888 204.698C468.056 204.698 468.196 204.712 468.308 204.74V209.864ZM491.9 227H486.272V214.652C486.272 212.888 485.964 211.6 485.348 210.788C484.732 209.976 483.878 209.57 482.786 209.57C482.03 209.57 481.26 209.766 480.476 210.158C479.72 210.55 479.034 211.096 478.418 211.796C477.802 212.468 477.354 213.252 477.074 214.148V227H471.446V204.992H476.528V209.066C477.088 208.114 477.802 207.316 478.67 206.672C479.538 206 480.532 205.496 481.652 205.16C482.8 204.796 484.004 204.614 485.264 204.614C486.636 204.614 487.756 204.866 488.624 205.37C489.52 205.846 490.192 206.504 490.64 207.344C491.116 208.156 491.438 209.08 491.606 210.116C491.802 211.152 491.9 212.202 491.9 213.266V227ZM495.281 220.49C495.281 219.062 495.673 217.816 496.457 216.752C497.269 215.66 498.389 214.82 499.817 214.232C501.245 213.644 502.883 213.35 504.731 213.35C505.655 213.35 506.593 213.42 507.545 213.56C508.497 213.7 509.323 213.924 510.023 214.232V213.056C510.023 211.656 509.603 210.578 508.763 209.822C507.951 209.066 506.733 208.688 505.109 208.688C503.905 208.688 502.757 208.898 501.665 209.318C500.573 209.738 499.425 210.354 498.221 211.166L496.415 207.47C497.871 206.518 499.355 205.804 500.867 205.328C502.407 204.852 504.017 204.614 505.697 204.614C508.833 204.614 511.269 205.398 513.005 206.966C514.769 208.534 515.651 210.774 515.651 213.686V220.7C515.651 221.288 515.749 221.708 515.945 221.96C516.169 222.212 516.519 222.366 516.995 222.422V227C516.491 227.084 516.029 227.154 515.609 227.21C515.217 227.266 514.881 227.294 514.601 227.294C513.481 227.294 512.627 227.042 512.039 226.538C511.479 226.034 511.129 225.418 510.989 224.69L510.863 223.556C509.911 224.788 508.721 225.74 507.293 226.412C505.865 227.084 504.409 227.42 502.925 227.42C501.469 227.42 500.153 227.126 498.977 226.538C497.829 225.922 496.919 225.096 496.247 224.06C495.603 222.996 495.281 221.806 495.281 220.49ZM508.973 221.624C509.281 221.288 509.533 220.952 509.729 220.616C509.925 220.28 510.023 219.972 510.023 219.692V217.466C509.351 217.186 508.623 216.976 507.839 216.836C507.055 216.668 506.313 216.584 505.613 216.584C504.157 216.584 502.953 216.906 502.001 217.55C501.077 218.166 500.615 218.992 500.615 220.028C500.615 220.588 500.769 221.12 501.077 221.624C501.385 222.128 501.833 222.534 502.421 222.842C503.009 223.15 503.709 223.304 504.521 223.304C505.361 223.304 506.187 223.15 506.999 222.842C507.811 222.506 508.469 222.1 508.973 221.624ZM535.947 227L529.521 217.508L526.539 220.448V227H520.911V196.34H526.539V214.904L535.401 205.034H541.365L533.175 214.358L541.953 227H535.947ZM542.613 220.49C542.613 219.062 543.005 217.816 543.789 216.752C544.601 215.66 545.721 214.82 547.149 214.232C548.577 213.644 550.215 213.35 552.063 213.35C552.987 213.35 553.925 213.42 554.877 213.56C555.829 213.7 556.655 213.924 557.355 214.232V213.056C557.355 211.656 556.935 210.578 556.095 209.822C555.283 209.066 554.065 208.688 552.441 208.688C551.237 208.688 550.089 208.898 548.997 209.318C547.905 209.738 546.757 210.354 545.553 211.166L543.747 207.47C545.203 206.518 546.687 205.804 548.199 205.328C549.739 204.852 551.349 204.614 553.029 204.614C556.165 204.614 558.601 205.398 560.337 206.966C562.101 208.534 562.983 210.774 562.983 213.686V220.7C562.983 221.288 563.081 221.708 563.277 221.96C563.501 222.212 563.851 222.366 564.327 222.422V227C563.823 227.084 563.361 227.154 562.941 227.21C562.549 227.266 562.213 227.294 561.933 227.294C560.813 227.294 559.959 227.042 559.371 226.538C558.811 226.034 558.461 225.418 558.321 224.69L558.195 223.556C557.243 224.788 556.053 225.74 554.625 226.412C553.197 227.084 551.741 227.42 550.257 227.42C548.801 227.42 547.485 227.126 546.309 226.538C545.161 225.922 544.251 225.096 543.579 224.06C542.935 222.996 542.613 221.806 542.613 220.49ZM556.305 221.624C556.613 221.288 556.865 220.952 557.061 220.616C557.257 220.28 557.355 219.972 557.355 219.692V217.466C556.683 217.186 555.955 216.976 555.171 216.836C554.387 216.668 553.645 216.584 552.945 216.584C551.489 216.584 550.285 216.906 549.333 217.55C548.409 218.166 547.947 218.992 547.947 220.028C547.947 220.588 548.101 221.12 548.409 221.624C548.717 222.128 549.165 222.534 549.753 222.842C550.341 223.15 551.041 223.304 551.853 223.304C552.693 223.304 553.519 223.15 554.331 222.842C555.143 222.506 555.801 222.1 556.305 221.624ZM588.697 227H583.069V214.652C583.069 212.888 582.761 211.6 582.145 210.788C581.529 209.976 580.675 209.57 579.583 209.57C578.827 209.57 578.057 209.766 577.273 210.158C576.517 210.55 575.831 211.096 575.215 211.796C574.599 212.468 574.151 213.252 573.871 214.148V227H568.243V204.992H573.325V209.066C573.885 208.114 574.599 207.316 575.467 206.672C576.335 206 577.329 205.496 578.449 205.16C579.597 204.796 580.801 204.614 582.061 204.614C583.433 204.614 584.553 204.866 585.421 205.37C586.317 205.846 586.989 206.504 587.437 207.344C587.913 208.156 588.235 209.08 588.403 210.116C588.599 211.152 588.697 212.202 588.697 213.266V227Z" fill="white"/>
<path d="M468.066 91.2675C465.768 91.2675 463.563 90.3544 461.938 88.7291C460.313 87.1038 459.4 84.8994 459.4 82.6008V75.6675C459.4 75.2078 459.582 74.7669 459.907 74.4418C460.233 74.1168 460.673 73.9342 461.133 73.9342H462.866C463.326 73.9342 463.767 73.7515 464.092 73.4265C464.417 73.1014 464.6 72.6605 464.6 72.2008C464.6 71.7411 464.417 71.3002 464.092 70.9752C463.767 70.6501 463.326 70.4675 462.866 70.4675H461.133C459.754 70.4675 458.431 71.0154 457.456 71.9905C456.481 72.9657 455.933 74.2884 455.933 75.6675V82.6008C455.935 84.559 456.413 86.4875 457.325 88.2204C458.236 89.9534 459.555 91.4392 461.168 92.5502C462.717 93.9161 463.974 95.5818 464.861 97.4467C465.749 99.3116 466.25 101.337 466.333 103.401C466.333 106.619 467.611 109.705 469.887 111.98C472.162 114.256 475.248 115.534 478.466 115.534C481.684 115.534 484.771 114.256 487.046 111.98C489.321 109.705 490.6 106.619 490.6 103.401V101.425C492.234 101.003 493.658 99.9996 494.605 98.603C495.552 97.2063 495.957 95.5121 495.745 93.838C495.532 92.164 494.716 90.6249 493.45 89.5093C492.184 88.3938 490.554 87.7783 488.866 87.7783C487.179 87.7783 485.549 88.3938 484.283 89.5093C483.017 90.6249 482.201 92.164 481.988 93.838C481.776 95.5121 482.181 97.2063 483.128 98.603C484.075 99.9996 485.499 101.003 487.133 101.425V103.401C487.133 105.699 486.22 107.904 484.595 109.529C482.969 111.154 480.765 112.067 478.466 112.067C476.168 112.067 473.963 111.154 472.338 109.529C470.713 107.904 469.8 105.699 469.8 103.401C469.888 101.335 470.394 99.3075 471.287 97.4424C472.181 95.5773 473.444 93.913 475 92.5502C476.606 91.4353 477.918 89.9479 478.824 88.2151C479.729 86.4824 480.201 84.556 480.2 82.6008V75.6675C480.2 74.2884 479.652 72.9657 478.677 71.9905C477.702 71.0154 476.379 70.4675 475 70.4675H473.266C472.807 70.4675 472.366 70.6501 472.041 70.9752C471.716 71.3002 471.533 71.7411 471.533 72.2008C471.533 72.6605 471.716 73.1014 472.041 73.4265C472.366 73.7515 472.807 73.9342 473.266 73.9342H475C475.459 73.9342 475.9 74.1168 476.225 74.4418C476.55 74.7669 476.733 75.2078 476.733 75.6675V82.6008C476.733 83.739 476.509 84.8659 476.073 85.9174C475.638 86.9689 474.999 87.9243 474.195 88.7291C473.39 89.5339 472.435 90.1722 471.383 90.6078C470.332 91.0433 469.205 91.2675 468.066 91.2675ZM488.866 98.2008C487.947 98.2008 487.065 97.8356 486.415 97.1855C485.765 96.5353 485.4 95.6536 485.4 94.7342C485.4 93.8147 485.765 92.933 486.415 92.2829C487.065 91.6327 487.947 91.2675 488.866 91.2675C489.786 91.2675 490.668 91.6327 491.318 92.2829C491.968 92.933 492.333 93.8147 492.333 94.7342C492.333 95.6536 491.968 96.5353 491.318 97.1855C490.668 97.8356 489.786 98.2008 488.866 98.2008Z" fill="white"/>
</g>
</g>
<defs>
<filter id="filter0_d_156_9578" x="0" y="0" width="638" height="359" filterUnits="userSpaceOnUse" color-interpolation-filters="sRGB">
<feFlood flood-opacity="0" result="BackgroundImageFix"/>
<feColorMatrix in="SourceAlpha" type="matrix" values="0 0 0 0 0 0 0 0 0 0 0 0 0 0 0 0 0 0 127 0" result="hardAlpha"/>
<feOffset dy="4"/>
<feGaussianBlur stdDeviation="9"/>
<feComposite in2="hardAlpha" operator="out"/>
<feColorMatrix type="matrix" values="0 0 0 0 0 0 0 0 0 0 0 0 0 0 0 0 0 0 0.15 0"/>
<feBlend mode="normal" in2="BackgroundImageFix" result="effect1_dropShadow_156_9578"/>
<feBlend mode="normal" in="SourceGraphic" in2="effect1_dropShadow_156_9578" result="shape"/>
</filter>
<filter id="filter1_d_156_9578" x="314" y="1" width="318" height="350" filterUnits="userSpaceOnUse" color-interpolation-filters="sRGB">
<feFlood flood-opacity="0" result="BackgroundImageFix"/>
<feColorMatrix in="SourceAlpha" type="matrix" values="0 0 0 0 0 0 0 0 0 0 0 0 0 0 0 0 0 0 127 0" result="hardAlpha"/>
<feOffset dx="-8"/>
<feGaussianBlur stdDeviation="6.5"/>
<feComposite in2="hardAlpha" operator="out"/>
<feColorMatrix type="matrix" values="0 0 0 0 0 0 0 0 0 0 0 0 0 0 0 0 0 0 0.1 0"/>
<feBlend mode="normal" in2="BackgroundImageFix" result="effect1_dropShadow_156_9578"/>
<feBlend mode="normal" in="SourceGraphic" in2="effect1_dropShadow_156_9578" result="shape"/>
</filter>
<clipPath id="clip0_156_9578">
<rect x="18" y="14" width="602" height="323" rx="32" fill="white"/>
</clipPath>
</defs>
</svg>
