<svg width="52" height="52" viewBox="0 0 52 52" fill="none" xmlns="http://www.w3.org/2000/svg">
<path d="M19.0664 24.2675C16.7679 24.2675 14.5635 23.3544 12.9382 21.7291C11.3129 20.1038 10.3998 17.8994 10.3998 15.6009V8.66753C10.3998 8.20782 10.5824 7.76694 10.9075 7.44188C11.2325 7.11681 11.6734 6.9342 12.1331 6.9342H13.8664C14.3261 6.9342 14.767 6.75158 15.0921 6.42651C15.4172 6.10145 15.5998 5.66057 15.5998 5.20086C15.5998 4.74115 15.4172 4.30027 15.0921 3.97521C14.767 3.65015 14.3261 3.46753 13.8664 3.46753L12.1331 3.46753C10.754 3.46753 9.43134 4.01539 8.45615 4.99057C7.48096 5.96576 6.93311 7.2884 6.93311 8.66753L6.93311 15.6009C6.93533 17.5591 7.41284 19.4875 8.32462 21.2205C9.23641 22.9535 10.5552 24.4392 12.1678 25.5502C13.7171 26.9161 14.9735 28.5818 15.8613 30.4467C16.7491 32.3116 17.2498 34.3371 17.3331 36.4009C17.3331 39.6188 18.6114 42.705 20.8869 44.9804C23.1623 47.2559 26.2485 48.5342 29.4664 48.5342C32.6844 48.5342 35.7706 47.2559 38.046 44.9804C40.3214 42.705 41.5998 39.6188 41.5998 36.4009V34.4249C43.2337 34.003 44.6577 32.9997 45.6048 31.603C46.5519 30.2063 46.9571 28.5121 46.7445 26.8381C46.5319 25.164 45.716 23.6249 44.4498 22.5094C43.1836 21.3938 41.554 20.7784 39.8664 20.7784C38.1789 20.7784 36.5493 21.3938 35.2831 22.5094C34.0169 23.6249 33.201 25.164 32.9884 26.8381C32.7757 28.5121 33.1809 30.2063 34.1281 31.603C35.0752 32.9997 36.4992 34.003 38.1331 34.4249V36.4009C38.1331 38.6994 37.22 40.9038 35.5947 42.5291C33.9694 44.1544 31.765 45.0675 29.4664 45.0675C27.1679 45.0675 24.9635 44.1544 23.3382 42.5291C21.7129 40.9038 20.7998 38.6994 20.7998 36.4009C20.8875 34.3345 21.3936 32.3075 22.2874 30.4424C23.1812 28.5774 24.4441 26.9131 25.9998 25.5502C27.6059 24.4354 28.918 22.9479 29.8236 21.2152C30.7292 19.4824 31.2014 17.556 31.1998 15.6009V8.66753C31.1998 7.2884 30.6519 5.96576 29.6767 4.99057C28.7015 4.01539 27.3789 3.46753 25.9998 3.46753H24.2664C23.8067 3.46753 23.3658 3.65015 23.0408 3.97521C22.7157 4.30027 22.5331 4.74115 22.5331 5.20086C22.5331 5.66057 22.7157 6.10145 23.0408 6.42651C23.3658 6.75158 23.8067 6.9342 24.2664 6.9342H25.9998C26.4595 6.9342 26.9004 7.11681 27.2254 7.44188C27.5505 7.76694 27.7331 8.20782 27.7331 8.66753V15.6009C27.7331 16.739 27.5089 17.866 27.0734 18.9175C26.6379 19.9689 25.9995 20.9243 25.1947 21.7291C24.3899 22.5339 23.4345 23.1723 22.383 23.6078C21.3315 24.0434 20.2046 24.2675 19.0664 24.2675ZM39.8664 31.2009C38.947 31.2009 38.0653 30.8356 37.4151 30.1855C36.765 29.5354 36.3998 28.6536 36.3998 27.7342C36.3998 26.8148 36.765 25.933 37.4151 25.2829C38.0653 24.6328 38.947 24.2675 39.8664 24.2675C40.7859 24.2675 41.6676 24.6328 42.3177 25.2829C42.9679 25.933 43.3331 26.8148 43.3331 27.7342C43.3331 28.6536 42.9679 29.5354 42.3177 30.1855C41.6676 30.8356 40.7859 31.2009 39.8664 31.2009Z" fill="white"/>
</svg>
