<svg width="64" height="64" viewBox="0 0 64 64" fill="none" xmlns="http://www.w3.org/2000/svg">
<path d="M55.999 29.3334V24.0001H50.6657V18.6667C50.6615 17.2535 50.0982 15.8994 49.0989 14.9002C48.0996 13.9009 46.7455 13.3376 45.3324 13.3334H39.999V8.00006H34.6657V13.3334H29.3324V8.00006H23.999V13.3334H18.6657C17.2525 13.3376 15.8984 13.9009 14.8991 14.9002C13.8998 15.8994 13.3366 17.2535 13.3324 18.6667V24.0001H7.99902V29.3334H13.3324V34.6667H7.99902V40.0001H13.3324V45.3334C13.3366 46.7466 13.8998 48.1007 14.8991 49.1C15.8984 50.0992 17.2525 50.6625 18.6657 50.6667H23.999V56.0001H29.3324V50.6667H34.6657V56.0001H39.999V50.6667H45.3324C46.7455 50.6625 48.0996 50.0992 49.0989 49.1C50.0982 48.1007 50.6615 46.7466 50.6657 45.3334V40.0001H55.999V34.6667H50.6657V29.3334H55.999ZM45.3324 45.3334H18.6657V18.6667H45.3324V45.3334Z" fill="white"/>
<path d="M30.2951 21.3322H26.7084L21.3484 42.6655H24.0871L25.3244 37.6655H31.5004L32.7057 42.6655H35.5377L30.2951 21.3322ZM25.6844 35.5295L28.3991 23.8655H28.5217L31.1431 35.5295H25.6844ZM37.9831 21.3322H40.6497V42.6655H37.9831V21.3322Z" fill="white"/>
</svg>
