<svg width="83" height="83" viewBox="0 0 83 83" fill="none" xmlns="http://www.w3.org/2000/svg">
<path d="M30.4348 38.7282C26.7665 38.7282 23.2486 37.271 20.6547 34.6772C18.0609 32.0834 16.6037 28.5654 16.6037 24.8972V13.8323C16.6037 13.0987 16.8951 12.3951 17.4139 11.8763C17.9327 11.3576 18.6363 11.0661 19.3699 11.0661H22.1361C22.8698 11.0661 23.5734 10.7747 24.0921 10.2559C24.6109 9.73714 24.9023 9.03355 24.9023 8.2999C24.9023 7.56626 24.6109 6.86266 24.0921 6.3439C23.5734 5.82513 22.8698 5.53369 22.1361 5.53369L19.3699 5.53369C17.169 5.53369 15.0582 6.40801 13.5019 7.9643C11.9456 9.5206 11.0713 11.6314 11.0713 13.8323L11.0713 24.8972C11.0748 28.0223 11.8369 31.0998 13.292 33.8654C14.7471 36.6311 16.8518 39.0022 19.4252 40.7752C21.8978 42.9551 23.9029 45.6133 25.3197 48.5895C26.7365 51.5657 27.5355 54.7981 27.6685 58.0917C27.6685 63.2272 29.7086 68.1524 33.34 71.7837C36.9713 75.4151 41.8965 77.4552 47.032 77.4552C52.1675 77.4552 57.0927 75.4151 60.7241 71.7837C64.3554 68.1524 66.3955 63.2272 66.3955 58.0917V54.9382C69.0031 54.2649 71.2756 52.6637 72.7871 50.4348C74.2986 48.2058 74.9453 45.5021 74.6059 42.8305C74.2666 40.1589 72.9645 37.7027 70.9438 35.9224C68.923 34.1421 66.3224 33.1599 63.6293 33.1599C60.9362 33.1599 58.3355 34.1421 56.3148 35.9224C54.294 37.7027 52.992 40.1589 52.6526 42.8305C52.3133 45.5021 52.96 48.2058 54.4715 50.4348C55.9829 52.6637 58.2555 54.2649 60.8631 54.9382V58.0917C60.8631 61.7599 59.4059 65.2779 56.812 67.8717C54.2182 70.4655 50.7002 71.9227 47.032 71.9227C43.3638 71.9227 39.8458 70.4655 37.252 67.8717C34.6582 65.2779 33.201 61.7599 33.201 58.0917C33.341 54.7941 34.1486 51.5591 35.5751 48.5827C37.0015 45.6063 39.017 42.9502 41.4996 40.7752C44.0628 38.9961 46.1567 36.6222 47.602 33.857C49.0473 31.0917 49.8009 28.0173 49.7982 24.8972V13.8323C49.7982 11.6314 48.9239 9.5206 47.3676 7.9643C45.8113 6.40801 43.7005 5.53369 41.4996 5.53369H38.7334C37.9997 5.53369 37.2961 5.82513 36.7774 6.3439C36.2586 6.86266 35.9672 7.56626 35.9672 8.2999C35.9672 9.03355 36.2586 9.73714 36.7774 10.2559C37.2961 10.7747 37.9997 11.0661 38.7334 11.0661H41.4996C42.2332 11.0661 42.9368 11.3576 43.4556 11.8763C43.9744 12.3951 44.2658 13.0987 44.2658 13.8323V24.8972C44.2658 26.7135 43.9081 28.512 43.213 30.1901C42.5179 31.8681 41.4991 33.3929 40.2148 34.6772C38.9305 35.9615 37.4057 36.9803 35.7277 37.6754C34.0496 38.3705 32.2511 38.7282 30.4348 38.7282ZM63.6293 49.7931C62.162 49.7931 60.7548 49.2102 59.7173 48.1726C58.6797 47.1351 58.0969 45.7279 58.0969 44.2606C58.0969 42.7933 58.6797 41.3862 59.7173 40.3486C60.7548 39.3111 62.162 38.7282 63.6293 38.7282C65.0966 38.7282 66.5038 39.3111 67.5413 40.3486C68.5788 41.3862 69.1617 42.7933 69.1617 44.2606C69.1617 45.7279 68.5788 47.1351 67.5413 48.1726C66.5038 49.2102 65.0966 49.7931 63.6293 49.7931Z" fill="#03989E"/>
</svg>
