<svg width="92" height="91" viewBox="0 0 92 91" fill="none" xmlns="http://www.w3.org/2000/svg">
<path d="M33.8259 42.1891C29.8299 42.1891 25.9976 40.6017 23.172 37.776C20.3464 34.9504 18.759 31.1181 18.759 27.1221V15.0685C18.759 14.2693 19.0765 13.5028 19.6416 12.9377C20.2067 12.3726 20.9732 12.0551 21.7724 12.0551H24.7858C25.585 12.0551 26.3514 11.7376 26.9165 11.1725C27.4817 10.6074 27.7992 9.84092 27.7992 9.04172C27.7992 8.24251 27.4817 7.47604 26.9165 6.91092C26.3514 6.3458 25.585 6.02832 24.7858 6.02832L21.7724 6.02832C19.3748 6.02832 17.0754 6.98077 15.38 8.67613C13.6846 10.3715 12.7322 12.6709 12.7322 15.0685L12.7322 27.1221C12.7361 30.5264 13.5662 33.879 15.1513 36.8918C16.7365 39.9046 19.0292 42.4876 21.8326 44.419C24.5261 46.7936 26.7104 49.6894 28.2538 52.9316C29.7972 56.1737 30.6676 59.695 30.8125 63.2828C30.8125 68.8772 33.0349 74.2425 36.9908 78.1984C40.9466 82.1542 46.3119 84.3766 51.9063 84.3766C57.5007 84.3766 62.866 82.1542 66.8219 78.1984C70.7777 74.2425 73.0001 68.8772 73.0001 63.2828V59.8476C75.8407 59.1141 78.3163 57.3699 79.9628 54.9417C81.6094 52.5136 82.3139 49.5683 81.9442 46.6579C81.5745 43.7475 80.1561 41.0719 77.9548 39.1325C75.7535 37.1931 72.9204 36.1231 69.9867 36.1231C67.0529 36.1231 64.2199 37.1931 62.0186 39.1325C59.8173 41.0719 58.3988 43.7475 58.0292 46.6579C57.6595 49.5683 58.364 52.5136 60.0105 54.9417C61.6571 57.3699 64.1327 59.1141 66.9733 59.8476V63.2828C66.9733 67.2788 65.3859 71.1112 62.5603 73.9368C59.7347 76.7624 55.9023 78.3498 51.9063 78.3498C47.9103 78.3498 44.078 76.7624 41.2524 73.9368C38.4267 71.1112 36.8393 67.2788 36.8393 63.2828C36.9919 59.6905 37.8717 56.1665 39.4256 52.9241C40.9795 49.6817 43.1751 46.7883 45.8795 44.419C48.6718 42.4809 50.9528 39.8949 52.5272 36.8825C54.1017 33.8702 54.9226 30.5211 54.9197 27.1221V15.0685C54.9197 12.6709 53.9673 10.3715 52.2719 8.67613C50.5765 6.98077 48.2771 6.02832 45.8795 6.02832L42.8661 6.02832C42.0669 6.02832 41.3005 6.3458 40.7353 6.91092C40.1702 7.47604 39.8527 8.24251 39.8527 9.04172C39.8527 9.84092 40.1702 10.6074 40.7353 11.1725C41.3005 11.7376 42.0669 12.0551 42.8661 12.0551L45.8795 12.0551C46.6787 12.0551 47.4452 12.3726 48.0103 12.9377C48.5754 13.5028 48.8929 14.2693 48.8929 15.0685V27.1221C48.8929 29.1007 48.5032 31.06 47.746 32.888C46.9888 34.716 45.879 36.3769 44.4799 37.776C43.0808 39.1751 41.4198 40.285 39.5918 41.0422C37.7638 41.7993 35.8046 42.1891 33.8259 42.1891ZM69.9867 54.2426C68.3883 54.2426 66.8553 53.6077 65.7251 52.4774C64.5949 51.3472 63.9599 49.8143 63.9599 48.2159C63.9599 46.6174 64.5949 45.0845 65.7251 43.9543C66.8553 42.824 68.3883 42.1891 69.9867 42.1891C71.5851 42.1891 73.118 42.824 74.2483 43.9543C75.3785 45.0845 76.0135 46.6174 76.0135 48.2159C76.0135 49.8143 75.3785 51.3472 74.2483 52.4774C73.118 53.6077 71.5851 54.2426 69.9867 54.2426Z" fill="#7FB74A"/>
</svg>
