<svg width="85" height="84" viewBox="0 0 85 84" fill="none" xmlns="http://www.w3.org/2000/svg">
<path d="M14.8312 10.4358C10.97 10.4358 7.87402 13.5317 7.87402 17.393V52.1789C7.87402 54.0241 8.60701 55.7936 9.91174 57.0984C11.2165 58.4031 12.986 59.1361 14.8312 59.1361H42.6599V76.5291L53.0957 66.0933L63.5315 76.5291V59.1361H70.4887C72.3339 59.1361 74.1034 58.4031 75.4082 57.0984C76.7129 55.7936 77.4459 54.0241 77.4459 52.1789V17.393C77.4459 15.5478 76.7129 13.7782 75.4082 12.4735C74.1034 11.1688 72.3339 10.4358 70.4887 10.4358H14.8312ZM42.6599 17.393L53.0957 24.3502L63.5315 17.393V29.5681L73.9673 34.7859L63.5315 40.0038V52.1789L53.0957 45.2217L42.6599 52.1789V40.0038L32.2242 34.7859L42.6599 29.5681V17.393ZM14.8312 17.393H32.2242V24.3502H14.8312V17.393ZM14.8312 31.3073H25.267V38.2645H14.8312V31.3073ZM14.8312 45.2217H32.2242V52.1789H14.8312V45.2217Z" fill="#FFAA00"/>
</svg>
